#N canvas 1000 259 279 229 10;
#X obj 62 63 t b f b;
#X msg 101 88 0;
#X msg 62 88 1;
#X obj 39 127 spigot 1;
#X obj 62 21 inlet gui1;
#X obj 103 167 outlet gui2;
#X obj 155 21 inlet gui2;
#X obj 27 167 outlet gui1;
#X obj 155 52 t b f b;
#X msg 194 87 0;
#X msg 155 87 1;
#X obj 98 127 spigot 1;
#X text 24 199 Ben Baker-Smith - 2010;
#X connect 0 0 2 0;
#X connect 0 1 11 0;
#X connect 0 2 1 0;
#X connect 1 0 3 1;
#X connect 2 0 3 1;
#X connect 3 0 7 0;
#X connect 4 0 0 0;
#X connect 6 0 8 0;
#X connect 8 0 10 0;
#X connect 8 1 3 0;
#X connect 8 2 9 0;
#X connect 9 0 11 1;
#X connect 10 0 11 1;
#X connect 11 0 5 0;
