#N canvas 288 321 1280 677 10;
#N canvas 1074 479 930 668 sequencer 0;
#X obj 446 424 tgl 20 0 seq-playing set-play-seq Manual_Play/Stop 25
10 0 10 -4032 -1 -1 0 1;
#X floatatom 436 468 3 30 298 1 - set-bpm bpm, f 3;
#X text 459 467 BPM;
#X obj 14 332 metro;
#X obj 549 538 expr 60000/$i1/4;
#X obj 48 363 + 1;
#X obj 57 77 loadbang;
#N canvas 0 23 450 278 (subpatch) 0;
#X array arpeg 16 float 3;
#A 0 3.73333 5.86666 8.06666 9.99999 10.6 11 11 10.8667 10.2 9.59999
8.33333 6.93333 5.26666 4.26666 3.93333 0;
#X coords 0 12 16 0 240 180 2 0 0;
#X restore 179 290 graph;
#X msg 57 425 1, f 2;
#X obj 14 475 int;
#X obj 53 562 mtof;
#X msg 177 224 0;
#X obj 446 394 tgl 20 0 loop set-loop Loop_mode 25 10 0 10 -4032 -1
-1 0 1;
#X obj 237 179 * -1;
#X obj 237 201 + 1;
#X obj 176 201 spigot 0;
#N canvas 1071 193 1284 400 presets 0;
#X obj 203 63 inlet;
#X obj 63 227 s store-pst;
#X obj 63 63 r bang-pst;
#X msg 63 85 add;
#N canvas 1090 606 569 203 play-settings 0;
#X obj 80 146 outlet;
#X obj 256 146 outlet;
#X obj 265 7 inlet;
#X obj 80 106 pack s s f;
#X obj 80 16 inlet;
#X obj 256 107 pack s s f;
#X msg 108 61 symbol pst-play-seq;
#X obj 137 82 r seq-playing;
#X msg 284 62 symbol pst-loop;
#X obj 313 83 r loop;
#X obj 378 145 outlet;
#X obj 378 106 pack s s f;
#X msg 406 61 symbol pst-bpm;
#X obj 435 82 r bpm;
#X connect 2 0 6 0;
#X connect 2 0 8 0;
#X connect 2 0 12 0;
#X connect 3 0 0 0;
#X connect 4 0 3 0;
#X connect 4 0 5 0;
#X connect 4 0 11 0;
#X connect 5 0 1 0;
#X connect 6 0 3 1;
#X connect 7 0 3 2;
#X connect 8 0 5 1;
#X connect 9 0 5 2;
#X connect 11 0 10 0;
#X connect 12 0 11 1;
#X connect 13 0 11 2;
#X restore 63 142 pd play-settings;
#N canvas 1434 285 702 313 sequence 0;
#X obj 80 176 outlet;
#X obj 308 16 inlet;
#X obj 80 16 inlet;
#X obj 149 106 array get arpeg;
#X obj 378 145 outlet;
#X obj 378 106 pack s s f;
#X msg 406 61 symbol pst-octave;
#X obj 435 82 r octave;
#X msg 125 61 symbol pst-arpeg;
#X obj 80 105 pack s s;
#X obj 80 38 t a b;
#X obj 80 138 list append;
#X connect 1 0 8 0;
#X connect 1 0 6 0;
#X connect 2 0 5 0;
#X connect 2 0 10 0;
#X connect 3 0 11 1;
#X connect 5 0 4 0;
#X connect 6 0 5 1;
#X connect 7 0 5 2;
#X connect 8 0 9 1;
#X connect 9 0 11 0;
#X connect 10 0 9 0;
#X connect 10 1 3 0;
#X connect 11 0 0 0;
#X restore 166 142 pd sequence;
#N canvas 1435 359 833 195 random-trig-settings 0;
#X obj 80 146 outlet;
#X obj 265 7 inlet;
#X obj 80 106 pack s s f;
#X obj 80 16 inlet;
#X obj 252 142 outlet;
#X obj 252 103 pack s s f;
#X obj 434 141 outlet;
#X obj 434 102 pack s s f;
#X msg 280 58 symbol pst-min-trigger-time;
#X msg 462 57 symbol pst-max-trigger-time;
#X msg 108 61 symbol pst-random-trig;
#X obj 137 82 r random-trig;
#X obj 309 79 r min-trigger-time;
#X obj 491 78 r max-trigger-time;
#X connect 1 0 10 0;
#X connect 1 0 8 0;
#X connect 1 0 9 0;
#X connect 2 0 0 0;
#X connect 3 0 2 0;
#X connect 3 0 5 0;
#X connect 3 0 7 0;
#X connect 5 0 4 0;
#X connect 7 0 6 0;
#X connect 8 0 5 1;
#X connect 9 0 7 1;
#X connect 10 0 2 1;
#X connect 11 0 2 2;
#X connect 12 0 5 2;
#X connect 13 0 7 2;
#X restore 243 142 pd random-trig-settings;
#X connect 0 0 4 1;
#X connect 0 0 5 1;
#X connect 0 0 6 1;
#X connect 2 0 3 0;
#X connect 3 0 4 0;
#X connect 3 0 5 0;
#X connect 3 0 6 0;
#X connect 4 0 1 0;
#X connect 4 1 1 0;
#X connect 4 2 1 0;
#X connect 5 0 1 0;
#X connect 5 1 1 0;
#X connect 6 0 1 0;
#X connect 6 1 1 0;
#X connect 6 2 1 0;
#X restore 609 248 pd presets;
#N canvas 193 40 931 539 pst-routing 0;
#X obj 60 44 r pst;
#X obj 61 315 scale 0 1 0 1;
#X obj 61 269 r pst-morph;
#X obj 177 315 scale 0 1 0 1;
#X obj 326 315 scale 0 1 0 1;
#X obj 472 315 scale 0 1 0 1;
#X obj 578 315 scale 0 1 0 1;
#X obj 684 315 scale 0 1 0 1;
#X obj 187 382 scale 0 1 0 1;
#X obj 60 66 route 1 2;
#X obj 60 118 route pst-random-trig pst-min-trigger-time pst-max-trigger-time
pst-loop pst-play-seq pst-bpm pst-arpeg pst-octave;
#X obj 440 118 route pst-random-trig pst-min-trigger-time pst-max-trigger-time
pst-loop pst-play-seq pst-bpm pst-arpeg pst-octave;
#X obj 61 337 s set-random-trig;
#X obj 177 337 s set-min-trigger-time;
#X obj 326 337 s set-max-trigger-time;
#X obj 472 337 s set-loop;
#X obj 578 336 s set-play-seq;
#X obj 684 337 s set-bpm;
#X obj 187 404 s set-octave;
#N canvas 0 22 727 285 arpegs 0;
#X obj 390 70 inlet;
#X obj 537 70 inlet;
#N canvas 452 491 836 371 inter 0;
#X obj 55 149 until;
#X obj 55 171 i;
#X obj 85 172 + 1;
#X obj 55 127 t f b;
#X msg 92 149 0;
#X obj 117 24 hsl 128 15 0 1 0 0 empty empty empty -2 -8 0 10 -262144
-1 -1 0 1;
#X obj 55 253 expr $s3[$f1]*(1-$f2)+$s4[$f1]*$f2;
#X obj 55 193 t f f;
#X obj 114 44 t b f;
#X obj 208 154 inlet;
#X obj 272 159 inlet;
#X obj 332 157 inlet;
#X msg 332 179 set \$1;
#X obj 37 12 inlet;
#X obj 54 307 tabwrite;
#X obj 55 105 expr size("$s1");
#X text 121 316 aykutcaglayan.blogspot.com;
#X text 121 302 Bit of code for array interpolation by :;
#X connect 0 0 1 0;
#X connect 1 0 2 0;
#X connect 1 0 7 0;
#X connect 2 0 1 1;
#X connect 3 0 0 0;
#X connect 3 1 4 0;
#X connect 4 0 1 1;
#X connect 5 0 8 0;
#X connect 6 0 14 0;
#X connect 7 0 6 0;
#X connect 7 1 14 1;
#X connect 8 0 15 0;
#X connect 8 1 6 1;
#X connect 9 0 6 2;
#X connect 9 0 15 0;
#X connect 10 0 6 3;
#X connect 11 0 12 0;
#X connect 12 0 14 0;
#X connect 13 0 8 0;
#X connect 15 0 3 0;
#X restore 108 204 pd inter;
#X msg 153 171 symbol arpeg;
#X obj 108 72 inlet;
#X obj 197 72 loadbang;
#X text 166 207 Interpolate between two arrays;
#X text 449 144 Preset storage arrays;
#X msg 123 116 symbol pst-arpeg-1;
#X msg 138 144 symbol pst-arpeg-2;
#X obj 389 120 table pst-arpeg-1;
#X obj 537 120 table pst-arpeg-2;
#X obj 390 95 array set pst-arpeg-1;
#X obj 537 95 array set pst-arpeg-2;
#X connect 0 0 12 0;
#X connect 1 0 13 0;
#X connect 3 0 2 3;
#X connect 4 0 2 0;
#X connect 5 0 8 0;
#X connect 5 0 9 0;
#X connect 5 0 3 0;
#X connect 8 0 2 1;
#X connect 9 0 2 2;
#X restore 61 382 pd arpegs;
#X connect 0 0 9 0;
#X connect 1 0 12 0;
#X connect 2 0 1 0;
#X connect 2 0 3 0;
#X connect 2 0 4 0;
#X connect 2 0 5 0;
#X connect 2 0 6 0;
#X connect 2 0 7 0;
#X connect 2 0 8 0;
#X connect 2 0 19 0;
#X connect 3 0 13 0;
#X connect 4 0 14 0;
#X connect 5 0 15 0;
#X connect 6 0 16 0;
#X connect 7 0 17 0;
#X connect 8 0 18 0;
#X connect 9 0 10 0;
#X connect 9 1 11 0;
#X connect 10 0 1 3;
#X connect 10 1 3 3;
#X connect 10 2 4 3;
#X connect 10 3 5 3;
#X connect 10 4 6 3;
#X connect 10 5 7 3;
#X connect 10 6 19 1;
#X connect 10 7 8 3;
#X connect 11 0 1 4;
#X connect 11 1 3 4;
#X connect 11 2 4 4;
#X connect 11 3 5 4;
#X connect 11 4 6 4;
#X connect 11 5 7 4;
#X connect 11 6 19 2;
#X connect 11 7 8 4;
#X restore 609 268 pd pst-routing;
#X obj 53 534 expr $f1 + 12 * $f2;
#X obj 14 364 f;
#X obj 177 179 sel 15;
#X obj 419 290 vradio 15 1 0 11 octave set-octave empty 23 174 0 10
-66577 -4032 -33289 3;
#X obj 14 386 % 16;
#X obj 14 450 array get arpeg;
#X obj 14 587 s seq;
#X obj 179 470 hradio 15 1 0 16 empty empty empty 0 -8 0 10 -66577
-4032 -1 2;
#X msg 609 107 \; arpeg xticks 0 1 1;
#X obj 419 495 * -1;
#X obj 14 497 moses 1;
#N canvas 0 22 612 300 rambom-seq-trigger 0;
#X obj 75 142 metro 5000;
#X obj 75 210 + 1000;
#X obj 75 164 t b b;
#X obj 75 188 random 9000;
#X obj 75 25 inlet;
#X text 249 195 and picks a new "n" at the same time.;
#X text 249 180 Triggers a sequence every "n" milliseconds;
#X obj 228 33 r min-trigger-time;
#X obj 369 33 r max-trigger-time;
#X obj 154 188 s pst-play-seq;
#X connect 0 0 2 0;
#X connect 1 0 0 1;
#X connect 2 0 3 0;
#X connect 2 1 9 0;
#X connect 3 0 1 0;
#X connect 4 0 0 0;
#X connect 7 0 1 1;
#X connect 8 0 3 1;
#X restore 609 288 pd rambom-seq-trigger;
#X obj 419 517 + 11;
#X obj 446 290 tgl 20 0 random-trig set-random-trig Random_mode 25
10 0 10 -4032 -1 -1 1 1;
#X obj 609 310 sel 1;
#X msg 609 333 0;
#X obj 609 413 t f f;
#X text 739 149 Set array display properties;
#X msg 609 144 \; arpeg yticks 0 1 2;
#X msg 609 181 \; arpeg ylabel -0.25 0-rest 1-c 2-c# 3-d 4-d# 5-e 6-f
7-f# 8-g 9-g# 10-a 11-a# 12-b;
#X text 656 311 Random automatically deactivates loopmode;
#X floatatom 446 320 5 0 0 1 Rand_min_time set-min-trigger-time min-trigger-time
, f 5;
#X floatatom 446 347 5 0 0 1 Rand_max_time set-max-trigger-time max-trigger-time
, f 5;
#X floatatom 503 468 3 0 15000 1 - - -, f 3;
#X text 528 467 MS;
#X obj 470 538 bb_sync2gui;
#X obj 470 504 r bpm;
#X obj 470 565 expr 60000/$i1/4;
#X text 483 467 ==;
#X text 508 517 Syncing 2 GUI without creating a loop.;
#X obj 470 587 s set-bpm;
#X connect 0 0 3 0;
#X connect 3 0 19 0;
#X connect 4 0 3 1;
#X connect 4 0 41 0;
#X connect 5 0 19 1;
#X connect 6 0 8 0;
#X connect 6 0 26 0;
#X connect 6 0 36 0;
#X connect 6 0 16 0;
#X connect 6 0 37 0;
#X connect 8 0 23 1;
#X connect 9 0 28 0;
#X connect 10 0 24 0;
#X connect 11 0 0 0;
#X connect 12 0 34 0;
#X connect 13 0 14 0;
#X connect 14 0 15 1;
#X connect 15 0 11 0;
#X connect 18 0 10 0;
#X connect 19 0 5 0;
#X connect 19 0 22 0;
#X connect 20 0 15 0;
#X connect 21 0 27 0;
#X connect 22 0 23 0;
#X connect 22 0 25 0;
#X connect 22 0 20 0;
#X connect 23 0 9 0;
#X connect 27 0 30 0;
#X connect 28 0 24 0;
#X connect 28 1 18 0;
#X connect 30 0 18 1;
#X connect 31 0 29 0;
#X connect 31 0 32 0;
#X connect 32 0 33 0;
#X connect 33 0 12 0;
#X connect 34 0 13 0;
#X connect 34 1 0 0;
#X connect 41 0 43 1;
#X connect 43 0 45 0;
#X connect 43 1 4 0;
#X connect 44 0 43 0;
#X connect 45 0 48 0;
#X coords 0 -1 1 1 435 225 2 135 270;
#X restore 383 8 pd sequencer;
#X obj 7 339 waveform;
#X obj 13 45 vsl 40 150 0 1 0 0 MACRO_Expressivity empty MACRO_Expressivity
0 -9 1 12 -99865 -4032 -1 0 1;
#X msg 5 650 \; pd dsp 1;
#X obj 5 620 loadbang;
#X obj 600 651 dac~;
#X obj 430 621 catch~ 1-Osc;
#X obj 528 621 catch~ 2-Osc;
#X obj 626 621 catch~ 3-Osc;
#X obj 724 621 catch~ 4-Osc;
#X msg 77 649 \; pd dsp 0;
#X text 858 8 Implem preset;
#X text 858 63 Implem Macro;
#X text 858 35 Implem Random;
#N canvas 269 258 695 572 toneTelSeq 0;
#X msg 277 263 513;
#X msg 355 263 508;
#X msg 278 309 1255;
#X msg 355 308 3493;
#X obj 24 140 tgl 15 0 empty empty empty 17 7 0 10 -262144 -1 -1 0
1;
#X obj 24 209 == 1;
#X obj 81 210 == 0;
#X obj 24 234 sel 1;
#X obj 24 182 tgl 15 0 empty empty empty 17 7 0 10 -262144 -1 -1 0
1;
#X text 276 242 On;
#X text 353 241 Off;
#X obj 148 80 random 3;
#X obj 205 134 sel 1;
#X obj 295 135 sel 2;
#X text 373 134 Select mode randomly;
#X obj 148 134 sel 0;
#X text 373 168 1 - Busy;
#X text 373 185 2 - Call;
#X text 373 153 0 - No sound;
#X obj 24 162 metro 513;
#X obj 3 282 s seq;
#X text 199 264 Busy mode;
#X text 199 310 Call mode;
#X obj 148 15 tgl 20 0 empty empty Start 25 10 0 10 -20480 -1 -1 0
1;
#X obj 148 48 metro;
#X obj 24 84 onebang;
#X msg 24 115 0;
#X obj 81 234 sel 1;
#X msg 205 163 1;
#X msg 295 163 1;
#X obj 148 109 change;
#X obj 265 356 random 6;
#X obj 64 391 + 1;
#X obj 23 392 i;
#X obj 23 442 sel 1;
#X text 67 419 Count and stop the tone after reaching the maximum number
;
#X text 333 358 Randomly define the maximum number of tone;
#X msg 23 469 0;
#X obj 216 88 + 8000;
#X obj 216 64 random 2000;
#X obj 531 101 print Mode;
#X msg 355 216 0;
#X obj 23 418 == 5;
#X obj 205 192 t i b b b;
#X obj 295 190 t i b b b;
#X obj 265 375 + 4;
#X obj 80 265 Randomization;
#X obj 29 321 Randomization;
#X text 310 377 Minimum number of tones;
#X obj 471 254 r MACRO_Expressivity;
#X obj 471 285 scale 0 1 6 20;
#X connect 0 0 47 1;
#X connect 1 0 46 1;
#X connect 2 0 47 1;
#X connect 3 0 46 1;
#X connect 4 0 19 0;
#X connect 5 0 7 0;
#X connect 6 0 27 0;
#X connect 7 0 33 0;
#X connect 7 0 47 0;
#X connect 8 0 5 0;
#X connect 8 0 6 0;
#X connect 8 0 20 0;
#X connect 11 0 30 0;
#X connect 11 0 40 0;
#X connect 12 0 28 0;
#X connect 13 0 29 0;
#X connect 15 0 25 1;
#X connect 19 0 8 0;
#X connect 23 0 24 0;
#X connect 24 0 11 0;
#X connect 24 0 39 0;
#X connect 25 0 26 0;
#X connect 26 0 4 0;
#X connect 27 0 25 0;
#X connect 27 0 46 0;
#X connect 28 0 43 0;
#X connect 29 0 44 0;
#X connect 30 0 15 0;
#X connect 30 0 12 0;
#X connect 30 0 13 0;
#X connect 31 0 45 0;
#X connect 32 0 33 1;
#X connect 33 0 32 0;
#X connect 33 0 42 0;
#X connect 34 0 37 0;
#X connect 37 0 30 0;
#X connect 38 0 24 1;
#X connect 39 0 38 0;
#X connect 41 0 33 1;
#X connect 42 0 34 0;
#X connect 43 0 4 0;
#X connect 43 1 1 0;
#X connect 43 2 0 0;
#X connect 43 3 41 0;
#X connect 43 3 31 0;
#X connect 44 0 4 0;
#X connect 44 1 3 0;
#X connect 44 2 2 0;
#X connect 44 3 41 0;
#X connect 44 3 31 0;
#X connect 45 0 42 1;
#X connect 46 0 19 1;
#X connect 47 0 19 1;
#X connect 49 0 50 0;
#X connect 50 0 31 1;
#X coords 0 -1 1 1 70 40 1 142 0;
#X restore 295 8 pd toneTelSeq;
#N canvas 747 291 854 295 init 0;
#X text 261 25 Externals needed to run the patch: [scale];
#X text 261 39 >> declare library maxlib;
#X restore 295 51 pd init;
#N canvas 974 206 1205 288 store-pst 0;
#X obj 105 98 r store-pst;
#X obj 46 56 bng 15 250 50 0 empty empty SAVE 17 7 0 10 -262144 -1
-1;
#X obj 43 98 savepanel;
#X obj 62 167 s bang-pst;
#X obj 105 215 list trim;
#X obj 43 120 t s b b;
#X msg 43 187 write \$1;
#X msg 82 145 clear;
#X obj 215 55 hsl 115 15 0 1 0 0 pst-morph empty MORPH 0 8 0 10 -262144
-1 -1 11400 1;
#X obj 190 180 until;
#X msg 231 180 rewind;
#X obj 190 213 textfile;
#X obj 103 48 bng 15 250 50 0 empty empty OPEN_PRESET_1 17 7 0 10 -262144
-1 -1;
#X obj 190 129 openpanel;
#X msg 280 180 read \$1;
#X obj 190 151 t b b s;
#X obj 190 257 s pst;
#X obj 103 66 bng 15 250 50 0 empty empty OPEN_PRESET_2 17 7 0 10 -262144
-1 -1;
#X obj 190 98 t b b;
#X obj 231 98 t b b;
#X msg 306 213 2;
#X msg 276 213 1;
#X obj 190 235 prepend;
#X obj 43 241 qlist;
#X connect 0 0 4 0;
#X connect 1 0 2 0;
#X connect 2 0 5 0;
#X connect 4 0 23 0;
#X connect 5 0 6 0;
#X connect 5 1 3 0;
#X connect 5 2 7 0;
#X connect 6 0 23 0;
#X connect 7 0 23 0;
#X connect 9 0 11 0;
#X connect 10 0 11 0;
#X connect 11 0 22 0;
#X connect 11 1 9 1;
#X connect 12 0 18 0;
#X connect 13 0 15 0;
#X connect 14 0 11 0;
#X connect 15 0 9 0;
#X connect 15 1 10 0;
#X connect 15 2 14 0;
#X connect 17 0 19 0;
#X connect 18 0 13 0;
#X connect 18 1 21 0;
#X connect 19 0 13 0;
#X connect 19 1 20 0;
#X connect 20 0 22 1;
#X connect 21 0 22 1;
#X connect 22 0 16 0;
#X coords 0 -1 1 1 300 50 1 40 35;
#X restore 7 285 pd store-pst;
#X obj 6 359 FM_Osc 1;
#X obj 6 491 FM_Osc 3;
#X obj 616 359 FM_Osc 2;
#X obj 616 491 FM_Osc 4;
#X connect 4 0 3 0;
#X connect 6 0 5 0;
#X connect 6 0 5 1;
#X connect 7 0 5 0;
#X connect 7 0 5 1;
#X connect 8 0 5 0;
#X connect 8 0 5 1;
#X connect 9 0 5 0;
#X connect 9 0 5 1;
