#N canvas 592 557 1240 715 10;
#N canvas 814 149 822 739 sequencer 0;
#X obj 177 258 tgl 20 0 seq-playing pst-play-seq Play/Stop 25 10 0
10 -27631 -1 -1 0 1;
#X floatatom 424 470 3 30 298 1 - pst-bpm bpm, f 3;
#X text 445 470 BPM;
#X obj 14 332 metro;
#X obj 41 301 expr 60000/$i1/4;
#X obj 48 363 + 1;
#X obj 57 77 loadbang;
#N canvas 0 23 450 278 (subpatch) 0;
#X array arpeg 16 float 3;
#A 0 5.86667 0.133315 5.86664 0.133314 5.80007 0.133312 0.133302 0.0665908
0.333242 0.133235 5.8 9.4 6.66669 3.0666 6.13331 0.133181;
#X coords 0 12 16 0 240 180 2 0 0;
#X restore 179 290 graph;
#X msg 57 425 1, f 2;
#X obj 14 475 int;
#X obj 53 562 mtof;
#X msg 177 224 0;
#X obj 274 258 tgl 20 0 loop pst-loop Loop 25 10 0 10 -27631 -1 -1
0 1;
#X obj 237 179 * -1;
#X obj 237 201 + 1;
#X obj 176 201 spigot 0;
#N canvas 1087 297 1432 270 presets 0;
#X obj 203 63 inlet;
#X obj 63 227 s store-pst;
#X obj 63 63 r bang-pst;
#X msg 63 85 add;
#N canvas 1293 433 569 203 play-settings 0;
#X obj 80 146 outlet;
#X obj 256 146 outlet;
#X obj 265 7 inlet;
#X obj 80 106 pack s s f;
#X obj 80 16 inlet;
#X obj 256 107 pack s s f;
#X msg 108 61 symbol pst-play-seq;
#X obj 137 82 r seq-playing;
#X msg 284 62 symbol pst-loop;
#X obj 313 83 r loop;
#X obj 378 145 outlet;
#X obj 378 106 pack s s f;
#X msg 406 61 symbol pst-bpm;
#X obj 435 82 r bpm;
#X connect 2 0 6 0;
#X connect 2 0 8 0;
#X connect 2 0 12 0;
#X connect 3 0 0 0;
#X connect 4 0 3 0;
#X connect 4 0 5 0;
#X connect 4 0 11 0;
#X connect 5 0 1 0;
#X connect 6 0 3 1;
#X connect 7 0 3 2;
#X connect 8 0 5 1;
#X connect 9 0 5 2;
#X connect 11 0 10 0;
#X connect 12 0 11 1;
#X connect 13 0 11 2;
#X restore 63 142 pd play-settings;
#N canvas 1434 285 702 313 sequence 0;
#X obj 80 146 outlet;
#X obj 308 16 inlet;
#X obj 80 16 inlet;
#X obj 252 59 array get arpeg;
#X obj 80 106 pack s s l;
#X obj 80 38 t s b;
#X msg 108 61 symbol sequence;
#X obj 378 145 outlet;
#X obj 378 106 pack s s f;
#X msg 406 61 symbol pst-octave;
#X obj 435 82 r octave;
#X connect 1 0 6 0;
#X connect 1 0 9 0;
#X connect 2 0 5 0;
#X connect 2 0 8 0;
#X connect 3 0 4 2;
#X connect 4 0 0 0;
#X connect 5 0 4 0;
#X connect 5 1 3 0;
#X connect 6 0 4 1;
#X connect 8 0 7 0;
#X connect 9 0 8 1;
#X connect 10 0 8 2;
#X restore 166 142 pd sequence;
#X connect 0 0 4 1;
#X connect 0 0 5 1;
#X connect 2 0 3 0;
#X connect 3 0 4 0;
#X connect 3 0 5 0;
#X connect 4 0 1 0;
#X connect 4 1 1 0;
#X connect 4 2 1 0;
#X connect 5 0 1 0;
#X connect 5 1 1 0;
#X restore 478 248 pd presets;
#N canvas 747 413 931 539 pst-routing 0;
#X obj 60 44 r pst;
#X obj 61 315 scale 0 1 0 1;
#X obj 61 269 r pst-morph;
#X obj 177 315 scale 0 1 0 1;
#X obj 276 315 scale 0 1 0 1;
#X obj 382 315 scale 0 1 0 1;
#X obj 488 315 scale 0 1 0 1;
#X obj 594 315 scale 0 1 0 1;
#X obj 61 382 scale 0 1 0 1;
#X obj 187 382 scale 0 1 0 1;
#X obj 306 382 scale 0 1 0 1;
#X obj 432 382 scale 0 1 0 1;
#X obj 558 382 scale 0 1 0 1;
#X obj 679 381 scale 0 1 0 1;
#X obj 61 432 scale 0 1 0 1;
#X obj 187 432 scale 0 1 0 1;
#X obj 306 432 scale 0 1 0 1;
#X obj 432 432 scale 0 1 0 1;
#X obj 558 432 scale 0 1 0 1;
#X obj 679 431 scale 0 1 0 1;
#X obj 61 482 scale 0 1 0 1;
#X obj 157 482 scale 0 1 0 1;
#X obj 286 482 scale 0 1 0 1;
#X obj 402 482 scale 0 1 0 1;
#X obj 60 118 route \$1-pst-waveform \$1-pst-glide \$1-pst-FM_Osc1
\$1-pst-FM_Osc2 \$1-pst-FM_Osc3 \$1-pst-FM_Osc4 \$1-pst-PADSR_Dlay
\$1-pst-PADSR_Amp \$1-pst-PADSR_Atk \$1-pst-PADSR_Dcay \$1-pst-PADSR_Sus
\$1-pst-PADSR_Rel \$1-pst-FADSR_Dlay \$1-pst-FADSR_Amp \$1-pst-FADSR_Atk
\$1-pst-FADSR_Dcay \$1-pst-FADSR_Sus \$1-pst-FADSR_Rel \$1-pst-Vol
\$1-pst-AM_Waveform \$1-pst-AM_Depth \$1-pst-AM_Freq;
#X obj 61 337 s \$1-set-waveform;
#X obj 177 337 s \$1-set-glide;
#X obj 440 118 route \$1-pst-waveform \$1-pst-glide \$1-pst-FM_Osc1
\$1-pst-FM_Osc2 \$1-pst-FM_Osc3 \$1-pst-FM_Osc4 \$1-pst-PADSR_Dlay
\$1-pst-PADSR_Amp \$1-pst-PADSR_Atk \$1-pst-PADSR_Dcay \$1-pst-PADSR_Sus
\$1-pst-PADSR_Rel \$1-pst-FADSR_Dlay \$1-pst-FADSR_Amp \$1-pst-FADSR_Atk
\$1-pst-FADSR_Dcay \$1-pst-FADSR_Sus \$1-pst-FADSR_Rel \$1-pst-Vol
\$1-pst-AM_Waveform \$1-pst-AM_Depth \$1-pst-AM_Freq;
#X obj 276 337 s \$1-set-FM_Osc1;
#X obj 382 337 s \$1-set-FM_Osc2;
#X obj 488 336 s \$1-set-FM_Osc3;
#X obj 594 337 s \$1-set-FM_Osc4;
#X obj 61 404 s \$1-set-PADSR_Dlay;
#X obj 187 404 s \$1-set-PADSR_Amp;
#X obj 306 404 s \$1-set-PADSR_Atk;
#X obj 432 404 s \$1-set-PADSR_Dcay;
#X obj 558 404 s \$1-set-PADSR_Sus;
#X obj 679 404 s \$1-set-PADSR_Rel;
#X obj 61 454 s \$1-set-FADSR_Dlay;
#X obj 187 454 s \$1-set-FADSR_Amp;
#X obj 306 454 s \$1-set-FADSR_Atk;
#X obj 432 454 s \$1-set-FADSR_Dcay;
#X obj 558 454 s \$1-set-FADSR_Sus;
#X obj 679 454 s \$1-set-FADSR_Rel;
#X obj 61 504 s \$1-set-Vol;
#X obj 157 504 s \$1-set-AM_Waveform;
#X obj 286 504 s \$1-set-AM_Depth;
#X obj 402 504 s \$1-set-AM_Freq;
#X obj 60 66 route 1 2;
#X connect 0 0 48 0;
#X connect 1 0 25 0;
#X connect 2 0 1 0;
#X connect 2 0 3 0;
#X connect 2 0 4 0;
#X connect 2 0 5 0;
#X connect 2 0 6 0;
#X connect 2 0 7 0;
#X connect 2 0 8 0;
#X connect 2 0 9 0;
#X connect 2 0 10 0;
#X connect 2 0 11 0;
#X connect 2 0 12 0;
#X connect 2 0 13 0;
#X connect 2 0 14 0;
#X connect 2 0 15 0;
#X connect 2 0 16 0;
#X connect 2 0 17 0;
#X connect 2 0 18 0;
#X connect 2 0 19 0;
#X connect 2 0 20 0;
#X connect 2 0 21 0;
#X connect 2 0 22 0;
#X connect 2 0 23 0;
#X connect 3 0 26 0;
#X connect 4 0 28 0;
#X connect 5 0 29 0;
#X connect 6 0 30 0;
#X connect 7 0 31 0;
#X connect 8 0 32 0;
#X connect 9 0 33 0;
#X connect 10 0 34 0;
#X connect 11 0 35 0;
#X connect 12 0 36 0;
#X connect 13 0 37 0;
#X connect 14 0 38 0;
#X connect 15 0 39 0;
#X connect 16 0 40 0;
#X connect 17 0 41 0;
#X connect 18 0 42 0;
#X connect 19 0 43 0;
#X connect 20 0 44 0;
#X connect 21 0 45 0;
#X connect 22 0 46 0;
#X connect 23 0 47 0;
#X connect 24 0 1 3;
#X connect 24 1 3 3;
#X connect 24 2 4 3;
#X connect 24 3 5 3;
#X connect 24 4 6 3;
#X connect 24 5 7 3;
#X connect 24 6 8 3;
#X connect 24 7 9 3;
#X connect 24 8 10 3;
#X connect 24 9 11 3;
#X connect 24 10 12 3;
#X connect 24 11 13 3;
#X connect 24 12 14 3;
#X connect 24 13 15 3;
#X connect 24 14 16 3;
#X connect 24 15 17 3;
#X connect 24 16 18 3;
#X connect 24 17 19 3;
#X connect 24 18 20 3;
#X connect 24 19 21 3;
#X connect 24 20 22 3;
#X connect 24 21 23 3;
#X connect 27 0 1 4;
#X connect 27 1 3 4;
#X connect 27 2 4 4;
#X connect 27 3 5 4;
#X connect 27 4 6 4;
#X connect 27 5 7 4;
#X connect 27 6 8 4;
#X connect 27 7 9 4;
#X connect 27 8 10 4;
#X connect 27 9 11 4;
#X connect 27 10 12 4;
#X connect 27 11 13 4;
#X connect 27 12 14 4;
#X connect 27 13 15 4;
#X connect 27 14 16 4;
#X connect 27 15 17 4;
#X connect 27 16 18 4;
#X connect 27 17 19 4;
#X connect 27 18 20 4;
#X connect 27 19 21 4;
#X connect 27 20 22 4;
#X connect 27 21 23 4;
#X connect 48 0 24 0;
#X connect 48 1 27 0;
#X restore 478 268 pd pst-routing;
#X obj 53 534 expr $f1 + 12 * $f2;
#X obj 14 364 f;
#X obj 177 179 sel 15;
#X obj 419 290 vradio 15 1 0 11 octave pst-octave empty 0 -8 0 10 -262144
-1 -1 3;
#X obj 14 386 % 16;
#X msg 478 144 \; arpeg yticks 0 1 4;
#X obj 14 450 array get arpeg;
#X msg 478 181 \; arpeg ylabel -0.25 0 1 2 3 4 5 6 7 8 9 10 11 12;
#X obj 14 587 s seq;
#X obj 179 470 hradio 15 1 0 16 empty empty empty 0 -8 0 10 -66577
-4032 -1 6;
#X msg 478 107 \; arpeg xticks 0 1 1;
#X obj 41 276 r bpm;
#X obj 208 666 print;
#X obj 419 495 * -1;
#X obj 14 497 moses 1;
#N canvas 0 22 450 300 rambom-seq-trigger 0;
#X obj 132 68 metro 1000;
#X obj 132 112 + 1000;
#X obj 75 142 metro 5000;
#X obj 75 210 + 1000;
#X obj 75 164 t b b;
#X obj 154 188 s play-seq;
#X obj 132 90 random 9000;
#X obj 75 188 random 9000;
#X obj 75 25 inlet;
#X connect 0 0 6 0;
#X connect 1 0 2 1;
#X connect 2 0 4 0;
#X connect 3 0 0 1;
#X connect 4 0 7 0;
#X connect 4 1 5 0;
#X connect 6 0 1 0;
#X connect 7 0 3 0;
#X connect 8 0 2 0;
#X connect 8 0 0 0;
#X restore 478 288 pd rambom-seq-trigger;
#X obj 419 517 + 11;
#X text 478 347 0 = REST;
#X text 478 365 1-12 = C-#-D-#-E-F-#-G-#-A-#-B;
#X text 478 329 Notes :;
#X obj 340 258 tgl 20 0 random-trig pst-random-trig Rand_trig 25 10
0 10 -27631 -1 -1 0 1;
#X connect 0 0 3 0;
#X connect 3 0 19 0;
#X connect 4 0 3 1;
#X connect 5 0 19 1;
#X connect 6 0 8 0;
#X connect 6 0 28 0;
#X connect 6 0 23 0;
#X connect 6 0 25 0;
#X connect 6 0 16 0;
#X connect 8 0 24 1;
#X connect 9 0 32 0;
#X connect 10 0 26 0;
#X connect 11 0 0 0;
#X connect 12 0 13 0;
#X connect 13 0 14 0;
#X connect 14 0 15 1;
#X connect 15 0 11 0;
#X connect 18 0 10 0;
#X connect 19 0 5 0;
#X connect 19 0 22 0;
#X connect 20 0 15 0;
#X connect 21 0 31 0;
#X connect 22 0 24 0;
#X connect 22 0 27 0;
#X connect 22 0 20 0;
#X connect 24 0 9 0;
#X connect 29 0 4 0;
#X connect 31 0 34 0;
#X connect 32 0 26 0;
#X connect 32 1 18 0;
#X connect 34 0 18 1;
#X connect 34 0 30 0;
#X connect 38 0 33 0;
#X coords 0 -1 1 1 300 240 2 150 250;
#X restore 382 8 pd sequencer;
#X obj 7 339 waveform;
#X obj 13 45 vsl 40 150 0 1 0 0 MACRO_Expressivity empty MACRO_Expressivity
0 -9 1 12 -99865 -4032 -1 0 1;
#X msg 5 650 \; pd dsp 1;
#X obj 5 620 loadbang;
#X obj 600 651 dac~;
#X obj 430 621 catch~ 1-Osc;
#X obj 528 621 catch~ 2-Osc;
#X obj 626 621 catch~ 3-Osc;
#X obj 724 621 catch~ 4-Osc;
#X msg 77 649 \; pd dsp 0;
#X obj 157 33 tgl 15 0 empty empty empty 17 7 0 10 -262144 -1 -1 0
1;
#X obj 157 56 s 1-TrigOsc;
#X obj 157 100 s 2-TrigOsc;
#X obj 157 144 s 3-TrigOsc;
#X obj 157 188 s 4-TrigOsc;
#X text 688 8 Implem preset;
#X text 688 63 Implem Macro;
#X text 688 35 Implem Random;
#N canvas 269 258 695 572 toneTelSeq 0;
#X msg 277 263 513;
#X msg 355 263 508;
#X msg 278 309 1255;
#X msg 355 308 3493;
#X obj 24 140 tgl 15 0 empty empty empty 17 7 0 10 -262144 -1 -1 0
1;
#X obj 24 209 == 1;
#X obj 81 210 == 0;
#X obj 24 234 sel 1;
#X obj 24 182 tgl 15 0 empty empty empty 17 7 0 10 -262144 -1 -1 0
1;
#X text 276 242 On;
#X text 353 241 Off;
#X obj 148 80 random 3;
#X obj 205 134 sel 1;
#X obj 295 135 sel 2;
#X text 373 134 Select mode randomly;
#X obj 148 134 sel 0;
#X text 373 168 1 - Busy;
#X text 373 185 2 - Call;
#X text 373 153 0 - No sound;
#X obj 24 162 metro 513;
#X obj 3 282 s seq;
#X text 199 264 Busy mode;
#X text 199 310 Call mode;
#X obj 148 15 tgl 20 0 empty empty Start 25 10 0 10 -20480 -1 -1 0
1;
#X obj 148 48 metro;
#X obj 24 84 onebang;
#X msg 24 115 0;
#X obj 81 234 sel 1;
#X msg 205 163 1;
#X msg 295 163 1;
#X obj 148 109 change;
#X obj 265 356 random 6;
#X obj 64 391 + 1;
#X obj 23 392 i;
#X obj 23 442 sel 1;
#X text 67 419 Count and stop the tone after reaching the maximum number
;
#X text 333 358 Randomly define the maximum number of tone;
#X msg 23 469 0;
#X obj 216 88 + 8000;
#X obj 216 64 random 2000;
#X obj 531 101 print Mode;
#X msg 355 216 0;
#X obj 23 418 == 5;
#X obj 205 192 t i b b b;
#X obj 295 190 t i b b b;
#X obj 265 375 + 4;
#X obj 80 265 Randomization;
#X obj 29 321 Randomization;
#X text 310 377 Minimum number of tones;
#X obj 471 254 r MACRO_Expressivity;
#X obj 471 285 scale 0 1 6 20;
#X connect 0 0 47 1;
#X connect 1 0 46 1;
#X connect 2 0 47 1;
#X connect 3 0 46 1;
#X connect 4 0 19 0;
#X connect 5 0 7 0;
#X connect 6 0 27 0;
#X connect 7 0 33 0;
#X connect 7 0 47 0;
#X connect 8 0 5 0;
#X connect 8 0 6 0;
#X connect 8 0 20 0;
#X connect 11 0 30 0;
#X connect 11 0 40 0;
#X connect 12 0 28 0;
#X connect 13 0 29 0;
#X connect 15 0 25 1;
#X connect 19 0 8 0;
#X connect 23 0 24 0;
#X connect 24 0 11 0;
#X connect 24 0 39 0;
#X connect 25 0 26 0;
#X connect 26 0 4 0;
#X connect 27 0 25 0;
#X connect 27 0 46 0;
#X connect 28 0 43 0;
#X connect 29 0 44 0;
#X connect 30 0 15 0;
#X connect 30 0 12 0;
#X connect 30 0 13 0;
#X connect 31 0 45 0;
#X connect 32 0 33 1;
#X connect 33 0 32 0;
#X connect 33 0 42 0;
#X connect 34 0 37 0;
#X connect 37 0 30 0;
#X connect 38 0 24 1;
#X connect 39 0 38 0;
#X connect 41 0 33 1;
#X connect 42 0 34 0;
#X connect 43 0 4 0;
#X connect 43 1 1 0;
#X connect 43 2 0 0;
#X connect 43 3 41 0;
#X connect 43 3 31 0;
#X connect 44 0 4 0;
#X connect 44 1 3 0;
#X connect 44 2 2 0;
#X connect 44 3 41 0;
#X connect 44 3 31 0;
#X connect 45 0 42 1;
#X connect 46 0 19 1;
#X connect 47 0 19 1;
#X connect 49 0 50 0;
#X connect 50 0 31 1;
#X coords 0 -1 1 1 70 40 1 142 0;
#X restore 295 8 pd toneTelSeq;
#N canvas 747 291 854 295 init 0;
#X text 261 25 Externals needed to run the patch: [scale];
#X text 261 39 >> declare library maxlib;
#X restore 295 51 pd init;
#N canvas 974 206 1205 288 store-pst 0;
#X obj 105 98 r store-pst;
#X obj 46 56 bng 15 250 50 0 empty empty SAVE 17 7 0 10 -262144 -1
-1;
#X obj 43 98 savepanel;
#X obj 62 167 s bang-pst;
#X obj 105 215 list trim;
#X obj 43 120 t s b b;
#X msg 43 187 write \$1;
#X msg 82 145 clear;
#X obj 215 55 hsl 115 15 0 1 0 0 pst-morph empty MORPH 0 8 0 10 -262144
-1 -1 0 1;
#X obj 190 180 until;
#X msg 231 180 rewind;
#X obj 190 213 textfile;
#X obj 103 48 bng 15 250 50 0 empty empty OPEN_PRESET_1 17 7 0 10 -262144
-1 -1;
#X obj 190 129 openpanel;
#X msg 280 180 read \$1;
#X obj 190 151 t b b s;
#X obj 190 257 s pst;
#X obj 103 66 bng 15 250 50 0 empty empty OPEN_PRESET_2 17 7 0 10 -262144
-1 -1;
#X obj 190 98 t b b;
#X obj 231 98 t b b;
#X msg 306 213 2;
#X msg 276 213 1;
#X obj 190 235 prepend;
#X obj 43 241 qlist;
#X connect 0 0 4 0;
#X connect 1 0 2 0;
#X connect 2 0 5 0;
#X connect 4 0 23 0;
#X connect 5 0 6 0;
#X connect 5 1 3 0;
#X connect 5 2 7 0;
#X connect 6 0 23 0;
#X connect 7 0 23 0;
#X connect 9 0 11 0;
#X connect 10 0 11 0;
#X connect 11 0 22 0;
#X connect 11 1 9 1;
#X connect 12 0 18 0;
#X connect 13 0 15 0;
#X connect 14 0 11 0;
#X connect 15 0 9 0;
#X connect 15 1 10 0;
#X connect 15 2 14 0;
#X connect 17 0 19 0;
#X connect 18 0 13 0;
#X connect 18 1 21 0;
#X connect 19 0 13 0;
#X connect 19 1 20 0;
#X connect 20 0 22 1;
#X connect 21 0 22 1;
#X connect 22 0 16 0;
#X coords 0 -1 1 1 300 50 1 40 35;
#X restore 7 285 pd store-pst;
#X obj 6 359 FM_Osc 1;
#X obj 6 491 FM_Osc 3;
#X obj 616 359 FM_Osc 2;
#X obj 616 491 FM_Osc 4;
#X connect 4 0 3 0;
#X connect 6 0 5 0;
#X connect 6 0 5 1;
#X connect 7 0 5 0;
#X connect 7 0 5 1;
#X connect 8 0 5 0;
#X connect 8 0 5 1;
#X connect 9 0 5 0;
#X connect 9 0 5 1;
#X connect 11 0 12 0;
#X connect 11 0 13 0;
#X connect 11 0 15 0;
#X connect 11 0 14 0;
