#N canvas 880 435 354 185 10;
#X obj 92 40 inlet;
#X text 73 10 DRY/WET CONTROL;
#X text 0 59 DRY SIGNAL;
#X text 179 59 WET SIGNAL;
#X obj 270 40 loadbang;
#X msg 270 69 1;
#X obj 92 64 t b f;
#X obj 92 108 -;
#X obj 3 107 *~;
#X obj 181 108 *~;
#X obj 3 143 outlet~;
#X obj 3 40 inlet~;
#X obj 181 40 inlet~;
#X connect 0 0 6 0;
#X connect 0 0 9 1;
#X connect 4 0 5 0;
#X connect 5 0 7 0;
#X connect 6 0 7 0;
#X connect 6 1 7 1;
#X connect 7 0 8 1;
#X connect 8 0 10 0;
#X connect 9 0 10 0;
#X connect 11 0 8 0;
#X connect 12 0 9 0;
