#N canvas 353 387 741 583 10;
#X obj 23 300 phasor~;
#X obj 23 322 wavetable~;
#X obj 23 278 +~;
#X obj 105 -5 vradio 15 1 0 6 \$0-waveform \$1-set-waveform Waveform
0 -8 0 10 -262144 -1 -1 1;
#X text 123 -5 Sine;
#X text 123 10 Square;
#X text 122 57 Triangle;
#X text 123 71 Noise;
#X text 123 25 Saw;
#X text 123 41 Pulse;
#X obj 675 -17 vsl 20 100 0 1 0 0 \$0-Vol \$1-set-Vol Vol 0 -9 0 10
-128992 -1 -1 0 1;
#X obj 273 11 hsl 40 15 0 20000 0 0 \$0-FM_Osc2 \$1-set-FM_Osc2 FM_Osc2
-2 -8 0 10 -260097 -1 -1 0 1;
#X obj 273 40 hsl 40 15 0 20000 0 0 \$0-FM_Osc3 \$1-set-FM_Osc3 FM_Osc3
-2 -8 0 10 -260097 -1 -1 0 1;
#X obj 272 71 hsl 40 15 0 20000 0 0 \$0-FM_Osc4 \$1-set-FM_Osc4 FM_Osc4
-2 -8 0 10 -260097 -1 -1 0 1;
#X obj 23 466 *~ 0;
#X obj 338 -5 vradio 15 1 0 6 \$0-AM_Waveform \$1-set-AM_Waveform AM_Waveform
0 -8 0 10 -262144 -1 -1 1;
#X text 356 -5 Sine;
#X text 356 10 Square;
#X text 355 57 Triangle;
#X text 356 71 Noise;
#X text 356 25 Saw;
#X text 356 41 Pulse;
#X obj 421 27 hsl 40 15 0 20000 0 0 \$0-AM_Freq \$1-set-AM_Freq AM_Freq
-2 -8 0 10 -260875 -1 -1 0 1;
#X obj 421 -5 hsl 40 15 0 1 0 0 \$0-AM_Depth \$1-set-AM_Depth AM_Depth
-2 -8 0 10 -260875 -1 -1 0 1;
#X obj 23 377 *~;
#X obj 23 215 +~;
#X obj 477 -30 nbx 4 14 0 11880 0 0 \$0-PADSR_Dlay \$1-set-PADSR_Dlay
empty 0 -8 0 10 -36344 -1 -1 0 256;
#X obj 477 -14 nbx 4 14 0 1 0 0 \$0-PADSR_Amp \$1-set-PADSR_Amp empty
0 -8 0 10 -36344 -1 -1 0 256;
#X obj 476 22 nbx 4 14 0 11880 0 0 \$0-PADSR_Atk \$1-set-PADSR_Atk
empty 0 -8 0 10 -27631 -1 -1 0 256;
#X obj 476 38 nbx 4 14 0 11880 0 0 \$0-PADSR_Dcay \$1-set-PADSR_Dcay
empty 0 -8 0 10 -27631 -1 -1 0 256;
#X obj 476 54 nbx 4 14 0 1 0 0 \$0-PADSR_Sus \$1-set-PADSR_Sus empty
0 -8 0 10 -27631 -1 -1 0 256;
#X obj 476 70 nbx 4 14 0 11880 0 0 \$0-PADSR_Rel \$1-set-PADSR_Rel
empty 0 -8 0 10 -27631 -1 -1 0 256;
#X text 522 -30 Dlay;
#X text 522 21 Atk;
#X text 522 -14 Atk Amp;
#X text 522 38 Dcay;
#X text 522 54 Sus;
#X text 522 70 Rel;
#X text 474 4 AMP ENV;
#X obj 576 -29 nbx 4 14 0 11880 0 0 \$0-FADSR_Dlay \$1-set-FADSR_Dlay
empty 0 -8 0 10 -56448 -1 -1 0 256;
#X obj 576 -13 nbx 4 14 0 19980 0 0 \$0-FADSR_Amp \$1-set-FADSR_Amp
empty 0 -8 0 10 -56448 -1 -1 0 256;
#X obj 575 23 nbx 4 14 0 11880 0 0 \$0-FADSR_Atk \$1-set-FADSR_Atk
empty 0 -8 0 10 -51896 -1 -1 0 256;
#X obj 575 39 nbx 4 14 0 11880 0 0 \$0-FADSR_Dcay \$1-set-FADSR_Dcay
empty 0 -8 0 10 -51896 -1 -1 0 256;
#X obj 575 55 nbx 4 14 0 20000 0 0 \$0-FADSR_Sus \$1-set-FADSR_Sus
empty 0 -8 0 10 -51896 -1 -1 0 256;
#X obj 575 71 nbx 4 14 0 11880 0 0 \$0-FADSR_Rel \$1-set-FADSR_Rel
empty 0 -8 0 10 -51896 -1 -1 0 256;
#X text 621 -29 Dlay;
#X text 621 22 Atk;
#X text 621 -13 Atk Amp;
#X text 621 39 Dcay;
#X text 621 55 Sus;
#X text 621 71 Rel;
#X text 573 5 PITCH ENV;
#X obj 273 -19 hsl 40 15 0 20000 0 0 \$0-FM_Osc1 \$1-set-FM_Osc1 FM_Osc1
-2 -8 0 10 -260097 -1 -1 0 1;
#X obj 38 350 ADSR, f 18;
#X obj 23 438 *~;
#X obj 38 -35 loadbang;
#X obj 38 192 ADSR, f 18;
#X text 54 375 AMPLITUDE ENVELOPPE;
#X text 52 216 PITCH ENVELOPPE;
#X obj 675 133 line;
#X msg 675 111 \$1 100;
#X obj 23 507 throw~ \$1-Osc;
#X obj 118 507 s~ \$1-FMOsc;
#X obj 182 -6 nbx 7 14 0 20000 0 0 empty \$1-FreqOsc Pitch-freq 0 -8
0 10 -20480 -1 -1 0 256;
#X obj 23 164 line;
#X obj 184 27 hsl 40 15 0 2000 0 0 \$0-glide \$1-set-glide Glide -2
-8 0 10 -4032 -1 -1 0 1;
#X obj 23 141 pack f 0;
#N canvas 0 22 450 300 AmpModulation 0;
#X obj 238 83 phasor~;
#X obj 238 114 wavetable~;
#X obj 129 185 DryWet;
#X msg 129 115 1;
#X obj 188 114 line;
#X msg 188 83 \$1 100;
#X obj 129 207 outlet~;
#X obj 129 25 inlet;
#X obj 188 24 inlet;
#X obj 238 24 inlet;
#X obj 295 24 inlet;
#X connect 0 0 1 0;
#X connect 1 0 2 2;
#X connect 2 0 6 0;
#X connect 3 0 2 0;
#X connect 4 0 2 1;
#X connect 5 0 4 0;
#X connect 7 0 3 0;
#X connect 8 0 5 0;
#X connect 9 0 0 0;
#X connect 10 0 1 1;
#X restore 38 416 pd AmpModulation;
#N canvas 1450 503 450 300 FreqModulation 0;
#X obj 131 169 *~;
#X obj 241 169 *~;
#X obj 351 168 *~;
#X obj 241 190 +~;
#X obj 29 212 +~;
#X obj 29 169 *~;
#X obj 29 190 +~;
#X obj 366 116 line;
#X msg 366 94 \$1 100;
#X obj 256 116 line;
#X msg 256 94 \$1 100;
#X obj 146 116 line;
#X msg 146 94 \$1 100;
#X obj 44 116 line;
#X msg 44 94 \$1 100;
#X obj 29 143 r~ 1-FMOsc;
#X obj 131 143 r~ 2-FMOsc;
#X obj 241 143 r~ 3-FMOsc;
#X obj 351 143 r~ 4-FMOsc;
#X obj 44 66 inlet;
#X obj 146 66 inlet;
#X obj 256 66 inlet;
#X obj 366 66 inlet;
#X obj 29 236 outlet~;
#X connect 0 0 6 1;
#X connect 1 0 3 0;
#X connect 2 0 3 1;
#X connect 3 0 4 1;
#X connect 4 0 23 0;
#X connect 5 0 6 0;
#X connect 6 0 4 0;
#X connect 7 0 2 1;
#X connect 8 0 7 0;
#X connect 9 0 1 1;
#X connect 10 0 9 0;
#X connect 11 0 0 1;
#X connect 12 0 11 0;
#X connect 13 0 5 1;
#X connect 14 0 13 0;
#X connect 15 0 5 0;
#X connect 16 0 0 0;
#X connect 17 0 1 0;
#X connect 18 0 2 0;
#X connect 19 0 14 0;
#X connect 20 0 12 0;
#X connect 21 0 10 0;
#X connect 22 0 8 0;
#X restore 38 251 pd FreqModulation;
#X text 51 440 AM;
#X text 49 277 FM;
#N canvas 1087 297 1432 270 presets 0;
#N canvas 1293 433 490 200 picth-pst 0;
#X obj 137 82 r \$0-waveform;
#X obj 80 146 outlet;
#X obj 256 146 outlet;
#X obj 265 7 inlet;
#X obj 80 106 pack s s f;
#X obj 80 16 inlet;
#X obj 256 107 pack s s f;
#X obj 313 83 r \$0-glide;
#X msg 108 61 symbol \$1-pst-waveform;
#X msg 284 62 symbol \$1-pst-glide;
#X connect 0 0 4 2;
#X connect 3 0 8 0;
#X connect 3 0 9 0;
#X connect 4 0 1 0;
#X connect 5 0 4 0;
#X connect 5 0 6 0;
#X connect 6 0 2 0;
#X connect 7 0 6 2;
#X connect 8 0 4 1;
#X connect 9 0 6 1;
#X restore 63 142 pd picth-pst;
#N canvas 1227 341 698 224 AM-pst 0;
#X obj 80 146 outlet;
#X obj 246 146 outlet;
#X obj 308 16 inlet;
#X obj 80 106 pack s s f;
#X obj 80 16 inlet;
#X obj 246 107 pack s s f;
#X obj 396 146 outlet;
#X obj 396 107 pack s s f;
#X obj 137 82 r \$0-AM_Waveform;
#X obj 303 83 r \$0-AM_Depth;
#X obj 453 83 r \$0-AM_Freq;
#X msg 108 61 symbol \$1-pst-AM_Waveform;
#X msg 274 62 symbol \$1-pst-AM_Depth;
#X msg 424 62 symbol \$1-pst-AM_Freq;
#X connect 2 0 11 0;
#X connect 2 0 12 0;
#X connect 2 0 13 0;
#X connect 3 0 0 0;
#X connect 4 0 3 0;
#X connect 4 0 5 0;
#X connect 4 0 7 0;
#X connect 5 0 1 0;
#X connect 7 0 6 0;
#X connect 8 0 3 2;
#X connect 9 0 5 2;
#X connect 10 0 7 2;
#X connect 11 0 3 1;
#X connect 12 0 5 1;
#X connect 13 0 7 1;
#X restore 256 142 pd AM-pst;
#N canvas 530 262 1350 478 Pitch-ADSR-pst 0;
#X obj 63 158 outlet;
#X obj 249 158 outlet;
#X obj 331 28 inlet;
#X obj 63 118 pack s s f;
#X obj 63 28 inlet;
#X obj 249 119 pack s s f;
#X obj 439 158 outlet;
#X obj 439 119 pack s s f;
#X obj 609 158 outlet;
#X obj 609 119 pack s s f;
#X obj 809 158 outlet;
#X obj 809 119 pack s s f;
#X obj 989 158 outlet;
#X obj 989 119 pack s s f;
#X obj 120 94 r \$0-PADSR_Dlay;
#X obj 306 95 r \$0-PADSR_Amp;
#X obj 496 95 r \$0-PADSR_Atk;
#X obj 666 95 r \$0-PADSR_Dcay;
#X obj 866 95 r \$0-PADSR_Sus;
#X obj 1046 95 r \$0-PADSR_Rel;
#X msg 91 73 symbol \$1-pst-PADSR_Dlay;
#X msg 277 74 symbol \$1-pst-PADSR_Amp;
#X msg 467 74 symbol \$1-pst-PADSR_Atk;
#X msg 637 74 symbol \$1-pst-PADSR_Dcay;
#X msg 837 74 symbol \$1-pst-PADSR_Sus;
#X msg 1017 74 symbol \$1-pst-PADSR_Rel;
#X connect 2 0 20 0;
#X connect 2 0 21 0;
#X connect 2 0 22 0;
#X connect 2 0 23 0;
#X connect 2 0 24 0;
#X connect 2 0 25 0;
#X connect 3 0 0 0;
#X connect 4 0 3 0;
#X connect 4 0 5 0;
#X connect 4 0 7 0;
#X connect 4 0 9 0;
#X connect 4 0 11 0;
#X connect 4 0 13 0;
#X connect 5 0 1 0;
#X connect 7 0 6 0;
#X connect 9 0 8 0;
#X connect 11 0 10 0;
#X connect 13 0 12 0;
#X connect 14 0 3 2;
#X connect 15 0 5 2;
#X connect 16 0 7 2;
#X connect 17 0 9 2;
#X connect 18 0 11 2;
#X connect 19 0 13 2;
#X connect 20 0 3 1;
#X connect 21 0 5 1;
#X connect 22 0 7 1;
#X connect 23 0 9 1;
#X connect 24 0 11 1;
#X connect 25 0 13 1;
#X restore 338 143 pd Pitch-ADSR-pst;
#N canvas 0 22 1218 253 Filter-ADSR-pst 0;
#X obj 63 158 outlet;
#X obj 249 158 outlet;
#X obj 331 28 inlet;
#X obj 63 118 pack s s f;
#X obj 63 28 inlet;
#X obj 249 119 pack s s f;
#X obj 439 158 outlet;
#X obj 439 119 pack s s f;
#X obj 609 158 outlet;
#X obj 609 119 pack s s f;
#X obj 809 158 outlet;
#X obj 809 119 pack s s f;
#X obj 989 158 outlet;
#X obj 989 119 pack s s f;
#X obj 120 94 r \$0-FADSR_Dlay;
#X obj 306 95 r \$0-FADSR_Amp;
#X obj 496 95 r \$0-FADSR_Atk;
#X obj 666 95 r \$0-FADSR_Dcay;
#X obj 866 95 r \$0-FADSR_Sus;
#X obj 1046 95 r \$0-FADSR_Rel;
#X msg 91 73 symbol \$1-pst-FADSR_Dlay;
#X msg 278 74 symbol \$1-pst-FADSR_Amp;
#X msg 467 74 symbol \$1-pst-FADSR_Atk;
#X msg 637 74 symbol \$1-pst-FADSR_Dcay;
#X msg 837 74 symbol \$1-pst-FADSR_Sus;
#X msg 1017 74 symbol \$1-pst-FADSR_Rel;
#X connect 2 0 20 0;
#X connect 2 0 21 0;
#X connect 2 0 22 0;
#X connect 2 0 23 0;
#X connect 2 0 24 0;
#X connect 2 0 25 0;
#X connect 3 0 0 0;
#X connect 4 0 3 0;
#X connect 4 0 5 0;
#X connect 4 0 7 0;
#X connect 4 0 9 0;
#X connect 4 0 11 0;
#X connect 4 0 13 0;
#X connect 5 0 1 0;
#X connect 7 0 6 0;
#X connect 9 0 8 0;
#X connect 11 0 10 0;
#X connect 13 0 12 0;
#X connect 14 0 3 2;
#X connect 15 0 5 2;
#X connect 16 0 7 2;
#X connect 17 0 9 2;
#X connect 18 0 11 2;
#X connect 19 0 13 2;
#X connect 20 0 3 1;
#X connect 21 0 5 1;
#X connect 22 0 7 1;
#X connect 23 0 9 1;
#X connect 24 0 11 1;
#X connect 25 0 13 1;
#X restore 453 143 pd Filter-ADSR-pst;
#X obj 203 63 inlet;
#X obj 63 227 s store-pst;
#X obj 63 63 r bang-pst;
#X msg 63 85 add;
#N canvas 1434 285 702 313 FM-pst 0;
#X obj 80 146 outlet;
#X obj 226 146 outlet;
#X obj 308 16 inlet;
#X obj 80 106 pack s s f;
#X obj 80 16 inlet;
#X obj 226 107 pack s s f;
#X obj 366 146 outlet;
#X obj 366 107 pack s s f;
#X obj 506 146 outlet;
#X obj 506 107 pack s s f;
#X obj 137 82 r \$0-FM_Osc1;
#X obj 283 83 r \$0-FM_Osc2;
#X obj 423 83 r \$0-FM_Osc3;
#X obj 563 83 r \$0-FM_Osc4;
#X msg 108 61 symbol \$1-pst-FM_Osc1;
#X msg 254 62 symbol \$1-pst-FM_Osc2;
#X msg 394 62 symbol \$1-pst-FM_Osc3;
#X msg 534 62 symbol \$1-pst-FM_Osc4;
#X connect 2 0 14 0;
#X connect 2 0 15 0;
#X connect 2 0 16 0;
#X connect 2 0 17 0;
#X connect 3 0 0 0;
#X connect 4 0 3 0;
#X connect 4 0 5 0;
#X connect 4 0 7 0;
#X connect 4 0 9 0;
#X connect 5 0 1 0;
#X connect 7 0 6 0;
#X connect 9 0 8 0;
#X connect 10 0 3 2;
#X connect 11 0 5 2;
#X connect 12 0 7 2;
#X connect 13 0 9 2;
#X connect 14 0 3 1;
#X connect 15 0 5 1;
#X connect 16 0 7 1;
#X connect 17 0 9 1;
#X restore 166 142 pd FM-pst;
#N canvas 1293 433 490 200 vol-pst 0;
#X obj 80 146 outlet;
#X obj 108 37 inlet;
#X obj 80 106 pack s s f;
#X obj 80 16 inlet;
#X obj 137 82 r \$0-Vol;
#X msg 108 61 symbol \$1-pst-Vol;
#X connect 1 0 5 0;
#X connect 2 0 0 0;
#X connect 3 0 2 0;
#X connect 4 0 2 2;
#X connect 5 0 2 1;
#X restore 596 142 pd vol-pst;
#X connect 0 0 5 0;
#X connect 0 1 5 0;
#X connect 1 0 5 0;
#X connect 1 1 5 0;
#X connect 1 2 5 0;
#X connect 2 0 5 0;
#X connect 2 1 5 0;
#X connect 2 2 5 0;
#X connect 2 3 5 0;
#X connect 2 4 5 0;
#X connect 2 5 5 0;
#X connect 3 0 5 0;
#X connect 3 1 5 0;
#X connect 3 2 5 0;
#X connect 3 3 5 0;
#X connect 3 4 5 0;
#X connect 3 5 5 0;
#X connect 4 0 0 1;
#X connect 4 0 8 1;
#X connect 4 0 1 1;
#X connect 4 0 2 1;
#X connect 4 0 3 1;
#X connect 4 0 9 1;
#X connect 6 0 7 0;
#X connect 7 0 0 0;
#X connect 7 0 8 0;
#X connect 7 0 1 0;
#X connect 7 0 2 0;
#X connect 7 0 3 0;
#X connect 7 0 9 0;
#X connect 8 0 5 0;
#X connect 8 1 5 0;
#X connect 8 2 5 0;
#X connect 8 3 5 0;
#X connect 9 0 5 0;
#X restore 623 485 pd presets;
#X obj 623 455 f \$1;
#N canvas 747 413 931 539 pst-routing 0;
#X obj 60 44 r pst;
#X obj 60 66 route 1 2;
#X obj 61 315 scale 0 1 0 1;
#X obj 61 269 r pst-morph;
#X obj 177 315 scale 0 1 0 1;
#X obj 276 315 scale 0 1 0 1;
#X obj 382 315 scale 0 1 0 1;
#X obj 488 315 scale 0 1 0 1;
#X obj 594 315 scale 0 1 0 1;
#X obj 61 382 scale 0 1 0 1;
#X obj 187 382 scale 0 1 0 1;
#X obj 306 382 scale 0 1 0 1;
#X obj 432 382 scale 0 1 0 1;
#X obj 558 382 scale 0 1 0 1;
#X obj 679 381 scale 0 1 0 1;
#X obj 61 432 scale 0 1 0 1;
#X obj 187 432 scale 0 1 0 1;
#X obj 306 432 scale 0 1 0 1;
#X obj 432 432 scale 0 1 0 1;
#X obj 558 432 scale 0 1 0 1;
#X obj 679 431 scale 0 1 0 1;
#X obj 61 482 scale 0 1 0 1;
#X obj 157 482 scale 0 1 0 1;
#X obj 286 482 scale 0 1 0 1;
#X obj 402 482 scale 0 1 0 1;
#X obj 60 118 route \$1-pst-waveform \$1-pst-glide \$1-pst-FM_Osc1
\$1-pst-FM_Osc2 \$1-pst-FM_Osc3 \$1-pst-FM_Osc4 \$1-pst-PADSR_Dlay
\$1-pst-PADSR_Amp \$1-pst-PADSR_Atk \$1-pst-PADSR_Dcay \$1-pst-PADSR_Sus
\$1-pst-PADSR_Rel \$1-pst-FADSR_Dlay \$1-pst-FADSR_Amp \$1-pst-FADSR_Atk
\$1-pst-FADSR_Dcay \$1-pst-FADSR_Sus \$1-pst-FADSR_Rel \$1-pst-Vol
\$1-pst-AM_Waveform \$1-pst-AM_Depth \$1-pst-AM_Freq;
#X obj 61 337 s \$1-set-waveform;
#X obj 177 337 s \$1-set-glide;
#X obj 440 118 route \$1-pst-waveform \$1-pst-glide \$1-pst-FM_Osc1
\$1-pst-FM_Osc2 \$1-pst-FM_Osc3 \$1-pst-FM_Osc4 \$1-pst-PADSR_Dlay
\$1-pst-PADSR_Amp \$1-pst-PADSR_Atk \$1-pst-PADSR_Dcay \$1-pst-PADSR_Sus
\$1-pst-PADSR_Rel \$1-pst-FADSR_Dlay \$1-pst-FADSR_Amp \$1-pst-FADSR_Atk
\$1-pst-FADSR_Dcay \$1-pst-FADSR_Sus \$1-pst-FADSR_Rel \$1-pst-Vol
\$1-pst-AM_Waveform \$1-pst-AM_Depth \$1-pst-AM_Freq;
#X obj 276 337 s \$1-set-FM_Osc1;
#X obj 382 337 s \$1-set-FM_Osc2;
#X obj 488 336 s \$1-set-FM_Osc3;
#X obj 594 337 s \$1-set-FM_Osc4;
#X obj 61 404 s \$1-set-PADSR_Dlay;
#X obj 187 404 s \$1-set-PADSR_Amp;
#X obj 306 404 s \$1-set-PADSR_Atk;
#X obj 432 404 s \$1-set-PADSR_Dcay;
#X obj 558 404 s \$1-set-PADSR_Sus;
#X obj 679 404 s \$1-set-PADSR_Rel;
#X obj 61 454 s \$1-set-FADSR_Dlay;
#X obj 187 454 s \$1-set-FADSR_Amp;
#X obj 306 454 s \$1-set-FADSR_Atk;
#X obj 432 454 s \$1-set-FADSR_Dcay;
#X obj 558 454 s \$1-set-FADSR_Sus;
#X obj 679 454 s \$1-set-FADSR_Rel;
#X obj 61 504 s \$1-set-Vol;
#X obj 157 504 s \$1-set-AM_Waveform;
#X obj 286 504 s \$1-set-AM_Depth;
#X obj 402 504 s \$1-set-AM_Freq;
#X connect 0 0 1 0;
#X connect 1 0 25 0;
#X connect 1 1 28 0;
#X connect 2 0 26 0;
#X connect 3 0 2 0;
#X connect 3 0 4 0;
#X connect 3 0 5 0;
#X connect 3 0 6 0;
#X connect 3 0 7 0;
#X connect 3 0 8 0;
#X connect 3 0 9 0;
#X connect 3 0 10 0;
#X connect 3 0 11 0;
#X connect 3 0 12 0;
#X connect 3 0 13 0;
#X connect 3 0 14 0;
#X connect 3 0 15 0;
#X connect 3 0 16 0;
#X connect 3 0 17 0;
#X connect 3 0 18 0;
#X connect 3 0 19 0;
#X connect 3 0 20 0;
#X connect 3 0 21 0;
#X connect 3 0 22 0;
#X connect 3 0 23 0;
#X connect 3 0 24 0;
#X connect 4 0 27 0;
#X connect 5 0 29 0;
#X connect 6 0 30 0;
#X connect 7 0 31 0;
#X connect 8 0 32 0;
#X connect 9 0 33 0;
#X connect 10 0 34 0;
#X connect 11 0 35 0;
#X connect 12 0 36 0;
#X connect 13 0 37 0;
#X connect 14 0 38 0;
#X connect 15 0 39 0;
#X connect 16 0 40 0;
#X connect 17 0 41 0;
#X connect 18 0 42 0;
#X connect 19 0 43 0;
#X connect 20 0 44 0;
#X connect 21 0 45 0;
#X connect 22 0 46 0;
#X connect 23 0 47 0;
#X connect 24 0 48 0;
#X connect 25 0 2 3;
#X connect 25 1 4 3;
#X connect 25 2 5 3;
#X connect 25 3 6 3;
#X connect 25 4 7 3;
#X connect 25 5 8 3;
#X connect 25 6 9 3;
#X connect 25 7 10 3;
#X connect 25 8 11 3;
#X connect 25 9 12 3;
#X connect 25 10 13 3;
#X connect 25 11 14 3;
#X connect 25 12 15 3;
#X connect 25 13 16 3;
#X connect 25 14 17 3;
#X connect 25 15 18 3;
#X connect 25 16 19 3;
#X connect 25 17 20 3;
#X connect 25 18 21 3;
#X connect 25 19 22 3;
#X connect 25 20 23 3;
#X connect 25 21 24 3;
#X connect 28 0 2 4;
#X connect 28 1 4 4;
#X connect 28 2 5 4;
#X connect 28 3 6 4;
#X connect 28 4 7 4;
#X connect 28 5 8 4;
#X connect 28 6 9 4;
#X connect 28 7 10 4;
#X connect 28 8 11 4;
#X connect 28 9 12 4;
#X connect 28 10 13 4;
#X connect 28 11 14 4;
#X connect 28 12 15 4;
#X connect 28 13 16 4;
#X connect 28 14 17 4;
#X connect 28 15 18 4;
#X connect 28 16 19 4;
#X connect 28 17 20 4;
#X connect 28 18 21 4;
#X connect 28 19 22 4;
#X connect 28 20 23 4;
#X connect 28 21 24 4;
#X restore 599 505 pd pst-routing;
#N canvas 765 390 450 300 receive-sequencer 0;
#X obj 175 155 outlet;
#X obj 175 43 r seq;
#X obj 175 65 t f f;
#X obj 202 90 route 0;
#X obj 241 123 s \$1-FreqOsc;
#X obj 175 124 > 0;
#X text 230 52 receive sequence from sequencer;
#X connect 1 0 2 0;
#X connect 2 0 5 0;
#X connect 2 1 3 0;
#X connect 3 1 4 0;
#X connect 5 0 0 0;
#X restore 80 141 pd receive-sequencer;
#X connect 0 0 1 0;
#X connect 1 0 24 0;
#X connect 2 0 0 0;
#X connect 3 0 1 1;
#X connect 10 0 60 0;
#X connect 11 0 68 1;
#X connect 12 0 68 2;
#X connect 13 0 68 3;
#X connect 14 0 61 0;
#X connect 15 0 67 3;
#X connect 22 0 67 2;
#X connect 23 0 67 1;
#X connect 24 0 54 0;
#X connect 25 0 2 0;
#X connect 26 0 53 1;
#X connect 27 0 53 2;
#X connect 28 0 53 3;
#X connect 29 0 53 4;
#X connect 30 0 53 5;
#X connect 31 0 53 6;
#X connect 39 0 56 1;
#X connect 40 0 56 2;
#X connect 41 0 56 3;
#X connect 42 0 56 4;
#X connect 43 0 56 5;
#X connect 44 0 56 6;
#X connect 52 0 68 0;
#X connect 53 0 24 1;
#X connect 54 0 14 0;
#X connect 54 0 62 0;
#X connect 55 0 15 0;
#X connect 55 0 3 0;
#X connect 55 0 67 0;
#X connect 55 0 72 0;
#X connect 56 0 25 1;
#X connect 59 0 14 1;
#X connect 60 0 59 0;
#X connect 63 0 66 0;
#X connect 64 0 25 0;
#X connect 65 0 66 1;
#X connect 66 0 64 0;
#X connect 67 0 54 1;
#X connect 68 0 2 1;
#X connect 72 0 71 0;
#X connect 74 0 56 0;
#X connect 74 0 53 0;
#X coords 0 -1 1 1 600 125 1 100 -35;
