#N canvas 288 321 1280 677 10;
#X obj 7 339 waveform;
#X obj 13 45 vsl 40 150 0 1 0 0 MACRO_Expressivity empty MACRO_Expressivity
0 -9 1 12 -99865 -4032 -1 0 1;
#X msg 5 650 \; pd dsp 1;
#X obj 5 620 loadbang;
#X obj 600 651 dac~;
#X obj 430 621 catch~ 1-Osc;
#X obj 528 621 catch~ 2-Osc;
#X obj 626 621 catch~ 3-Osc;
#X obj 724 621 catch~ 4-Osc;
#X msg 77 649 \; pd dsp 0;
#X text 858 8 Implem preset;
#X text 858 63 Implem Macro;
#X text 858 35 Implem Random;
#N canvas 269 258 695 572 toneTelSeq 0;
#X msg 277 263 513;
#X msg 355 263 508;
#X msg 278 309 1255;
#X msg 355 308 3493;
#X obj 24 140 tgl 15 0 empty empty empty 17 7 0 10 -262144 -1 -1 0
1;
#X obj 24 209 == 1;
#X obj 81 210 == 0;
#X obj 24 234 sel 1;
#X obj 24 182 tgl 15 0 empty empty empty 17 7 0 10 -262144 -1 -1 0
1;
#X text 276 242 On;
#X text 353 241 Off;
#X obj 148 80 random 3;
#X obj 205 134 sel 1;
#X obj 295 135 sel 2;
#X text 373 134 Select mode randomly;
#X obj 148 134 sel 0;
#X text 373 168 1 - Busy;
#X text 373 185 2 - Call;
#X text 373 153 0 - No sound;
#X obj 24 162 metro 513;
#X obj 3 282 s seq;
#X text 199 264 Busy mode;
#X text 199 310 Call mode;
#X obj 148 15 tgl 20 0 empty empty Start 25 10 0 10 -20480 -1 -1 0
1;
#X obj 148 48 metro;
#X obj 24 84 onebang;
#X msg 24 115 0;
#X obj 81 234 sel 1;
#X msg 205 163 1;
#X msg 295 163 1;
#X obj 148 109 change;
#X obj 265 356 random 6;
#X obj 64 391 + 1;
#X obj 23 392 i;
#X obj 23 442 sel 1;
#X text 67 419 Count and stop the tone after reaching the maximum number
;
#X text 333 358 Randomly define the maximum number of tone;
#X msg 23 469 0;
#X obj 216 88 + 8000;
#X obj 216 64 random 2000;
#X obj 531 101 print Mode;
#X msg 355 216 0;
#X obj 23 418 == 5;
#X obj 205 192 t i b b b;
#X obj 295 190 t i b b b;
#X obj 265 375 + 4;
#X obj 80 265 Randomization;
#X obj 29 321 Randomization;
#X text 310 377 Minimum number of tones;
#X obj 471 254 r MACRO_Expressivity;
#X obj 471 285 scale 0 1 6 20;
#X connect 0 0 47 1;
#X connect 1 0 46 1;
#X connect 2 0 47 1;
#X connect 3 0 46 1;
#X connect 4 0 19 0;
#X connect 5 0 7 0;
#X connect 6 0 27 0;
#X connect 7 0 33 0;
#X connect 7 0 47 0;
#X connect 8 0 5 0;
#X connect 8 0 6 0;
#X connect 8 0 20 0;
#X connect 11 0 30 0;
#X connect 11 0 40 0;
#X connect 12 0 28 0;
#X connect 13 0 29 0;
#X connect 15 0 25 1;
#X connect 19 0 8 0;
#X connect 23 0 24 0;
#X connect 24 0 11 0;
#X connect 24 0 39 0;
#X connect 25 0 26 0;
#X connect 26 0 4 0;
#X connect 27 0 25 0;
#X connect 27 0 46 0;
#X connect 28 0 43 0;
#X connect 29 0 44 0;
#X connect 30 0 15 0;
#X connect 30 0 12 0;
#X connect 30 0 13 0;
#X connect 31 0 45 0;
#X connect 32 0 33 1;
#X connect 33 0 32 0;
#X connect 33 0 42 0;
#X connect 34 0 37 0;
#X connect 37 0 30 0;
#X connect 38 0 24 1;
#X connect 39 0 38 0;
#X connect 41 0 33 1;
#X connect 42 0 34 0;
#X connect 43 0 4 0;
#X connect 43 1 1 0;
#X connect 43 2 0 0;
#X connect 43 3 41 0;
#X connect 43 3 31 0;
#X connect 44 0 4 0;
#X connect 44 1 3 0;
#X connect 44 2 2 0;
#X connect 44 3 41 0;
#X connect 44 3 31 0;
#X connect 45 0 42 1;
#X connect 46 0 19 1;
#X connect 47 0 19 1;
#X connect 49 0 50 0;
#X connect 50 0 31 1;
#X coords 0 -1 1 1 70 40 1 142 0;
#X restore 295 8 pd toneTelSeq;
#N canvas 747 291 854 295 init 0;
#X text 261 25 Externals needed to run the patch: [scale];
#X text 261 39 >> declare library maxlib;
#X restore 295 51 pd init;
#N canvas 974 206 1205 288 store-pst 0;
#X obj 105 98 r store-pst;
#X obj 46 56 bng 15 250 50 0 empty empty SAVE 17 7 0 10 -262144 -1
-1;
#X obj 43 98 savepanel;
#X obj 62 167 s bang-pst;
#X obj 105 215 list trim;
#X obj 43 120 t s b b;
#X msg 43 187 write \$1;
#X msg 82 145 clear;
#X obj 215 55 hsl 115 15 0 1 0 0 pst-morph empty MORPH 0 8 0 10 -262144
-1 -1 11400 1;
#X obj 190 180 until;
#X msg 231 180 rewind;
#X obj 190 213 textfile;
#X obj 103 48 bng 15 250 50 0 empty empty OPEN_PRESET_1 17 7 0 10 -262144
-1 -1;
#X obj 190 129 openpanel;
#X msg 280 180 read \$1;
#X obj 190 151 t b b s;
#X obj 190 257 s pst;
#X obj 103 66 bng 15 250 50 0 empty empty OPEN_PRESET_2 17 7 0 10 -262144
-1 -1;
#X obj 190 98 t b b;
#X obj 231 98 t b b;
#X msg 306 213 2;
#X msg 276 213 1;
#X obj 190 235 prepend;
#X obj 43 241 qlist;
#X connect 0 0 4 0;
#X connect 1 0 2 0;
#X connect 2 0 5 0;
#X connect 4 0 23 0;
#X connect 5 0 6 0;
#X connect 5 1 3 0;
#X connect 5 2 7 0;
#X connect 6 0 23 0;
#X connect 7 0 23 0;
#X connect 9 0 11 0;
#X connect 10 0 11 0;
#X connect 11 0 22 0;
#X connect 11 1 9 1;
#X connect 12 0 18 0;
#X connect 13 0 15 0;
#X connect 14 0 11 0;
#X connect 15 0 9 0;
#X connect 15 1 10 0;
#X connect 15 2 14 0;
#X connect 17 0 19 0;
#X connect 18 0 13 0;
#X connect 18 1 21 0;
#X connect 19 0 13 0;
#X connect 19 1 20 0;
#X connect 20 0 22 1;
#X connect 21 0 22 1;
#X connect 22 0 16 0;
#X coords 0 -1 1 1 300 50 1 40 35;
#X restore 7 285 pd store-pst;
#X obj 6 359 FM_Osc 1;
#X obj 6 491 FM_Osc 3;
#X obj 616 359 FM_Osc 2;
#X obj 616 491 FM_Osc 4;
#X obj 393 8 Sequencer;
#X connect 3 0 2 0;
#X connect 5 0 4 0;
#X connect 5 0 4 1;
#X connect 6 0 4 0;
#X connect 6 0 4 1;
#X connect 7 0 4 0;
#X connect 7 0 4 1;
#X connect 8 0 4 0;
#X connect 8 0 4 1;
