#N canvas 92 33 1172 762 10;
#X obj 817 276 vsl 40 397 0 1 0 0 MACRO empty MACRO 2 7 1 10 -99865
-20480 -262144 4650 1;
#X obj 171 712 dac~;
#X obj 8 682 catch~ 1-Osc;
#X obj 102 682 catch~ 2-Osc;
#X obj 196 682 catch~ 3-Osc;
#X obj 290 682 catch~ 4-Osc;
#N canvas 420 289 356 174 init 0;
#X text 6 8 Externals needed to run the patch: [scale];
#X text 6 22 >> declare library maxlib;
#X obj 8 144 waveform;
#X obj 8 54 loadbang;
#X obj 8 81 tgl 15 0 empty empty empty 17 7 0 10 -262144 -1 -1 1 1
;
#X msg 8 107 \; pd dsp \$1;
#X text 63 144 Storage of all the waveforms used in FM_oscs;
#X connect 3 0 4 0;
#X connect 4 0 5 0;
#X restore 480 27 pd init;
#N canvas 664 23 656 301 store-pst 0;
#X obj 105 98 r store-pst;
#X obj 46 56 bng 15 250 50 0 empty empty SAVE 17 7 0 10 -262144 -1
-1;
#X obj 43 98 savepanel;
#X obj 62 167 s bang-pst;
#X obj 105 215 list trim;
#X obj 43 120 t s b b;
#X msg 43 187 write \$1;
#X msg 82 145 clear;
#X obj 215 55 hsl 115 15 0 1 0 0 pst-morph MACRO MORPH 0 8 0 10 -262144
-1 -1 1339 1;
#X obj 190 180 until;
#X msg 231 180 rewind;
#X obj 190 213 textfile;
#X obj 103 48 bng 15 250 50 0 empty empty OPEN_PRESET_1 17 7 0 10 -262144
-1 -1;
#X obj 190 129 openpanel;
#X msg 280 180 read \$1;
#X obj 190 151 t b b s;
#X obj 222 279 s pst;
#X obj 103 66 bng 15 250 50 0 empty empty OPEN_PRESET_2 17 7 0 10 -262144
-1 -1;
#X obj 190 98 t b b;
#X obj 231 98 t b b;
#X msg 306 213 2;
#X msg 276 213 1;
#X obj 43 241 qlist;
#X obj 190 257 t b l;
#X obj 190 235 list prepend;
#X connect 0 0 4 0;
#X connect 1 0 2 0;
#X connect 2 0 5 0;
#X connect 4 0 22 0;
#X connect 5 0 6 0;
#X connect 5 1 3 0;
#X connect 5 2 7 0;
#X connect 6 0 22 0;
#X connect 7 0 22 0;
#X connect 9 0 11 0;
#X connect 10 0 11 0;
#X connect 11 0 24 0;
#X connect 11 1 9 1;
#X connect 12 0 18 0;
#X connect 13 0 15 0;
#X connect 14 0 11 0;
#X connect 15 0 9 0;
#X connect 15 1 10 0;
#X connect 15 2 14 0;
#X connect 17 0 19 0;
#X connect 18 0 13 0;
#X connect 18 1 21 0;
#X connect 19 0 13 0;
#X connect 19 1 20 0;
#X connect 20 0 24 1;
#X connect 21 0 24 1;
#X connect 23 0 8 0;
#X connect 23 1 16 0;
#X connect 24 0 23 0;
#X coords 0 -1 1 1 300 50 1 40 35;
#X restore 511 222 pd store-pst;
#X obj 7 275 FM_Osc 1;
#X obj 7 27 Sequencer;
#X obj 585 27 proxi-datas;
#X obj 771 27 mic-datas;
#X obj 1058 27 r proxi-bang;
#X obj 1058 51 bng 15 250 50 0 empty empty empty 17 7 0 10 -262144
-1 -1;
#X obj 1058 100 s set-play-seq;
#X msg 1058 72 1;
#X obj 948 50 bng 15 250 50 0 empty empty empty 17 7 0 10 -262144 -1
-1;
#X msg 948 71 1;
#X obj 948 27 r mic-bang;
#X obj 817 233 r proxi-average;
#X obj 948 172 s stop-mic;
#X obj 948 101 s Play;
#X obj 948 129 r isPlaying;
#X obj 1043 133 bng 15 250 50 0 empty empty empty 17 7 0 10 -262144
-1 -1;
#X obj 1043 153 s calibration-reset;
#X obj 817 254 spigot;
#X obj 862 255 tgl 15 0 empty empty empty 17 7 0 10 -262144 -1 -1 1
1;
#X text 879 255 Stop data-flow while playing with settings, f 15;
#X obj 411 275 FM_Osc 2;
#X obj 7 477 FM_Osc 3;
#X obj 411 477 FM_Osc 4;
#X obj 227 707 catch~ 5-AudioPlayer;
#X obj 76 832 writesf~;
#X msg 196 790 start;
#X msg 248 789 stop;
#X msg 76 768 open ./Sounds/Sample-6.wav;
#X obj 411 680 AudioPlayer 5;
#X connect 2 0 1 0;
#X connect 2 0 1 1;
#X connect 2 0 32 0;
#X connect 3 0 1 0;
#X connect 3 0 1 1;
#X connect 3 0 32 0;
#X connect 4 0 1 0;
#X connect 4 0 1 1;
#X connect 4 0 32 0;
#X connect 5 0 1 0;
#X connect 5 0 1 1;
#X connect 5 0 32 0;
#X connect 12 0 13 0;
#X connect 13 0 15 0;
#X connect 15 0 14 0;
#X connect 16 0 17 0;
#X connect 17 0 21 0;
#X connect 18 0 16 0;
#X connect 19 0 25 0;
#X connect 22 0 20 0;
#X connect 23 0 24 0;
#X connect 25 0 0 0;
#X connect 26 0 25 1;
#X connect 31 0 1 1;
#X connect 31 0 1 0;
#X connect 31 0 32 0;
#X connect 33 0 32 0;
#X connect 34 0 32 0;
#X connect 35 0 32 0;
