#N canvas 146 250 1224 766 10;
#X obj 817 276 vsl 40 397 0 1 0 0 MACRO empty MACRO 2 7 1 10 -99865
-20480 -262144 18080 1;
#X obj 171 712 dac~;
#X obj 8 682 catch~ 1-Osc;
#X obj 102 682 catch~ 2-Osc;
#X obj 196 682 catch~ 3-Osc;
#X obj 290 682 catch~ 4-Osc;
#N canvas 420 289 356 174 init 0;
#X text 6 8 Externals needed to run the patch: [scale];
#X text 6 22 >> declare library maxlib;
#X obj 8 144 waveform;
#X obj 8 54 loadbang;
#X obj 8 81 tgl 15 0 empty empty empty 17 7 0 10 -262144 -1 -1 1 1
;
#X msg 8 107 \; pd dsp \$1;
#X text 63 144 Storage of all the waveforms used in FM_oscs;
#X connect 3 0 4 0;
#X connect 4 0 5 0;
#X restore 480 27 pd init;
#N canvas 664 23 656 301 store-pst 0;
#X obj 105 98 r store-pst;
#X obj 46 56 bng 15 250 50 0 empty empty SAVE 17 7 0 10 -262144 -1
-1;
#X obj 43 98 savepanel;
#X obj 62 167 s bang-pst;
#X obj 105 215 list trim;
#X obj 43 120 t s b b;
#X msg 43 187 write \$1;
#X msg 82 145 clear;
#X obj 215 55 hsl 115 15 0 1 0 0 pst-morph MACRO MORPH 0 8 0 10 -262144
-1 -1 5205 1;
#X obj 190 180 until;
#X msg 231 180 rewind;
#X obj 190 213 textfile;
#X obj 103 48 bng 15 250 50 0 empty empty OPEN_PRESET_1 17 7 0 10 -262144
-1 -1;
#X obj 190 129 openpanel;
#X msg 280 180 read \$1;
#X obj 190 151 t b b s;
#X obj 222 279 s pst;
#X obj 103 66 bng 15 250 50 0 empty empty OPEN_PRESET_2 17 7 0 10 -262144
-1 -1;
#X obj 190 98 t b b;
#X obj 231 98 t b b;
#X msg 306 213 2;
#X msg 276 213 1;
#X obj 43 241 qlist;
#X obj 190 257 t b l;
#X obj 190 235 list prepend;
#X connect 0 0 4 0;
#X connect 1 0 2 0;
#X connect 2 0 5 0;
#X connect 4 0 22 0;
#X connect 5 0 6 0;
#X connect 5 1 3 0;
#X connect 5 2 7 0;
#X connect 6 0 22 0;
#X connect 7 0 22 0;
#X connect 9 0 11 0;
#X connect 10 0 11 0;
#X connect 11 0 24 0;
#X connect 11 1 9 1;
#X connect 12 0 18 0;
#X connect 13 0 15 0;
#X connect 14 0 11 0;
#X connect 15 0 9 0;
#X connect 15 1 10 0;
#X connect 15 2 14 0;
#X connect 17 0 19 0;
#X connect 18 0 13 0;
#X connect 18 1 21 0;
#X connect 19 0 13 0;
#X connect 19 1 20 0;
#X connect 20 0 24 1;
#X connect 21 0 24 1;
#X connect 23 0 8 0;
#X connect 23 1 16 0;
#X connect 24 0 23 0;
#X coords 0 -1 1 1 300 50 1 40 35;
#X restore 476 222 pd store-pst;
#X obj 7 275 FM_Osc 1;
#X obj 7 27 Sequencer;
#X obj 649 28 r proxi-bang;
#X obj 649 52 bng 15 250 50 0 empty empty empty 17 7 0 10 -262144 -1
-1;
#X msg 649 73 1;
#X obj 539 51 bng 15 250 50 0 empty empty empty 17 7 0 10 -262144 -1
-1;
#X msg 539 72 1;
#X obj 539 28 r mic-bang;
#X obj 539 173 s stop-mic;
#X obj 539 102 s Play;
#X obj 539 130 r isPlaying;
#X obj 779 254 spigot;
#X obj 824 255 tgl 15 0 empty empty empty 17 7 0 10 -262144 -1 -1 1
1;
#X obj 411 275 FM_Osc 2;
#X obj 7 477 FM_Osc 3;
#X obj 411 477 FM_Osc 4;
#X obj 227 707 catch~ 5-AudioPlayer;
#X obj 76 832 writesf~;
#X msg 196 790 start;
#X msg 248 789 stop;
#X msg 76 768 open ./Sounds/Sample-6.wav;
#X obj 411 680 AudioPlayer 5;
#X obj 878 15 Sensors;
#X text 710 57 Data-flow can be stopped while playing with settings
, f 26;
#X obj 649 101 s Play;
#X text 963 295 Developed by Collectif AAIO;
#X obj 610 173 s stop-proxi;
#X msg 631 149 0;
#X obj 707 102 r proxi-threshold-crossings;
#X obj 707 190 line;
#X floatatom 778 183 5 0 0 0 - - -, f 5;
#X obj 707 124 clip 0 4;
#X obj 707 146 / 4;
#X obj 929 346 r proxi-bang;
#X obj 974 475 - 0.1;
#X obj 973 391 metro 500;
#X obj 929 436 f;
#X obj 934 522 f;
#X obj 974 437 f;
#X obj 929 415 bng 15 250 50 0 empty empty empty 17 7 0 10 -262144
-1 -1;
#X obj 974 415 bng 15 250 50 0 empty empty empty 17 7 0 10 -262144
-1 -1;
#X floatatom 934 585 5 0 0 0 - - -, f 5;
#X obj 929 475 + 1;
#X obj 974 497 t b f;
#X obj 929 497 t b f;
#X obj 1000 372 tgl 15 0 empty empty empty 17 7 0 10 -262144 -1 -1
1 1;
#X obj 934 544 expr $f1 \; if ($f1 <=0 \, 0 \, $f1) \;;
#X obj 934 604 clip 0 7;
#X obj 934 626 / 7;
#X msg 707 168 \$1 2000;
#X connect 2 0 1 0;
#X connect 2 0 1 1;
#X connect 2 0 25 0;
#X connect 3 0 1 0;
#X connect 3 0 1 1;
#X connect 3 0 25 0;
#X connect 4 0 1 0;
#X connect 4 0 1 1;
#X connect 4 0 25 0;
#X connect 5 0 1 0;
#X connect 5 0 1 1;
#X connect 5 0 25 0;
#X connect 10 0 11 0;
#X connect 11 0 12 0;
#X connect 12 0 32 0;
#X connect 13 0 14 0;
#X connect 14 0 17 0;
#X connect 15 0 13 0;
#X connect 18 0 16 0;
#X connect 19 0 0 0;
#X connect 20 0 19 1;
#X connect 24 0 1 1;
#X connect 24 0 1 0;
#X connect 24 0 25 0;
#X connect 26 0 25 0;
#X connect 27 0 25 0;
#X connect 28 0 25 0;
#X connect 35 0 34 0;
#X connect 36 0 39 0;
#X connect 37 0 19 0;
#X connect 39 0 38 0;
#X connect 39 0 40 0;
#X connect 40 0 57 0;
#X connect 41 0 47 0;
#X connect 42 0 46 1;
#X connect 42 0 44 1;
#X connect 42 0 51 0;
#X connect 43 0 48 0;
#X connect 44 0 50 0;
#X connect 45 0 54 0;
#X connect 46 0 42 0;
#X connect 47 0 44 0;
#X connect 48 0 46 0;
#X connect 49 0 55 0;
#X connect 50 0 46 1;
#X connect 50 0 44 1;
#X connect 50 0 52 0;
#X connect 51 0 45 0;
#X connect 51 1 45 1;
#X connect 52 0 45 0;
#X connect 52 1 45 1;
#X connect 53 0 43 0;
#X connect 54 1 49 0;
#X connect 54 1 45 1;
#X connect 55 0 56 0;
#X connect 56 0 57 0;
#X connect 57 0 37 0;
