#N canvas 563 88 1357 992 10;
#X obj 1130 306 vsl 40 397 0 1 0 0 \$0-MACRO empty MACRO 2 7 1 10 -99865
-20480 -262144 0 1;
#N canvas 420 289 356 174 init 0;
#X text 6 8 Externals needed to run the patch: [scale];
#X text 6 22 >> declare library maxlib;
#X obj 8 144 waveform;
#X obj 8 54 loadbang;
#X obj 8 81 tgl 15 0 empty empty empty 17 7 0 10 -262144 -1 -1 1 1
;
#X msg 8 107 \; pd dsp \$1;
#X text 63 144 Storage of all the waveforms used in FM_oscs;
#X obj 90 107 s init-bang;
#X connect 3 0 4 0;
#X connect 3 0 7 0;
#X connect 4 0 5 0;
#X restore 480 27 pd init;
#N canvas 3129 437 805 535 store-pst 0;
#X obj 105 98 r store-pst;
#X obj 46 56 bng 15 250 50 0 empty empty SAVE 17 7 0 10 -262144 -1
-1;
#X obj 43 98 savepanel;
#X obj 62 167 s bang-pst;
#X obj 105 215 list trim;
#X obj 43 120 t s b b;
#X msg 43 187 write \$1;
#X msg 82 145 clear;
#X obj 215 55 hsl 115 15 0 1 0 0 empty \$0-MACRO MORPH 0 8 0 10 -262144
-1 -1 4200 1;
#X obj 190 180 until;
#X msg 231 180 rewind;
#X obj 190 213 textfile;
#X obj 103 48 bng 15 250 50 0 empty empty OPEN_PRESET_1 17 7 0 10 -262144
-1 -1;
#X obj 190 129 openpanel;
#X msg 280 180 read \$1;
#X obj 190 151 t b b s;
#X obj 103 66 bng 15 250 50 0 empty empty OPEN_PRESET_2 17 7 0 10 -262144
-1 -1;
#X obj 190 98 t b b;
#X obj 231 98 t b b;
#X msg 504 160 2;
#X msg 474 160 1;
#X obj 43 241 qlist;
#X obj 114 424 outlet;
#X obj 204 250 route 0 1 2 3 4;
#N canvas 0 94 450 300 PrependPstIndex 0;
#X obj 89 153 t b l;
#X obj 89 129 list prepend;
#X obj 121 183 outlet;
#X text 174 176 pst;
#X obj 80 59 inlet;
#X obj 181 76 inlet;
#X connect 0 1 2 0;
#X connect 1 0 0 0;
#X connect 4 0 1 0;
#X connect 5 0 1 1;
#X restore 116 367 pd PrependPstIndex;
#N canvas 0 94 450 300 PrependPstIndex 0;
#X obj 89 153 t b l;
#X obj 89 129 list prepend;
#X obj 121 183 outlet;
#X text 174 176 pst;
#X obj 80 59 inlet;
#X obj 181 76 inlet;
#X connect 0 1 2 0;
#X connect 1 0 0 0;
#X connect 4 0 1 0;
#X connect 5 0 1 1;
#X restore 660 360 pd PrependPstIndex;
#N canvas 0 94 450 300 PrependPstIndex 0;
#X obj 89 153 t b l;
#X obj 89 129 list prepend;
#X obj 121 183 outlet;
#X text 174 176 pst;
#X obj 80 59 inlet;
#X obj 181 76 inlet;
#N canvas 0 94 450 300 PrependPstIndex 0;
#X obj 89 153 t b l;
#X obj 89 129 list prepend;
#X obj 121 183 outlet;
#X text 174 176 pst;
#X obj 80 59 inlet;
#X obj 181 76 inlet;
#N canvas 0 94 450 300 PrependPstIndex 0;
#X obj 89 153 t b l;
#X obj 89 129 list prepend;
#X obj 121 183 outlet;
#X text 174 176 pst;
#X obj 80 59 inlet;
#X obj 181 76 inlet;
#X connect 0 1 2 0;
#X connect 1 0 0 0;
#X connect 4 0 1 0;
#X connect 5 0 1 1;
#X restore 120 414 pd PrependPstIndex;
#X connect 0 1 2 0;
#X connect 1 0 0 0;
#X connect 4 0 1 0;
#X connect 5 0 1 1;
#X restore 120 414 pd PrependPstIndex;
#X connect 0 1 2 0;
#X connect 1 0 0 0;
#X connect 4 0 1 0;
#X connect 5 0 1 1;
#X restore 387 391 pd PrependPstIndex;
#N canvas 0 94 450 300 PrependPstIndex 0;
#X obj 89 153 t b l;
#X obj 89 129 list prepend;
#X obj 121 183 outlet;
#X text 174 176 pst;
#X obj 80 59 inlet;
#X obj 181 76 inlet;
#N canvas 0 94 450 300 PrependPstIndex 0;
#X obj 89 153 t b l;
#X obj 89 129 list prepend;
#X obj 121 183 outlet;
#X text 174 176 pst;
#X obj 80 59 inlet;
#X obj 181 76 inlet;
#N canvas 0 94 450 300 PrependPstIndex 0;
#X obj 89 153 t b l;
#X obj 89 129 list prepend;
#X obj 121 183 outlet;
#X text 174 176 pst;
#X obj 80 59 inlet;
#X obj 181 76 inlet;
#X connect 0 1 2 0;
#X connect 1 0 0 0;
#X connect 4 0 1 0;
#X connect 5 0 1 1;
#X restore 120 414 pd PrependPstIndex;
#X connect 0 1 2 0;
#X connect 1 0 0 0;
#X connect 4 0 1 0;
#X connect 5 0 1 1;
#X restore 120 414 pd PrependPstIndex;
#X connect 0 1 2 0;
#X connect 1 0 0 0;
#X connect 4 0 1 0;
#X connect 5 0 1 1;
#X restore 249 386 pd PrependPstIndex;
#N canvas 0 94 450 300 PrependPstIndex 0;
#X obj 89 153 t b l;
#X obj 89 129 list prepend;
#X obj 121 183 outlet;
#X text 174 176 pst;
#X obj 80 59 inlet;
#X obj 181 76 inlet;
#N canvas 0 94 450 300 PrependPstIndex 0;
#X obj 89 153 t b l;
#X obj 89 129 list prepend;
#X obj 121 183 outlet;
#X text 174 176 pst;
#X obj 80 59 inlet;
#X obj 181 76 inlet;
#N canvas 0 94 450 300 PrependPstIndex 0;
#X obj 89 153 t b l;
#X obj 89 129 list prepend;
#X obj 121 183 outlet;
#X text 174 176 pst;
#X obj 80 59 inlet;
#X obj 181 76 inlet;
#X connect 0 1 2 0;
#X connect 1 0 0 0;
#X connect 4 0 1 0;
#X connect 5 0 1 1;
#X restore 120 414 pd PrependPstIndex;
#X connect 0 1 2 0;
#X connect 1 0 0 0;
#X connect 4 0 1 0;
#X connect 5 0 1 1;
#X restore 120 414 pd PrependPstIndex;
#X connect 0 1 2 0;
#X connect 1 0 0 0;
#X connect 4 0 1 0;
#X connect 5 0 1 1;
#X restore 525 370 pd PrependPstIndex;
#X text 113 402 Preset Sequencer;
#X obj 249 437 outlet;
#X obj 387 447 outlet;
#X obj 524 436 outlet;
#X obj 658 423 outlet;
#X text 248 415 Preset OSC1;
#X text 386 425 Preset OSC2;
#X text 523 414 Preset OSC3;
#X text 657 401 Preset OSC4;
#X obj 18 367 outlet;
#X text 10 335 pst-morph;
#X connect 0 0 4 0;
#X connect 1 0 2 0;
#X connect 2 0 5 0;
#X connect 4 0 21 0;
#X connect 5 0 6 0;
#X connect 5 1 3 0;
#X connect 5 2 7 0;
#X connect 6 0 21 0;
#X connect 7 0 21 0;
#X connect 8 0 38 0;
#X connect 9 0 11 0;
#X connect 10 0 11 0;
#X connect 11 0 23 0;
#X connect 11 1 9 1;
#X connect 12 0 17 0;
#X connect 13 0 15 0;
#X connect 14 0 11 0;
#X connect 15 0 9 0;
#X connect 15 1 10 0;
#X connect 15 2 14 0;
#X connect 16 0 18 0;
#X connect 17 0 13 0;
#X connect 17 1 20 0;
#X connect 18 0 13 0;
#X connect 18 1 19 0;
#X connect 19 0 24 1;
#X connect 19 0 27 1;
#X connect 19 0 26 1;
#X connect 19 0 28 1;
#X connect 19 0 25 1;
#X connect 20 0 24 1;
#X connect 20 0 27 1;
#X connect 20 0 26 1;
#X connect 20 0 28 1;
#X connect 20 0 25 1;
#X connect 23 0 24 0;
#X connect 23 1 27 0;
#X connect 23 2 26 0;
#X connect 23 3 28 0;
#X connect 23 4 25 0;
#X connect 24 0 22 0;
#X connect 25 0 33 0;
#X connect 26 0 31 0;
#X connect 27 0 30 0;
#X connect 28 0 32 0;
#X coords 0 -1 1 1 300 50 1 40 35;
#X restore 530 170 pd store-pst;
#X obj 7 27 Sequencer;
#X text 688 106 Developed by Collectif AAIO;
#X obj 98 340 FM_Osc 1;
#X obj 414 930 dac~;
#X obj 97 550 throw~ \$0-FMOsc1;
#X obj 309 601 catch~ \$0-FMOsc1;
#X obj 505 552 throw~ \$0-FMOsc2;
#X obj 128 872 throw~ \$0-FMOsc3;
#X obj 533 870 throw~ \$0-FMOsc4;
#X obj 650 602 catch~ \$0-FMOsc4;
#X obj 536 603 catch~ \$0-FMOsc3;
#X obj 421 600 catch~ \$0-FMOsc2;
#X text 7 4 Preset;
#X text 410 7 pst-morph;
#X obj 502 340 FM_Osc 2;
#X obj 130 652 FM_Osc 3;
#X obj 534 652 FM_Osc 4;
#X connect 2 0 3 1;
#X connect 2 0 5 7;
#X connect 2 1 3 0;
#X connect 2 2 5 6;
#X connect 2 3 17 6;
#X connect 2 4 18 6;
#X connect 2 5 19 6;
#X connect 3 0 5 4;
#X connect 3 0 17 4;
#X connect 3 0 18 4;
#X connect 3 0 19 4;
#X connect 3 1 5 5;
#X connect 3 1 17 5;
#X connect 3 1 18 5;
#X connect 3 1 19 5;
#X connect 5 0 7 0;
#X connect 8 0 6 0;
#X connect 8 0 5 0;
#X connect 8 0 17 0;
#X connect 8 0 18 0;
#X connect 8 0 19 0;
#X connect 12 0 6 0;
#X connect 12 0 5 3;
#X connect 12 0 17 3;
#X connect 12 0 18 3;
#X connect 12 0 19 3;
#X connect 13 0 6 0;
#X connect 13 0 5 2;
#X connect 13 0 17 2;
#X connect 13 0 18 2;
#X connect 13 0 19 2;
#X connect 14 0 5 1;
#X connect 14 0 6 0;
#X connect 14 0 17 1;
#X connect 14 0 18 1;
#X connect 14 0 19 1;
#X connect 17 0 9 0;
#X connect 18 0 10 0;
#X connect 19 0 11 0;
