#N canvas 197 23 1224 766 10;
#X obj 814 277 vsl 40 397 0 1 0 0 MACRO empty MACRO 2 7 1 10 -99865
-20480 -262144 39600 1;
#X obj 8 682 catch~ 1-Osc;
#X obj 102 682 catch~ 2-Osc;
#X obj 196 682 catch~ 3-Osc;
#X obj 290 682 catch~ 4-Osc;
#N canvas 420 289 356 174 init 0;
#X text 6 8 Externals needed to run the patch: [scale];
#X text 6 22 >> declare library maxlib;
#X obj 8 144 waveform;
#X obj 8 54 loadbang;
#X obj 8 81 tgl 15 0 empty empty empty 17 7 0 10 -262144 -1 -1 1 1
;
#X msg 8 107 \; pd dsp \$1;
#X text 63 144 Storage of all the waveforms used in FM_oscs;
#X obj 90 107 s init-bang;
#X connect 3 0 4 0;
#X connect 3 0 7 0;
#X connect 4 0 5 0;
#X restore 480 27 pd init;
#N canvas 664 23 656 301 store-pst 0;
#X obj 105 98 r store-pst;
#X obj 46 56 bng 15 250 50 0 empty empty SAVE 17 7 0 10 -262144 -1
-1;
#X obj 43 98 savepanel;
#X obj 62 167 s bang-pst;
#X obj 105 215 list trim;
#X obj 43 120 t s b b;
#X msg 43 187 write \$1;
#X msg 82 145 clear;
#X obj 215 55 hsl 115 15 0 1 0 0 pst-morph MACRO MORPH 0 8 0 10 -262144
-1 -1 11400 1;
#X obj 190 180 until;
#X msg 231 180 rewind;
#X obj 190 213 textfile;
#X obj 103 48 bng 15 250 50 0 empty empty OPEN_PRESET_1 17 7 0 10 -262144
-1 -1;
#X obj 190 129 openpanel;
#X msg 280 180 read \$1;
#X obj 190 151 t b b s;
#X obj 222 279 s pst;
#X obj 103 66 bng 15 250 50 0 empty empty OPEN_PRESET_2 17 7 0 10 -262144
-1 -1;
#X obj 190 98 t b b;
#X obj 231 98 t b b;
#X msg 306 213 2;
#X msg 276 213 1;
#X obj 43 241 qlist;
#X obj 190 257 t b l;
#X obj 190 235 list prepend;
#X connect 0 0 4 0;
#X connect 1 0 2 0;
#X connect 2 0 5 0;
#X connect 4 0 22 0;
#X connect 5 0 6 0;
#X connect 5 1 3 0;
#X connect 5 2 7 0;
#X connect 6 0 22 0;
#X connect 7 0 22 0;
#X connect 9 0 11 0;
#X connect 10 0 11 0;
#X connect 11 0 24 0;
#X connect 11 1 9 1;
#X connect 12 0 18 0;
#X connect 13 0 15 0;
#X connect 14 0 11 0;
#X connect 15 0 9 0;
#X connect 15 1 10 0;
#X connect 15 2 14 0;
#X connect 17 0 19 0;
#X connect 18 0 13 0;
#X connect 18 1 21 0;
#X connect 19 0 13 0;
#X connect 19 1 20 0;
#X connect 20 0 24 1;
#X connect 21 0 24 1;
#X connect 23 0 8 0;
#X connect 23 1 16 0;
#X connect 24 0 23 0;
#X coords 0 -1 1 1 300 50 1 40 35;
#X restore 476 222 pd store-pst;
#X obj 7 27 Sequencer;
#X obj 649 28 r proxi-bang;
#X obj 649 51 bng 15 250 50 0 empty empty empty 17 7 0 10 -262144 -1
-1;
#X obj 539 51 bng 15 250 50 0 empty empty empty 17 7 0 10 -262144 -1
-1;
#X msg 539 102 1;
#X obj 476 200 s stop-mic;
#X obj 539 132 s Play;
#X obj 476 176 r isPlaying;
#X obj 227 707 catch~ 5-AudioPlayer;
#X obj 76 832 writesf~;
#X msg 111 809 start;
#X msg 152 809 stop;
#X msg 76 788 open ./Sounds/Sample-6.wav;
#X obj 411 680 AudioPlayer 5;
#X obj 878 15 Sensors;
#X text 966 723 Developed by Collectif AAIO;
#X obj 547 200 s stop-proxi;
#X msg 568 176 0;
#X obj 411 275 FM_Osc 2;
#X obj 7 477 FM_Osc 3;
#X obj 411 477 FM_Osc 4;
#X text 728 29 Triggering sounds;
#X text 630 176 Mic input is stopped while sequence is playing, f
22;
#X text 515 156 ________________________________;
#N canvas 0 22 683 522 macro-mapping 0;
#X obj 88 49 inlet;
#X obj 88 471 outlet;
#X obj 106 161 r proxi-threshold-crossings;
#X obj 88 445 line;
#X obj 106 183 clip 0 4;
#X obj 106 205 / 4;
#X obj 115 233 r proxi-average;
#X msg 88 423 \$1 2000;
#X text 145 425 Macro inertia;
#X obj 124 256 r noise-average;
#X obj 124 282 scale 10 50 0.1 1;
#X obj 124 304 clip 0 1;
#X obj 97 138 r proxi-gravity-bang;
#X obj 133 329 r mic-gravity-bang;
#X obj 88 398 switch 5;
#X connect 0 0 14 0;
#X connect 2 0 4 0;
#X connect 3 0 1 0;
#X connect 4 0 5 0;
#X connect 5 0 14 2;
#X connect 6 0 14 3;
#X connect 7 0 3 0;
#X connect 9 0 10 0;
#X connect 10 0 11 0;
#X connect 11 0 14 4;
#X connect 12 0 14 1;
#X connect 13 0 14 5;
#X connect 14 0 7 0;
#X restore 878 490 pd macro-mapping;
#X text 876 355 Choose macro mapping:;
#X text 876 394 2 = number of threshold crossings;
#X obj 878 468 hradio 15 1 0 6 empty empty empty 0 -8 0 10 -262144
-1 -1 1;
#X obj 649 71 del 1000;
#X text 876 368 0 = manual;
#X text 876 407 3 = proxi average;
#X obj 539 28 r mic-variations;
#X obj 539 71 del 100;
#X obj 7 275 FM_Osc 1;
#X obj 271 801 *~;
#X obj 286 736 r noise-average;
#X obj 286 835 dac~;
#X floatatom 286 758 5 0 0 0 - - -, f 5;
#X obj 286 777 scale 0 50 0.1 1;
#X text 876 420 4 = noise average;
#X text 876 433 5 = mic gravity bang;
#X text 876 381 1 = proxi gravity bang;
#X connect 1 0 41 0;
#X connect 2 0 41 0;
#X connect 3 0 41 0;
#X connect 4 0 41 0;
#X connect 8 0 9 0;
#X connect 9 0 35 0;
#X connect 10 0 39 0;
#X connect 11 0 13 0;
#X connect 14 0 12 0;
#X connect 15 0 41 0;
#X connect 17 0 16 0;
#X connect 18 0 16 0;
#X connect 19 0 16 0;
#X connect 24 0 23 0;
#X connect 31 0 0 0;
#X connect 34 0 31 0;
#X connect 38 0 10 0;
#X connect 39 0 11 0;
#X connect 41 0 43 0;
#X connect 41 0 43 1;
#X connect 41 0 16 0;
#X connect 42 0 44 0;
#X connect 44 0 45 0;
#X connect 45 0 41 1;
