#N canvas 300 738 1181 517 10;
#X obj 153 346 vline~;
#X obj 246 15 inlet;
#X obj 9 16 inlet;
#X obj 384 16 inlet;
#X obj 527 15 inlet;
#X obj 680 15 inlet;
#X text 243 34 AtkAmp;
#X text 396 36 A;
#X text 538 35 D;
#X text 695 35 S;
#X text 840 34 R;
#X obj 821 15 inlet;
#X obj 117 16 inlet;
#X text 115 36 Delay;
#X obj 153 375 outlet~;
#X text 52 16 TRIGGER;
#X obj 16 65 sel 0 1;
#X obj 153 262 del 0;
#X msg 153 317 \$2 \$3 \, \$5 \$4 \$3;
#X obj 153 292 pack f f f f f;
#X obj 323 272 pack f f;
#X msg 323 310 0 \$2;
#X obj 268 113 Randomize;
#X obj 399 114 Randomize;
#X obj 702 116 Randomize;
#X obj 545 116 Randomize;
#X obj 135 118 Randomize;
#X obj 850 116 Randomize;
#X obj 318 17 inlet;
#X obj 174 18 inlet;
#X obj 450 16 inlet;
#X obj 600 18 inlet;
#X obj 744 16 inlet;
#X obj 898 13 inlet;
#X connect 0 0 14 0;
#X connect 1 0 22 1;
#X connect 2 0 16 0;
#X connect 3 0 23 1;
#X connect 4 0 25 1;
#X connect 5 0 24 1;
#X connect 11 0 27 1;
#X connect 12 0 26 1;
#X connect 16 0 20 0;
#X connect 16 0 26 0;
#X connect 16 0 22 0;
#X connect 16 0 23 0;
#X connect 16 0 25 0;
#X connect 16 0 24 0;
#X connect 16 0 27 0;
#X connect 16 1 17 0;
#X connect 17 0 19 0;
#X connect 18 0 0 0;
#X connect 19 0 18 0;
#X connect 20 0 21 0;
#X connect 21 0 0 0;
#X connect 22 0 19 1;
#X connect 23 0 19 2;
#X connect 24 0 19 4;
#X connect 25 0 19 3;
#X connect 26 0 17 1;
#X connect 27 0 20 1;
#X connect 28 0 22 2;
#X connect 29 0 26 2;
#X connect 30 0 23 2;
#X connect 31 0 25 2;
#X connect 32 0 24 2;
#X connect 33 0 27 2;
