#N canvas 640 157 548 253 10;
#X obj 360 22 nbx 4 14 0 1000 0 0 \$0-PADSR_Dlay \$1-set-PADSR_Dlay
empty 48 8 0 10 -228856 -1 -1 0 256;
#X obj 81 22 nbx 4 14 0 20000 0 0 \$0-PADSR_Amp \$1-set-PADSR_Amp empty
48 8 0 10 -99865 -262144 -262144 0 256;
#X obj 147 22 nbx 4 14 0 3000 0 0 \$0-PADSR_Atk \$1-set-PADSR_Atk empty
48 8 0 10 -191407 -1 -1 0 256;
#X obj 196 22 nbx 4 14 0 3000 0 0 \$0-PADSR_Dcay \$1-set-PADSR_Dcay
empty 48 8 0 10 -191407 -1 -1 217 256;
#X obj 245 22 nbx 4 14 0 20000 0 0 \$0-PADSR_Sus \$1-set-PADSR_Sus
empty 48 8 0 10 -191407 -1 -1 0 256;
#X obj 294 22 nbx 4 14 0 3000 0 0 \$0-PADSR_Rel \$1-set-PADSR_Rel empty
48 8 0 10 -191407 -1 -1 54 256;
#X obj 363 36 hsl 40 10 0 12000 0 0 \$0-PADSR_Dlay_rand \$1-set-PADSR_Dlay_rand
Rand 10 5 0 8 -262091 -1 -1 0 1;
#X obj 84 36 hsl 40 10 0 5000 0 0 \$0-PADSR_Amp_rand \$1-set-PADSR_Amp_rand
Rand 10 5 0 8 -262027 -1 -1 0 1;
#X obj 150 36 hsl 40 10 0 3000 0 0 \$0-PADSR_Atk_rand \$1-set-PADSR_Atk_rand
Rand 10 5 0 8 -262091 -1 -1 0 1;
#X obj 199 36 hsl 40 10 0 3000 0 0 \$0-PADSR_Dcay_rand \$1-set-PADSR_Dcay_rand
Rand 10 5 0 8 -262091 -1 -1 0 1;
#X obj 248 36 hsl 40 10 0 12000 0 0 \$0-PADSR_Sus_rand \$1-set-PADSR_Sus_rand
Rand 10 5 0 8 -262091 -1 -1 0 1;
#X obj 297 36 hsl 40 10 0 3000 0 0 \$0-PADSR_Rel_rand \$1-set-PADSR_Rel_rand
Rand 10 5 0 8 -262091 -1 -1 0 1;
#X obj 162 110 Randomize;
#X obj 31 110 Randomize;
#X obj 233 110 Randomize;
#X obj 305 110 Randomize;
#X obj 378 110 Randomize;
#X obj 31 6 inlet;
#X obj 96 110 Randomize;
#X obj 14 137 ADSR_float, f 18;
#X obj 15 219 outlet;
#X obj 31 36 sel 1;
#X text 79 6 ENVELOPPE;
#X obj 419 9 inlet;
#X obj 15 195 +;
#X obj 15 165 t b f;
#X text 417 29 Valeur par défaut;
#X text 85 45 Depth;
#X text 148 45 Attack;
#X text 200 45 Decay;
#X text 244 45 Sustain;
#X text 293 45 Release;
#X text 365 45 Delay;
#X connect 0 0 13 1;
#X connect 1 0 18 1;
#X connect 2 0 12 1;
#X connect 3 0 14 1;
#X connect 4 0 15 1;
#X connect 5 0 16 1;
#X connect 6 0 13 2;
#X connect 7 0 18 2;
#X connect 8 0 12 2;
#X connect 9 0 14 2;
#X connect 10 0 15 2;
#X connect 11 0 16 2;
#X connect 12 0 19 3;
#X connect 13 0 19 1;
#X connect 14 0 19 4;
#X connect 15 0 19 5;
#X connect 16 0 19 6;
#X connect 17 0 21 0;
#X connect 17 0 19 0;
#X connect 18 0 19 2;
#X connect 19 0 24 0;
#X connect 21 0 13 0;
#X connect 21 0 18 0;
#X connect 21 0 12 0;
#X connect 21 0 14 0;
#X connect 21 0 15 0;
#X connect 21 0 16 0;
#X connect 23 0 25 0;
#X connect 24 0 20 0;
#X connect 25 0 24 0;
#X connect 25 1 24 1;
#X coords 0 -1 1 1 330 55 2 78 6;
