#N canvas 414 93 658 593 10;
#X obj 106 -20 vradio 15 1 0 6 \$0-waveform \$1-set-waveform SAMPLE_N
0 100 0 10 -262144 -1 -1 2;
#X obj 456 -18 vsl 40 100 0 1 0 0 \$0-Vol \$1-set-Vol VOL 10 5 0 10
-99865 -262144 -262144 0 1;
#X obj 23 466 *~ 0;
#X obj 239 -20 vradio 15 1 0 6 \$0-AM_Waveform \$1-set-AM_Waveform
AM_WAVEFORM 0 100 0 10 -262144 -1 -1 0;
#X text 257 10 Saw;
#X obj 291 17 hsl 40 15 0 20000 0 0 \$0-AM_Freq \$1-set-AM_Freq AMFreq
0 8 0 10 -260097 -1 -262144 0 1;
#X obj 291 -20 hsl 40 15 0 1 0 0 \$0-AM_Depth \$1-set-AM_Depth AMDepth
0 8 0 10 -260097 -1 -262144 0 1;
#X obj 23 377 *~;
#X obj 173 110 nbx 4 14 0 11880 0 0 \$0-LADSR_Dlay \$1-set-LADSR_Dlay
Dlay 0 -6 0 10 -36344 -1 -1 0 256;
#X obj 239 110 nbx 4 14 0 1 0 0 \$0-LADSR_Amp \$1-set-LADSR_Amp Atk.Amp
0 -6 0 10 -36344 -1 -1 0 256;
#X obj 304 110 nbx 4 14 0 11880 0 0 \$0-LADSR_Atk \$1-set-LADSR_Atk
A 0 -6 0 10 -27631 -1 -1 0 256;
#X obj 353 110 nbx 4 14 0 11880 0 0 \$0-LADSR_Dcay \$1-set-LADSR_Dcay
D 0 -6 0 10 -27631 -1 -1 0 256;
#X obj 402 110 nbx 4 14 0 1 0 0 \$0-LADSR_Sus \$1-set-LADSR_Sus S 0
-6 0 10 -27631 -1 -1 0 256;
#X obj 451 110 nbx 4 14 0 11880 0 0 \$0-LADSR_Rel \$1-set-LADSR_Rel
R 0 -6 0 10 -27631 -1 -1 0 256;
#X obj 23 438 *~;
#X obj 38 -35 loadbang;
#X text 54 375 AMPLITUDE ENVELOPPE;
#X obj 456 403 line;
#X msg 456 381 \$1 100;
#N canvas 0 23 450 300 AmpModulation 0;
#X obj 238 83 phasor~;
#X obj 238 114 wavetable~;
#X obj 129 185 DryWet;
#X msg 129 115 1;
#X obj 188 114 line;
#X msg 188 83 \$1 100;
#X obj 129 207 outlet~;
#X obj 129 25 inlet;
#X obj 188 24 inlet;
#X obj 238 24 inlet;
#X obj 295 24 inlet;
#X connect 0 0 1 0;
#X connect 1 0 2 2;
#X connect 2 0 6 0;
#X connect 3 0 2 0;
#X connect 4 0 2 1;
#X connect 5 0 4 0;
#X connect 7 0 3 0;
#X connect 8 0 5 0;
#X connect 9 0 0 0;
#X connect 10 0 1 1;
#X restore 38 416 pd AmpModulation;
#X text 51 440 AM;
#N canvas 74 260 920 217 presets 0;
#N canvas 177 265 680 310 AM-pst 0;
#X obj 80 146 outlet;
#X obj 246 146 outlet;
#X obj 308 16 inlet;
#X obj 80 106 pack s s f;
#X obj 80 16 inlet;
#X obj 246 107 pack s s f;
#X obj 396 146 outlet;
#X obj 396 107 pack s s f;
#X obj 137 82 r \$0-AM_Waveform;
#X obj 303 83 r \$0-AM_Depth;
#X obj 453 83 r \$0-AM_Freq;
#X msg 108 61 symbol \$1-pst-AM_Waveform;
#X msg 274 62 symbol \$1-pst-AM_Depth;
#X msg 424 62 symbol \$1-pst-AM_Freq;
#X obj 216 262 outlet;
#X obj 216 223 pack s s f;
#X obj 426 262 outlet;
#X obj 426 223 pack s s f;
#X msg 244 178 symbol \$1-pst-AM_Depth_rand;
#X obj 273 199 r \$0-AM_Depth_rand;
#X msg 454 178 symbol \$1-pst-AM_Freq_rand;
#X obj 483 199 r \$0-AM_Freq_rand;
#X connect 2 0 11 0;
#X connect 2 0 12 0;
#X connect 2 0 13 0;
#X connect 2 0 18 0;
#X connect 2 0 20 0;
#X connect 3 0 0 0;
#X connect 4 0 3 0;
#X connect 4 0 5 0;
#X connect 4 0 7 0;
#X connect 4 0 15 0;
#X connect 4 0 17 0;
#X connect 5 0 1 0;
#X connect 7 0 6 0;
#X connect 8 0 3 2;
#X connect 9 0 5 2;
#X connect 10 0 7 2;
#X connect 11 0 3 1;
#X connect 12 0 5 1;
#X connect 13 0 7 1;
#X connect 15 0 14 0;
#X connect 17 0 16 0;
#X connect 18 0 15 1;
#X connect 19 0 15 2;
#X connect 20 0 17 1;
#X connect 21 0 17 2;
#X restore 201 92 pd AM-pst;
#X obj 153 13 inlet;
#X obj 13 177 s store-pst;
#X obj 13 13 r bang-pst;
#X msg 13 35 add;
#N canvas 950 433 490 200 vol-pst 0;
#X obj 80 146 outlet;
#X obj 108 37 inlet;
#X obj 80 106 pack s s f;
#X obj 80 16 inlet;
#X obj 137 82 r \$0-Vol;
#X msg 108 61 symbol \$1-pst-Vol;
#X connect 1 0 5 0;
#X connect 2 0 0 0;
#X connect 3 0 2 0;
#X connect 4 0 2 2;
#X connect 5 0 2 1;
#X restore 558 90 pd vol-pst;
#N canvas 0 23 1218 421 Level-ADSR-pst 0;
#X obj 63 158 outlet;
#X obj 249 158 outlet;
#X obj 331 28 inlet;
#X obj 63 118 pack s s f;
#X obj 63 28 inlet;
#X obj 249 119 pack s s f;
#X obj 439 158 outlet;
#X obj 439 119 pack s s f;
#X obj 609 158 outlet;
#X obj 609 119 pack s s f;
#X obj 809 158 outlet;
#X obj 809 119 pack s s f;
#X obj 989 158 outlet;
#X obj 989 119 pack s s f;
#X msg 91 73 symbol \$1-pst-LADSR_Dlay;
#X obj 120 94 r \$0-LADSR_Dlay;
#X msg 278 74 symbol \$1-pst-LADSR_Amp;
#X obj 306 95 r \$0-LADSR_Amp;
#X msg 467 74 symbol \$1-pst-LADSR_Atk;
#X obj 496 95 r \$0-LADSR_Atk;
#X msg 637 74 symbol \$1-pst-LADSR_Dcay;
#X obj 666 95 r \$0-LADSR_Dcay;
#X msg 837 74 symbol \$1-pst-LADSR_Sus;
#X obj 866 95 r \$0-LADSR_Sus;
#X msg 1017 74 symbol \$1-pst-LADSR_Rel;
#X obj 1046 95 r \$0-LADSR_Rel;
#X obj 36 282 outlet;
#X obj 36 242 pack s s f;
#X obj 302 282 outlet;
#X obj 302 243 pack s s f;
#X obj 532 282 outlet;
#X obj 532 243 pack s s f;
#X obj 762 282 outlet;
#X obj 762 243 pack s s f;
#X obj 962 282 outlet;
#X obj 962 243 pack s s f;
#X msg 64 197 symbol \$1-pst-LADSR_Dlay_rand;
#X obj 93 218 r \$0-LADSR_Dlay_rand;
#X obj 359 219 r \$0-LADSR_Atk_rand;
#X msg 330 198 symbol \$1-pst-LADSR_Atk_rand;
#X msg 560 198 symbol \$1-pst-LADSR_Dcay_rand;
#X obj 589 219 r \$0-LADSR_Dcay_rand;
#X msg 990 198 symbol \$1-pst-LADSR_Rel_rand;
#X obj 1019 219 r \$0-LADSR_Rel_rand, f 23;
#X msg 790 198 symbol \$1-pst-LADSR_Sus_rand;
#X obj 819 219 r \$0-LADSR_Sus_rand;
#X connect 2 0 14 0;
#X connect 2 0 16 0;
#X connect 2 0 18 0;
#X connect 2 0 20 0;
#X connect 2 0 22 0;
#X connect 2 0 24 0;
#X connect 2 0 36 0;
#X connect 2 0 39 0;
#X connect 2 0 40 0;
#X connect 2 0 44 0;
#X connect 2 0 42 0;
#X connect 3 0 0 0;
#X connect 4 0 3 0;
#X connect 4 0 5 0;
#X connect 4 0 7 0;
#X connect 4 0 9 0;
#X connect 4 0 11 0;
#X connect 4 0 13 0;
#X connect 4 0 27 0;
#X connect 4 0 29 0;
#X connect 4 0 31 0;
#X connect 4 0 33 0;
#X connect 4 0 35 0;
#X connect 5 0 1 0;
#X connect 7 0 6 0;
#X connect 9 0 8 0;
#X connect 11 0 10 0;
#X connect 13 0 12 0;
#X connect 14 0 3 1;
#X connect 15 0 3 2;
#X connect 16 0 5 1;
#X connect 17 0 5 2;
#X connect 18 0 7 1;
#X connect 19 0 7 2;
#X connect 20 0 9 1;
#X connect 21 0 9 2;
#X connect 22 0 11 1;
#X connect 23 0 11 2;
#X connect 24 0 13 1;
#X connect 25 0 13 2;
#X connect 27 0 26 0;
#X connect 29 0 28 0;
#X connect 31 0 30 0;
#X connect 33 0 32 0;
#X connect 35 0 34 0;
#X connect 36 0 27 1;
#X connect 37 0 27 2;
#X connect 38 0 29 2;
#X connect 39 0 29 1;
#X connect 40 0 31 1;
#X connect 41 0 31 2;
#X connect 42 0 35 1;
#X connect 43 0 35 2;
#X connect 44 0 33 1;
#X connect 45 0 33 2;
#X restore 277 92 pd Level-ADSR-pst;
#N canvas 947 563 444 195 AudioPlayer-pst 0;
#X obj 267 62 r \$0-waveform;
#X obj 200 126 outlet;
#X obj 233 15 inlet;
#X obj 200 86 pack s s f;
#X obj 11 9 inlet;
#X msg 233 41 symbol \$1-pst-waveform;
#X obj 11 126 outlet;
#X obj 11 86 pack s s f;
#X msg 44 41 symbol \$1-pst-AudioLoop;
#X obj 78 62 r \$0-AudioLoop;
#X obj 354 88 pack s s f;
#X msg 387 43 symbol \$1-pst-playerOn;
#X obj 421 64 r \$0-playerOn;
#X obj 354 110 outlet;
#X connect 0 0 3 2;
#X connect 2 0 5 0;
#X connect 2 0 8 0;
#X connect 2 0 11 0;
#X connect 3 0 1 0;
#X connect 4 0 3 0;
#X connect 4 0 7 0;
#X connect 4 0 10 0;
#X connect 5 0 3 1;
#X connect 7 0 6 0;
#X connect 8 0 7 1;
#X connect 9 0 7 2;
#X connect 10 0 13 0;
#X connect 11 0 10 1;
#X connect 12 0 10 2;
#X restore 13 92 pd AudioPlayer-pst;
#X connect 0 0 2 0;
#X connect 0 1 2 0;
#X connect 0 2 2 0;
#X connect 0 3 2 0;
#X connect 0 4 2 0;
#X connect 1 0 7 1;
#X connect 1 0 0 1;
#X connect 1 0 6 1;
#X connect 1 0 5 1;
#X connect 3 0 4 0;
#X connect 4 0 7 0;
#X connect 4 0 0 0;
#X connect 4 0 6 0;
#X connect 4 0 5 0;
#X connect 5 0 2 0;
#X connect 6 0 2 0;
#X connect 6 1 2 0;
#X connect 6 2 2 0;
#X connect 6 3 2 0;
#X connect 6 4 2 0;
#X connect 6 5 2 0;
#X connect 6 6 2 0;
#X connect 6 7 2 0;
#X connect 6 8 2 0;
#X connect 6 9 2 0;
#X connect 6 10 2 0;
#X connect 7 0 2 0;
#X connect 7 1 2 0;
#X connect 7 2 2 0;
#X restore 463 485 pd presets;
#X obj 463 455 f \$1;
#N canvas 273 23 1225 601 pst-routing 0;
#X obj 10 24 r pst;
#X obj 10 46 route 1 2;
#X obj 116 317 scale 0 1 0 1;
#X obj 11 249 r pst-morph;
#X obj 11 373 scale 0 1 0 1;
#X obj 137 373 scale 0 1 0 1;
#X obj 256 373 scale 0 1 0 1;
#X obj 382 373 scale 0 1 0 1;
#X obj 508 373 scale 0 1 0 1;
#X obj 629 372 scale 0 1 0 1;
#X obj 11 317 scale 0 1 0 1;
#X obj 11 495 scale 0 1 0 1;
#X obj 140 495 scale 0 1 0 1;
#X obj 256 495 scale 0 1 0 1;
#X obj 116 339 s \$1-set-waveform;
#X obj 11 339 s \$1-set-Vol;
#X obj 11 517 s \$1-set-AM_Waveform;
#X obj 140 517 s \$1-set-AM_Depth;
#X obj 256 517 s \$1-set-AM_Freq;
#X obj 11 395 s \$1-set-LADSR_Dlay;
#X obj 137 395 s \$1-set-LADSR_Amp;
#X obj 256 395 s \$1-set-LADSR_Atk;
#X obj 382 395 s \$1-set-LADSR_Dcay;
#X obj 508 395 s \$1-set-LADSR_Sus;
#X obj 629 395 s \$1-set-LADSR_Rel;
#X obj 11 434 scale 0 1 0 1;
#X obj 186 434 scale 0 1 0 1;
#X obj 355 434 scale 0 1 0 1;
#X obj 538 434 scale 0 1 0 1;
#X obj 709 433 scale 0 1 0 1;
#X obj 11 542 scale 0 1 0 1;
#X obj 182 542 scale 0 1 0 1;
#X obj 11 456 s \$1-set-LADSR_Dlay_rand;
#X obj 186 456 s \$1-set-LADSR_Atk_rand;
#X obj 355 456 s \$1-set-LADSR_Dcay_rand;
#X obj 538 456 s \$1-set-LADSR_Sus_rand;
#X obj 709 456 s \$1-set-LADSR_Rel_rand;
#X obj 11 564 s \$1-set-AM_Depth_rand;
#X obj 182 564 s \$1-set-AM_Freq_rand;
#X obj 245 277 scale 0 1 0 1;
#X obj 245 339 s \$1-set-AudioLoop;
#X obj 245 318 change;
#X obj 10 72 route \$1-pst-waveform \$1-pst-LADSR_Dlay \$1-pst-LADSR_Amp
\$1-pst-LADSR_Atk \$1-pst-LADSR_Dcay \$1-pst-LADSR_Sus \$1-pst-LADSR_Rel
\$1-pst-Vol \$1-pst-AM_Waveform \$1-pst-AM_Depth \$1-pst-AM_Freq \$1-pst-LADSR_Dlay_rand
\$1-pst-LADSR_Atk_rand \$1-pst-LADSR_Dcay_rand \$1-pst-LADSR_Sus_rand
\$1-pst-LADSR_Rel_rand \$1-pst-AM_Depth_rand \$1-pst-AM_Freq_rand \$1-pst-AudioLoop
\$1-pst-playerOn, f 80;
#X obj 398 569 s set-playerOn;
#X obj 398 547 change;
#X obj 398 502 scale 0 1 0 1;
#X obj 583 72 route \$1-pst-waveform \$1-pst-LADSR_Dlay \$1-pst-LADSR_Amp
\$1-pst-LADSR_Atk \$1-pst-LADSR_Dcay \$1-pst-LADSR_Sus \$1-pst-LADSR_Rel
\$1-pst-Vol \$1-pst-AM_Waveform \$1-pst-AM_Depth \$1-pst-AM_Freq \$1-pst-LADSR_Dlay_rand
\$1-pst-LADSR_Atk_rand \$1-pst-LADSR_Dcay_rand \$1-pst-LADSR_Sus_rand
\$1-pst-LADSR_Rel_rand \$1-pst-AM_Depth_rand \$1-pst-AM_Freq_rand \$1-pst-AudioLoop
\$1-pst-playerOn, f 80;
#X obj 398 525 round-to-int;
#X obj 245 297 round-to-int;
#X connect 0 0 1 0;
#X connect 1 0 42 0;
#X connect 1 1 46 0;
#X connect 2 0 14 0;
#X connect 3 0 2 0;
#X connect 3 0 4 0;
#X connect 3 0 5 0;
#X connect 3 0 6 0;
#X connect 3 0 7 0;
#X connect 3 0 8 0;
#X connect 3 0 9 0;
#X connect 3 0 10 0;
#X connect 3 0 11 0;
#X connect 3 0 12 0;
#X connect 3 0 13 0;
#X connect 3 0 25 0;
#X connect 3 0 26 0;
#X connect 3 0 27 0;
#X connect 3 0 28 0;
#X connect 3 0 29 0;
#X connect 3 0 30 0;
#X connect 3 0 31 0;
#X connect 3 0 39 0;
#X connect 3 0 45 0;
#X connect 4 0 19 0;
#X connect 5 0 20 0;
#X connect 6 0 21 0;
#X connect 7 0 22 0;
#X connect 8 0 23 0;
#X connect 9 0 24 0;
#X connect 10 0 15 0;
#X connect 11 0 16 0;
#X connect 12 0 17 0;
#X connect 13 0 18 0;
#X connect 25 0 32 0;
#X connect 26 0 33 0;
#X connect 27 0 34 0;
#X connect 28 0 35 0;
#X connect 29 0 36 0;
#X connect 30 0 37 0;
#X connect 31 0 38 0;
#X connect 39 0 48 0;
#X connect 41 0 40 0;
#X connect 42 0 2 3;
#X connect 42 1 4 3;
#X connect 42 2 5 3;
#X connect 42 3 6 3;
#X connect 42 4 7 3;
#X connect 42 5 8 3;
#X connect 42 6 9 3;
#X connect 42 7 10 3;
#X connect 42 8 11 3;
#X connect 42 9 12 3;
#X connect 42 10 13 3;
#X connect 42 11 25 3;
#X connect 42 12 26 3;
#X connect 42 13 27 3;
#X connect 42 14 28 3;
#X connect 42 15 29 3;
#X connect 42 16 30 3;
#X connect 42 17 31 3;
#X connect 42 18 39 3;
#X connect 42 19 45 1;
#X connect 44 0 43 0;
#X connect 45 0 47 0;
#X connect 46 0 2 4;
#X connect 46 1 4 4;
#X connect 46 2 5 4;
#X connect 46 3 6 4;
#X connect 46 4 7 4;
#X connect 46 5 8 4;
#X connect 46 6 9 4;
#X connect 46 7 10 4;
#X connect 46 8 11 4;
#X connect 46 9 12 4;
#X connect 46 10 13 4;
#X connect 46 11 25 4;
#X connect 46 12 26 4;
#X connect 46 13 27 4;
#X connect 46 14 28 4;
#X connect 46 15 29 4;
#X connect 46 16 30 4;
#X connect 46 17 31 4;
#X connect 46 18 39 4;
#X connect 46 19 45 2;
#X connect 47 0 44 0;
#X connect 48 0 41 0;
#X restore 439 505 pd pst-routing;
#X obj 291 -5 hsl 40 10 0 1 0 0 \$0-AM_Depth_rand \$1-set-AM_Depth_rand
Rand 10 5 0 8 -128992 -262144 -262144 0 1;
#X obj 291 32 hsl 40 10 0 20000 0 0 \$0-AM_Freq_rand \$1-set-AM_Freq_rand
Rand 10 5 0 8 -128992 -262144 -262144 0 1;
#X obj 176 124 hsl 40 10 0 11880 0 0 \$0-LADSR_Dlay_rand \$1-set-LADSR_Dlay_rand
Rand 10 5 0 8 -128992 -262144 -262144 0 1;
#X obj 307 124 hsl 40 10 0 11880 0 0 \$0-LADSR_Atk_rand \$1-set-LADSR_Atk_rand
Rand 10 5 0 8 -128992 -262144 -262144 0 1;
#X obj 356 124 hsl 40 10 0 11880 0 0 \$0-LADSR_Dcay_rand \$1-set-LADSR_Dcay_rand
Rand 10 5 0 8 -128992 -262144 -262144 0 1;
#X obj 405 124 hsl 40 10 0 1 0 0 \$0-LADSR_Sus_rand \$1-set-LADSR_Sus_rand
Rand 10 5 0 8 -128992 -262144 -262144 0 1;
#X obj 454 124 hsl 40 10 0 11880 0 0 \$0-LADSR_Rel_rand \$1-set-LADSR_Rel_rand
Rand 10 5 0 8 -128992 -262144 -262144 0 1;
#X text 257 -20 Sin;
#X text 257 -5 Squ;
#X text 257 26 Pul;
#X text 256 42 Tri;
#X text 257 56 Noi;
#X text 102 107 LEVEL ENV;
#X obj 245 350 Randomize;
#X obj 160 416 Randomize;
#X obj 232 416 Randomize;
#X obj 173 350 Randomize;
#X obj 316 350 Randomize;
#X obj 388 350 Randomize;
#X obj 461 350 Randomize;
#X obj 38 350 ADSR, f 18;
#X obj 23 103 r TrigNote;
#X text 86 181 Trig enveloppes & randomize;
#X text 87 196 Send Note to Osc;
#X obj 23 237 Player;
#X obj 143 -20 tgl 30 0 \$0-AudioLoop \$1-set-AudioLoop Loop-Mode 35
15 0 10 -27631 -1 -1 0 1;
#X obj 23 184 t f b f;
#X text 124 -20 0;
#X text 124 -6 1;
#X text 124 10 2;
#X text 124 26 3;
#X text 124 41 4;
#X text 124 56 5;
#X obj 23 501 throw~ \$1-AudioPlayer;
#X obj 23 125 spigot;
#X obj 143 20 tgl 30 0 \$0-playerOn \$1-set-playerOn Player_On 35 15
0 10 -27631 -1 -1 0 1;
#X connect 0 0 48 0;
#X connect 1 0 18 0;
#X connect 2 0 57 0;
#X connect 3 0 19 3;
#X connect 5 0 39 1;
#X connect 6 0 38 1;
#X connect 7 0 14 0;
#X connect 8 0 40 1;
#X connect 9 0 44 2;
#X connect 10 0 37 1;
#X connect 11 0 41 1;
#X connect 12 0 42 1;
#X connect 13 0 43 1;
#X connect 14 0 2 0;
#X connect 15 0 3 0;
#X connect 15 0 0 0;
#X connect 15 0 19 0;
#X connect 15 0 22 0;
#X connect 17 0 2 1;
#X connect 18 0 17 0;
#X connect 19 0 14 1;
#X connect 22 0 21 0;
#X connect 24 0 38 2;
#X connect 25 0 39 2;
#X connect 26 0 40 2;
#X connect 27 0 37 2;
#X connect 28 0 41 2;
#X connect 29 0 42 2;
#X connect 30 0 43 2;
#X connect 37 0 44 3;
#X connect 38 0 19 1;
#X connect 39 0 19 2;
#X connect 40 0 44 1;
#X connect 41 0 44 4;
#X connect 42 0 44 5;
#X connect 43 0 44 6;
#X connect 44 0 7 1;
#X connect 45 0 58 0;
#X connect 48 0 7 0;
#X connect 48 1 7 0;
#X connect 49 0 48 2;
#X connect 50 0 44 0;
#X connect 50 1 38 0;
#X connect 50 1 39 0;
#X connect 50 1 43 0;
#X connect 50 1 42 0;
#X connect 50 1 41 0;
#X connect 50 1 37 0;
#X connect 50 1 40 0;
#X connect 50 2 48 1;
#X connect 58 0 50 0;
#X connect 59 0 58 1;
#X coords 0 -1 1 1 400 175 1 100 -35;
