#N canvas 283 294 598 378 10;
#X obj 80 278 hip~;
#X obj 159 278 vcf~;
#X obj 135 64 vradio 15 1 0 4 empty empty empty 0 -8 0 10 -262144 -1
-1 2;
#X obj 80 250 *~;
#X obj 38 11 inlet~;
#X obj 135 11 loadbang;
#X obj 135 34 f \$1;
#X obj 120 250 *~;
#X obj 160 250 *~;
#X text 151 78 HP filter;
#X text 151 93 BP filter;
#X text 151 108 LP filter;
#X obj 240 147 hsl 300 15 0.7 200 0 0 empty empty Q -10 7 0 10 -262144
-1 -1 5100 1;
#X obj 79 346 outlet~;
#X obj 39 250 *~;
#X obj 54 217 == 0;
#X obj 175 217 == 3;
#X obj 135 217 == 2;
#X obj 95 217 == 1;
#X obj 120 278 vcf~, f 5;
#X obj 212 63 ADSR_Random;
#X text 151 63 Bypass;
#X obj 212 243 line;
#X msg 212 216 \$1 50;
#X obj 212 11 r TrigNote;
#X obj 78 323 DryWet;
#X obj 240 126 hsl 300 15 20 12000 0 0 empty empty Cutoff -40 7 0 10
-262144 -1 -1 18000 1;
#X obj 239 168 hsl 300 15 0 1 0 0 empty empty DryWet -40 7 0 10 -262144
-1 -1 29900 1;
#X obj 535 39 line;
#X msg 535 12 \$1 300;
#X obj 252 243 line;
#X msg 252 216 \$1 100;
#X connect 0 0 25 2;
#X connect 1 1 25 2;
#X connect 2 0 16 0;
#X connect 2 0 17 0;
#X connect 2 0 18 0;
#X connect 2 0 15 0;
#X connect 3 0 0 0;
#X connect 4 0 3 0;
#X connect 4 0 7 0;
#X connect 4 0 8 0;
#X connect 4 0 14 0;
#X connect 4 0 25 0;
#X connect 5 0 6 0;
#X connect 6 0 2 0;
#X connect 7 0 19 0;
#X connect 8 0 1 0;
#X connect 12 0 23 0;
#X connect 14 0 13 0;
#X connect 15 0 14 1;
#X connect 16 0 8 1;
#X connect 17 0 7 1;
#X connect 18 0 3 1;
#X connect 19 0 25 2;
#X connect 20 0 0 1;
#X connect 20 0 19 1;
#X connect 20 0 1 1;
#X connect 22 0 1 2;
#X connect 22 0 19 2;
#X connect 23 0 22 0;
#X connect 24 0 20 0;
#X connect 25 0 13 0;
#X connect 26 0 29 0;
#X connect 27 0 31 0;
#X connect 28 0 20 1;
#X connect 29 0 28 0;
#X connect 30 0 25 1;
#X connect 31 0 30 0;
#X coords 0 -1 1 1 415 130 2 130 60;
