#N canvas 377 121 909 593 10;
#X obj 23 308 phasor~;
#X obj 23 330 wavetable~;
#X obj 23 286 +~;
#X obj 106 -20 vradio 15 1 0 6 \$0-waveform \$1-set-waveform WAVEFORM
0 100 0 10 -262144 -1 -1 0;
#X text 124 10 Saw;
#X obj 456 -18 vsl 40 100 0 1 0 0 \$0-Vol \$1-set-Vol VOL 10 5 0 10
-99865 -262144 -262144 9900 1;
#X obj 242 11 hsl 40 15 0 20000 0 0 \$0-FM_Osc2 \$1-set-FM_Osc2 FM_Osc2
0 8 0 10 -260097 -1 -262144 0 1;
#X obj 242 42 hsl 40 15 0 20000 0 0 \$0-FM_Osc3 \$1-set-FM_Osc3 FM_Osc3
0 8 0 10 -260097 -1 -262144 0 1;
#X obj 242 72 hsl 40 15 0 20000 0 0 \$0-FM_Osc4 \$1-set-FM_Osc4 FM_Osc4
0 8 0 10 -260097 -1 -262144 0 1;
#X obj 23 466 *~ 0;
#X obj 304 -20 vradio 15 1 0 6 \$0-AM_Waveform \$1-set-AM_Waveform
AM_WAVEFORM 0 100 0 10 -262144 -1 -1 0;
#X text 322 10 Saw;
#X obj 356 17 hsl 40 15 0 20000 0 0 \$0-AM_Freq \$1-set-AM_Freq AMFreq
0 8 0 10 -260097 -1 -262144 0 1;
#X obj 356 -20 hsl 40 15 0 1 0 0 \$0-AM_Depth \$1-set-AM_Depth AMDepth
0 8 0 10 -260097 -1 -262144 0 1;
#X obj 23 377 *~;
#X obj 23 245 +~;
#X obj 173 110 nbx 4 14 0 11880 0 0 \$0-LADSR_Dlay \$1-set-LADSR_Dlay
Dlay 0 -6 0 10 -36344 -1 -1 0 256;
#X obj 239 110 nbx 4 14 0 1 0 0 \$0-LADSR_Amp \$1-set-LADSR_Amp Atk.Amp
0 -6 0 10 -36344 -1 -1 1 256;
#X obj 304 110 nbx 4 14 0 11880 0 0 \$0-LADSR_Atk \$1-set-LADSR_Atk
A 0 -6 0 10 -27631 -1 -1 1 256;
#X obj 353 110 nbx 4 14 0 11880 0 0 \$0-LADSR_Dcay \$1-set-LADSR_Dcay
D 0 -6 0 10 -27631 -1 -1 0 256;
#X obj 402 110 nbx 4 14 0 1 0 0 \$0-LADSR_Sus \$1-set-LADSR_Sus S 0
-6 0 10 -27631 -1 -1 1 256;
#X obj 451 110 nbx 4 14 0 11880 0 0 \$0-LADSR_Rel \$1-set-LADSR_Rel
R 0 -6 0 10 -27631 -1 -1 18 256;
#X obj 173 138 nbx 4 14 0 11880 0 0 \$0-PADSR_Dlay \$1-set-PADSR_Dlay
empty 48 8 0 10 -56448 -1 -1 0 256;
#X obj 238 138 nbx 4 14 0 19980 0 0 \$0-PADSR_Amp \$1-set-PADSR_Amp
empty 48 8 0 10 -56448 -1 -1 0 256;
#X obj 304 138 nbx 4 14 0 11880 0 0 \$0-PADSR_Atk \$1-set-PADSR_Atk
empty 48 8 0 10 -51896 -1 -1 0 256;
#X obj 353 138 nbx 4 14 0 11880 0 0 \$0-PADSR_Dcay \$1-set-PADSR_Dcay
empty 48 8 0 10 -51896 -1 -1 0 256;
#X obj 402 138 nbx 4 14 0 20000 0 0 \$0-PADSR_Sus \$1-set-PADSR_Sus
empty 48 8 0 10 -51896 -1 -1 0 256;
#X obj 451 138 nbx 4 14 0 11880 0 0 \$0-PADSR_Rel \$1-set-PADSR_Rel
empty 48 8 0 10 -51896 -1 -1 0 256;
#X text 102 135 PITCH ENV;
#X obj 242 -20 hsl 40 15 0 20000 0 0 \$0-FM_Osc1 \$1-set-FM_Osc1 FM_Osc1
0 8 0 10 -260097 -1 -262144 0 1;
#X obj 23 438 *~;
#X obj 38 -35 loadbang;
#X text 54 375 AMPLITUDE ENVELOPPE;
#X text 52 246 PITCH ENVELOPPE;
#X obj 456 403 line;
#X msg 456 381 \$1 100;
#X obj 23 507 throw~ \$1-Osc;
#X obj 118 507 s~ \$1-FMOsc;
#X obj 173 -20 nbx 5 25 0 20000 0 0 \$0-Pitch \$1-set-Pitch Pitch 0
-7 0 10 -27631 -262144 -1 1760 256;
#X obj 23 164 line;
#X obj 176 49 hsl 40 15 0 2000 0 0 \$0-glide \$1-set-glide Glide 5
8 0 10 -4032 -1 -1 0 1;
#X obj 23 141 pack f 0;
#N canvas 0 22 450 300 AmpModulation 0;
#X obj 238 83 phasor~;
#X obj 238 114 wavetable~;
#X obj 129 185 DryWet;
#X msg 129 115 1;
#X obj 188 114 line;
#X msg 188 83 \$1 100;
#X obj 129 207 outlet~;
#X obj 129 25 inlet;
#X obj 188 24 inlet;
#X obj 238 24 inlet;
#X obj 295 24 inlet;
#X connect 0 0 1 0;
#X connect 1 0 2 2;
#X connect 2 0 6 0;
#X connect 3 0 2 0;
#X connect 4 0 2 1;
#X connect 5 0 4 0;
#X connect 7 0 3 0;
#X connect 8 0 5 0;
#X connect 9 0 0 0;
#X connect 10 0 1 1;
#X restore 38 416 pd AmpModulation;
#N canvas 10 503 450 300 FreqModulation 0;
#X obj 131 169 *~;
#X obj 241 169 *~;
#X obj 351 168 *~;
#X obj 241 190 +~;
#X obj 29 212 +~;
#X obj 29 169 *~;
#X obj 29 190 +~;
#X obj 366 116 line;
#X msg 366 94 \$1 100;
#X obj 256 116 line;
#X msg 256 94 \$1 100;
#X obj 146 116 line;
#X msg 146 94 \$1 100;
#X obj 44 116 line;
#X msg 44 94 \$1 100;
#X obj 29 143 r~ 1-FMOsc;
#X obj 131 143 r~ 2-FMOsc;
#X obj 241 143 r~ 3-FMOsc;
#X obj 351 143 r~ 4-FMOsc;
#X obj 44 66 inlet;
#X obj 146 66 inlet;
#X obj 256 66 inlet;
#X obj 366 66 inlet;
#X obj 29 236 outlet~;
#X connect 0 0 6 1;
#X connect 1 0 3 0;
#X connect 2 0 3 1;
#X connect 3 0 4 1;
#X connect 4 0 23 0;
#X connect 5 0 6 0;
#X connect 6 0 4 0;
#X connect 7 0 2 1;
#X connect 8 0 7 0;
#X connect 9 0 1 1;
#X connect 10 0 9 0;
#X connect 11 0 0 1;
#X connect 12 0 11 0;
#X connect 13 0 5 1;
#X connect 14 0 13 0;
#X connect 15 0 5 0;
#X connect 16 0 0 0;
#X connect 17 0 1 0;
#X connect 18 0 2 0;
#X connect 19 0 14 0;
#X connect 20 0 12 0;
#X connect 21 0 10 0;
#X connect 22 0 8 0;
#X restore 41 262 pd FreqModulation;
#X text 51 440 AM;
#X text 49 285 FM;
#N canvas 104 23 920 217 presets 0;
#N canvas 177 265 680 310 AM-pst 0;
#X obj 80 146 outlet;
#X obj 246 146 outlet;
#X obj 308 16 inlet;
#X obj 80 106 pack s s f;
#X obj 80 16 inlet;
#X obj 246 107 pack s s f;
#X obj 396 146 outlet;
#X obj 396 107 pack s s f;
#X obj 137 82 r \$0-AM_Waveform;
#X obj 303 83 r \$0-AM_Depth;
#X obj 453 83 r \$0-AM_Freq;
#X msg 108 61 symbol \$1-pst-AM_Waveform;
#X msg 274 62 symbol \$1-pst-AM_Depth;
#X msg 424 62 symbol \$1-pst-AM_Freq;
#X obj 216 262 outlet;
#X obj 216 223 pack s s f;
#X obj 426 262 outlet;
#X obj 426 223 pack s s f;
#X msg 244 178 symbol \$1-pst-AM_Depth_rand;
#X obj 273 199 r \$0-AM_Depth_rand;
#X msg 454 178 symbol \$1-pst-AM_Freq_rand;
#X obj 483 199 r \$0-AM_Freq_rand;
#X connect 2 0 11 0;
#X connect 2 0 12 0;
#X connect 2 0 13 0;
#X connect 2 0 18 0;
#X connect 2 0 20 0;
#X connect 3 0 0 0;
#X connect 4 0 3 0;
#X connect 4 0 5 0;
#X connect 4 0 7 0;
#X connect 4 0 15 0;
#X connect 4 0 17 0;
#X connect 5 0 1 0;
#X connect 7 0 6 0;
#X connect 8 0 3 2;
#X connect 9 0 5 2;
#X connect 10 0 7 2;
#X connect 11 0 3 1;
#X connect 12 0 5 1;
#X connect 13 0 7 1;
#X connect 15 0 14 0;
#X connect 17 0 16 0;
#X connect 18 0 15 1;
#X connect 19 0 15 2;
#X connect 20 0 17 1;
#X connect 21 0 17 2;
#X restore 201 92 pd AM-pst;
#N canvas 26 226 1350 478 Pitch-ADSR-pst 0;
#X obj 63 158 outlet;
#X obj 249 158 outlet;
#X obj 331 28 inlet;
#X obj 63 118 pack s s f;
#X obj 63 28 inlet;
#X obj 249 119 pack s s f;
#X obj 439 158 outlet;
#X obj 439 119 pack s s f;
#X obj 609 158 outlet;
#X obj 609 119 pack s s f;
#X obj 809 158 outlet;
#X obj 809 119 pack s s f;
#X obj 989 158 outlet;
#X obj 989 119 pack s s f;
#X obj 120 94 r \$0-PADSR_Dlay;
#X obj 306 95 r \$0-PADSR_Amp;
#X obj 496 95 r \$0-PADSR_Atk;
#X obj 666 95 r \$0-PADSR_Dcay;
#X obj 866 95 r \$0-PADSR_Sus;
#X obj 1046 95 r \$0-PADSR_Rel;
#X msg 91 73 symbol \$1-pst-PADSR_Dlay;
#X msg 277 74 symbol \$1-pst-PADSR_Amp;
#X msg 467 74 symbol \$1-pst-PADSR_Atk;
#X msg 637 74 symbol \$1-pst-PADSR_Dcay;
#X msg 837 74 symbol \$1-pst-PADSR_Sus;
#X msg 1017 74 symbol \$1-pst-PADSR_Rel;
#X obj 50 299 outlet;
#X obj 266 299 outlet;
#X obj 50 259 pack s s f;
#X obj 266 260 pack s s f;
#X obj 476 299 outlet;
#X obj 476 260 pack s s f;
#X obj 686 299 outlet;
#X obj 686 260 pack s s f;
#X obj 906 299 outlet;
#X obj 906 260 pack s s f;
#X obj 1116 299 outlet;
#X obj 1116 260 pack s s f;
#X msg 78 214 symbol \$1-pst-PADSR_Dlay_rand;
#X obj 107 235 r \$0-PADSR_Dlay_rand;
#X msg 294 215 symbol \$1-pst-PADSR_Amp_rand;
#X obj 323 236 r \$0-PADSR_Amp_rand;
#X msg 504 215 symbol \$1-pst-PADSR_Atk_rand;
#X obj 533 236 r \$0-PADSR_Atk_rand;
#X msg 714 215 symbol \$1-pst-PADSR_Dcay_rand;
#X obj 743 236 r \$0-PADSR_Dcay_rand;
#X msg 934 215 symbol \$1-pst-PADSR_Sus_rand;
#X obj 963 236 r \$0-PADSR_Sus_rand;
#X msg 1144 215 symbol \$1-pst-PADSR_Rel_rand;
#X obj 1173 236 r \$0-PADSR_Rel_rand, f 25;
#X connect 2 0 20 0;
#X connect 2 0 21 0;
#X connect 2 0 22 0;
#X connect 2 0 23 0;
#X connect 2 0 24 0;
#X connect 2 0 25 0;
#X connect 2 0 38 0;
#X connect 2 0 40 0;
#X connect 2 0 42 0;
#X connect 2 0 44 0;
#X connect 2 0 46 0;
#X connect 2 0 48 0;
#X connect 3 0 0 0;
#X connect 4 0 3 0;
#X connect 4 0 5 0;
#X connect 4 0 7 0;
#X connect 4 0 9 0;
#X connect 4 0 11 0;
#X connect 4 0 13 0;
#X connect 4 0 28 0;
#X connect 4 0 29 0;
#X connect 4 0 31 0;
#X connect 4 0 33 0;
#X connect 4 0 35 0;
#X connect 4 0 37 0;
#X connect 5 0 1 0;
#X connect 7 0 6 0;
#X connect 9 0 8 0;
#X connect 11 0 10 0;
#X connect 13 0 12 0;
#X connect 14 0 3 2;
#X connect 15 0 5 2;
#X connect 16 0 7 2;
#X connect 17 0 9 2;
#X connect 18 0 11 2;
#X connect 19 0 13 2;
#X connect 20 0 3 1;
#X connect 21 0 5 1;
#X connect 22 0 7 1;
#X connect 23 0 9 1;
#X connect 24 0 11 1;
#X connect 25 0 13 1;
#X connect 28 0 26 0;
#X connect 29 0 27 0;
#X connect 31 0 30 0;
#X connect 33 0 32 0;
#X connect 35 0 34 0;
#X connect 37 0 36 0;
#X connect 38 0 28 1;
#X connect 39 0 28 2;
#X connect 40 0 29 1;
#X connect 41 0 29 2;
#X connect 42 0 31 1;
#X connect 43 0 31 2;
#X connect 44 0 33 1;
#X connect 45 0 33 2;
#X connect 46 0 35 1;
#X connect 47 0 35 2;
#X connect 48 0 37 1;
#X connect 49 0 37 2;
#X restore 417 92 pd Pitch-ADSR-pst;
#X obj 153 13 inlet;
#X obj 13 177 s store-pst;
#X obj 13 13 r bang-pst;
#X msg 13 35 add;
#N canvas 105 216 1064 313 FM-pst 0;
#X obj 80 146 outlet;
#X obj 226 146 outlet;
#X obj 308 16 inlet;
#X obj 80 106 pack s s f;
#X obj 80 16 inlet;
#X obj 226 107 pack s s f;
#X obj 366 146 outlet;
#X obj 366 107 pack s s f;
#X obj 506 146 outlet;
#X obj 506 107 pack s s f;
#X obj 137 82 r \$0-FM_Osc1;
#X obj 283 83 r \$0-FM_Osc2;
#X obj 423 83 r \$0-FM_Osc3;
#X obj 563 83 r \$0-FM_Osc4;
#X msg 108 61 symbol \$1-pst-FM_Osc1;
#X msg 254 62 symbol \$1-pst-FM_Osc2;
#X msg 394 62 symbol \$1-pst-FM_Osc3;
#X msg 534 62 symbol \$1-pst-FM_Osc4;
#X obj 32 264 outlet;
#X obj 228 264 outlet;
#X obj 32 224 pack s s f;
#X obj 228 225 pack s s f;
#X obj 438 264 outlet;
#X obj 438 225 pack s s f;
#X obj 648 264 outlet;
#X obj 648 225 pack s s f;
#X msg 60 179 symbol \$1-pst-FM_Osc1_rand;
#X obj 89 200 r \$0-FM_Osc1_rand;
#X obj 285 201 r \$0-FM_Osc2_rand;
#X msg 256 180 symbol \$1-pst-FM_Osc2_rand;
#X msg 466 180 symbol \$1-pst-FM_Osc3_rand;
#X obj 495 201 r \$0-FM_Osc3_rand;
#X obj 705 201 r \$0-FM_Osc4_rand;
#X msg 676 180 symbol \$1-pst-FM_Osc4_rand, f 14;
#X connect 2 0 14 0;
#X connect 2 0 15 0;
#X connect 2 0 16 0;
#X connect 2 0 17 0;
#X connect 2 0 29 0;
#X connect 2 0 30 0;
#X connect 2 0 33 0;
#X connect 2 0 26 0;
#X connect 3 0 0 0;
#X connect 4 0 3 0;
#X connect 4 0 5 0;
#X connect 4 0 7 0;
#X connect 4 0 9 0;
#X connect 4 0 20 0;
#X connect 4 0 21 0;
#X connect 4 0 23 0;
#X connect 4 0 25 0;
#X connect 5 0 1 0;
#X connect 7 0 6 0;
#X connect 9 0 8 0;
#X connect 10 0 3 2;
#X connect 11 0 5 2;
#X connect 12 0 7 2;
#X connect 13 0 9 2;
#X connect 14 0 3 1;
#X connect 15 0 5 1;
#X connect 16 0 7 1;
#X connect 17 0 9 1;
#X connect 20 0 18 0;
#X connect 21 0 19 0;
#X connect 23 0 22 0;
#X connect 25 0 24 0;
#X connect 26 0 20 1;
#X connect 27 0 20 2;
#X connect 28 0 21 2;
#X connect 29 0 21 1;
#X connect 30 0 23 1;
#X connect 31 0 23 2;
#X connect 32 0 25 2;
#X connect 33 0 25 1;
#X restore 111 92 pd FM-pst;
#N canvas 950 433 490 200 vol-pst 0;
#X obj 80 146 outlet;
#X obj 108 37 inlet;
#X obj 80 106 pack s s f;
#X obj 80 16 inlet;
#X obj 137 82 r \$0-Vol;
#X msg 108 61 symbol \$1-pst-Vol;
#X connect 1 0 5 0;
#X connect 2 0 0 0;
#X connect 3 0 2 0;
#X connect 4 0 2 2;
#X connect 5 0 2 1;
#X restore 558 90 pd vol-pst;
#N canvas 32 277 1032 279 pitch-pst 0;
#X obj 267 62 r \$0-waveform;
#X obj 200 126 outlet;
#X obj 376 126 outlet;
#X obj 409 9 inlet;
#X obj 200 86 pack s s f;
#X obj 11 9 inlet;
#X obj 376 87 pack s s f;
#X obj 443 63 r \$0-glide;
#X msg 233 41 symbol \$1-pst-waveform;
#X msg 409 42 symbol \$1-pst-glide;
#X obj 11 126 outlet;
#X obj 11 86 pack s s f;
#X obj 78 62 r \$0-Pitch;
#X msg 44 41 symbol \$1-pst-Pitch;
#X obj 236 245 outlet;
#X obj 236 206 pack s s f;
#X msg 269 161 symbol \$1-pst-glide_rand;
#X obj 303 182 r \$0-glide_rand;
#X obj 21 246 outlet;
#X obj 21 206 pack s s f;
#X msg 54 161 symbol \$1-pst-Pitch_rand;
#X obj 88 182 r \$0-Pitch_rand;
#X obj 456 246 outlet;
#X obj 456 207 pack s s f;
#X msg 489 162 symbol \$1-pst-ListenSeq;
#X obj 523 183 r \$0-ListenSeq;
#X obj 624 89 pack s s f;
#X obj 844 90 pack s s f;
#X msg 657 44 symbol \$1-pst-Transpose;
#X obj 691 65 r \$0-Transpose;
#X obj 911 66 r \$0-Octave;
#X msg 877 45 symbol \$1-pst-Octave;
#X obj 624 124 outlet;
#X obj 844 127 outlet;
#X connect 0 0 4 2;
#X connect 3 0 8 0;
#X connect 3 0 9 0;
#X connect 3 0 13 0;
#X connect 3 0 16 0;
#X connect 3 0 20 0;
#X connect 3 0 24 0;
#X connect 3 0 28 0;
#X connect 3 0 31 0;
#X connect 4 0 1 0;
#X connect 5 0 4 0;
#X connect 5 0 6 0;
#X connect 5 0 11 0;
#X connect 5 0 15 0;
#X connect 5 0 19 0;
#X connect 5 0 23 0;
#X connect 5 0 26 0;
#X connect 5 0 27 0;
#X connect 6 0 2 0;
#X connect 7 0 6 2;
#X connect 8 0 4 1;
#X connect 9 0 6 1;
#X connect 11 0 10 0;
#X connect 12 0 11 2;
#X connect 13 0 11 1;
#X connect 15 0 14 0;
#X connect 16 0 15 1;
#X connect 17 0 15 2;
#X connect 19 0 18 0;
#X connect 20 0 19 1;
#X connect 21 0 19 2;
#X connect 23 0 22 0;
#X connect 24 0 23 1;
#X connect 25 0 23 2;
#X connect 26 0 32 0;
#X connect 27 0 33 0;
#X connect 28 0 26 1;
#X connect 29 0 26 2;
#X connect 30 0 27 2;
#X connect 31 0 27 1;
#X restore 13 92 pd pitch-pst;
#N canvas 0 23 1218 421 Level-ADSR-pst 0;
#X obj 63 158 outlet;
#X obj 249 158 outlet;
#X obj 331 28 inlet;
#X obj 63 118 pack s s f;
#X obj 63 28 inlet;
#X obj 249 119 pack s s f;
#X obj 439 158 outlet;
#X obj 439 119 pack s s f;
#X obj 609 158 outlet;
#X obj 609 119 pack s s f;
#X obj 809 158 outlet;
#X obj 809 119 pack s s f;
#X obj 989 158 outlet;
#X obj 989 119 pack s s f;
#X msg 91 73 symbol \$1-pst-LADSR_Dlay;
#X obj 120 94 r \$0-LADSR_Dlay;
#X msg 278 74 symbol \$1-pst-LADSR_Amp;
#X obj 306 95 r \$0-LADSR_Amp;
#X msg 467 74 symbol \$1-pst-LADSR_Atk;
#X obj 496 95 r \$0-LADSR_Atk;
#X msg 637 74 symbol \$1-pst-LADSR_Dcay;
#X obj 666 95 r \$0-LADSR_Dcay;
#X msg 837 74 symbol \$1-pst-LADSR_Sus;
#X obj 866 95 r \$0-LADSR_Sus;
#X msg 1017 74 symbol \$1-pst-LADSR_Rel;
#X obj 1046 95 r \$0-LADSR_Rel;
#X obj 36 282 outlet;
#X obj 36 242 pack s s f;
#X obj 302 282 outlet;
#X obj 302 243 pack s s f;
#X obj 532 282 outlet;
#X obj 532 243 pack s s f;
#X obj 762 282 outlet;
#X obj 762 243 pack s s f;
#X obj 962 282 outlet;
#X obj 962 243 pack s s f;
#X msg 64 197 symbol \$1-pst-LADSR_Dlay_rand;
#X obj 93 218 r \$0-LADSR_Dlay_rand;
#X obj 359 219 r \$0-LADSR_Atk_rand;
#X msg 330 198 symbol \$1-pst-LADSR_Atk_rand;
#X msg 560 198 symbol \$1-pst-LADSR_Dcay_rand;
#X obj 589 219 r \$0-LADSR_Dcay_rand;
#X msg 990 198 symbol \$1-pst-LADSR_Rel_rand;
#X obj 1019 219 r \$0-LADSR_Rel_rand, f 23;
#X msg 790 198 symbol \$1-pst-LADSR_Sus_rand;
#X obj 819 219 r \$0-LADSR_Sus_rand;
#X connect 2 0 14 0;
#X connect 2 0 16 0;
#X connect 2 0 18 0;
#X connect 2 0 20 0;
#X connect 2 0 22 0;
#X connect 2 0 24 0;
#X connect 2 0 36 0;
#X connect 2 0 39 0;
#X connect 2 0 40 0;
#X connect 2 0 44 0;
#X connect 2 0 42 0;
#X connect 3 0 0 0;
#X connect 4 0 3 0;
#X connect 4 0 5 0;
#X connect 4 0 7 0;
#X connect 4 0 9 0;
#X connect 4 0 11 0;
#X connect 4 0 13 0;
#X connect 4 0 27 0;
#X connect 4 0 29 0;
#X connect 4 0 31 0;
#X connect 4 0 33 0;
#X connect 4 0 35 0;
#X connect 5 0 1 0;
#X connect 7 0 6 0;
#X connect 9 0 8 0;
#X connect 11 0 10 0;
#X connect 13 0 12 0;
#X connect 14 0 3 1;
#X connect 15 0 3 2;
#X connect 16 0 5 1;
#X connect 17 0 5 2;
#X connect 18 0 7 1;
#X connect 19 0 7 2;
#X connect 20 0 9 1;
#X connect 21 0 9 2;
#X connect 22 0 11 1;
#X connect 23 0 11 2;
#X connect 24 0 13 1;
#X connect 25 0 13 2;
#X connect 27 0 26 0;
#X connect 29 0 28 0;
#X connect 31 0 30 0;
#X connect 33 0 32 0;
#X connect 35 0 34 0;
#X connect 36 0 27 1;
#X connect 37 0 27 2;
#X connect 38 0 29 2;
#X connect 39 0 29 1;
#X connect 40 0 31 1;
#X connect 41 0 31 2;
#X connect 42 0 35 1;
#X connect 43 0 35 2;
#X connect 44 0 33 1;
#X connect 45 0 33 2;
#X restore 277 92 pd Level-ADSR-pst;
#X connect 0 0 3 0;
#X connect 0 1 3 0;
#X connect 0 2 3 0;
#X connect 0 3 3 0;
#X connect 0 4 3 0;
#X connect 1 0 3 0;
#X connect 1 1 3 0;
#X connect 1 2 3 0;
#X connect 1 3 3 0;
#X connect 1 4 3 0;
#X connect 1 5 3 0;
#X connect 1 6 3 0;
#X connect 1 7 3 0;
#X connect 1 8 3 0;
#X connect 1 9 3 0;
#X connect 1 10 3 0;
#X connect 1 11 3 0;
#X connect 2 0 8 1;
#X connect 2 0 6 1;
#X connect 2 0 0 1;
#X connect 2 0 1 1;
#X connect 2 0 9 1;
#X connect 2 0 7 1;
#X connect 4 0 5 0;
#X connect 5 0 8 0;
#X connect 5 0 6 0;
#X connect 5 0 0 0;
#X connect 5 0 1 0;
#X connect 5 0 9 0;
#X connect 5 0 7 0;
#X connect 6 0 3 0;
#X connect 6 1 3 0;
#X connect 6 2 3 0;
#X connect 6 3 3 0;
#X connect 6 4 3 0;
#X connect 6 5 3 0;
#X connect 6 6 3 0;
#X connect 6 7 3 0;
#X connect 7 0 3 0;
#X connect 8 0 3 0;
#X connect 8 1 3 0;
#X connect 8 2 3 0;
#X connect 8 3 3 0;
#X connect 8 4 3 0;
#X connect 8 5 3 0;
#X connect 8 6 3 0;
#X connect 8 7 3 0;
#X connect 9 0 3 0;
#X connect 9 1 3 0;
#X connect 9 2 3 0;
#X connect 9 3 3 0;
#X connect 9 4 3 0;
#X connect 9 5 3 0;
#X connect 9 6 3 0;
#X connect 9 7 3 0;
#X connect 9 8 3 0;
#X connect 9 9 3 0;
#X connect 9 10 3 0;
#X restore 463 485 pd presets;
#X obj 463 455 f \$1;
#N canvas 213 23 1225 827 pst-routing 0;
#X obj 10 24 r pst;
#X obj 10 46 route 1 2;
#X obj 126 397 scale 0 1 0 1;
#X obj 11 249 r pst-morph;
#X obj 252 397 scale 0 1 0 1;
#X obj 351 397 scale 0 1 0 1;
#X obj 457 397 scale 0 1 0 1;
#X obj 563 397 scale 0 1 0 1;
#X obj 669 397 scale 0 1 0 1;
#X obj 11 462 scale 0 1 0 1;
#X obj 137 462 scale 0 1 0 1;
#X obj 256 462 scale 0 1 0 1;
#X obj 382 462 scale 0 1 0 1;
#X obj 508 462 scale 0 1 0 1;
#X obj 629 461 scale 0 1 0 1;
#X obj 11 512 scale 0 1 0 1;
#X obj 137 512 scale 0 1 0 1;
#X obj 256 512 scale 0 1 0 1;
#X obj 382 512 scale 0 1 0 1;
#X obj 508 512 scale 0 1 0 1;
#X obj 629 511 scale 0 1 0 1;
#X obj 11 562 scale 0 1 0 1;
#X obj 107 562 scale 0 1 0 1;
#X obj 236 562 scale 0 1 0 1;
#X obj 352 562 scale 0 1 0 1;
#X obj 126 419 s \$1-set-waveform;
#X obj 252 419 s \$1-set-glide;
#X obj 351 419 s \$1-set-FM_Osc1;
#X obj 457 419 s \$1-set-FM_Osc2;
#X obj 563 418 s \$1-set-FM_Osc3;
#X obj 669 419 s \$1-set-FM_Osc4;
#X obj 11 484 s \$1-set-PADSR_Dlay;
#X obj 137 484 s \$1-set-PADSR_Amp;
#X obj 256 484 s \$1-set-PADSR_Atk;
#X obj 382 484 s \$1-set-PADSR_Dcay;
#X obj 508 484 s \$1-set-PADSR_Sus;
#X obj 629 484 s \$1-set-PADSR_Rel;
#X obj 11 584 s \$1-set-Vol;
#X obj 107 584 s \$1-set-AM_Waveform;
#X obj 236 584 s \$1-set-AM_Depth;
#X obj 352 584 s \$1-set-AM_Freq;
#X obj 11 397 scale 0 1 0 1;
#X obj 11 419 s \$1-set-Pitch;
#X obj 11 534 s \$1-set-LADSR_Dlay;
#X obj 137 534 s \$1-set-LADSR_Amp;
#X obj 256 534 s \$1-set-LADSR_Atk;
#X obj 382 534 s \$1-set-LADSR_Dcay;
#X obj 508 534 s \$1-set-LADSR_Sus;
#X obj 629 534 s \$1-set-LADSR_Rel;
#X obj 161 629 scale 0 1 0 1;
#X obj 350 629 scale 0 1 0 1;
#X obj 506 629 scale 0 1 0 1;
#X obj 662 630 scale 0 1 0 1;
#X obj 818 629 scale 0 1 0 1;
#X obj 10 694 scale 0 1 0 1;
#X obj 186 694 scale 0 1 0 1;
#X obj 355 694 scale 0 1 0 1;
#X obj 531 694 scale 0 1 0 1;
#X obj 707 694 scale 0 1 0 1;
#X obj 878 693 scale 0 1 0 1;
#X obj 10 744 scale 0 1 0 1;
#X obj 185 744 scale 0 1 0 1;
#X obj 354 744 scale 0 1 0 1;
#X obj 537 744 scale 0 1 0 1;
#X obj 708 743 scale 0 1 0 1;
#X obj 10 794 scale 0 1 0 1;
#X obj 181 794 scale 0 1 0 1;
#X obj 10 629 scale 0 1 0 1;
#X obj 10 651 s \$1-set-Pitch_rand;
#X obj 161 651 s \$1-set-glide_rand;
#X obj 350 651 s \$1-set-FM_Osc1_rand;
#X obj 506 651 s \$1-set-FM_Osc2_rand;
#X obj 662 651 s \$1-set-FM_Osc3_rand;
#X obj 818 651 s \$1-set-FM_Osc4_rand;
#X obj 10 716 s \$1-set-PADSR_Dlay_rand;
#X obj 186 716 s \$1-set-PADSR_Amp_rand;
#X obj 355 716 s \$1-set-PADSR_Atk_rand;
#X obj 531 716 s \$1-set-PADSR_Dcay_rand;
#X obj 707 716 s \$1-set-PADSR_Sus_rand;
#X obj 878 716 s \$1-set-PADSR_Rel_rand;
#X obj 10 766 s \$1-set-LADSR_Dlay_rand;
#X obj 185 766 s \$1-set-LADSR_Atk_rand;
#X obj 354 766 s \$1-set-LADSR_Dcay_rand;
#X obj 537 766 s \$1-set-LADSR_Sus_rand;
#X obj 708 766 s \$1-set-LADSR_Rel_rand;
#X obj 10 816 s \$1-set-AM_Depth_rand;
#X obj 181 816 s \$1-set-AM_Freq_rand;
#X obj 1007 631 scale 0 1 0 1;
#X obj 1007 760 s \$1-set-ListenSeq;
#X obj 1007 679 change;
#N canvas 0 22 450 300 round 0;
#X obj 50 83 int;
#X obj 50 61 + 0.5;
#X obj 50 105 outlet;
#X obj 50 38 inlet;
#X connect 0 0 2 0;
#X connect 1 0 0 0;
#X connect 3 0 1 0;
#X restore 1007 654 pd round;
#X obj 811 535 scale 0 1 0 1;
#X obj 982 534 scale 0 1 0 1;
#X obj 10 72 route \$1-pst-waveform \$1-pst-glide \$1-pst-FM_Osc1 \$1-pst-FM_Osc2
\$1-pst-FM_Osc3 \$1-pst-FM_Osc4 \$1-pst-PADSR_Dlay \$1-pst-PADSR_Amp
\$1-pst-PADSR_Atk \$1-pst-PADSR_Dcay \$1-pst-PADSR_Sus \$1-pst-PADSR_Rel
\$1-pst-LADSR_Dlay \$1-pst-LADSR_Amp \$1-pst-LADSR_Atk \$1-pst-LADSR_Dcay
\$1-pst-LADSR_Sus \$1-pst-LADSR_Rel \$1-pst-Vol \$1-pst-AM_Waveform
\$1-pst-AM_Depth \$1-pst-AM_Freq \$1-pst-Pitch \$1-pst-Pitch_rand \$1-pst-glide_rand
\$1-pst-FM_Osc1_rand \$1-pst-FM_Osc2_rand \$1-pst-FM_Osc3_rand \$1-pst-FM_Osc4_rand
\$1-pst-PADSR_Dlay_rand \$1-pst-PADSR_Amp_rand \$1-pst-PADSR_Atk_rand
\$1-pst-PADSR_Dcay_rand \$1-pst-PADSR_Sus_rand \$1-pst-PADSR_Rel_rand
\$1-pst-LADSR_Dlay_rand \$1-pst-LADSR_Atk_rand \$1-pst-LADSR_Dcay_rand
\$1-pst-LADSR_Sus_rand \$1-pst-LADSR_Rel_rand \$1-pst-AM_Depth_rand
\$1-pst-AM_Freq_rand \$1-pst-ListenSeq \$1-pst-Transpose \$1-pst-Octave
, f 80;
#X obj 581 72 route \$1-pst-waveform \$1-pst-glide \$1-pst-FM_Osc1
\$1-pst-FM_Osc2 \$1-pst-FM_Osc3 \$1-pst-FM_Osc4 \$1-pst-PADSR_Dlay
\$1-pst-PADSR_Amp \$1-pst-PADSR_Atk \$1-pst-PADSR_Dcay \$1-pst-PADSR_Sus
\$1-pst-PADSR_Rel \$1-pst-LADSR_Dlay \$1-pst-LADSR_Amp \$1-pst-LADSR_Atk
\$1-pst-LADSR_Dcay \$1-pst-LADSR_Sus \$1-pst-LADSR_Rel \$1-pst-Vol
\$1-pst-AM_Waveform \$1-pst-AM_Depth \$1-pst-AM_Freq \$1-pst-Pitch
\$1-pst-Pitch_rand \$1-pst-glide_rand \$1-pst-FM_Osc1_rand \$1-pst-FM_Osc2_rand
\$1-pst-FM_Osc3_rand \$1-pst-FM_Osc4_rand \$1-pst-PADSR_Dlay_rand \$1-pst-PADSR_Amp_rand
\$1-pst-PADSR_Atk_rand \$1-pst-PADSR_Dcay_rand \$1-pst-PADSR_Sus_rand
\$1-pst-PADSR_Rel_rand \$1-pst-LADSR_Dlay_rand \$1-pst-LADSR_Atk_rand
\$1-pst-LADSR_Dcay_rand \$1-pst-LADSR_Sus_rand \$1-pst-LADSR_Rel_rand
\$1-pst-AM_Depth_rand \$1-pst-AM_Freq_rand \$1-pst-ListenSeq \$1-pst-Transpose
\$1-pst-Octave, f 81;
#X obj 811 557 s \$1-set-Transpose;
#X obj 982 557 s \$1-set-Octave;
#X connect 0 0 1 0;
#X connect 1 0 93 0;
#X connect 1 1 94 0;
#X connect 2 0 25 0;
#X connect 3 0 2 0;
#X connect 3 0 4 0;
#X connect 3 0 5 0;
#X connect 3 0 6 0;
#X connect 3 0 7 0;
#X connect 3 0 8 0;
#X connect 3 0 9 0;
#X connect 3 0 10 0;
#X connect 3 0 11 0;
#X connect 3 0 12 0;
#X connect 3 0 13 0;
#X connect 3 0 14 0;
#X connect 3 0 15 0;
#X connect 3 0 16 0;
#X connect 3 0 17 0;
#X connect 3 0 18 0;
#X connect 3 0 19 0;
#X connect 3 0 20 0;
#X connect 3 0 21 0;
#X connect 3 0 22 0;
#X connect 3 0 23 0;
#X connect 3 0 24 0;
#X connect 3 0 41 0;
#X connect 3 0 67 0;
#X connect 3 0 49 0;
#X connect 3 0 50 0;
#X connect 3 0 51 0;
#X connect 3 0 52 0;
#X connect 3 0 53 0;
#X connect 3 0 54 0;
#X connect 3 0 55 0;
#X connect 3 0 56 0;
#X connect 3 0 57 0;
#X connect 3 0 58 0;
#X connect 3 0 59 0;
#X connect 3 0 60 0;
#X connect 3 0 61 0;
#X connect 3 0 62 0;
#X connect 3 0 63 0;
#X connect 3 0 64 0;
#X connect 3 0 65 0;
#X connect 3 0 66 0;
#X connect 3 0 87 0;
#X connect 3 0 91 0;
#X connect 3 0 92 0;
#X connect 4 0 26 0;
#X connect 5 0 27 0;
#X connect 6 0 28 0;
#X connect 7 0 29 0;
#X connect 8 0 30 0;
#X connect 9 0 31 0;
#X connect 10 0 32 0;
#X connect 11 0 33 0;
#X connect 12 0 34 0;
#X connect 13 0 35 0;
#X connect 14 0 36 0;
#X connect 15 0 43 0;
#X connect 16 0 44 0;
#X connect 17 0 45 0;
#X connect 18 0 46 0;
#X connect 19 0 47 0;
#X connect 20 0 48 0;
#X connect 21 0 37 0;
#X connect 22 0 38 0;
#X connect 23 0 39 0;
#X connect 24 0 40 0;
#X connect 41 0 42 0;
#X connect 49 0 69 0;
#X connect 50 0 70 0;
#X connect 51 0 71 0;
#X connect 52 0 72 0;
#X connect 53 0 73 0;
#X connect 54 0 74 0;
#X connect 55 0 75 0;
#X connect 56 0 76 0;
#X connect 57 0 77 0;
#X connect 58 0 78 0;
#X connect 59 0 79 0;
#X connect 60 0 80 0;
#X connect 61 0 81 0;
#X connect 62 0 82 0;
#X connect 63 0 83 0;
#X connect 64 0 84 0;
#X connect 65 0 85 0;
#X connect 66 0 86 0;
#X connect 67 0 68 0;
#X connect 87 0 90 0;
#X connect 89 0 88 0;
#X connect 90 0 89 0;
#X connect 91 0 95 0;
#X connect 92 0 96 0;
#X connect 93 0 2 3;
#X connect 93 1 4 3;
#X connect 93 2 5 3;
#X connect 93 3 6 3;
#X connect 93 4 7 3;
#X connect 93 5 8 3;
#X connect 93 6 9 3;
#X connect 93 7 10 3;
#X connect 93 8 11 3;
#X connect 93 9 12 3;
#X connect 93 10 13 3;
#X connect 93 11 14 3;
#X connect 93 12 15 3;
#X connect 93 13 16 3;
#X connect 93 14 17 3;
#X connect 93 15 18 3;
#X connect 93 16 19 3;
#X connect 93 17 20 3;
#X connect 93 18 21 3;
#X connect 93 19 22 3;
#X connect 93 20 23 3;
#X connect 93 21 24 3;
#X connect 93 22 41 3;
#X connect 93 23 67 3;
#X connect 93 24 49 3;
#X connect 93 25 50 3;
#X connect 93 26 51 3;
#X connect 93 27 52 3;
#X connect 93 28 53 3;
#X connect 93 29 54 3;
#X connect 93 30 55 3;
#X connect 93 31 56 3;
#X connect 93 32 57 3;
#X connect 93 33 58 3;
#X connect 93 34 59 3;
#X connect 93 35 60 3;
#X connect 93 36 61 3;
#X connect 93 37 62 3;
#X connect 93 38 63 3;
#X connect 93 39 64 3;
#X connect 93 40 65 3;
#X connect 93 41 66 3;
#X connect 93 42 87 3;
#X connect 93 43 91 3;
#X connect 93 44 92 3;
#X connect 94 0 2 4;
#X connect 94 1 4 4;
#X connect 94 2 5 4;
#X connect 94 3 6 4;
#X connect 94 4 7 4;
#X connect 94 5 8 4;
#X connect 94 6 9 4;
#X connect 94 7 10 4;
#X connect 94 8 11 4;
#X connect 94 9 12 4;
#X connect 94 10 13 4;
#X connect 94 11 14 4;
#X connect 94 12 15 4;
#X connect 94 13 16 4;
#X connect 94 14 17 4;
#X connect 94 15 18 4;
#X connect 94 16 19 4;
#X connect 94 17 20 4;
#X connect 94 18 21 4;
#X connect 94 19 22 4;
#X connect 94 20 23 4;
#X connect 94 21 24 4;
#X connect 94 22 41 4;
#X connect 94 23 67 4;
#X connect 94 24 49 4;
#X connect 94 25 50 4;
#X connect 94 26 51 4;
#X connect 94 27 52 4;
#X connect 94 28 53 4;
#X connect 94 29 54 4;
#X connect 94 30 55 4;
#X connect 94 31 56 4;
#X connect 94 32 57 4;
#X connect 94 33 58 4;
#X connect 94 34 59 4;
#X connect 94 35 60 4;
#X connect 94 36 61 4;
#X connect 94 37 62 4;
#X connect 94 38 63 4;
#X connect 94 39 64 4;
#X connect 94 40 65 4;
#X connect 94 41 66 4;
#X connect 94 42 87 4;
#X connect 94 43 91 4;
#X connect 94 44 92 4;
#X restore 439 505 pd pst-routing;
#X obj 242 -5 hsl 40 10 0 20000 0 0 \$0-FM_Osc1_rand \$1-set-FM_Osc1_rand
Rand 10 5 0 8 -128992 -262144 -262144 0 1;
#X obj 242 26 hsl 40 10 0 20000 0 0 \$0-FM_Osc2_rand \$1-set-FM_Osc2_rand
Rand 10 5 0 8 -128992 -262144 -262144 0 1;
#X obj 242 57 hsl 40 10 0 20000 0 0 \$0-FM_Osc3_rand \$1-set-FM_Osc3_rand
Rand 10 5 0 8 -128992 -262144 -262144 0 1;
#X obj 242 87 hsl 40 10 0 20000 0 0 \$0-FM_Osc4_rand \$1-set-FM_Osc4_rand
Rand 10 5 0 8 -128992 -262144 -262144 0 1;
#X obj 356 -5 hsl 40 10 0 1 0 0 \$0-AM_Depth_rand \$1-set-AM_Depth_rand
Rand 10 5 0 8 -128992 -262144 -262144 0 1;
#X obj 356 32 hsl 40 10 0 20000 0 0 \$0-AM_Freq_rand \$1-set-AM_Freq_rand
Rand 10 5 0 8 -128992 -262144 -262144 0 1;
#X obj 176 6 hsl 54 10 0 20000 0 0 \$0-Pitch_rand \$1-set-Pitch_rand
Rand 10 5 0 8 -128992 -262144 -262144 0 1;
#X obj 176 64 hsl 40 10 0 2000 0 0 \$0-glide_rand \$1-set-glide_rand
Rand 10 5 0 8 -128992 -262144 -262144 0 1;
#X obj 176 124 hsl 40 10 0 11880 0 0 \$0-LADSR_Dlay_rand \$1-set-LADSR_Dlay_rand
Rand 10 5 0 8 -128992 -262144 -262144 0 1;
#X obj 307 124 hsl 40 10 0 11880 0 0 \$0-LADSR_Atk_rand \$1-set-LADSR_Atk_rand
Rand 10 5 0 8 -128992 -262144 -262144 0 1;
#X obj 356 124 hsl 40 10 0 11880 0 0 \$0-LADSR_Dcay_rand \$1-set-LADSR_Dcay_rand
Rand 10 5 0 8 -128992 -262144 -262144 0 1;
#X obj 405 124 hsl 40 10 0 1 0 0 \$0-LADSR_Sus_rand \$1-set-LADSR_Sus_rand
Rand 10 5 0 8 -128992 -262144 -262144 0 1;
#X obj 454 124 hsl 40 10 0 11880 0 0 \$0-LADSR_Rel_rand \$1-set-LADSR_Rel_rand
Rand 10 5 0 8 -128992 -262144 -262144 0 1;
#X obj 176 152 hsl 40 10 0 11880 0 0 \$0-PADSR_Dlay_rand \$1-set-PADSR_Dlay_rand
Rand 10 5 0 8 -128992 -262144 -262144 0 1;
#X obj 241 152 hsl 40 10 0 19980 0 0 \$0-PADSR_Amp_rand \$1-set-PADSR_Amp_rand
Rand 10 5 0 8 -128992 -262144 -262144 0 1;
#X obj 307 152 hsl 40 10 0 11880 0 0 \$0-PADSR_Atk_rand \$1-set-PADSR_Atk_rand
Rand 10 5 0 8 -128992 -262144 -262144 0 1;
#X obj 356 152 hsl 40 10 0 11880 0 0 \$0-PADSR_Dcay_rand \$1-set-PADSR_Dcay_rand
Rand 10 5 0 8 -128992 -262144 -262144 0 1;
#X obj 405 152 hsl 40 10 0 20000 0 0 \$0-PADSR_Sus_rand \$1-set-PADSR_Sus_rand
Rand 10 5 0 8 -128992 -262144 -262144 0 1;
#X obj 454 152 hsl 40 10 0 11880 0 0 \$0-PADSR_Rel_rand \$1-set-PADSR_Rel_rand
Rand 10 5 0 8 -128992 -262144 -262144 0 1;
#X text 322 -20 Sin;
#X text 322 -5 Squ;
#X text 322 26 Pul;
#X text 321 42 Tri;
#X text 322 56 Noi;
#X text 124 -20 Sin;
#X text 124 -6 Squ;
#X text 124 26 Pul;
#X text 123 42 Tri;
#X text 124 56 Noi;
#X text 102 107 LEVEL ENV;
#X obj 23 48 Randomize;
#X obj 630 166 s \$1-set-Pitch;
#X obj 245 350 Randomize;
#X obj 30 103 Randomize;
#X obj 178 263 Randomize;
#X obj 250 263 Randomize;
#X obj 321 263 Randomize;
#X obj 393 263 Randomize;
#X obj 160 416 Randomize;
#X obj 232 416 Randomize;
#X obj 176 217 Randomize;
#X obj 248 217 Randomize;
#X obj 320 217 Randomize;
#X obj 392 217 Randomize;
#X obj 463 217 Randomize;
#X obj 173 350 Randomize;
#X obj 316 350 Randomize;
#X obj 388 350 Randomize;
#X obj 461 350 Randomize;
#X obj 535 217 Randomize;
#X obj 153 -20 tgl 14 0 \$0-ListenSeq \$1-set-ListenSeq Seq 0 -7 0
10 -27631 -1 -1 1 1;
#X obj 630 135 spigot;
#X obj 38 350 ADSR, f 18;
#X obj 41 217 ADSR, f 18;
#X obj 630 109 expr ($f1+$i2)*pow(2 \, $i3);
#X obj 687 86 t b f;
#X obj 777 86 t b f;
#X obj 173 17 nbx 2 14 0 11 0 0 \$0-Transpose \$1-set-Transpose Trans
30 7 0 10 -20480 -1 -1 0 256;
#X obj 687 54 r \$0-Transpose;
#X obj 173 33 nbx 2 14 0 10 0 0 \$0-Octave \$1-set-Octave Oct 30 7
0 10 -20480 -1 -1 6 256;
#X obj 791 54 r \$0-Octave;
#X obj 630 -26 r Note;
#X obj 538 -26 r TrigNote;
#X text 582 9 Trig enveloppes & randomize;
#X text 583 24 Send Note to Osc;
#X obj 538 5 t f b;
#X connect 0 0 1 0;
#X connect 1 0 14 0;
#X connect 2 0 0 0;
#X connect 3 0 1 1;
#X connect 5 0 35 0;
#X connect 6 0 84 1;
#X connect 7 0 85 1;
#X connect 8 0 86 1;
#X connect 9 0 36 0;
#X connect 10 0 42 3;
#X connect 12 0 88 1;
#X connect 13 0 87 1;
#X connect 14 0 30 0;
#X connect 15 0 2 0;
#X connect 16 0 94 1;
#X connect 17 0 101 2;
#X connect 18 0 81 1;
#X connect 19 0 95 1;
#X connect 20 0 96 1;
#X connect 21 0 97 1;
#X connect 22 0 89 1;
#X connect 23 0 90 1;
#X connect 24 0 91 1;
#X connect 25 0 92 1;
#X connect 26 0 93 1;
#X connect 27 0 98 1;
#X connect 29 0 83 1;
#X connect 30 0 9 0;
#X connect 30 0 37 0;
#X connect 31 0 10 0;
#X connect 31 0 3 0;
#X connect 31 0 42 0;
#X connect 31 0 47 0;
#X connect 34 0 9 1;
#X connect 35 0 34 0;
#X connect 38 0 79 1;
#X connect 39 0 15 0;
#X connect 40 0 82 1;
#X connect 41 0 39 0;
#X connect 42 0 30 1;
#X connect 43 0 2 1;
#X connect 47 0 46 0;
#X connect 49 0 83 2;
#X connect 50 0 84 2;
#X connect 51 0 85 2;
#X connect 52 0 86 2;
#X connect 53 0 87 2;
#X connect 54 0 88 2;
#X connect 55 0 79 2;
#X connect 56 0 82 2;
#X connect 57 0 94 2;
#X connect 58 0 81 2;
#X connect 59 0 95 2;
#X connect 60 0 96 2;
#X connect 61 0 97 2;
#X connect 62 0 89 2;
#X connect 63 0 90 2;
#X connect 64 0 91 2;
#X connect 65 0 92 2;
#X connect 66 0 93 2;
#X connect 67 0 98 2;
#X connect 79 0 41 0;
#X connect 81 0 101 3;
#X connect 82 0 41 1;
#X connect 83 0 43 0;
#X connect 84 0 43 1;
#X connect 85 0 43 2;
#X connect 86 0 43 3;
#X connect 87 0 42 1;
#X connect 88 0 42 2;
#X connect 89 0 102 1;
#X connect 90 0 102 2;
#X connect 91 0 102 3;
#X connect 92 0 102 4;
#X connect 93 0 102 5;
#X connect 94 0 101 1;
#X connect 95 0 101 4;
#X connect 96 0 101 5;
#X connect 97 0 101 6;
#X connect 98 0 102 6;
#X connect 99 0 100 1;
#X connect 100 0 80 0;
#X connect 101 0 14 1;
#X connect 102 0 15 1;
#X connect 103 0 100 0;
#X connect 104 0 103 0;
#X connect 104 1 103 1;
#X connect 105 0 103 0;
#X connect 105 1 103 2;
#X connect 107 0 104 0;
#X connect 109 0 105 0;
#X connect 110 0 103 0;
#X connect 111 0 114 0;
#X connect 114 0 101 0;
#X connect 114 0 102 0;
#X connect 114 1 79 0;
#X connect 114 1 82 0;
#X connect 114 1 89 0;
#X connect 114 1 90 0;
#X connect 114 1 91 0;
#X connect 114 1 92 0;
#X connect 114 1 93 0;
#X connect 114 1 98 0;
#X connect 114 1 86 0;
#X connect 114 1 85 0;
#X connect 114 1 84 0;
#X connect 114 1 83 0;
#X connect 114 1 87 0;
#X connect 114 1 88 0;
#X connect 114 1 97 0;
#X connect 114 1 96 0;
#X connect 114 1 95 0;
#X connect 114 1 81 0;
#X connect 114 1 94 0;
#X coords 0 -1 1 1 400 200 1 100 -35;
