#N canvas 0 94 1280 691 10;
#X obj 123 441 phasor~;
#X obj 123 463 wavetable~;
#X obj 123 419 +~;
#X obj 206 113 vradio 15 1 0 6 \$0-waveform \$0-pst-waveform WAVEFORM
0 100 0 10 -262144 -1 -1 0.421053;
#X text 224 143 Saw;
#X obj 556 115 vsl 40 100 0 1 0 0 \$0-Vol \$0-pst-Vol VOL 10 5 0 10
-99865 -262144 -262144 5153 1;
#X obj 342 144 hsl 40 15 0 2000 0 0 \$0-FM_Osc2 \$0-pst-FM_Osc2 FM_Osc2
0 8 0 10 -260097 -1 -262144 211 1;
#X obj 342 175 hsl 40 15 0 2000 0 0 \$0-FM_Osc3 \$0-pst-FM_Osc3 FM_Osc3
0 8 0 10 -260097 -1 -262144 0 1;
#X obj 342 205 hsl 40 15 0 2000 0 0 \$0-FM_Osc4 \$0-pst-FM_Osc4 FM_Osc4
0 8 0 10 -260097 -1 -262144 0 1;
#X obj 123 599 *~ 0;
#X obj 404 113 vradio 15 1 0 6 \$0-AM_Waveform \$0-pst-AM_Waveform
AM_WAVEFORM 0 100 0 10 -262144 -1 -1 0;
#X text 422 143 Saw;
#X obj 456 150 hsl 40 15 0 2000 0 0 \$0-AM_Freq \$0-pst-AM_Freq AMFreq
0 8 0 10 -260097 -1 -262144 0 1;
#X obj 456 113 hsl 40 15 0 1 0 0 \$0-AM_Depth \$0-pst-AM_Depth AMDepth
0 8 0 10 -260097 -1 -262144 0 1;
#X obj 123 510 *~;
#X obj 123 378 +~;
#X obj 273 243 nbx 4 14 0 3000 0 0 \$0-1ADSR_Dlay \$0-pst-1ADSR_Dlay
Dlay 0 -6 0 10 -36344 -1 -1 0 256;
#X obj 337 243 nbx 4 14 0 1 0 0 \$0-1ADSR_Amp \$0-pst-1ADSR_Amp Atk.Amp
0 -6 0 10 -36344 -1 -1 1 256;
#X obj 404 243 nbx 4 14 0 3000 0 0 \$0-1ADSR_Atk \$0-pst-1ADSR_Atk
A 0 -6 0 10 -27631 -1 -1 2.26316 256;
#X obj 453 243 nbx 4 14 0 3000 0 0 \$0-1ADSR_Dcay \$0-pst-1ADSR_Dcay
D 0 -6 0 10 -27631 -1 -1 0 256;
#X obj 502 243 nbx 4 14 0 1 0 0 \$0-1ADSR_Sus \$0-pst-1ADSR_Sus S 0
-6 0 10 -27631 -1 -1 1 256;
#X obj 551 243 nbx 4 14 0 3000 0 0 \$0-1ADSR_Rel \$0-pst-1ADSR_Rel
R 0 -6 0 10 -27631 -1 -1 1.21053 256;
#X obj 273 271 nbx 4 14 0 3000 0 0 \$0-0ADSR_Dlay \$0-pst-0ADSR_Dlay
empty 48 8 0 10 -56448 -1 -1 0 256;
#X obj 338 271 nbx 4 14 0 2000 0 0 \$0-0ADSR_Amp \$0-pst-0ADSR_Amp
empty 48 8 0 10 -56448 -1 -1 0 256;
#X obj 404 271 nbx 4 14 0 3000 0 0 \$0-0ADSR_Atk \$0-pst-0ADSR_Atk
empty 48 8 0 10 -51896 -1 -1 0 256;
#X obj 453 271 nbx 4 14 0 3000 0 0 \$0-0ADSR_Dcay \$0-pst-0ADSR_Dcay
empty 48 8 0 10 -51896 -1 -1 0 256;
#X obj 502 271 nbx 4 14 0 2000 0 0 \$0-0ADSR_Sus \$0-pst-0ADSR_Sus
empty 48 8 0 10 -51896 -1 -1 0 256;
#X obj 551 271 nbx 4 14 0 3000 0 0 \$0-0ADSR_Rel \$0-pst-0ADSR_Rel
empty 48 8 0 10 -51896 -1 -1 0 256;
#X text 202 268 PITCH ENV;
#X obj 342 113 hsl 40 15 0 2000 0 0 \$0-FM_Osc1 \$0-pst-FM_Osc1 FM_Osc1
0 8 0 10 -260097 -1 -262144 326 1;
#X obj 123 571 *~;
#X obj 138 98 loadbang;
#X text 154 508 AMPLITUDE ENVELOPPE;
#X text 152 379 PITCH ENVELOPPE;
#X obj 556 536 line;
#X msg 556 514 \$1 100;
#X obj 273 113 nbx 5 25 0 20000 0 0 empty empty Pitch 0 -7 0 10 -27631
-262144 -1 1567.98 256;
#X obj 123 297 line;
#X obj 276 182 hsl 40 15 0 2000 0 0 \$0-glide \$0-pst-glide Glide 5
8 0 10 -4032 -1 -1 0 1;
#X obj 123 274 pack f 0;
#N canvas 0 97 450 300 AmpModulation 0;
#X obj 238 83 phasor~;
#X obj 238 114 wavetable~;
#X obj 129 185 DryWet;
#X msg 129 115 1;
#X obj 188 114 line;
#X msg 188 83 \$1 100;
#X obj 129 207 outlet~;
#X obj 129 25 inlet;
#X obj 188 24 inlet;
#X obj 238 24 inlet;
#X obj 295 24 inlet;
#X connect 0 0 1 0;
#X connect 1 0 2 2;
#X connect 2 0 6 0;
#X connect 3 0 2 0;
#X connect 4 0 2 1;
#X connect 5 0 4 0;
#X connect 7 0 3 0;
#X connect 8 0 5 0;
#X connect 9 0 0 0;
#X connect 10 0 1 1;
#X restore 138 549 pd AmpModulation;
#N canvas 521 214 659 415 FreqModulation 0;
#X obj 131 169 *~;
#X obj 241 169 *~;
#X obj 351 168 *~;
#X obj 241 190 +~;
#X obj 29 212 +~;
#X obj 29 169 *~;
#X obj 29 190 +~;
#X obj 366 116 line;
#X msg 366 76 \$1 100;
#X obj 256 116 line;
#X msg 256 77 \$1 100;
#X obj 146 116 line;
#X msg 146 74 \$1 100;
#X obj 44 116 line;
#X msg 45 72 \$1 100;
#X obj 48 36 inlet;
#X obj 155 36 inlet;
#X obj 283 33 inlet;
#X obj 418 31 inlet;
#X obj 29 236 outlet~;
#X text 52 12 1-FMOsc;
#X text 156 11 2-FMOsc;
#X text 268 11 3-FMOsc;
#X text 413 10 4-FMOsc;
#X obj 9 16 inlet~;
#X obj 117 13 inlet~;
#X obj 227 14 inlet~;
#X obj 372 12 inlet~;
#X text 83 36 Randomize 1-FM;
#X text 191 35 Randomize 2-FM;
#X text 316 33 Randomize 3-FM;
#X text 456 31 Randomize 4-FM;
#X connect 0 0 6 1;
#X connect 1 0 3 0;
#X connect 2 0 3 1;
#X connect 3 0 4 1;
#X connect 4 0 19 0;
#X connect 5 0 6 0;
#X connect 6 0 4 0;
#X connect 7 0 2 1;
#X connect 8 0 7 0;
#X connect 9 0 1 1;
#X connect 10 0 9 0;
#X connect 11 0 0 1;
#X connect 12 0 11 0;
#X connect 13 0 5 1;
#X connect 14 0 13 0;
#X connect 15 0 14 0;
#X connect 16 0 12 0;
#X connect 17 0 10 0;
#X connect 18 0 8 0;
#X connect 24 0 5 0;
#X connect 25 0 0 0;
#X connect 26 0 1 0;
#X connect 27 0 2 0;
#X restore 148 337 pd FreqModulation;
#X text 151 573 AM;
#X text 149 418 FM;
#N canvas 104 97 920 217 presets 0;
#N canvas 177 265 680 310 AM-pst 0;
#X obj 80 146 outlet;
#X obj 246 146 outlet;
#X obj 308 16 inlet;
#X obj 80 106 pack s s f;
#X obj 80 16 inlet;
#X obj 246 107 pack s s f;
#X obj 396 146 outlet;
#X obj 396 107 pack s s f;
#X obj 137 82 r \$0-AM_Waveform;
#X obj 303 83 r \$0-AM_Depth;
#X obj 453 83 r \$0-AM_Freq;
#X msg 108 61 symbol \$1-pst-AM_Waveform;
#X msg 274 62 symbol \$1-pst-AM_Depth;
#X msg 424 62 symbol \$1-pst-AM_Freq;
#X obj 216 262 outlet;
#X obj 216 223 pack s s f;
#X obj 426 262 outlet;
#X obj 426 223 pack s s f;
#X msg 244 178 symbol \$1-pst-AM_Depth_rand;
#X obj 273 199 r \$0-AM_Depth_rand;
#X msg 454 178 symbol \$1-pst-AM_Freq_rand;
#X obj 483 199 r \$0-AM_Freq_rand;
#X connect 2 0 11 0;
#X connect 2 0 12 0;
#X connect 2 0 13 0;
#X connect 2 0 18 0;
#X connect 2 0 20 0;
#X connect 3 0 0 0;
#X connect 4 0 3 0;
#X connect 4 0 5 0;
#X connect 4 0 7 0;
#X connect 4 0 15 0;
#X connect 4 0 17 0;
#X connect 5 0 1 0;
#X connect 7 0 6 0;
#X connect 8 0 3 2;
#X connect 9 0 5 2;
#X connect 10 0 7 2;
#X connect 11 0 3 1;
#X connect 12 0 5 1;
#X connect 13 0 7 1;
#X connect 15 0 14 0;
#X connect 17 0 16 0;
#X connect 18 0 15 1;
#X connect 19 0 15 2;
#X connect 20 0 17 1;
#X connect 21 0 17 2;
#X restore 201 92 pd AM-pst;
#N canvas 26 226 1350 478 Pitch-ADSR-pst 0;
#X obj 63 158 outlet;
#X obj 249 158 outlet;
#X obj 331 28 inlet;
#X obj 63 118 pack s s f;
#X obj 63 28 inlet;
#X obj 249 119 pack s s f;
#X obj 439 158 outlet;
#X obj 439 119 pack s s f;
#X obj 609 158 outlet;
#X obj 609 119 pack s s f;
#X obj 809 158 outlet;
#X obj 809 119 pack s s f;
#X obj 989 158 outlet;
#X obj 989 119 pack s s f;
#X obj 120 94 r \$0-0ADSR_Dlay;
#X obj 306 95 r \$0-0ADSR_Amp;
#X obj 496 95 r \$0-0ADSR_Atk;
#X obj 666 95 r \$0-0ADSR_Dcay;
#X obj 866 95 r \$0-0ADSR_Sus;
#X obj 1046 95 r \$0-0ADSR_Rel;
#X msg 91 73 symbol \$1-pst-0ADSR_Dlay;
#X msg 277 74 symbol \$1-pst-0ADSR_Amp;
#X msg 467 74 symbol \$1-pst-0ADSR_Atk;
#X msg 637 74 symbol \$1-pst-0ADSR_Dcay;
#X msg 837 74 symbol \$1-pst-0ADSR_Sus;
#X msg 1017 74 symbol \$1-pst-0ADSR_Rel;
#X obj 50 299 outlet;
#X obj 266 299 outlet;
#X obj 50 259 pack s s f;
#X obj 266 260 pack s s f;
#X obj 476 299 outlet;
#X obj 476 260 pack s s f;
#X obj 686 299 outlet;
#X obj 686 260 pack s s f;
#X obj 906 299 outlet;
#X obj 906 260 pack s s f;
#X obj 1116 299 outlet;
#X obj 1116 260 pack s s f;
#X msg 78 214 symbol \$1-pst-0ADSR_Dlay_rand;
#X obj 107 235 r \$0-0ADSR_Dlay_rand;
#X msg 294 215 symbol \$1-pst-0ADSR_Amp_rand;
#X obj 323 236 r \$0-0ADSR_Amp_rand;
#X msg 504 215 symbol \$1-pst-0ADSR_Atk_rand;
#X obj 533 236 r \$0-0ADSR_Atk_rand;
#X msg 714 215 symbol \$1-pst-0ADSR_Dcay_rand;
#X obj 743 236 r \$0-0ADSR_Dcay_rand;
#X msg 934 215 symbol \$1-pst-0ADSR_Sus_rand;
#X obj 963 236 r \$0-0ADSR_Sus_rand;
#X msg 1144 215 symbol \$1-pst-0ADSR_Rel_rand;
#X obj 1173 236 r \$0-0ADSR_Rel_rand, f 25;
#X connect 2 0 20 0;
#X connect 2 0 21 0;
#X connect 2 0 22 0;
#X connect 2 0 23 0;
#X connect 2 0 24 0;
#X connect 2 0 25 0;
#X connect 2 0 38 0;
#X connect 2 0 40 0;
#X connect 2 0 42 0;
#X connect 2 0 44 0;
#X connect 2 0 46 0;
#X connect 2 0 48 0;
#X connect 3 0 0 0;
#X connect 4 0 3 0;
#X connect 4 0 5 0;
#X connect 4 0 7 0;
#X connect 4 0 9 0;
#X connect 4 0 11 0;
#X connect 4 0 13 0;
#X connect 4 0 28 0;
#X connect 4 0 29 0;
#X connect 4 0 31 0;
#X connect 4 0 33 0;
#X connect 4 0 35 0;
#X connect 4 0 37 0;
#X connect 5 0 1 0;
#X connect 7 0 6 0;
#X connect 9 0 8 0;
#X connect 11 0 10 0;
#X connect 13 0 12 0;
#X connect 14 0 3 2;
#X connect 15 0 5 2;
#X connect 16 0 7 2;
#X connect 17 0 9 2;
#X connect 18 0 11 2;
#X connect 19 0 13 2;
#X connect 20 0 3 1;
#X connect 21 0 5 1;
#X connect 22 0 7 1;
#X connect 23 0 9 1;
#X connect 24 0 11 1;
#X connect 25 0 13 1;
#X connect 28 0 26 0;
#X connect 29 0 27 0;
#X connect 31 0 30 0;
#X connect 33 0 32 0;
#X connect 35 0 34 0;
#X connect 37 0 36 0;
#X connect 38 0 28 1;
#X connect 39 0 28 2;
#X connect 40 0 29 1;
#X connect 41 0 29 2;
#X connect 42 0 31 1;
#X connect 43 0 31 2;
#X connect 44 0 33 1;
#X connect 45 0 33 2;
#X connect 46 0 35 1;
#X connect 47 0 35 2;
#X connect 48 0 37 1;
#X connect 49 0 37 2;
#X restore 417 92 pd Pitch-ADSR-pst;
#X obj 153 13 inlet;
#X obj 13 177 s store-pst;
#X obj 13 13 r bang-pst;
#X msg 13 35 add;
#N canvas 105 216 1064 313 FM-pst 0;
#X obj 80 146 outlet;
#X obj 226 146 outlet;
#X obj 308 16 inlet;
#X obj 80 106 pack s s f;
#X obj 80 16 inlet;
#X obj 226 107 pack s s f;
#X obj 366 146 outlet;
#X obj 366 107 pack s s f;
#X obj 506 146 outlet;
#X obj 506 107 pack s s f;
#X obj 137 82 r \$0-FM_Osc1;
#X obj 283 83 r \$0-FM_Osc2;
#X obj 423 83 r \$0-FM_Osc3;
#X obj 563 83 r \$0-FM_Osc4;
#X msg 108 61 symbol \$1-pst-FM_Osc1;
#X msg 254 62 symbol \$1-pst-FM_Osc2;
#X msg 394 62 symbol \$1-pst-FM_Osc3;
#X msg 534 62 symbol \$1-pst-FM_Osc4;
#X obj 32 264 outlet;
#X obj 228 264 outlet;
#X obj 32 224 pack s s f;
#X obj 228 225 pack s s f;
#X obj 438 264 outlet;
#X obj 438 225 pack s s f;
#X obj 648 264 outlet;
#X obj 648 225 pack s s f;
#X msg 60 179 symbol \$1-pst-FM_Osc1_rand;
#X obj 89 200 r \$0-FM_Osc1_rand;
#X obj 285 201 r \$0-FM_Osc2_rand;
#X msg 256 180 symbol \$1-pst-FM_Osc2_rand;
#X msg 466 180 symbol \$1-pst-FM_Osc3_rand;
#X obj 495 201 r \$0-FM_Osc3_rand;
#X obj 705 201 r \$0-FM_Osc4_rand;
#X msg 676 180 symbol \$1-pst-FM_Osc4_rand, f 14;
#X connect 2 0 14 0;
#X connect 2 0 15 0;
#X connect 2 0 16 0;
#X connect 2 0 17 0;
#X connect 2 0 29 0;
#X connect 2 0 30 0;
#X connect 2 0 33 0;
#X connect 2 0 26 0;
#X connect 3 0 0 0;
#X connect 4 0 3 0;
#X connect 4 0 5 0;
#X connect 4 0 7 0;
#X connect 4 0 9 0;
#X connect 4 0 20 0;
#X connect 4 0 21 0;
#X connect 4 0 23 0;
#X connect 4 0 25 0;
#X connect 5 0 1 0;
#X connect 7 0 6 0;
#X connect 9 0 8 0;
#X connect 10 0 3 2;
#X connect 11 0 5 2;
#X connect 12 0 7 2;
#X connect 13 0 9 2;
#X connect 14 0 3 1;
#X connect 15 0 5 1;
#X connect 16 0 7 1;
#X connect 17 0 9 1;
#X connect 20 0 18 0;
#X connect 21 0 19 0;
#X connect 23 0 22 0;
#X connect 25 0 24 0;
#X connect 26 0 20 1;
#X connect 27 0 20 2;
#X connect 28 0 21 2;
#X connect 29 0 21 1;
#X connect 30 0 23 1;
#X connect 31 0 23 2;
#X connect 32 0 25 2;
#X connect 33 0 25 1;
#X restore 111 92 pd FM-pst;
#N canvas 950 433 490 200 vol-pst 0;
#X obj 80 146 outlet;
#X obj 108 37 inlet;
#X obj 80 106 pack s s f;
#X obj 80 16 inlet;
#X obj 137 82 r \$0-Vol;
#X msg 108 61 symbol \$1-pst-Vol;
#X connect 1 0 5 0;
#X connect 2 0 0 0;
#X connect 3 0 2 0;
#X connect 4 0 2 2;
#X connect 5 0 2 1;
#X restore 558 90 pd vol-pst;
#N canvas 32 277 1032 279 pitch-pst 0;
#X obj 267 62 r \$0-waveform;
#X obj 200 126 outlet;
#X obj 376 126 outlet;
#X obj 409 9 inlet;
#X obj 200 86 pack s s f;
#X obj 11 9 inlet;
#X obj 376 87 pack s s f;
#X obj 443 63 r \$0-glide;
#X msg 233 41 symbol \$1-pst-waveform;
#X msg 409 42 symbol \$1-pst-glide;
#X obj 11 126 outlet;
#X obj 11 86 pack s s f;
#X obj 78 62 r \$0-Pitch;
#X msg 44 41 symbol \$1-pst-Pitch;
#X obj 236 245 outlet;
#X obj 236 206 pack s s f;
#X msg 269 161 symbol \$1-pst-glide_rand;
#X obj 303 182 r \$0-glide_rand;
#X obj 21 246 outlet;
#X obj 21 206 pack s s f;
#X msg 54 161 symbol \$1-pst-Pitch_rand;
#X obj 88 182 r \$0-Pitch_rand;
#X obj 456 246 outlet;
#X obj 456 207 pack s s f;
#X msg 489 162 symbol \$1-pst-ListenSeq;
#X obj 523 183 r \$0-ListenSeq;
#X obj 624 89 pack s s f;
#X obj 844 90 pack s s f;
#X msg 657 44 symbol \$1-pst-Transpose;
#X obj 691 65 r \$0-Transpose;
#X obj 911 66 r \$0-Octave;
#X msg 877 45 symbol \$1-pst-Octave;
#X obj 624 124 outlet;
#X obj 844 127 outlet;
#X connect 0 0 4 2;
#X connect 3 0 8 0;
#X connect 3 0 9 0;
#X connect 3 0 13 0;
#X connect 3 0 16 0;
#X connect 3 0 20 0;
#X connect 3 0 24 0;
#X connect 3 0 28 0;
#X connect 3 0 31 0;
#X connect 4 0 1 0;
#X connect 5 0 4 0;
#X connect 5 0 6 0;
#X connect 5 0 11 0;
#X connect 5 0 15 0;
#X connect 5 0 19 0;
#X connect 5 0 23 0;
#X connect 5 0 26 0;
#X connect 5 0 27 0;
#X connect 6 0 2 0;
#X connect 7 0 6 2;
#X connect 8 0 4 1;
#X connect 9 0 6 1;
#X connect 11 0 10 0;
#X connect 12 0 11 2;
#X connect 13 0 11 1;
#X connect 15 0 14 0;
#X connect 16 0 15 1;
#X connect 17 0 15 2;
#X connect 19 0 18 0;
#X connect 20 0 19 1;
#X connect 21 0 19 2;
#X connect 23 0 22 0;
#X connect 24 0 23 1;
#X connect 25 0 23 2;
#X connect 26 0 32 0;
#X connect 27 0 33 0;
#X connect 28 0 26 1;
#X connect 29 0 26 2;
#X connect 30 0 27 2;
#X connect 31 0 27 1;
#X restore 13 92 pd pitch-pst;
#N canvas 603 325 1218 421 Level-ADSR-pst 0;
#X obj 63 158 outlet;
#X obj 249 158 outlet;
#X obj 331 28 inlet;
#X obj 63 118 pack s s f;
#X obj 63 28 inlet;
#X obj 249 119 pack s s f;
#X obj 439 158 outlet;
#X obj 439 119 pack s s f;
#X obj 609 158 outlet;
#X obj 609 119 pack s s f;
#X obj 809 158 outlet;
#X obj 809 119 pack s s f;
#X obj 989 158 outlet;
#X obj 989 119 pack s s f;
#X msg 91 73 symbol \$1-pst-1ADSR_Dlay;
#X obj 120 94 r \$0-1ADSR_Dlay;
#X msg 278 74 symbol \$1-pst-1ADSR_Amp;
#X obj 306 95 r \$0-1ADSR_Amp;
#X msg 467 74 symbol \$1-pst-1ADSR_Atk;
#X obj 496 95 r \$0-1ADSR_Atk;
#X msg 637 74 symbol \$1-pst-1ADSR_Dcay;
#X obj 666 95 r \$0-1ADSR_Dcay;
#X msg 837 74 symbol \$1-pst-1ADSR_Sus;
#X obj 866 95 r \$0-1ADSR_Sus;
#X msg 1017 74 symbol \$1-pst-1ADSR_Rel;
#X obj 1046 95 r \$0-1ADSR_Rel;
#X obj 36 282 outlet;
#X obj 36 242 pack s s f;
#X obj 302 282 outlet;
#X obj 302 243 pack s s f;
#X obj 532 282 outlet;
#X obj 532 243 pack s s f;
#X obj 762 282 outlet;
#X obj 762 243 pack s s f;
#X obj 962 282 outlet;
#X obj 962 243 pack s s f;
#X msg 64 197 symbol \$1-pst-1ADSR_Dlay_rand;
#X obj 93 218 r \$0-1ADSR_Dlay_rand;
#X obj 359 219 r \$0-1ADSR_Atk_rand;
#X msg 330 198 symbol \$1-pst-1ADSR_Atk_rand;
#X msg 560 198 symbol \$1-pst-1ADSR_Dcay_rand;
#X obj 589 219 r \$0-1ADSR_Dcay_rand;
#X msg 990 198 symbol \$1-pst-1ADSR_Rel_rand;
#X obj 1019 219 r \$0-1ADSR_Rel_rand, f 23;
#X msg 790 198 symbol \$1-pst-1ADSR_Sus_rand;
#X obj 819 219 r \$0-1ADSR_Sus_rand;
#X connect 2 0 14 0;
#X connect 2 0 16 0;
#X connect 2 0 18 0;
#X connect 2 0 20 0;
#X connect 2 0 22 0;
#X connect 2 0 24 0;
#X connect 2 0 36 0;
#X connect 2 0 39 0;
#X connect 2 0 40 0;
#X connect 2 0 44 0;
#X connect 2 0 42 0;
#X connect 3 0 0 0;
#X connect 4 0 3 0;
#X connect 4 0 5 0;
#X connect 4 0 7 0;
#X connect 4 0 9 0;
#X connect 4 0 11 0;
#X connect 4 0 13 0;
#X connect 4 0 27 0;
#X connect 4 0 29 0;
#X connect 4 0 31 0;
#X connect 4 0 33 0;
#X connect 4 0 35 0;
#X connect 5 0 1 0;
#X connect 7 0 6 0;
#X connect 9 0 8 0;
#X connect 11 0 10 0;
#X connect 13 0 12 0;
#X connect 14 0 3 1;
#X connect 15 0 3 2;
#X connect 16 0 5 1;
#X connect 17 0 5 2;
#X connect 18 0 7 1;
#X connect 19 0 7 2;
#X connect 20 0 9 1;
#X connect 21 0 9 2;
#X connect 22 0 11 1;
#X connect 23 0 11 2;
#X connect 24 0 13 1;
#X connect 25 0 13 2;
#X connect 27 0 26 0;
#X connect 29 0 28 0;
#X connect 31 0 30 0;
#X connect 33 0 32 0;
#X connect 35 0 34 0;
#X connect 36 0 27 1;
#X connect 37 0 27 2;
#X connect 38 0 29 2;
#X connect 39 0 29 1;
#X connect 40 0 31 1;
#X connect 41 0 31 2;
#X connect 42 0 35 1;
#X connect 43 0 35 2;
#X connect 44 0 33 1;
#X connect 45 0 33 2;
#X restore 277 92 pd Level-ADSR-pst;
#X connect 0 0 3 0;
#X connect 0 1 3 0;
#X connect 0 2 3 0;
#X connect 0 3 3 0;
#X connect 0 4 3 0;
#X connect 1 0 3 0;
#X connect 1 1 3 0;
#X connect 1 2 3 0;
#X connect 1 3 3 0;
#X connect 1 4 3 0;
#X connect 1 5 3 0;
#X connect 1 6 3 0;
#X connect 1 7 3 0;
#X connect 1 8 3 0;
#X connect 1 9 3 0;
#X connect 1 10 3 0;
#X connect 1 11 3 0;
#X connect 2 0 8 1;
#X connect 2 0 6 1;
#X connect 2 0 0 1;
#X connect 2 0 1 1;
#X connect 2 0 9 1;
#X connect 2 0 7 1;
#X connect 4 0 5 0;
#X connect 5 0 8 0;
#X connect 5 0 6 0;
#X connect 5 0 0 0;
#X connect 5 0 1 0;
#X connect 5 0 9 0;
#X connect 5 0 7 0;
#X connect 6 0 3 0;
#X connect 6 1 3 0;
#X connect 6 2 3 0;
#X connect 6 3 3 0;
#X connect 6 4 3 0;
#X connect 6 5 3 0;
#X connect 6 6 3 0;
#X connect 6 7 3 0;
#X connect 7 0 3 0;
#X connect 8 0 3 0;
#X connect 8 1 3 0;
#X connect 8 2 3 0;
#X connect 8 3 3 0;
#X connect 8 4 3 0;
#X connect 8 5 3 0;
#X connect 8 6 3 0;
#X connect 8 7 3 0;
#X connect 9 0 3 0;
#X connect 9 1 3 0;
#X connect 9 2 3 0;
#X connect 9 3 3 0;
#X connect 9 4 3 0;
#X connect 9 5 3 0;
#X connect 9 6 3 0;
#X connect 9 7 3 0;
#X connect 9 8 3 0;
#X connect 9 9 3 0;
#X connect 9 10 3 0;
#X restore 1009 189 pd presets;
#X obj 1009 159 f \$1;
#N canvas 262 200 1658 827 pst-routing 1;
#X obj 10 41 route 1 2;
#X obj 126 397 scale 0 1 0 1;
#X obj 252 397 scale 0 1 0 1;
#X obj 351 397 scale 0 1 0 1;
#X obj 457 397 scale 0 1 0 1;
#X obj 563 397 scale 0 1 0 1;
#X obj 669 397 scale 0 1 0 1;
#X obj 11 462 scale 0 1 0 1;
#X obj 137 462 scale 0 1 0 1;
#X obj 256 462 scale 0 1 0 1;
#X obj 382 462 scale 0 1 0 1;
#X obj 508 462 scale 0 1 0 1;
#X obj 629 461 scale 0 1 0 1;
#X obj 11 512 scale 0 1 0 1;
#X obj 137 512 scale 0 1 0 1;
#X obj 256 512 scale 0 1 0 1;
#X obj 382 512 scale 0 1 0 1;
#X obj 508 512 scale 0 1 0 1;
#X obj 629 511 scale 0 1 0 1;
#X obj 11 562 scale 0 1 0 1;
#X obj 107 562 scale 0 1 0 1;
#X obj 236 562 scale 0 1 0 1;
#X obj 352 562 scale 0 1 0 1;
#X obj 126 419 s \$0-pst-waveform;
#X obj 252 419 s \$0-pst-glide;
#X obj 351 419 s \$0-pst-FM_Osc1;
#X obj 457 419 s \$0-pst-FM_Osc2;
#X obj 563 418 s \$0-pst-FM_Osc3;
#X obj 669 419 s \$0-pst-FM_Osc4;
#X obj 11 484 s \$0-pst-0ADSR_Dlay;
#X obj 137 484 s \$0-pst-0ADSR_Amp;
#X obj 256 484 s \$0-pst-0ADSR_Atk;
#X obj 382 484 s \$0-pst-0ADSR_Dcay;
#X obj 508 484 s \$0-pst-0ADSR_Sus;
#X obj 629 484 s \$0-pst-0ADSR_Rel;
#X obj 19 581 s \$0-pst-Vol;
#X obj 107 584 s \$0-pst-AM_Waveform;
#X obj 236 584 s \$0-pst-AM_Depth;
#X obj 352 584 s \$0-pst-AM_Freq;
#X obj 11 397 scale 0 1 0 1;
#X obj 11 419 s \$0-pst-Pitch;
#X obj 11 534 s \$0-pst-1ADSR_Dlay;
#X obj 137 534 s \$0-pst-1ADSR_Amp;
#X obj 256 534 s \$0-pst-1ADSR_Atk;
#X obj 382 534 s \$0-pst-1ADSR_Dcay;
#X obj 508 534 s \$0-pst-1ADSR_Sus;
#X obj 629 534 s \$0-pst-1ADSR_Rel;
#X obj 161 629 scale 0 1 0 1;
#X obj 350 629 scale 0 1 0 1;
#X obj 506 629 scale 0 1 0 1;
#X obj 662 630 scale 0 1 0 1;
#X obj 818 629 scale 0 1 0 1;
#X obj 10 694 scale 0 1 0 1;
#X obj 186 694 scale 0 1 0 1;
#X obj 355 694 scale 0 1 0 1;
#X obj 531 694 scale 0 1 0 1;
#X obj 707 694 scale 0 1 0 1;
#X obj 878 693 scale 0 1 0 1;
#X obj 10 744 scale 0 1 0 1;
#X obj 185 744 scale 0 1 0 1;
#X obj 354 744 scale 0 1 0 1;
#X obj 537 744 scale 0 1 0 1;
#X obj 708 743 scale 0 1 0 1;
#X obj 10 794 scale 0 1 0 1;
#X obj 181 794 scale 0 1 0 1;
#X obj 10 629 scale 0 1 0 1;
#X obj 10 651 s \$0-pst-Pitch_rand;
#X obj 161 651 s \$0-pst-glide_rand;
#X obj 350 651 s \$0-pst-FM_Osc1_rand;
#X obj 506 651 s \$0-pst-FM_Osc2_rand;
#X obj 662 651 s \$0-pst-FM_Osc3_rand;
#X obj 818 651 s \$0-pst-FM_Osc4_rand;
#X obj 10 716 s \$0-pst-0ADSR_Dlay_rand;
#X obj 186 716 s \$0-pst-0ADSR_Amp_rand;
#X obj 355 716 s \$0-pst-0ADSR_Atk_rand;
#X obj 531 716 s \$0-pst-0ADSR_Dcay_rand;
#X obj 707 716 s \$0-pst-0ADSR_Sus_rand;
#X obj 878 716 s \$0-pst-0ADSR_Rel_rand;
#X obj 10 766 s \$0-pst-1ADSR_Dlay_rand;
#X obj 185 766 s \$0-pst-1ADSR_Atk_rand;
#X obj 354 766 s \$0-pst-1ADSR_Dcay_rand;
#X obj 537 766 s \$0-pst-1ADSR_Sus_rand;
#X obj 708 766 s \$0-pst-1ADSR_Rel_rand;
#X obj 10 816 s \$0-pst-AM_Depth_rand;
#X obj 181 816 s \$0-pst-AM_Freq_rand;
#X obj 1007 631 scale 0 1 0 1;
#X obj 1007 760 s \$0-pst-ListenSeq;
#X obj 1007 679 change;
#N canvas 0 22 450 300 round 0;
#X obj 50 83 int;
#X obj 50 61 + 0.5;
#X obj 50 105 outlet;
#X obj 50 38 inlet;
#X connect 0 0 2 0;
#X connect 1 0 0 0;
#X connect 3 0 1 0;
#X restore 1007 654 pd round;
#X obj 811 535 scale 0 1 0 1;
#X obj 982 531 scale 0 1 0 1;
#X obj 10 95 route pst-waveform pst-glide pst-FM_Osc1 pst-FM_Osc2 pst-FM_Osc3
pst-FM_Osc4 pst-0ADSR_Dlay pst-0ADSR_Amp pst-0ADSR_Atk pst-0ADSR_Dcay
pst-0ADSR_Sus pst-0ADSR_Rel pst-1ADSR_Dlay pst-1ADSR_Amp pst-1ADSR_Atk
pst-1ADSR_Dcay pst-1ADSR_Sus pst-1ADSR_Rel pst-Vol pst-AM_Waveform
pst-AM_Depth pst-AM_Freq pst-Pitch pst-Pitch_rand pst-glide_rand pst-FM_Osc1_rand
pst-FM_Osc2_rand pst-FM_Osc3_rand pst-FM_Osc4_rand pst-0ADSR_Dlay_rand
pst-0ADSR_Amp_rand pst-0ADSR_Atk_rand pst-0ADSR_Dcay_rand pst-0ADSR_Sus_rand
pst-0ADSR_Rel_rand pst-1ADSR_Dlay_rand pst-1ADSR_Atk_rand pst-1ADSR_Dcay_rand
pst-1ADSR_Sus_rand pst-1ADSR_Rel_rand pst-AM_Depth_rand pst-AM_Freq_rand
pst-ListenSeq pst-Transpose pst-Octave, f 80;
#X obj 581 95 route pst-waveform pst-glide pst-FM_Osc1 pst-FM_Osc2
pst-FM_Osc3 pst-FM_Osc4 pst-0ADSR_Dlay pst-0ADSR_Amp pst-0ADSR_Atk
pst-0ADSR_Dcay pst-0ADSR_Sus pst-0ADSR_Rel pst-1ADSR_Dlay pst-1ADSR_Amp
pst-1ADSR_Atk pst-1ADSR_Dcay pst-1ADSR_Sus pst-1ADSR_Rel pst-Vol pst-AM_Waveform
pst-AM_Depth pst-AM_Freq pst-Pitch pst-Pitch_rand pst-glide_rand pst-FM_Osc1_rand
pst-FM_Osc2_rand pst-FM_Osc3_rand pst-FM_Osc4_rand pst-0ADSR_Dlay_rand
pst-0ADSR_Amp_rand pst-0ADSR_Atk_rand pst-0ADSR_Dcay_rand pst-0ADSR_Sus_rand
pst-0ADSR_Rel_rand pst-1ADSR_Dlay_rand pst-1ADSR_Atk_rand pst-1ADSR_Dcay_rand
pst-1ADSR_Sus_rand pst-1ADSR_Rel_rand pst-AM_Depth_rand pst-AM_Freq_rand
pst-ListenSeq pst-Transpose pst-Octave, f 81;
#X obj 811 557 s \$0-pst-Transpose;
#X obj 982 557 s \$0-pst-Octave;
#X obj 10 15 inlet;
#X text 52 14 pst;
#X obj 1187 89 unpack s f;
#X obj 1187 116 t b s;
#X obj 1187 144 f;
#X obj 1129 279 send;
#X obj 1213 161 makefilename \$0-%s;
#X obj 1094 224 scale 0 1 0 1;
#X text 203 20 pst-morph;
#X obj 1317 78 unpack s f;
#X obj 1317 104 t b s;
#X obj 1317 133 f;
#X obj 1343 150 makefilename \$0-%s;
#X obj 1094 194 t b f;
#X obj 1148 193 t b f;
#X obj 1307 224 pack;
#X obj 159 20 inlet;
#X connect 0 0 91 0;
#X connect 0 1 92 0;
#X connect 1 0 23 0;
#X connect 2 0 24 0;
#X connect 3 0 25 0;
#X connect 4 0 26 0;
#X connect 5 0 27 0;
#X connect 6 0 28 0;
#X connect 7 0 29 0;
#X connect 8 0 30 0;
#X connect 9 0 31 0;
#X connect 10 0 32 0;
#X connect 11 0 33 0;
#X connect 12 0 34 0;
#X connect 13 0 41 0;
#X connect 14 0 42 0;
#X connect 15 0 43 0;
#X connect 16 0 44 0;
#X connect 17 0 45 0;
#X connect 18 0 46 0;
#X connect 19 0 35 0;
#X connect 20 0 36 0;
#X connect 21 0 37 0;
#X connect 22 0 38 0;
#X connect 39 0 40 0;
#X connect 47 0 67 0;
#X connect 48 0 68 0;
#X connect 49 0 69 0;
#X connect 50 0 70 0;
#X connect 51 0 71 0;
#X connect 52 0 72 0;
#X connect 53 0 73 0;
#X connect 54 0 74 0;
#X connect 55 0 75 0;
#X connect 56 0 76 0;
#X connect 57 0 77 0;
#X connect 58 0 78 0;
#X connect 59 0 79 0;
#X connect 60 0 80 0;
#X connect 61 0 81 0;
#X connect 62 0 82 0;
#X connect 63 0 83 0;
#X connect 64 0 84 0;
#X connect 65 0 66 0;
#X connect 85 0 88 0;
#X connect 87 0 86 0;
#X connect 88 0 87 0;
#X connect 89 0 93 0;
#X connect 90 0 94 0;
#X connect 91 0 1 3;
#X connect 91 1 2 3;
#X connect 91 2 3 3;
#X connect 91 3 4 3;
#X connect 91 4 5 3;
#X connect 91 5 6 3;
#X connect 91 6 7 3;
#X connect 91 7 8 3;
#X connect 91 8 9 3;
#X connect 91 9 10 3;
#X connect 91 10 11 3;
#X connect 91 11 12 3;
#X connect 91 12 13 3;
#X connect 91 13 14 3;
#X connect 91 14 15 3;
#X connect 91 15 16 3;
#X connect 91 16 17 3;
#X connect 91 17 18 3;
#X connect 91 18 19 3;
#X connect 91 19 20 3;
#X connect 91 20 21 3;
#X connect 91 21 22 3;
#X connect 91 22 39 3;
#X connect 91 23 65 3;
#X connect 91 24 47 3;
#X connect 91 25 48 3;
#X connect 91 26 49 3;
#X connect 91 27 50 3;
#X connect 91 28 51 3;
#X connect 91 29 52 3;
#X connect 91 30 53 3;
#X connect 91 31 54 3;
#X connect 91 32 55 3;
#X connect 91 33 56 3;
#X connect 91 34 57 3;
#X connect 91 35 58 3;
#X connect 91 36 59 3;
#X connect 91 37 60 3;
#X connect 91 38 61 3;
#X connect 91 39 62 3;
#X connect 91 40 63 3;
#X connect 91 41 64 3;
#X connect 91 42 85 3;
#X connect 91 43 89 3;
#X connect 91 44 90 3;
#X connect 92 0 1 4;
#X connect 92 1 2 4;
#X connect 92 2 3 4;
#X connect 92 3 4 4;
#X connect 92 4 5 4;
#X connect 92 5 6 4;
#X connect 92 6 7 4;
#X connect 92 7 8 4;
#X connect 92 8 9 4;
#X connect 92 9 10 4;
#X connect 92 10 11 4;
#X connect 92 11 12 4;
#X connect 92 12 13 4;
#X connect 92 13 14 4;
#X connect 92 14 15 4;
#X connect 92 15 16 4;
#X connect 92 16 17 4;
#X connect 92 17 18 4;
#X connect 92 18 19 4;
#X connect 92 19 20 4;
#X connect 92 20 21 4;
#X connect 92 21 22 4;
#X connect 92 22 39 4;
#X connect 92 23 65 4;
#X connect 92 24 47 4;
#X connect 92 25 48 4;
#X connect 92 26 49 4;
#X connect 92 27 50 4;
#X connect 92 28 51 4;
#X connect 92 29 52 4;
#X connect 92 30 53 4;
#X connect 92 31 54 4;
#X connect 92 32 55 4;
#X connect 92 33 56 4;
#X connect 92 34 57 4;
#X connect 92 35 58 4;
#X connect 92 36 59 4;
#X connect 92 37 60 4;
#X connect 92 38 61 4;
#X connect 92 39 62 4;
#X connect 92 40 63 4;
#X connect 92 41 64 4;
#X connect 92 42 85 4;
#X connect 92 43 89 4;
#X connect 92 44 90 4;
#X connect 95 0 0 0;
#X connect 97 0 98 0;
#X connect 97 1 99 1;
#X connect 98 0 99 0;
#X connect 98 1 101 0;
#X connect 99 0 108 0;
#X connect 101 0 100 1;
#X connect 102 0 100 0;
#X connect 104 0 105 0;
#X connect 104 1 106 1;
#X connect 105 0 106 0;
#X connect 105 1 107 0;
#X connect 106 0 109 0;
#X connect 107 0 100 1;
#X connect 108 0 102 0;
#X connect 108 1 102 3;
#X connect 109 0 102 0;
#X connect 109 0 102 4;
#X connect 111 0 1 0;
#X connect 111 0 2 0;
#X connect 111 0 3 0;
#X connect 111 0 4 0;
#X connect 111 0 5 0;
#X connect 111 0 6 0;
#X connect 111 0 7 0;
#X connect 111 0 8 0;
#X connect 111 0 9 0;
#X connect 111 0 10 0;
#X connect 111 0 11 0;
#X connect 111 0 12 0;
#X connect 111 0 13 0;
#X connect 111 0 14 0;
#X connect 111 0 15 0;
#X connect 111 0 16 0;
#X connect 111 0 17 0;
#X connect 111 0 18 0;
#X connect 111 0 19 0;
#X connect 111 0 20 0;
#X connect 111 0 21 0;
#X connect 111 0 22 0;
#X connect 111 0 39 0;
#X connect 111 0 65 0;
#X connect 111 0 47 0;
#X connect 111 0 48 0;
#X connect 111 0 49 0;
#X connect 111 0 50 0;
#X connect 111 0 51 0;
#X connect 111 0 52 0;
#X connect 111 0 53 0;
#X connect 111 0 54 0;
#X connect 111 0 55 0;
#X connect 111 0 56 0;
#X connect 111 0 57 0;
#X connect 111 0 58 0;
#X connect 111 0 59 0;
#X connect 111 0 60 0;
#X connect 111 0 61 0;
#X connect 111 0 62 0;
#X connect 111 0 63 0;
#X connect 111 0 64 0;
#X connect 111 0 85 0;
#X connect 111 0 89 0;
#X connect 111 0 90 0;
#X restore 985 209 pd pst-routing;
#X obj 342 128 hsl 40 10 0 2000 0 0 \$0-FM_Osc1_rand \$0-pst-FM_Osc1_rand
Rand 10 5 0 8 -128992 -262144 -262144 0 1;
#X obj 342 159 hsl 40 10 0 2000 0 0 \$0-FM_Osc2_rand \$0-pst-FM_Osc2_rand
Rand 10 5 0 8 -128992 -262144 -262144 0 1;
#X obj 342 190 hsl 40 10 0 2000 0 0 \$0-FM_Osc3_rand \$0-pst-FM_Osc3_rand
Rand 10 5 0 8 -128992 -262144 -262144 0 1;
#X obj 342 220 hsl 40 10 0 2000 0 0 \$0-FM_Osc4_rand \$0-pst-FM_Osc4_rand
Rand 10 5 0 8 -128992 -262144 -262144 0 1;
#X obj 456 128 hsl 40 10 0 1 0 0 \$0-AM_Depth_rand \$0-pst-AM_Depth_rand
Rand 10 5 0 8 -128992 -262144 -262144 0 1;
#X obj 456 165 hsl 40 10 0 2000 0 0 \$0-AM_Freq_rand \$0-pst-AM_Freq_rand
Rand 10 5 0 8 -128992 -262144 -262144 0 1;
#X obj 276 139 hsl 54 10 0 2000 0 0 \$0-Pitch_rand \$0-pst-Pitch_rand
Rand 10 5 0 8 -128992 -262144 -262144 0 1;
#X obj 276 197 hsl 40 10 0 2000 0 0 \$0-glide_rand \$0-pst-glide_rand
Rand 10 5 0 8 -128992 -262144 -262144 0 1;
#X obj 276 257 hsl 40 10 0 3000 0 0 \$0-1ADSR_Dlay_rand \$0-pst-1ADSR_Dlay_rand
Rand 10 5 0 8 -128992 -262144 -262144 0 1;
#X obj 407 257 hsl 40 10 0 3000 0 0 \$0-1ADSR_Atk_rand \$0-pst-1ADSR_Atk_rand
Rand 10 5 0 8 -128992 -262144 -262144 0 1;
#X obj 456 257 hsl 40 10 0 3000 0 0 \$0-1ADSR_Dcay_rand \$0-pst-1ADSR_Dcay_rand
Rand 10 5 0 8 -128992 -262144 -262144 0 1;
#X obj 505 257 hsl 40 10 0 1 0 0 \$0-1ADSR_Sus_rand \$0-pst-1ADSR_Sus_rand
Rand 10 5 0 8 -128992 -262144 -262144 0 1;
#X obj 554 257 hsl 40 10 0 3000 0 0 \$0-1ADSR_Rel_rand \$0-pst-1ADSR_Rel_rand
Rand 10 5 0 8 -128992 -262144 -262144 0 1;
#X obj 276 285 hsl 40 10 0 3000 0 0 \$0-0ADSR_Dlay_rand \$0-pst-0ADSR_Dlay_rand
Rand 10 5 0 8 -128992 -262144 -262144 0 1;
#X obj 341 285 hsl 40 10 0 2000 0 0 \$0-0ADSR_Amp_rand \$0-pst-0ADSR_Amp_rand
Rand 10 5 0 8 -128992 -262144 -262144 0 1;
#X obj 407 285 hsl 40 10 0 3000 0 0 \$0-0ADSR_Atk_rand \$0-pst-0ADSR_Atk_rand
Rand 10 5 0 8 -128992 -262144 -262144 0 1;
#X obj 456 285 hsl 40 10 0 3000 0 0 \$0-0ADSR_Dcay_rand \$0-pst-0ADSR_Dcay_rand
Rand 10 5 0 8 -128992 -262144 -262144 0 1;
#X obj 505 285 hsl 40 10 0 2000 0 0 \$0-0ADSR_Sus_rand \$0-pst-0ADSR_Sus_rand
Rand 10 5 0 8 -128992 -262144 -262144 0 1;
#X obj 554 285 hsl 40 10 0 3000 0 0 \$0-0ADSR_Rel_rand \$0-pst-0ADSR_Rel_rand
Rand 10 5 0 8 -128992 -262144 -262144 0 1;
#X text 422 113 Sin;
#X text 422 128 Squ;
#X text 422 159 Pul;
#X text 421 175 Tri;
#X text 422 189 Noi;
#X text 224 113 Sin;
#X text 224 127 Squ;
#X text 224 159 Pul;
#X text 223 175 Tri;
#X text 224 189 Noi;
#X text 202 240 LEVEL ENV;
#X obj 123 181 Randomize;
#X obj 130 236 Randomize;
#X obj 278 396 Randomize;
#X obj 350 396 Randomize;
#X obj 421 396 Randomize;
#X obj 493 396 Randomize;
#X obj 260 549 Randomize;
#X obj 332 549 Randomize;
#X obj 253 113 tgl 14 0 \$0-ListenSeq \$0-pst-ListenSeq Seq 0 -7 0
10 -27631 -1 -1 1 1;
#X obj 730 268 spigot;
#X obj 730 242 expr ($f1+$i2)*pow(2 \, $i3);
#X obj 787 219 t b f;
#X obj 877 219 t b f;
#X obj 273 150 nbx 2 14 0 11 0 0 \$0-Transpose \$0-pst-Transpose Trans
30 7 0 10 -20480 -1 -1 0 256;
#X obj 787 187 r \$0-Transpose;
#X obj 273 166 nbx 2 14 0 10 0 0 \$0-Octave \$0-pst-Octave Oct 30 7
0 10 -20480 -1 -1 6.21053 256;
#X obj 891 187 r \$0-Octave;
#X text 682 142 Trig enveloppes & randomize;
#X text 683 157 Send Note to Osc;
#X obj 638 138 t f b;
#X obj 743 409 t b f;
#X obj 743 432 pack f f f;
#X text 507 112 RANGE;
#X obj 500 150 nbx 5 14 0 19900 0 0 empty empty empty 60 7 0 10 -260097
-262144 -1 0 256;
#X obj 500 164 nbx 5 14 1 20000 0 0 empty empty empty 60 7 0 10 -260097
-262144 -1 1 256;
#X obj 500 204 nbx 5 14 0 11880 0 0 empty empty empty 60 7 0 10 -27631
-262144 -1 0 256;
#X obj 1018 432 pack f f;
#X text 501 134 FreqMin;
#X text 501 179 FreqMax;
#X text 508 218 EnvMax;
#X msg 743 460 \; \$3-set-Pitch_rand range \$1 \$2 \; \$3-set-FM_Osc1
range \$1 \$2 \; \$3-set-FM_Osc1_rand range \$1 \$2 \; \$3-set-FM_Osc2
range \$1 \$2 \; \$3-set-FM_Osc2_rand range \$1 \$2 \; \$3-set-FM_Osc3
range \$1 \$2 \; \$3-set-FM_Osc3_rand range \$1 \$2 \; \$3-set-FM_Osc4
range \$1 \$2 \; \$3-set-FM_Osc4_rand range \$1 \$2 \; \$3-set-AM_Freq
range \$1 \$2 \; \$3-set-AM_Freq_rand range \$1 \$2 \; \$3-set-0ADSR_Sus
range \$1 \$2 \; \$3-set-0ADSR_Sus_rand range \$1 \$2 \; \$3-set-0ADSR_Amp
range \$1 \$2 \; \$3-set-0ADSR_Amp_rand range \$1 \$2 \;;
#X msg 1018 460 \; \$2-set-1ADSR_Dlay range 0 \$1 \; \$2-set-1ADSR_Dlay_rand
range 0 \$1 \; \$2-set-1ADSR_Atk range 0 \$1 \; \$2-set-1ADSR_Atk_rand
range 0 \$1 \; \$2-set-1ADSR_Dcay range 0 \$1 \; \$2-set-1ADSR_Dcay_rand
range 0 \$1 \; \$2-set-1ADSR_Rel range 0 \$1 \; \$2-set-1ADSR_Rel_rand
range 0 \$1 \; \$2-set-0ADSR_Dlay range 0 \$1 \; \$2-set-0ADSR_Dlay_rand
range 0 \$1 \; \$2-set-0ADSR_Atk range 0 \$1 \; \$2-set-0ADSR_Atk_rand
range 0 \$1 \; \$2-set-0ADSR_Dcay range 0 \$1 \; \$2-set-0ADSR_Dcay_rand
range 0 \$1 \; \$2-set-0ADSR_Rel range 0 \$1 \; \$2-set-0ADSR_Rel_rand
range 0 \$1 \;;
#X obj 260 339 ADSR 0, f 18;
#X obj 251 464 ADSR 1, f 18;
#X obj 638 107 inlet;
#X obj 730 107 inlet;
#X text 677 107 trigNote;
#X obj 123 631 outlet~;
#X text 176 631 \$1-Osc;
#X obj 75 24 inlet~;
#X obj 119 41 inlet~;
#X obj 175 57 inlet~;
#X obj 218 73 inlet~;
#X text 261 72 4-FMOsc;
#X text 119 23 1-FMOsc;
#X text 216 57 3-FMOsc;
#X text 163 41 2-FMOsc;
#X obj 295 2 cnv 15 100 60 empty empty empty 20 12 0 14 -233017 -66577
0;
#X obj 852 103 inlet;
#X text 777 107 Note;
#X text 894 102 pst;
#X obj 954 105 inlet;
#X text 1001 105 pst-morph;
#X connect 0 0 1 0;
#X connect 1 0 14 0;
#X connect 2 0 0 0;
#X connect 3 0 1 1;
#X connect 5 0 35 0;
#X connect 6 0 80 1;
#X connect 7 0 81 1;
#X connect 8 0 82 1;
#X connect 9 0 114 0;
#X connect 10 0 40 3;
#X connect 12 0 84 1;
#X connect 13 0 83 1;
#X connect 14 0 30 0;
#X connect 15 0 2 0;
#X connect 16 0 110 1;
#X connect 17 0 110 3;
#X connect 18 0 110 5;
#X connect 19 0 110 7;
#X connect 20 0 110 9;
#X connect 21 0 110 11;
#X connect 22 0 109 1;
#X connect 23 0 109 3;
#X connect 24 0 109 5;
#X connect 25 0 109 7;
#X connect 26 0 109 9;
#X connect 27 0 109 11;
#X connect 29 0 79 1;
#X connect 30 0 9 0;
#X connect 31 0 10 0;
#X connect 31 0 3 0;
#X connect 31 0 40 0;
#X connect 31 0 45 0;
#X connect 34 0 9 1;
#X connect 35 0 34 0;
#X connect 36 0 77 1;
#X connect 37 0 15 0;
#X connect 38 0 78 1;
#X connect 39 0 37 0;
#X connect 40 0 30 1;
#X connect 41 0 2 1;
#X connect 45 0 44 0;
#X connect 45 0 98 2;
#X connect 45 0 103 1;
#X connect 47 0 79 2;
#X connect 48 0 80 2;
#X connect 49 0 81 2;
#X connect 50 0 82 2;
#X connect 51 0 83 2;
#X connect 52 0 84 2;
#X connect 53 0 77 2;
#X connect 54 0 78 2;
#X connect 55 0 110 2;
#X connect 56 0 110 6;
#X connect 57 0 110 8;
#X connect 58 0 110 10;
#X connect 59 0 110 11;
#X connect 59 0 110 12;
#X connect 60 0 109 2;
#X connect 61 0 109 4;
#X connect 62 0 109 6;
#X connect 63 0 109 8;
#X connect 64 0 109 10;
#X connect 65 0 109 12;
#X connect 77 0 39 0;
#X connect 78 0 39 1;
#X connect 79 0 41 1;
#X connect 80 0 41 3;
#X connect 81 0 41 5;
#X connect 82 0 41 7;
#X connect 83 0 40 1;
#X connect 84 0 40 2;
#X connect 85 0 86 1;
#X connect 86 0 36 0;
#X connect 87 0 86 0;
#X connect 88 0 87 0;
#X connect 88 1 87 1;
#X connect 89 0 87 0;
#X connect 89 1 87 2;
#X connect 91 0 88 0;
#X connect 93 0 89 0;
#X connect 96 0 109 0;
#X connect 96 0 110 0;
#X connect 96 1 77 0;
#X connect 96 1 78 0;
#X connect 96 1 82 0;
#X connect 96 1 81 0;
#X connect 96 1 80 0;
#X connect 96 1 79 0;
#X connect 96 1 83 0;
#X connect 96 1 84 0;
#X connect 97 0 98 0;
#X connect 97 1 98 1;
#X connect 98 0 107 0;
#X connect 100 0 98 0;
#X connect 101 0 97 0;
#X connect 102 0 103 0;
#X connect 103 0 108 0;
#X connect 109 0 15 1;
#X connect 110 0 14 1;
#X connect 111 0 96 0;
#X connect 112 0 87 0;
#X connect 116 0 41 0;
#X connect 117 0 41 2;
#X connect 118 0 41 4;
#X connect 119 0 41 6;
#X connect 125 0 46 0;
#X connect 128 0 46 1;
#X coords 0 -1 1 1 400 200 1 200 100;
