#N canvas 63 163 2333 882 10;
#X obj 223 170 vsl 40 200 0 1 0 0 empty empty MACRO 2 7 1 10 -99865
-20480 -262144 157 1;
#X obj 147 343 tgl 15 0 empty empty empty 17 7 0 10 -262144 -1 -1 1
1;
#X obj 126 395 symbiote 1;
#X obj 36 176 presetsmgr;
#X obj 506 166 vsl 40 200 0 1 0 0 empty empty MACRO 2 7 1 10 -99865
-20480 -262144 470 1;
#X obj 430 339 tgl 15 0 empty empty empty 17 7 0 10 -262144 -1 -1 1
1;
#X obj 319 172 presetsmgr;
#X obj 409 391 symbiote 2;
#X obj 494 38 waveform;
#X text 549 38 Storage of all the waveforms used in FM_oscs;
#X obj 1027 813 dac~ 1 2 3 4 5 6 7 8;
#X obj 773 171 vsl 40 200 0 1 0 0 empty empty MACRO 2 7 1 10 -99865
-20480 -262144 157 1;
#X obj 697 344 tgl 15 0 empty empty empty 17 7 0 10 -262144 -1 -1 1
1;
#X obj 586 177 presetsmgr;
#X obj 1079 163 vsl 40 200 0 1 0 0 empty empty MACRO 2 7 1 10 -99865
-20480 -262144 313 1;
#X obj 1003 336 tgl 15 0 empty empty empty 17 7 0 10 -262144 -1 -1
1 1;
#X obj 892 169 presetsmgr;
#X obj 1391 158 vsl 40 200 0 1 0 0 empty empty MACRO 2 7 1 10 -99865
-20480 -262144 313 1;
#X obj 1315 331 tgl 15 0 empty empty empty 17 7 0 10 -262144 -1 -1
1 1;
#X obj 1204 164 presetsmgr;
#X obj 676 396 symbiote 3;
#X obj 982 388 symbiote 4;
#X obj 1294 383 symbiote 5;
#X floatatom 75 44 3 0 0 0 - - -;
#X floatatom 43 42 3 0 0 0 - - -;
#X obj 45 18 ctlin;
#X floatatom 224 144 3 0 0 0 - - -;
#X floatatom 506 138 3 0 0 0 - - -;
#X floatatom 772 145 3 0 0 0 - - -;
#X floatatom 1079 136 3 0 0 0 - - -;
#X floatatom 1392 132 3 0 0 0 - - -;
#X obj 45 69 pack;
#X obj 227 119 scale 0 127 0 1;
#X obj 507 115 scale 0 127 0 1;
#X obj 775 123 scale 0 127 0 1;
#X obj 1078 108 scale 0 127 0 1;
#X obj 1395 105 scale 0 127 0 1;
#X floatatom 72 626 3 0 0 0 - - -;
#X floatatom 40 624 3 0 0 0 - - -;
#X obj 42 600 ctlin;
#X obj 42 651 pack;
#X obj 236 619 pack 0 20;
#X obj 236 651 line~;
#X obj 219 679 *~;
#X obj 504 631 pack 0 20;
#X obj 505 667 line~;
#X obj 488 694 *~;
#X obj 786 622 pack 0 20;
#X obj 786 654 line~;
#X obj 769 682 *~;
#X obj 1083 620 pack 0 20;
#X obj 1083 643 line~;
#X obj 1066 671 *~;
#X obj 1394 630 pack 0 20;
#X obj 1397 675 line~;
#X obj 1380 705 *~;
#X obj 235 580 / 127;
#X obj 503 586 / 127;
#X obj 783 591 / 127;
#X obj 1084 583 / 127;
#X obj 1391 587 / 127;
#X obj 239 557 change;
#X obj 496 554 change;
#X obj 779 567 change;
#X obj 1082 562 change;
#X obj 1388 563 change;
#X floatatom 1131 646 5 0 0 0 - - -;
#X floatatom 837 654 5 0 0 0 - - -;
#X floatatom 545 647 5 0 0 0 - - -;
#X floatatom 278 651 5 0 0 0 - - -;
#X obj 557 603 - 0.007;
#X obj 314 602 - 0.007;
#X obj 842 596 - 0.007;
#X obj 1126 601 - 0.007;
#X obj 1451 605 - 0.007;
#X floatatom 1448 670 5 0 0 0 - - -;
#X obj 1700 157 vsl 40 200 0 1 0 0 empty empty MACRO 2 7 1 10 -99865
-20480 -262144 157 1;
#X obj 1624 330 tgl 15 0 empty empty empty 17 7 0 10 -262144 -1 -1
1 1;
#X obj 1513 163 presetsmgr;
#X floatatom 1701 131 3 0 0 0 - - -;
#X obj 1704 104 scale 0 127 0 1;
#X obj 1703 629 pack 0 20;
#X obj 1706 674 line~;
#X obj 1689 704 *~;
#X obj 1700 586 / 127;
#X obj 1697 562 change;
#X obj 1760 604 - 0.007;
#X floatatom 1757 669 5 0 0 0 - - -;
#X obj 1983 162 vsl 40 200 0 1 0 0 empty empty MACRO 2 7 1 10 -99865
-20480 -262144 157 1;
#X obj 1907 335 tgl 15 0 empty empty empty 17 7 0 10 -262144 -1 -1
1 1;
#X obj 1796 168 presetsmgr;
#X floatatom 1984 136 3 0 0 0 - - -;
#X obj 1987 109 scale 0 127 0 1;
#X obj 1986 634 pack 0 20;
#X obj 1989 679 line~;
#X obj 1972 709 *~;
#X obj 1983 591 / 127;
#X obj 1980 567 change;
#X obj 2043 609 - 0.007;
#X floatatom 2040 674 5 0 0 0 - - -;
#X obj 2227 172 vsl 40 200 0 1 0 0 empty empty MACRO 2 7 1 10 -99865
-20480 -262144 157 1;
#X obj 2151 345 tgl 15 0 empty empty empty 17 7 0 10 -262144 -1 -1
1 1;
#X obj 2040 178 presetsmgr;
#X floatatom 2228 146 3 0 0 0 - - -;
#X obj 2231 119 scale 0 127 0 1;
#X obj 2230 644 pack 0 20;
#X obj 2233 689 line~;
#X obj 2217 716 *~;
#X obj 2227 601 / 127;
#X obj 2224 577 change;
#X obj 2287 619 - 0.007;
#X floatatom 2284 684 5 0 0 0 - - -;
#X obj 1603 382 symbiote 6;
#X obj 1886 387 symbiote 7;
#X obj 2130 397 symbiote 8;
#X obj 40 702 route 0 1 2 3 4 5 6 7;
#X obj 138 5 route 16 17 18 19 20 21 22 23;
#X obj 226 79 r morph1;
#X obj 508 87 r morph2;
#X obj 773 99 r morph3;
#X obj 1078 85 r morph4;
#X obj 1392 80 r morph5;
#X obj 1702 75 r morph6;
#X obj 1982 83 r morph7;
#X obj 2230 92 r morph8;
#X obj 110 41 s morph1;
#X obj 117 60 s morph2;
#X obj 168 42 s morph3;
#X obj 177 56 s morph4;
#X obj 226 39 s morph5;
#X obj 236 58 s morph6;
#X obj 290 38 s morph7;
#X obj 296 57 s morph8;
#X obj 237 532 r vol1;
#X obj 492 529 r vol2;
#X obj 774 536 r vol3;
#X obj 1078 532 r vol4;
#X obj 1389 533 r vol5;
#X obj 1699 528 r vol6;
#X obj 1979 536 r vol7;
#X obj 2227 545 r vol8;
#X obj 61 727 s vol1;
#X obj 68 746 s vol2;
#X obj 129 771 s vol3;
#X obj 128 750 s vol4;
#X obj 129 730 s vol5;
#X obj 185 771 s vol6;
#X obj 189 751 s vol7;
#X obj 247 743 s vol8;
#X connect 0 0 2 2;
#X connect 1 0 2 3;
#X connect 2 0 43 0;
#X connect 3 0 2 0;
#X connect 3 1 2 1;
#X connect 4 0 7 2;
#X connect 5 0 7 3;
#X connect 6 0 7 0;
#X connect 6 1 7 1;
#X connect 7 0 46 0;
#X connect 11 0 20 2;
#X connect 12 0 20 3;
#X connect 13 0 20 0;
#X connect 13 1 20 1;
#X connect 14 0 21 2;
#X connect 15 0 21 3;
#X connect 16 0 21 0;
#X connect 16 1 21 1;
#X connect 17 0 22 2;
#X connect 18 0 22 3;
#X connect 19 0 22 0;
#X connect 19 1 22 1;
#X connect 20 0 49 0;
#X connect 21 0 52 0;
#X connect 22 0 55 0;
#X connect 23 0 31 0;
#X connect 24 0 31 1;
#X connect 25 0 24 0;
#X connect 25 1 23 0;
#X connect 26 0 0 0;
#X connect 27 0 4 0;
#X connect 28 0 11 0;
#X connect 29 0 14 0;
#X connect 30 0 17 0;
#X connect 31 0 116 0;
#X connect 32 0 26 0;
#X connect 33 0 27 0;
#X connect 34 0 28 0;
#X connect 35 0 29 0;
#X connect 36 0 30 0;
#X connect 37 0 40 0;
#X connect 38 0 40 1;
#X connect 39 0 38 0;
#X connect 39 1 37 0;
#X connect 40 0 115 0;
#X connect 41 0 42 0;
#X connect 41 0 69 0;
#X connect 42 0 43 1;
#X connect 43 0 10 0;
#X connect 44 0 45 0;
#X connect 44 0 68 0;
#X connect 45 0 46 1;
#X connect 46 0 10 1;
#X connect 47 0 48 0;
#X connect 47 0 67 0;
#X connect 48 0 49 1;
#X connect 49 0 10 2;
#X connect 50 0 51 0;
#X connect 50 0 66 0;
#X connect 51 0 52 1;
#X connect 52 0 10 3;
#X connect 53 0 75 0;
#X connect 53 0 54 0;
#X connect 54 0 55 1;
#X connect 55 0 10 4;
#X connect 56 0 71 0;
#X connect 57 0 70 0;
#X connect 58 0 72 0;
#X connect 59 0 73 0;
#X connect 60 0 74 0;
#X connect 61 0 56 0;
#X connect 62 0 57 0;
#X connect 63 0 58 0;
#X connect 64 0 59 0;
#X connect 65 0 60 0;
#X connect 70 0 44 0;
#X connect 71 0 41 0;
#X connect 72 0 47 0;
#X connect 73 0 50 0;
#X connect 74 0 53 0;
#X connect 76 0 112 2;
#X connect 77 0 112 3;
#X connect 78 0 112 0;
#X connect 78 1 112 1;
#X connect 79 0 76 0;
#X connect 80 0 79 0;
#X connect 81 0 87 0;
#X connect 81 0 82 0;
#X connect 82 0 83 1;
#X connect 83 0 10 5;
#X connect 84 0 86 0;
#X connect 85 0 84 0;
#X connect 86 0 81 0;
#X connect 88 0 113 2;
#X connect 89 0 113 3;
#X connect 90 0 113 0;
#X connect 90 1 113 1;
#X connect 91 0 88 0;
#X connect 92 0 91 0;
#X connect 93 0 99 0;
#X connect 93 0 94 0;
#X connect 94 0 95 1;
#X connect 95 0 10 6;
#X connect 96 0 98 0;
#X connect 97 0 96 0;
#X connect 98 0 93 0;
#X connect 100 0 114 2;
#X connect 101 0 114 3;
#X connect 102 0 114 0;
#X connect 102 1 114 1;
#X connect 103 0 100 0;
#X connect 104 0 103 0;
#X connect 105 0 111 0;
#X connect 105 0 106 0;
#X connect 106 0 107 1;
#X connect 107 0 10 7;
#X connect 108 0 110 0;
#X connect 109 0 108 0;
#X connect 110 0 105 0;
#X connect 112 0 83 0;
#X connect 113 0 95 0;
#X connect 114 0 107 0;
#X connect 115 0 141 0;
#X connect 115 1 142 0;
#X connect 115 2 143 0;
#X connect 115 3 144 0;
#X connect 115 4 145 0;
#X connect 115 5 146 0;
#X connect 115 6 147 0;
#X connect 115 7 148 0;
#X connect 116 0 125 0;
#X connect 116 1 126 0;
#X connect 116 2 127 0;
#X connect 116 3 128 0;
#X connect 116 4 129 0;
#X connect 116 5 130 0;
#X connect 116 6 131 0;
#X connect 116 7 132 0;
#X connect 117 0 32 0;
#X connect 118 0 33 0;
#X connect 119 0 34 0;
#X connect 120 0 35 0;
#X connect 121 0 36 0;
#X connect 122 0 80 0;
#X connect 123 0 92 0;
#X connect 124 0 104 0;
#X connect 133 0 61 0;
#X connect 134 0 62 0;
#X connect 135 0 63 0;
#X connect 136 0 64 0;
#X connect 137 0 65 0;
#X connect 138 0 85 0;
#X connect 139 0 97 0;
#X connect 140 0 109 0;
