#N canvas 780 289 1120 482 10;
#X obj 290 104 vsl 40 200 0 1 0 0 empty empty MACRO 2 7 1 10 -99865
-20480 -262144 0 1;
#X obj 214 277 tgl 15 0 empty empty empty 17 7 0 10 -262144 -1 -1 0
1;
#X obj 395 419 dac~;
#X obj 193 329 symbiote 1;
#X obj 103 110 presetsmgr;
#X obj 573 100 vsl 40 200 0 1 0 0 empty empty MACRO 2 7 1 10 -99865
-20480 -262144 0 1;
#X obj 497 273 tgl 15 0 empty empty empty 17 7 0 10 -262144 -1 -1 0
1;
#X obj 386 106 presetsmgr;
#X obj 476 325 symbiote 2;
#X obj 559 29 waveform;
#X text 614 29 Storage of all the waveforms used in FM_oscs;
#X connect 0 0 3 2;
#X connect 1 0 3 3;
#X connect 3 0 2 0;
#X connect 4 0 3 0;
#X connect 4 1 3 1;
#X connect 5 0 8 2;
#X connect 6 0 8 3;
#X connect 7 0 8 0;
#X connect 7 1 8 1;
#X connect 8 0 2 1;
