#N canvas 132 359 2333 882 10;
#X obj 223 170 vsl 40 200 0 1 0 0 empty empty MACRO 2 7 1 10 -99865
-20480 -262144 0 1;
#X obj 147 343 tgl 15 0 empty empty empty 17 7 0 10 -262144 -1 -1 0
1;
#X obj 126 395 symbiote 1;
#X obj 36 176 presetsmgr;
#X obj 506 166 vsl 40 200 0 1 0 0 empty empty MACRO 2 7 1 10 -99865
-20480 -262144 0 1;
#X obj 430 339 tgl 15 0 empty empty empty 17 7 0 10 -262144 -1 -1 0
1;
#X obj 319 172 presetsmgr;
#X obj 409 391 symbiote 2;
#X obj 494 38 waveform;
#X text 549 38 Storage of all the waveforms used in FM_oscs;
#X obj 1027 813 dac~ 1 2 3 4 5 6 7 8;
#X obj 773 171 vsl 40 200 0 1 0 0 empty empty MACRO 2 7 1 10 -99865
-20480 -262144 0 1;
#X obj 697 344 tgl 15 0 empty empty empty 17 7 0 10 -262144 -1 -1 0
1;
#X obj 586 177 presetsmgr;
#X obj 1079 163 vsl 40 200 0 1 0 0 empty empty MACRO 2 7 1 10 -99865
-20480 -262144 0 1;
#X obj 1003 336 tgl 15 0 empty empty empty 17 7 0 10 -262144 -1 -1
0 1;
#X obj 892 169 presetsmgr;
#X obj 676 396 symbiote 3;
#X obj 982 388 symbiote 4;
#X floatatom 75 44 3 0 0 0 - - -;
#X floatatom 43 42 3 0 0 0 - - -;
#X obj 45 18 ctlin;
#X floatatom 224 144 3 0 0 0 - - -;
#X floatatom 506 138 3 0 0 0 - - -;
#X floatatom 772 145 3 0 0 0 - - -;
#X floatatom 1079 136 3 0 0 0 - - -;
#X obj 45 69 pack;
#X obj 227 119 scale 0 127 0 1;
#X obj 507 115 scale 0 127 0 1;
#X obj 775 123 scale 0 127 0 1;
#X obj 1078 108 scale 0 127 0 1;
#X floatatom 72 626 3 0 0 0 - - -;
#X floatatom 40 624 3 0 0 0 - - -;
#X obj 42 600 ctlin;
#X obj 42 651 pack;
#X obj 236 619 pack 0 20;
#X obj 236 651 line~;
#X obj 219 679 *~;
#X obj 504 631 pack 0 20;
#X obj 505 667 line~;
#X obj 488 694 *~;
#X obj 786 622 pack 0 20;
#X obj 786 654 line~;
#X obj 769 682 *~;
#X obj 1083 620 pack 0 20;
#X obj 1083 643 line~;
#X obj 1066 671 *~;
#X obj 235 580 / 127;
#X obj 503 586 / 127;
#X obj 783 591 / 127;
#X obj 1084 583 / 127;
#X obj 239 557 change;
#X obj 496 554 change;
#X obj 779 567 change;
#X obj 1082 562 change;
#X floatatom 1131 646 5 0 0 0 - - -;
#X floatatom 837 654 5 0 0 0 - - -;
#X floatatom 545 647 5 0 0 0 - - -;
#X floatatom 278 651 5 0 0 0 - - -;
#X obj 557 603 - 0.007;
#X obj 314 602 - 0.007;
#X obj 842 596 - 0.007;
#X obj 1126 601 - 0.007;
#X obj 40 702 route 0 1 2 3 4 5 6 7;
#X obj 138 5 route 16 17 18 19 20 21 22 23;
#X obj 226 79 r morph1;
#X obj 508 87 r morph2;
#X obj 773 99 r morph3;
#X obj 1078 85 r morph4;
#X obj 110 41 s morph1;
#X obj 117 60 s morph2;
#X obj 168 42 s morph3;
#X obj 177 56 s morph4;
#X obj 226 39 s morph5;
#X obj 236 58 s morph6;
#X obj 290 38 s morph7;
#X obj 296 57 s morph8;
#X obj 237 532 r vol1;
#X obj 492 529 r vol2;
#X obj 774 536 r vol3;
#X obj 1078 532 r vol4;
#X obj 61 727 s vol1;
#X obj 68 746 s vol2;
#X obj 129 771 s vol3;
#X obj 128 750 s vol4;
#X obj 129 730 s vol5;
#X obj 185 771 s vol6;
#X obj 189 751 s vol7;
#X obj 247 743 s vol8;
#X connect 0 0 2 2;
#X connect 1 0 2 3;
#X connect 2 0 37 0;
#X connect 3 0 2 0;
#X connect 3 1 2 1;
#X connect 4 0 7 2;
#X connect 5 0 7 3;
#X connect 6 0 7 0;
#X connect 6 1 7 1;
#X connect 7 0 40 0;
#X connect 11 0 17 2;
#X connect 12 0 17 3;
#X connect 13 0 17 0;
#X connect 13 1 17 1;
#X connect 14 0 18 2;
#X connect 15 0 18 3;
#X connect 16 0 18 0;
#X connect 16 1 18 1;
#X connect 17 0 43 0;
#X connect 18 0 46 0;
#X connect 19 0 26 0;
#X connect 20 0 26 1;
#X connect 21 0 20 0;
#X connect 21 1 19 0;
#X connect 22 0 0 0;
#X connect 23 0 4 0;
#X connect 24 0 11 0;
#X connect 25 0 14 0;
#X connect 26 0 64 0;
#X connect 27 0 22 0;
#X connect 28 0 23 0;
#X connect 29 0 24 0;
#X connect 30 0 25 0;
#X connect 31 0 34 0;
#X connect 32 0 34 1;
#X connect 33 0 32 0;
#X connect 33 1 31 0;
#X connect 34 0 63 0;
#X connect 35 0 36 0;
#X connect 35 0 58 0;
#X connect 36 0 37 1;
#X connect 37 0 10 0;
#X connect 38 0 39 0;
#X connect 38 0 57 0;
#X connect 39 0 40 1;
#X connect 40 0 10 1;
#X connect 41 0 42 0;
#X connect 41 0 56 0;
#X connect 42 0 43 1;
#X connect 43 0 10 2;
#X connect 44 0 45 0;
#X connect 44 0 55 0;
#X connect 45 0 46 1;
#X connect 46 0 10 3;
#X connect 47 0 60 0;
#X connect 48 0 59 0;
#X connect 49 0 61 0;
#X connect 50 0 62 0;
#X connect 51 0 47 0;
#X connect 52 0 48 0;
#X connect 53 0 49 0;
#X connect 54 0 50 0;
#X connect 59 0 38 0;
#X connect 60 0 35 0;
#X connect 61 0 41 0;
#X connect 62 0 44 0;
#X connect 63 0 81 0;
#X connect 63 1 82 0;
#X connect 63 2 83 0;
#X connect 63 3 84 0;
#X connect 63 4 85 0;
#X connect 63 5 86 0;
#X connect 63 6 87 0;
#X connect 63 7 88 0;
#X connect 64 0 69 0;
#X connect 64 1 70 0;
#X connect 64 2 71 0;
#X connect 64 3 72 0;
#X connect 64 4 73 0;
#X connect 64 5 74 0;
#X connect 64 6 75 0;
#X connect 64 7 76 0;
#X connect 65 0 27 0;
#X connect 66 0 28 0;
#X connect 67 0 29 0;
#X connect 68 0 30 0;
#X connect 77 0 51 0;
#X connect 78 0 52 0;
#X connect 79 0 53 0;
#X connect 80 0 54 0;
