#N canvas 1457 88 795 495 10;
#X obj 9 3 adc~;
#X obj 9 28 env~ 16384 8192;
#X floatatom 23 101 5 0 0 0 - - -, f 5;
#X text 21 164 Moyenne du volume sur n mesures, f 11;
#X obj 489 86 tgl 15 0 empty empty empty 17 7 0 10 -262144 -1 -1 0
1;
#X obj 489 246 f 1;
#X obj 489 112 moses 1;
#X floatatom 489 282 5 0 0 0 - - -, f 5;
#X obj 526 246 + 1;
#X obj 489 213 metro 500;
#X obj 424 297 f;
#X obj 489 34 >= 70;
#X obj 489 56 change;
#X obj 218 245 hradio 15 1 0 8 empty empty Spent_above_threshold 0
-8 0 10 -262144 -1 -1 1;
#X obj 9 53 spigot 1;
#X obj 119 28 * -1;
#X obj 119 52 + 1;
#X obj 218 113 tgl 15 0 empty empty ADC_IS_ACTIVE 17 7 0 10 -262144
-1 -1 1 1;
#X obj 9 144 average-array 50;
#X obj 221 147 hsl 115 15 0 100 0 0 empty empty Enveloppe_follower
-2 -8 0 10 -262144 -1 -1 10090 1;
#X obj 221 178 hsl 115 15 0 100 0 0 empty empty Noise_average -2 -8
0 10 -262144 -1 -1 10236 1;
#X obj 11 278 bonk~;
#X msg 463 156 1;
#X obj 327 114 bng 15 250 50 0 empty empty empty 17 7 0 10 -262144
-1 -1;
#X obj 424 132 t b b b;
#X msg 443 183 0;
#X obj 115 332 del 500;
#X obj 115 356 bng 15 250 50 0 empty empty empty 17 7 0 10 -262144
-1 -1;
#X msg 10 248 minvel 16;
#X obj 10 226 loadbang;
#X obj 102 185 s noise-average;
#X obj 227 306 s spent-above-threshold;
#X obj 119 3 r stop-mic;
#X obj 38 336 f 1;
#X floatatom 38 372 5 0 0 0 - - -, f 5;
#X obj 75 336 + 1;
#X obj 115 376 t b b;
#X obj 23 400 f;
#X msg 115 398 0;
#X msg 80 248 thresh 35 40;
#X obj 218 431 s threshold-crossings;
#X obj 218 212 hradio 15 1 0 8 empty empty Threshold-crossings 0 -8
0 10 -262144 -1 -1 1;
#X text 157 366 Nr of threshold crossings in a given time period;
#X text 157 379 Sensitivity is set using threshold message;
#X text 157 392 Time period is set using del;
#X text 561 209 Displays time spent above a given threshold, f 24
;
#X text 606 468 Developed by Collectif AAIO;
#X obj 187 335 s mic-bang;
#X obj 38 306 spigot 1;
#N canvas 50 82 450 300 auto-calibrate 0;
#X obj 54 29 inlet;
#N canvas 1130 574 450 300 bornes 0;
#X obj 89 131 min;
#X floatatom 116 131 5 0 0 0 - - -, f 5;
#X floatatom 202 131 5 0 0 0 - - -, f 5;
#X obj 175 131 max;
#X obj 89 37 inlet;
#X obj 89 153 outlet;
#X obj 175 153 outlet;
#X obj 168 37 loadbang;
#X obj 228 37 r calibration-reset;
#X msg 228 66 1;
#X obj 89 65 int;
#X msg 168 66 100;
#X connect 0 0 1 0;
#X connect 0 0 5 0;
#X connect 1 0 0 1;
#X connect 2 0 3 1;
#X connect 3 0 2 0;
#X connect 3 0 6 0;
#X connect 4 0 10 0;
#X connect 7 0 11 0;
#X connect 7 0 9 0;
#X connect 8 0 9 0;
#X connect 8 0 11 0;
#X connect 9 0 3 1;
#X connect 10 0 0 0;
#X connect 10 0 3 0;
#X connect 11 0 0 1;
#X restore 71 67 pd bornes;
#X obj 54 94 scale 0 1 0 100;
#X obj 54 116 outlet;
#X connect 0 0 1 0;
#X connect 0 0 2 0;
#X connect 1 0 2 1;
#X connect 1 1 2 2;
#X connect 2 0 3 0;
#X restore 9 124 pd auto-calibrate;
#X connect 0 0 1 0;
#X connect 0 0 21 0;
#X connect 1 0 14 0;
#X connect 2 0 49 0;
#X connect 2 0 11 0;
#X connect 4 0 6 0;
#X connect 5 0 7 0;
#X connect 5 0 8 0;
#X connect 6 0 24 0;
#X connect 6 1 9 0;
#X connect 7 0 10 1;
#X connect 8 0 5 1;
#X connect 9 0 5 0;
#X connect 10 0 13 0;
#X connect 11 0 12 0;
#X connect 12 0 4 0;
#X connect 13 0 31 0;
#X connect 14 0 2 0;
#X connect 15 0 16 0;
#X connect 16 0 17 0;
#X connect 17 0 48 1;
#X connect 17 0 14 1;
#X connect 18 0 20 0;
#X connect 20 0 30 0;
#X connect 21 1 48 0;
#X connect 22 0 5 1;
#X connect 23 0 26 0;
#X connect 23 0 33 0;
#X connect 23 0 47 0;
#X connect 24 0 10 0;
#X connect 24 1 25 0;
#X connect 24 2 22 0;
#X connect 25 0 9 0;
#X connect 26 0 27 0;
#X connect 27 0 36 0;
#X connect 28 0 21 0;
#X connect 29 0 28 0;
#X connect 29 0 39 0;
#X connect 32 0 15 0;
#X connect 33 0 34 0;
#X connect 33 0 35 0;
#X connect 34 0 37 1;
#X connect 35 0 33 1;
#X connect 36 0 38 0;
#X connect 36 1 37 0;
#X connect 37 0 41 0;
#X connect 38 0 33 1;
#X connect 39 0 21 0;
#X connect 41 0 40 0;
#X connect 48 0 49 0;
#X connect 48 0 33 0;
#X connect 48 0 23 0;
#X connect 49 0 18 0;
#X connect 49 0 19 0;
#X coords 0 -1 1 1 170 170 2 200 100;
