#N canvas 1310 639 534 270 10;
#X obj 13 215 outlet~;
#X obj 257 215 outlet~;
#X msg 45 145 stop;
#X obj 266 150 soundfiler;
#X obj 13 169 spigot;
#X obj 299 60 symbol \$0-leftSample;
#X obj 333 79 symbol \$0-rightSample;
#X obj 326 216 table \$0-rightSample;
#X obj 84 215 table \$0-leftSample;
#X obj 45 50 inlet;
#X obj 45 122 sel 0 1;
#X obj 180 52 inlet;
#X text 87 51 Trig sample;
#X text 220 52 Loop;
#X obj 1 24 inlet;
#X text 46 25 Sample Number;
#X obj 299 22 loadbang;
#X obj 266 101 pack s s s;
#X msg 266 125 read -resize \$1 \$2 \$3;
#X obj 13 195 tabplay~ \$0-leftSample;
#X obj 257 194 tabplay~ \$0-rightSample;
#X msg 266 41 ./Sounds/Sample-\$1.wav;
#X obj 180 74 int;
#X obj 180 94 change;
#X obj 45 76 int;
#X obj 45 96 change;
#X obj 1 56 int;
#X obj 1 76 change;
#X connect 4 0 19 0;
#X connect 4 0 20 0;
#X connect 5 0 17 1;
#X connect 6 0 17 2;
#X connect 9 0 24 0;
#X connect 10 0 2 0;
#X connect 10 1 19 0;
#X connect 10 1 20 0;
#X connect 11 0 22 0;
#X connect 14 0 26 0;
#X connect 16 0 6 0;
#X connect 16 0 5 0;
#X connect 17 0 18 0;
#X connect 18 0 3 0;
#X connect 19 0 0 0;
#X connect 19 1 4 0;
#X connect 20 0 1 0;
#X connect 21 0 17 0;
#X connect 22 0 23 0;
#X connect 23 0 4 1;
#X connect 24 0 25 0;
#X connect 25 0 10 0;
#X connect 26 0 27 0;
#X connect 27 0 21 0;
#X coords 0 0 1 1 155 35 0;
