#N canvas 238 342 534 270 10;
#X obj 13 215 outlet~;
#X obj 257 215 outlet~;
#X msg 45 95 stop;
#X obj 257 194 tabplay~;
#X obj 266 150 soundfiler;
#X obj 13 169 spigot;
#X obj 299 60 symbol \$0-leftSample;
#X obj 333 79 symbol \$0-rightSample;
#X obj 326 216 table \$0-rightSample;
#X obj 84 215 table \$0-leftSample;
#X obj 45 50 inlet;
#X obj 45 72 sel 0 1;
#X obj 180 52 inlet;
#X text 87 51 Trig sample;
#X text 220 52 Loop;
#X obj 1 24 inlet;
#X text 46 25 Sample Number;
#X obj 299 22 loadbang;
#X obj 266 101 pack s s s;
#X msg 266 125 read -resize \$1 \$2 \$3;
#X msg 266 41 ./Sounds/sample-\$1.wav;
#X obj 13 195 tabplay~ \$0-leftSample;
#X connect 3 0 1 0;
#X connect 5 0 3 0;
#X connect 5 0 21 0;
#X connect 6 0 18 1;
#X connect 7 0 18 2;
#X connect 10 0 11 0;
#X connect 11 0 2 0;
#X connect 11 1 3 0;
#X connect 11 1 21 0;
#X connect 12 0 5 1;
#X connect 15 0 20 0;
#X connect 17 0 7 0;
#X connect 17 0 6 0;
#X connect 18 0 19 0;
#X connect 19 0 4 0;
#X connect 20 0 18 0;
#X connect 21 0 0 0;
#X connect 21 1 5 0;
#X coords 0 0 1 1 155 35 0;
