#N canvas 720 372 818 570 10;
#X obj 452 139 change;
#X obj 452 163 sel 1;
#X obj 218 28 * -1;
#X obj 218 52 + 1;
#X floatatom 452 95 5 0 0 0 - - -, f 5;
#X obj 453 261 bng 15 250 50 0 empty empty empty 17 7 0 10 -262144
-1 -1;
#X obj 376 241 f 1;
#X floatatom 376 277 5 0 0 0 - - -, f 5;
#X obj 413 241 + 1;
#X obj 453 281 t b b;
#X obj 361 305 f;
#X msg 453 303 0;
#X text 495 271 Nr of threshold crossings in a given time period;
#X text 495 284 Sensitivity is set using threshold message;
#X text 495 297 Time period is set using del;
#X obj 453 237 del 5000;
#X obj 9 186 average 50;
#X obj 361 343 s proxi-threshold-crossings;
#X obj 452 188 s proxi-bang;
#X obj 9 258 s proxi-average;
#N canvas 0 23 450 300 auto-calibrate 0;
#X obj 54 29 inlet;
#X obj 54 146 outlet;
#N canvas 533 763 450 300 bornes 0;
#X obj 89 131 min;
#X floatatom 116 131 5 0 0 0 - - -, f 5;
#X floatatom 202 131 5 0 0 0 - - -, f 5;
#X obj 175 131 max;
#X obj 89 37 inlet;
#X obj 89 153 outlet;
#X obj 175 153 outlet;
#X obj 168 37 loadbang;
#X obj 228 37 r calibration-reset;
#X msg 228 66 1;
#X obj 89 65 int;
#X msg 168 66 100;
#X connect 0 0 1 0;
#X connect 0 0 5 0;
#X connect 1 0 0 1;
#X connect 2 0 3 1;
#X connect 3 0 2 0;
#X connect 3 0 6 0;
#X connect 4 0 10 0;
#X connect 7 0 11 0;
#X connect 7 0 9 0;
#X connect 8 0 9 0;
#X connect 8 0 11 0;
#X connect 9 0 3 1;
#X connect 10 0 0 0;
#X connect 10 0 3 0;
#X connect 11 0 0 1;
#X restore 71 67 pd bornes;
#X obj 54 94 scale 0 1 0 1;
#X obj 54 116 clip 0 1;
#X connect 0 0 2 0;
#X connect 0 0 3 0;
#X connect 2 0 3 1;
#X connect 2 1 3 2;
#X connect 3 0 4 0;
#X connect 4 0 1 0;
#X restore 9 108 pd auto-calibrate;
#X obj 9 1 r proxi-raw;
#X obj 9 23 spigot 1;
#X text 491 118 Crossing the threshold;
#X obj 452 117 >= 0.6;
#X obj 207 110 cnv 15 140 130 empty empty Monitoring 5 10 0 10 -106496
-66577 0;
#X obj 207 250 cnv 15 140 120 empty empty Settings 5 10 0 10 -204800
-66577 0;
#X obj 220 149 hsl 115 15 0 1 0 0 empty empty Proxi_value 0 8 0 10
-262144 -1 -1 518 1;
#X obj 220 168 hsl 115 15 0 1 0 0 empty empty proxi-average 0 8 0 10
-262144 -1 -1 0 1;
#X obj 217 130 tgl 15 0 empty empty PROXI_IS_ACTIVE 17 7 0 10 -262144
-1 -1 1 1;
#X obj 217 220 hradio 15 1 0 8 empty empty Nr_of_crossings 0 -8 0 10
-262144 -1 -1 0;
#X obj 220 286 hsl 83 14 0 1 0 1 empty empty Threshold 0 8 0 10 -262144
-1 -1 6600 1;
#X floatatom 305 286 5 0 0 0 - - -, f 5;
#X obj 220 306 hsl 83 14 100 10000 0 1 empty empty Time_period 0 8
0 10 -262144 -1 -1 4100 1;
#X floatatom 305 306 5 0 0 0 - - -, f 5;
#X obj 217 188 bng 15 250 50 0 empty empty CROSSED_THRESHOLD 17 7 0
10 -262144 -1 -1;
#X obj 9 45 spigot;
#X obj 217 268 tgl 15 1 empty empty ENABLE_PROXI 17 7 0 10 -262144
-1 -1 1 1;
#X obj 346 34 t b f;
#X text 383 22 Check if active;
#X obj 316 12 == 1;
#X obj 346 12 == 1;
#X obj 316 57 &&;
#X obj 9 208 clip 0.2 0.8;
#X obj 9 230 scale 0.2 0.8 0 1;
#X text 118 210 Eliminates extremes values, f 12;
#X text 78 186 Smooths values;
#X floatatom 150 101 5 0 0 0 - - -, f 5;
#X obj 9 67 MEDIAN_3;
#X obj 218 3 r stop-proxi;
#N canvas 0 22 450 300 variability-detection 0;
#X obj 55 101 -;
#X obj 63 78 t b f;
#X obj 55 123 abs;
#X floatatom 55 146 5 0 0 0 - - -, f 5;
#X obj 55 261 outlet;
#X obj 255 34 inlet;
#X text 175 108 Detects sudden changes in volume;
#X text 175 121 (difference between peak and average);
#N canvas 0 22 450 300 peak-detector 0;
#X obj 145 41 inlet;
#X obj 232 42 inlet;
#X obj 160 275 outlet;
#X obj 205 126 change;
#X obj 160 104 * 0.8;
#X msg 217 228 0;
#X obj 160 250 t b b;
#X obj 145 199 sel 1;
#X obj 145 169 change;
#X text 212 198 Attack detector with hysteresis;
#X obj 145 147 <;
#X obj 205 148 sel 1;
#X msg 205 170 1;
#X obj 160 228 spigot;
#X obj 287 42 inlet;
#X obj 205 104 >= 3;
#X obj 287 64 t b f;
#X connect 0 0 10 0;
#X connect 0 0 15 0;
#X connect 1 0 4 0;
#X connect 1 0 15 1;
#X connect 3 0 11 0;
#X connect 4 0 10 1;
#X connect 5 0 13 1;
#X connect 6 0 2 0;
#X connect 6 1 5 0;
#X connect 7 0 13 0;
#X connect 8 0 7 0;
#X connect 10 0 8 0;
#X connect 11 0 12 0;
#X connect 12 0 13 1;
#X connect 13 0 6 0;
#X connect 14 0 16 0;
#X connect 15 0 3 0;
#X connect 16 0 4 0;
#X connect 16 1 4 1;
#X restore 55 175 pd peak-detector;
#X obj 333 34 inlet;
#X text 252 56 Threshold;
#X text 322 56 Hysteresis;
#X obj 55 34 r proxi-average;
#X obj 63 56 r proxi-value;
#X connect 0 0 2 0;
#X connect 1 0 0 0;
#X connect 1 1 0 1;
#X connect 2 0 3 0;
#X connect 3 0 8 0;
#X connect 5 0 8 1;
#X connect 8 0 4 0;
#X connect 9 0 8 2;
#X connect 12 0 0 0;
#X connect 13 0 1 0;
#X restore 145 394 pd variability-detection;
#X obj 360 164 s proxi-value;
#X obj 220 326 hsl 83 14 0 1 0 1 empty empty Var_Threshold 0 8 0 10
-262144 -1 -1 5600 1;
#X floatatom 305 326 5 0 0 0 - - -, f 5;
#X obj 220 346 hsl 83 14 0 1 0 1 empty empty Var_Hysteresis 0 8 0 10
-262144 -1 -1 700 1;
#X floatatom 305 346 5 0 0 0 - - -, f 5;
#X obj 145 416 s proxi-variations;
#X obj 336 380 * -1;
#X obj 336 402 + 1;
#X obj 208 286 cnv 15 100 15 empty empty UNUSED 20 8 0 12 -233017 -66577
0;
#X obj 208 306 cnv 15 100 15 empty empty UNUSED 20 8 0 12 -233017 -66577
0;
#X obj 208 220 cnv 15 100 15 empty empty UNUSED 20 8 0 12 -233017 -66577
0;
#N canvas 711 205 451 373 gravity-bang 0;
#X obj 53 293 outlet;
#X obj 103 127 - 0.1;
#X obj 103 73 metro 500;
#X obj 53 103 f;
#X obj 53 174 f;
#X obj 103 103 f;
#X floatatom 53 223 5 0 0 0 - - -, f 5;
#X obj 53 127 + 1;
#X obj 103 149 t b f;
#X obj 53 149 t b f;
#X obj 103 54 tgl 15 0 empty init-bang empty 17 7 0 10 -262144 -1 -1
1 1;
#X obj 53 243 clip 0 3;
#X obj 53 265 / 3;
#X obj 53 199 clip 0 7;
#X text 112 193 Keeps small margin to stay longer at the top of the
macro, f 30;
#X text 146 105 GRAVITY BANG;
#X obj 53 73 inlet;
#X connect 1 0 8 0;
#X connect 2 0 5 0;
#X connect 3 0 7 0;
#X connect 4 0 13 0;
#X connect 5 0 1 0;
#X connect 6 0 11 0;
#X connect 7 0 9 0;
#X connect 8 0 4 0;
#X connect 8 1 4 1;
#X connect 9 0 4 0;
#X connect 9 1 4 1;
#X connect 10 0 2 0;
#X connect 11 0 12 0;
#X connect 12 0 0 0;
#X connect 13 0 6 0;
#X connect 13 0 5 1;
#X connect 13 0 3 1;
#X connect 16 0 3 0;
#X restore 552 367 pd gravity-bang;
#X obj 552 389 s proxi-gravity-bang;
#X text 599 532 Developed by Collectif AAIO;
#X obj 552 345 r proxi-variations;
#X text 683 348 Gravity bang feature can be connected to any bang derived
from sensor data, f 20;
#X obj 9 137 expr $f1*(-1)+1;
#X connect 0 0 1 0;
#X connect 1 0 35 0;
#X connect 2 0 3 0;
#X connect 3 0 22 1;
#X connect 3 0 40 0;
#X connect 4 0 24 0;
#X connect 5 0 9 0;
#X connect 6 0 7 0;
#X connect 6 0 8 0;
#X connect 7 0 10 1;
#X connect 8 0 6 1;
#X connect 9 0 11 0;
#X connect 9 1 10 0;
#X connect 10 0 30 0;
#X connect 11 0 6 1;
#X connect 15 0 5 0;
#X connect 16 0 43 0;
#X connect 20 0 67 0;
#X connect 21 0 22 0;
#X connect 22 0 36 0;
#X connect 24 0 0 0;
#X connect 27 0 51 0;
#X connect 28 0 19 0;
#X connect 30 0 17 0;
#X connect 31 0 32 0;
#X connect 32 0 24 1;
#X connect 33 0 34 0;
#X connect 34 0 15 1;
#X connect 35 0 18 0;
#X connect 35 0 15 0;
#X connect 35 0 6 0;
#X connect 36 0 48 0;
#X connect 37 0 36 1;
#X connect 37 0 41 0;
#X connect 38 0 42 0;
#X connect 38 1 42 1;
#X connect 40 0 42 0;
#X connect 41 0 38 0;
#X connect 42 0 29 0;
#X connect 43 0 44 0;
#X connect 44 0 28 0;
#X connect 48 0 47 0;
#X connect 48 0 20 0;
#X connect 49 0 2 0;
#X connect 50 0 56 0;
#X connect 52 0 53 0;
#X connect 53 0 50 0;
#X connect 54 0 55 0;
#X connect 55 0 57 0;
#X connect 57 0 58 0;
#X connect 58 0 50 1;
#X connect 62 0 63 0;
#X connect 65 0 62 0;
#X connect 67 0 16 0;
#X connect 67 0 4 0;
#X connect 67 0 27 0;
#X coords 0 -1 1 1 155 275 2 200 100;
