#N canvas 1363 209 893 674 10;
#X obj 376 139 change;
#X obj 376 163 sel 1;
#X msg 9 25 close;
#X obj 221 152 hsl 115 15 0 1 0 0 empty empty Proxi_value -2 -8 0 10
-262144 -1 -1 0 1;
#X obj 221 183 hsl 115 15 0 1 0 0 empty empty proxi-average -2 -8 0
10 -262144 -1 -1 0 1;
#X obj 218 28 * -1;
#X obj 218 52 + 1;
#X obj 218 120 tgl 15 0 empty empty SENSOR_ACTIVE 17 7 0 10 -262144
-1 -1 0 1;
#X floatatom 376 95 5 0 0 0 - - -, f 5;
#X obj 9 78 spigot 1;
#X msg 41 9 devices;
#X obj 9 50 comport 1 9600;
#X msg 66 25 open 1;
#X obj 218 3 r stopInput;
#X obj 376 117 <= 20;
#X obj 331 121 bng 15 250 50 0 empty empty empty 17 7 0 10 -262144
-1 -1;
#X obj 453 261 bng 15 250 50 0 empty empty empty 17 7 0 10 -262144
-1 -1;
#X obj 376 241 f 1;
#X floatatom 376 277 5 0 0 0 - - -, f 5;
#X obj 413 241 + 1;
#X obj 453 281 t b b;
#X obj 361 305 f;
#X msg 453 303 0;
#X obj 219 216 hradio 15 1 0 8 empty empty Threshold-crossings 0 -8
0 10 -262144 -1 -1 0;
#X text 495 271 Nr of threshold crossings in a given time period;
#X text 495 284 Sensitivity is set using threshold message;
#X text 495 297 Time period is set using del;
#X obj 453 237 del 5000;
#X obj 9 235 average 50;
#X obj 361 343 s proxi-threshold-crossings;
#X obj 452 213 s proxi-bang;
#X obj 9 100 moses 101;
#X floatatom 60 132 5 0 0 0 - - -, f 5;
#X text 82 72 split signals from proxi (0-100) and mic (101-200),
f 17;
#X obj 9 258 s proxi-average;
#X obj 9 183 expr $f1/50*(-1)+1;
#N canvas 0 22 450 300 auto-calibrate 0;
#X obj 54 29 inlet;
#X obj 54 94 scale 0 1 0 100;
#X obj 54 116 outlet;
#N canvas 1130 574 450 300 bornes 0;
#X obj 89 131 min;
#X floatatom 116 131 5 0 0 0 - - -, f 5;
#X floatatom 202 131 5 0 0 0 - - -, f 5;
#X obj 175 131 max;
#X obj 89 37 inlet;
#X obj 89 153 outlet;
#X obj 175 153 outlet;
#X obj 168 37 loadbang;
#X obj 228 37 r calibration-reset;
#X msg 228 66 1;
#X obj 89 65 int;
#X msg 168 66 100;
#X connect 0 0 1 0;
#X connect 0 0 5 0;
#X connect 1 0 0 1;
#X connect 2 0 3 1;
#X connect 3 0 2 0;
#X connect 3 0 6 0;
#X connect 4 0 10 0;
#X connect 7 0 11 0;
#X connect 7 0 9 0;
#X connect 8 0 9 0;
#X connect 8 0 11 0;
#X connect 9 0 3 1;
#X connect 10 0 0 0;
#X connect 10 0 3 0;
#X connect 11 0 0 1;
#X restore 71 67 pd bornes;
#X connect 0 0 1 0;
#X connect 0 0 3 0;
#X connect 1 0 2 0;
#X connect 3 0 1 1;
#X connect 3 1 1 2;
#X restore 9 154 pd auto-calibrate;
#X msg 116 25 open 2;
#X connect 0 0 1 0;
#X connect 1 0 15 0;
#X connect 2 0 11 0;
#X connect 4 0 34 0;
#X connect 5 0 6 0;
#X connect 6 0 7 0;
#X connect 8 0 14 0;
#X connect 9 0 31 0;
#X connect 10 0 11 0;
#X connect 11 0 9 0;
#X connect 12 0 11 0;
#X connect 13 0 5 0;
#X connect 14 0 0 0;
#X connect 15 0 17 0;
#X connect 15 0 27 0;
#X connect 15 0 30 0;
#X connect 16 0 20 0;
#X connect 17 0 18 0;
#X connect 17 0 19 0;
#X connect 18 0 21 1;
#X connect 19 0 17 1;
#X connect 20 0 22 0;
#X connect 20 1 21 0;
#X connect 21 0 23 0;
#X connect 22 0 17 1;
#X connect 23 0 29 0;
#X connect 27 0 16 0;
#X connect 28 0 4 0;
#X connect 31 0 36 0;
#X connect 31 1 32 0;
#X connect 35 0 28 0;
#X connect 35 0 3 0;
#X connect 36 0 35 0;
#X connect 36 0 8 0;
#X connect 37 0 11 0;
#X coords 0 -1 1 1 170 140 1 200 100;
