#N canvas 629 357 659 311 10;
#X msg 9 25 close;
#X msg 52 25 devices;
#X obj 9 50 comport 1 9600;
#X msg 107 25 open 1;
#X obj 9 100 moses 101;
#X text 73 68 split signals from proxi (0-100) and mic (101-200),
f 17;
#X msg 157 25 open 2;
#X obj 9 132 s proxi-raw;
#X obj 88 132 s mic-raw;
#X obj 230 25 Proxi-datas;
#X obj 390 25 Teensy-mic-datas;
#X obj 244 266 bng 15 250 50 0 empty empty RESET_CALIBRATION 17 7 0
10 -262144 -1 -1;
#X obj 230 295 s calibration-reset;
#X connect 0 0 2 0;
#X connect 1 0 2 0;
#X connect 2 0 4 0;
#X connect 3 0 2 0;
#X connect 4 0 7 0;
#X connect 4 1 8 0;
#X connect 6 0 2 0;
#X connect 11 0 12 0;
#X coords 0 -1 1 1 325 270 1 225 20;
