#N canvas 168 131 876 546 10;
#X obj 39 128 tgl 15 0 empty empty empty 17 7 0 10 -262144 -1 -1 0
1;
#X obj 24 128 tgl 15 0 empty empty empty 17 7 0 10 -262144 -1 -1 1
1;
#X obj 24 64 sel 0;
#X obj 24 15 inlet;
#X obj 66 64 sel 1;
#X obj 107 64 sel 2;
#X obj 149 64 sel 3;
#X obj 191 64 sel 4;
#X obj 233 64 sel 5;
#X obj 274 64 sel 6;
#X obj 316 64 sel 7;
#X obj 34 84 sel 8;
#X obj 76 84 sel 9;
#X obj 117 84 sel 10;
#X obj 159 84 sel 11;
#X obj 201 84 sel 12;
#X obj 243 84 sel 13;
#X obj 284 84 sel 14;
#X obj 326 84 sel 15;
#X obj 69 128 tgl 15 0 empty empty empty 17 7 0 10 -262144 -1 -1 0
1;
#X obj 54 128 tgl 15 0 empty empty empty 17 7 0 10 -262144 -1 -1 1
1;
#X obj 99 128 tgl 15 0 empty empty empty 17 7 0 10 -262144 -1 -1 0
1;
#X obj 84 128 tgl 15 0 empty empty empty 17 7 0 10 -262144 -1 -1 1
1;
#X obj 129 128 tgl 15 0 empty empty empty 17 7 0 10 -262144 -1 -1 0
1;
#X obj 114 128 tgl 15 0 empty empty empty 17 7 0 10 -262144 -1 -1 1
1;
#X obj 159 128 tgl 15 0 empty empty empty 17 7 0 10 -262144 -1 -1 0
1;
#X obj 144 128 tgl 15 0 empty empty empty 17 7 0 10 -262144 -1 -1 1
1;
#X obj 189 128 tgl 15 0 empty empty empty 17 7 0 10 -262144 -1 -1 0
1;
#X obj 174 128 tgl 15 0 empty empty empty 17 7 0 10 -262144 -1 -1 1
1;
#X obj 219 128 tgl 15 0 empty empty empty 17 7 0 10 -262144 -1 -1 0
1;
#X obj 204 128 tgl 15 0 empty empty empty 17 7 0 10 -262144 -1 -1 0
1;
#X obj 249 128 tgl 15 0 empty empty empty 17 7 0 10 -262144 -1 -1 0
1;
#X obj 234 128 tgl 15 0 empty empty empty 17 7 0 10 -262144 -1 -1 0
1;
#X obj 6 375 outlet;
#X obj 6 159 i;
#X obj 21 180 i;
#X obj 36 159 i;
#X obj 51 180 i;
#X obj 66 159 i;
#X obj 81 180 i;
#X obj 96 159 i;
#X obj 111 180 i;
#X obj 126 159 i;
#X obj 141 180 i;
#X obj 156 159 i;
#X obj 171 180 i;
#X obj 186 159 i;
#X obj 201 180 i;
#X obj 216 159 i;
#X obj 231 180 i;
#X text 65 15 Sequence;
#X obj 128 15 inlet;
#X obj 6 296 delay;
#X msg 6 344 0;
#X obj 6 225 sel 1;
#X msg 6 248 1;
#X obj 6 273 t b i;
#X obj 297 160 t b f f;
#X obj 297 138 r DutyCycle;
#X obj 6 319 spigot;
#X obj 231 225 sel 0;
#X obj 231 247 spigot;
#X obj 343 272 expr if($f1 == 1 \, 0 \, 1) \; if($f1 == 1 \, 1 \, 0)
, f 25;
#X obj 63 485 s Trigers;
#N canvas 0 23 450 300 (subpatch) 0;
#X restore 37 37 pd;
#X obj 406 401 r set-Trigers;
#X text 170 16 MS per beat;
#X text 54 294 Duty cycle. When 0 it sends 0.1 as mini;
#X text 339 305 Legato when Duty cycle = 1;
#X obj 63 456 pack f f f f f f f f f f f f f f f f, f 45;
#X obj 406 457 unpack f f f f f f f f f f f f f f f f f, f 41;
#X obj 406 457 unpack i i i i i i i i i i i i i i i i, f 41;
#X obj 63 401 t b f;
#X obj 74 418 t b f;
#X obj 103 401 t b f;
#X obj 113 418 t b f;
#X obj 143 401 t b f;
#X obj 154 418 t b f;
#X obj 183 401 t b f;
#X obj 193 418 t b f;
#X obj 222 401 t b f;
#X obj 233 418 t b f;
#X obj 262 401 t b f;
#X obj 272 418 t b f;
#X obj 302 401 t b f;
#X obj 312 418 t b f;
#X obj 342 401 t b f;
#X obj 57 272 expr if($f2 == 0 \, 0.01 \, $f1 * $f2);
#X connect 0 0 35 1;
#X connect 0 0 72 0;
#X connect 1 0 34 1;
#X connect 1 0 69 0;
#X connect 2 0 34 0;
#X connect 3 0 2 0;
#X connect 3 0 4 0;
#X connect 3 0 5 0;
#X connect 3 0 6 0;
#X connect 3 0 7 0;
#X connect 3 0 8 0;
#X connect 3 0 9 0;
#X connect 3 0 10 0;
#X connect 3 0 11 0;
#X connect 3 0 12 0;
#X connect 3 0 13 0;
#X connect 3 0 14 0;
#X connect 3 0 15 0;
#X connect 3 0 16 0;
#X connect 3 0 17 0;
#X connect 3 0 18 0;
#X connect 4 0 35 0;
#X connect 5 0 36 0;
#X connect 6 0 37 0;
#X connect 7 0 38 0;
#X connect 8 0 39 0;
#X connect 9 0 40 0;
#X connect 10 0 41 0;
#X connect 11 0 42 0;
#X connect 12 0 43 0;
#X connect 13 0 44 0;
#X connect 14 0 45 0;
#X connect 15 0 46 0;
#X connect 16 0 47 0;
#X connect 17 0 48 0;
#X connect 18 0 49 0;
#X connect 19 0 37 1;
#X connect 19 0 74 0;
#X connect 20 0 36 1;
#X connect 20 0 73 0;
#X connect 21 0 39 1;
#X connect 21 0 76 0;
#X connect 22 0 38 1;
#X connect 22 0 75 0;
#X connect 23 0 41 1;
#X connect 23 0 78 0;
#X connect 24 0 40 1;
#X connect 24 0 77 0;
#X connect 25 0 43 1;
#X connect 25 0 80 0;
#X connect 26 0 42 1;
#X connect 26 0 79 0;
#X connect 27 0 45 1;
#X connect 27 0 82 0;
#X connect 28 0 44 1;
#X connect 28 0 81 0;
#X connect 29 0 47 1;
#X connect 29 0 84 0;
#X connect 30 0 46 1;
#X connect 30 0 83 0;
#X connect 31 0 49 1;
#X connect 31 0 86 0;
#X connect 32 0 48 1;
#X connect 32 0 85 0;
#X connect 34 0 54 0;
#X connect 34 0 60 0;
#X connect 35 0 54 0;
#X connect 35 0 60 0;
#X connect 36 0 54 0;
#X connect 36 0 60 0;
#X connect 37 0 54 0;
#X connect 37 0 60 0;
#X connect 38 0 54 0;
#X connect 38 0 60 0;
#X connect 39 0 54 0;
#X connect 39 0 60 0;
#X connect 40 0 54 0;
#X connect 40 0 60 0;
#X connect 41 0 54 0;
#X connect 41 0 60 0;
#X connect 42 0 54 0;
#X connect 42 0 60 0;
#X connect 43 0 54 0;
#X connect 43 0 60 0;
#X connect 44 0 54 0;
#X connect 44 0 60 0;
#X connect 45 0 54 0;
#X connect 45 0 60 0;
#X connect 46 0 54 0;
#X connect 46 0 60 0;
#X connect 47 0 54 0;
#X connect 47 0 60 0;
#X connect 48 0 54 0;
#X connect 48 0 60 0;
#X connect 49 0 54 0;
#X connect 49 0 60 0;
#X connect 51 0 87 0;
#X connect 52 0 59 0;
#X connect 53 0 33 0;
#X connect 54 0 55 0;
#X connect 55 0 56 0;
#X connect 56 0 52 0;
#X connect 56 1 33 0;
#X connect 57 0 87 0;
#X connect 57 1 87 1;
#X connect 57 2 62 0;
#X connect 58 0 57 0;
#X connect 59 0 53 0;
#X connect 60 0 61 0;
#X connect 61 0 53 0;
#X connect 62 0 59 1;
#X connect 62 1 61 1;
#X connect 65 0 70 0;
#X connect 69 0 63 0;
#X connect 70 0 1 0;
#X connect 70 0 1 0;
#X connect 70 1 0 0;
#X connect 70 1 0 0;
#X connect 70 2 20 0;
#X connect 70 2 20 0;
#X connect 70 3 19 0;
#X connect 70 3 19 0;
#X connect 70 4 22 0;
#X connect 70 4 22 0;
#X connect 70 5 21 0;
#X connect 70 5 21 0;
#X connect 70 6 24 0;
#X connect 70 6 24 0;
#X connect 70 7 23 0;
#X connect 70 7 23 0;
#X connect 70 8 26 0;
#X connect 70 8 26 0;
#X connect 70 9 25 0;
#X connect 70 9 25 0;
#X connect 70 10 28 0;
#X connect 70 10 28 0;
#X connect 70 11 27 0;
#X connect 70 11 27 0;
#X connect 70 12 30 0;
#X connect 70 12 30 0;
#X connect 70 13 29 0;
#X connect 70 13 29 0;
#X connect 70 14 32 0;
#X connect 70 14 32 0;
#X connect 70 15 31 0;
#X connect 70 15 31 0;
#X connect 72 0 69 0;
#X connect 72 1 69 1;
#X connect 73 0 69 0;
#X connect 73 1 69 2;
#X connect 74 0 69 0;
#X connect 74 1 69 3;
#X connect 75 0 69 0;
#X connect 75 1 69 4;
#X connect 76 0 69 0;
#X connect 76 1 69 5;
#X connect 77 0 69 0;
#X connect 77 1 69 6;
#X connect 78 0 69 0;
#X connect 78 1 69 7;
#X connect 79 0 69 0;
#X connect 79 1 69 8;
#X connect 80 0 69 0;
#X connect 80 1 69 9;
#X connect 81 0 69 0;
#X connect 81 1 69 10;
#X connect 82 0 69 0;
#X connect 82 1 69 11;
#X connect 83 0 69 0;
#X connect 83 1 69 12;
#X connect 84 0 69 0;
#X connect 84 1 69 13;
#X connect 85 0 69 0;
#X connect 85 1 69 14;
#X connect 86 0 69 0;
#X connect 86 1 69 15;
#X connect 87 0 52 1;
#X coords 0 -1 1 1 242 17 1 23 127;
