#N canvas 654 94 1401 986 10;
#X obj 446 283 tgl 15 0 empty empty Play/Stop 25 10 0 10 -4032 -1 -1
0 1;
#X obj 14 194 metro;
#X obj 596 605 expr 60000/$i1/4;
#X obj 48 243 + 1;
#N canvas 0 94 710 437 (subpatch) 0;
#X array arpeg 16 float 3;
#A 0 8.14202 8.14202 7.55578 6.38325 5.12697 3.91256 3.91256 1.98626
5.81307 5.81307 5.82078 3.54633e-06 -0.0247906 0 -0.173534 0;
#X coords 0 12 16 0 240 180 2 0 0;
#X restore 175 292 graph;
#X msg 57 309 1, f 2;
#X obj 14 472 int;
#X obj 14 530 mtof;
#X msg 135 247 0;
#N canvas 1122 530 470 207 presets 0;
#X obj 236 13 inlet;
#X obj 23 177 s store-pst;
#X obj 23 13 r bang-pst;
#X msg 23 35 add;
#N canvas 52 631 1088 203 play-settings 0;
#X obj 80 146 outlet;
#X obj 256 146 outlet;
#X obj 265 7 inlet;
#X obj 80 106 pack s s f;
#X obj 80 16 inlet;
#X obj 256 107 pack s s f;
#X msg 284 62 symbol pst-loop;
#X obj 313 83 r loop;
#X obj 378 145 outlet;
#X obj 378 106 pack s s f;
#X msg 406 61 symbol pst-bpm;
#X obj 435 82 r bpm;
#X obj 512 107 pack s s f;
#X obj 702 108 pack s s f;
#X obj 881 108 pack s s f;
#X obj 579 84 r RestartFrom0;
#X msg 545 63 symbol pst-RestartFrom0;
#X obj 769 84 r StepNumber;
#X msg 730 63 symbol pst-StepNumber;
#X obj 948 84 r RandomSpeed;
#X msg 914 63 symbol pst-RandomSpeed;
#X obj 512 146 outlet;
#X obj 702 146 outlet;
#X obj 881 145 outlet;
#X msg 108 61 symbol pst-RandomizeSeqOrSound;
#X obj 137 82 r RandomizeSeqOrSound;
#X connect 2 0 24 0;
#X connect 2 0 6 0;
#X connect 2 0 10 0;
#X connect 2 0 16 0;
#X connect 2 0 18 0;
#X connect 2 0 20 0;
#X connect 3 0 0 0;
#X connect 4 0 3 0;
#X connect 4 0 5 0;
#X connect 4 0 9 0;
#X connect 4 0 12 0;
#X connect 4 0 13 0;
#X connect 4 0 14 0;
#X connect 5 0 1 0;
#X connect 6 0 5 1;
#X connect 7 0 5 2;
#X connect 9 0 8 0;
#X connect 10 0 9 1;
#X connect 11 0 9 2;
#X connect 12 0 21 0;
#X connect 13 0 22 0;
#X connect 14 0 23 0;
#X connect 15 0 12 2;
#X connect 16 0 12 1;
#X connect 17 0 13 2;
#X connect 18 0 13 1;
#X connect 19 0 14 2;
#X connect 20 0 14 1;
#X connect 24 0 3 1;
#X connect 25 0 3 2;
#X restore 23 92 pd play-settings;
#N canvas 656 597 616 183 sequence 0;
#X obj 3 143 outlet;
#X obj 236 3 inlet;
#X obj 3 3 inlet;
#X obj 203 142 outlet;
#X obj 203 93 pack s s f;
#X obj 3 92 pack s s;
#X obj 3 25 t a b;
#X obj 3 115 list append;
#X msg 236 48 symbol pst-DutyCycle;
#X obj 270 69 r DutyCycle;
#X obj 396 142 outlet;
#X obj 396 95 list append;
#X obj 470 69 r Trigers;
#X msg 449 48 symbol pst-Trigers;
#X obj 396 69 pack s s;
#X obj 77 92 array get \$0-arpeg;
#X msg 56 48 symbol pst-arpeg;
#X connect 1 0 16 0;
#X connect 1 0 8 0;
#X connect 1 0 13 0;
#X connect 2 0 4 0;
#X connect 2 0 6 0;
#X connect 2 0 14 0;
#X connect 4 0 3 0;
#X connect 5 0 7 0;
#X connect 6 0 5 0;
#X connect 6 1 15 0;
#X connect 7 0 0 0;
#X connect 8 0 4 1;
#X connect 9 0 4 2;
#X connect 11 0 10 0;
#X connect 12 0 11 1;
#X connect 13 0 14 1;
#X connect 14 0 11 0;
#X connect 15 0 7 1;
#X connect 16 0 5 1;
#X restore 169 92 pd sequence;
#N canvas 607 349 833 195 random-trig-settings 0;
#X obj 80 146 outlet;
#X obj 265 7 inlet;
#X obj 80 106 pack s s f;
#X obj 80 16 inlet;
#X obj 252 142 outlet;
#X obj 252 103 pack s s f;
#X obj 434 141 outlet;
#X obj 434 102 pack s s f;
#X msg 280 58 symbol pst-min-trigger-time;
#X msg 462 57 symbol pst-max-trigger-time;
#X msg 108 61 symbol pst-random-trig;
#X obj 137 82 r random-trig;
#X obj 309 79 r min-trigger-time;
#X obj 491 78 r max-trigger-time;
#X connect 1 0 10 0;
#X connect 1 0 8 0;
#X connect 1 0 9 0;
#X connect 2 0 0 0;
#X connect 3 0 2 0;
#X connect 3 0 5 0;
#X connect 3 0 7 0;
#X connect 5 0 4 0;
#X connect 7 0 6 0;
#X connect 8 0 5 1;
#X connect 9 0 7 1;
#X connect 10 0 2 1;
#X connect 11 0 2 2;
#X connect 12 0 5 2;
#X connect 13 0 7 2;
#X restore 276 92 pd random-trig-settings;
#X connect 0 0 4 1;
#X connect 0 0 5 1;
#X connect 0 0 6 1;
#X connect 2 0 3 0;
#X connect 3 0 4 0;
#X connect 3 0 5 0;
#X connect 3 0 6 0;
#X connect 4 0 1 0;
#X connect 4 1 1 0;
#X connect 4 2 1 0;
#X connect 4 3 1 0;
#X connect 4 4 1 0;
#X connect 4 5 1 0;
#X connect 5 0 1 0;
#X connect 5 1 1 0;
#X connect 5 2 1 0;
#X connect 6 0 1 0;
#X connect 6 1 1 0;
#X connect 6 2 1 0;
#X restore 609 241 pd presets;
#N canvas 70 212 1648 523 pst-routing 0;
#X obj 61 315 scale 0 1 0 1;
#X obj 177 315 scale 0 1 0 1;
#X obj 326 315 scale 0 1 0 1;
#X obj 472 315 scale 0 1 0 1;
#X obj 578 315 scale 0 1 0 1;
#X obj 684 315 scale 0 1 0 1;
#X obj 1190 315 scale 0 1 0 1;
#X obj 60 68 route 1 2;
#N canvas 744 503 1010 292 arpegs 0;
#X obj 390 70 inlet;
#X obj 537 70 inlet;
#N canvas 363 520 836 371 inter 0;
#X obj 55 149 until;
#X obj 55 171 i;
#X obj 85 172 + 1;
#X obj 55 127 t f b;
#X msg 92 149 0;
#X obj 117 24 hsl 128 15 0 1 0 0 empty empty empty -2 -8 0 10 -262144
-1 -1 0 1;
#X obj 55 253 expr $s3[$f1]*(1-$f2)+$s4[$f1]*$f2;
#X obj 55 193 t f f;
#X obj 114 44 t b f;
#X obj 208 154 inlet;
#X obj 272 159 inlet;
#X obj 332 157 inlet;
#X msg 332 179 set \$1;
#X obj 37 12 inlet;
#X obj 54 307 tabwrite;
#X obj 55 105 expr size("$s1");
#X text 121 316 aykutcaglayan.blogspot.com;
#X text 121 302 Bit of code for array interpolation by :;
#X connect 0 0 1 0;
#X connect 1 0 2 0;
#X connect 1 0 7 0;
#X connect 2 0 1 1;
#X connect 3 0 0 0;
#X connect 3 1 4 0;
#X connect 4 0 1 1;
#X connect 5 0 8 0;
#X connect 6 0 14 0;
#X connect 7 0 6 0;
#X connect 7 1 14 1;
#X connect 8 0 15 0;
#X connect 8 1 6 1;
#X connect 9 0 6 2;
#X connect 9 0 15 0;
#X connect 10 0 6 3;
#X connect 11 0 12 0;
#X connect 12 0 14 0;
#X connect 13 0 8 0;
#X connect 15 0 3 0;
#X restore 108 204 pd inter;
#X obj 108 30 inlet;
#X text 166 207 Interpolate between two arrays;
#X obj 660 32 inlet;
#X text 564 34 Symbiote Index;
#X obj 390 166 array set;
#X obj 537 166 array set;
#X obj 123 115 makefilename %d-pst-arpeg-1;
#X obj 144 147 makefilename %d-pst-arpeg-2;
#X obj 162 178 makefilename %d-arpeg;
#X obj 441 114 makefilename %d-pst-arpeg-1;
#X obj 588 137 makefilename %d-pst-arpeg-2;
#X connect 0 0 7 0;
#X connect 1 0 8 0;
#X connect 3 0 2 0;
#X connect 5 0 9 0;
#X connect 5 0 10 0;
#X connect 5 0 11 0;
#X connect 5 0 12 0;
#X connect 5 0 13 0;
#X connect 9 0 2 1;
#X connect 10 0 2 2;
#X connect 11 0 2 3;
#X connect 12 0 7 2;
#X connect 13 0 8 2;
#X restore 130 472 pd arpegs;
#X obj 61 359 change;
#X obj 177 337 change;
#X obj 326 337 change;
#X obj 472 367 change;
#X obj 578 367 change;
#X obj 684 337 change;
#X obj 1190 337 change;
#X obj 807 315 scale 0 1 0 1;
#X obj 954 315 scale 0 1 0 1;
#X obj 1084 315 scale 0 1 0 1;
#X obj 807 367 change;
#X obj 954 368 change;
#X obj 1084 337 change;
#X obj 489 118 route pst-random-trig pst-min-trigger-time pst-max-trigger-time
pst-loop pst-RandomizeSeqOrSound pst-bpm pst-arpeg pst-DutyCycle pst-RestartFrom0
pst-StepNumber pst-RandomSpeed pst-Trigers;
#X obj 60 118 route pst-random-trig pst-min-trigger-time pst-max-trigger-time
pst-loop pst-RandomizeSeqOrSound pst-bpm pst-arpeg pst-DutyCycle pst-RestartFrom0
pst-StepNumber pst-RandomSpeed pst-Trigers;
#X obj 1339 419 list;
#X obj 1381 419 list;
#X obj 1339 297 > 0.5;
#X obj 1339 366 sel 0;
#X obj 1381 366 sel 1;
#X obj 1339 344 change;
#X obj 1332 393 t b l;
#X obj 472 343 round-to-int;
#X obj 578 341 round-to-int;
#X obj 807 341 round-to-int;
#X obj 61 337 round-to-int;
#X obj 954 337 round-to-int;
#X obj 1091 372 outlet;
#X obj 800 433 outlet;
#X obj 568 440 outlet;
#X obj 1196 387 outlet;
#X obj 478 435 outlet;
#X obj 327 403 outlet;
#X obj 67 407 outlet;
#X obj 179 399 outlet;
#X obj 986 438 outlet;
#X obj 683 377 outlet;
#X text 1198 409 DutyCycle;
#X text 68 386 RandomTrigger;
#X text 195 372 RandMinTime;
#X text 337 376 RandMaxTime;
#X text 487 410 Loop;
#X text 553 417 RandomizeSeqOrSound;
#X text 703 358 BPM;
#X text 1093 396 RandomTempo;
#X text 798 399 RestartFrom0;
#X text 973 408 StepNumber;
#X obj 1339 450 outlet;
#X text 1339 473 set-Trigers;
#X obj 60 44 inlet;
#X text 69 20 pst;
#X text 257 19 pst-morph;
#X obj 251 44 inlet;
#X obj 457 45 inlet;
#X text 361 47 Symbiote Index;
#X connect 0 0 34 0;
#X connect 1 0 10 0;
#X connect 2 0 11 0;
#X connect 3 0 31 0;
#X connect 4 0 32 0;
#X connect 5 0 14 0;
#X connect 6 0 15 0;
#X connect 7 0 23 0;
#X connect 7 1 22 0;
#X connect 9 0 42 0;
#X connect 10 0 43 0;
#X connect 11 0 41 0;
#X connect 12 0 40 0;
#X connect 13 0 38 0;
#X connect 14 0 45 0;
#X connect 15 0 39 0;
#X connect 16 0 33 0;
#X connect 17 0 35 0;
#X connect 18 0 21 0;
#X connect 19 0 37 0;
#X connect 20 0 44 0;
#X connect 21 0 36 0;
#X connect 22 0 0 4;
#X connect 22 1 1 4;
#X connect 22 2 2 4;
#X connect 22 3 3 4;
#X connect 22 4 4 4;
#X connect 22 5 5 4;
#X connect 22 6 8 2;
#X connect 22 7 6 4;
#X connect 22 8 16 4;
#X connect 22 9 17 4;
#X connect 22 10 18 4;
#X connect 22 11 25 1;
#X connect 23 0 0 3;
#X connect 23 1 1 3;
#X connect 23 2 2 3;
#X connect 23 3 3 3;
#X connect 23 4 4 3;
#X connect 23 5 5 3;
#X connect 23 6 8 1;
#X connect 23 7 6 3;
#X connect 23 8 16 3;
#X connect 23 9 17 3;
#X connect 23 10 18 3;
#X connect 23 11 30 0;
#X connect 24 0 56 0;
#X connect 25 0 56 0;
#X connect 26 0 29 0;
#X connect 27 0 24 0;
#X connect 28 0 25 0;
#X connect 29 0 27 0;
#X connect 29 0 28 0;
#X connect 30 0 24 0;
#X connect 30 1 24 1;
#X connect 31 0 12 0;
#X connect 32 0 13 0;
#X connect 33 0 19 0;
#X connect 34 0 9 0;
#X connect 35 0 20 0;
#X connect 58 0 7 0;
#X connect 61 0 0 0;
#X connect 61 0 1 0;
#X connect 61 0 2 0;
#X connect 61 0 3 0;
#X connect 61 0 4 0;
#X connect 61 0 5 0;
#X connect 61 0 6 0;
#X connect 61 0 8 0;
#X connect 61 0 16 0;
#X connect 61 0 17 0;
#X connect 61 0 18 0;
#X connect 61 0 26 0;
#X connect 62 0 8 3;
#X restore 334 204 pd pst-routing;
#X obj 14 221 f;
#X obj 14 243 % 16;
#X obj 179 512 hradio 15 1 0 16 empty empty empty 0 -8 0 10 -66577
-4032 -1 15;
#X obj 488 355 tgl 15 0 empty empty Random_trigger 25 10 0 10 -4032
-1 -1 1 1;
#X text 739 147 Set array display properties;
#X obj 533 577 bb_sync2gui;
#X obj 533 632 expr 60000/$i1/4;
#X obj 441 654 Randomize, f 10;
#X obj 441 593 sel 1;
#X obj 135 205 sel 15;
#X obj 168 184 - 1;
#X obj 604 512 spigot 0;
#X obj 650 449 sel 0;
#X msg 650 470 0;
#X msg 604 491 0;
#X obj 604 448 change;
#X obj 440 568 spigot;
#X obj 441 630 t b f;
#X obj 604 470 t b f;
#X obj 135 226 delay;
#X obj 14 500 expr $f1 + 12;
#X obj 420 295 vsl 15 175 0 1 0 0 empty empty DutyCycle* -40 -10 0
10 -66577 -20480 -1 11900 1;
#X obj 179 477 SeqTrig;
#X obj 14 309 t f f;
#X text 29 700 *Duty Cycle is a ratio between the time of note On and
Note Off. Ex : if the slider is half way \, the note off event will
occures after half of the time of a step. slider to 1 \, is a legato
when 2 step are selected consecutively. Slider to 0 means a note on
of 0.1 ms., f 124;
#X obj 1104 363 *;
#X floatatom 1104 385 5 0 0 0 - - -, f 5;
#X obj 1114 341 t b f;
#X obj 1089 408 f;
#X obj 446 300 cnv 15 145 50 empty empty empty 20 12 0 10 -204800 -66577
0;
#X obj 1089 281 bng 15 250 50 0 empty empty EZ_Loop 17 7 0 10 -262144
-4032 -1;
#X floatatom 454 329 4 30 298 1 BPM - -, f 4;
#X floatatom 543 329 5 0 15000 1 ms - -, f 5;
#X floatatom 454 308 5 2 16 1 Step_Number - -, f 5;
#X text 503 328 == 4*;
#X obj 446 381 cnv 15 145 65 empty empty empty 20 12 0 10 -204800 -66577
0;
#X floatatom 454 406 5 0 0 1 Rand_min_time - -, f 5;
#X floatatom 454 427 5 0 0 1 Rand_max_time - -, f 5;
#X obj 454 388 bng 15 250 50 0 ez-loop empty EZ_Loop 17 7 0 10 -262144
-4032 -1;
#X obj 446 457 cnv 15 145 65 empty empty empty 20 12 0 10 -204800 -66577
0;
#X floatatom 454 502 5 0 15000 1 RandomTempo(ms) - -, f 5;
#X obj 454 482 tgl 15 0 empty empty Randomize_SoundOrSeq 17 7 0 10
-262144 -1 -1 1 1;
#X obj 454 462 tgl 15 0 RestartFrom0 set-RestartFrom0 RestartFrom_0
25 7 0 10 -262144 -1 -1 0 1;
#X text 1145 361 Loop sets random trigger times to the length of the
sequence, f 22;
#X text 186 211 Stops playing at the end of the sequence, f 14;
#X text 605 578 Syncs 2 GUI without creating a loop.;
#X obj 604 412 sel 1;
#X text 603 297 Random trigger doesn't serve if sequence playing is
mapped to microphone peak, f 16;
#X obj 14 553 t b f;
#X obj 14 168 t f f f;
#X obj 161 592 f;
#X obj 199 564 == 0;
#X obj 199 592 sel 1;
#X msg 199 612 0;
#X obj 805 338 metro 5000;
#X obj 805 420 + 1000;
#X obj 805 360 t b b;
#X obj 805 398 random 9000;
#X text 799 312 and picks a new "n" at the same time.;
#X text 799 297 Triggers a sequence every "n" milliseconds;
#X msg 899 395 1;
#X obj 887 359 - 1000;
#X floatatom 884 339 5 0 0 0 - - -, f 5;
#X text 31 636 TrigNote;
#X text 185 637 Note;
#X obj 18 656 outlet;
#X obj 176 657 outlet;
#X obj 342 69 inlet;
#X text 345 39 Preset;
#X obj 421 69 inlet;
#X text 424 39 pst-morph;
#X obj 511 68 inlet;
#X obj 614 65 inlet;
#X obj 14 38 t b b b b;
#X floatatom 490 150 5 0 0 0 - - -, f 5;
#X msg 493 124 set \$1;
#X text 603 41 Symbiote Index;
#X obj 612 89 t b f;
#X msg 609 193 \; arpeg ylabel -0.25 0-rest 1-c 2-c# 3-d 4-d# 5-e 6-f
7-f# 8-g 9-g# 10-a 11-a# 12-b;
#X msg 609 123 \; arpeg xticks 0 1 1;
#X msg 609 158 \; arpeg yticks 0 1 2;
#X obj 14 450 array get;
#X obj 17 371 makefilename %d-arpeg;
#X msg 17 394 symbol \$1;
#X text 514 38 RandomTrigger;
#X connect 0 0 60 0;
#X connect 1 0 11 0;
#X connect 2 0 28 0;
#X connect 2 0 43 0;
#X connect 3 0 11 1;
#X connect 5 0 92 1;
#X connect 6 0 31 0;
#X connect 7 0 59 0;
#X connect 8 0 0 0;
#X connect 10 1 47 0;
#X connect 10 2 48 0;
#X connect 10 3 57 0;
#X connect 10 4 52 0;
#X connect 10 5 42 0;
#X connect 10 6 53 0;
#X connect 10 7 44 0;
#X connect 10 8 51 0;
#X connect 10 9 32 0;
#X connect 10 10 33 3;
#X connect 11 0 3 0;
#X connect 11 0 12 0;
#X connect 12 0 13 0;
#X connect 12 0 33 0;
#X connect 12 0 34 0;
#X connect 14 0 65 0;
#X connect 16 0 17 0;
#X connect 16 0 28 0;
#X connect 16 1 2 0;
#X connect 17 0 42 0;
#X connect 18 0 1 1;
#X connect 18 0 30 1;
#X connect 19 0 18 0;
#X connect 20 0 18 0;
#X connect 20 0 30 0;
#X connect 21 0 20 1;
#X connect 22 0 11 1;
#X connect 23 0 24 0;
#X connect 24 0 22 0;
#X connect 25 0 22 0;
#X connect 26 0 29 0;
#X connect 27 0 19 0;
#X connect 28 0 18 0;
#X connect 28 1 18 1;
#X connect 29 0 25 0;
#X connect 29 1 22 1;
#X connect 30 0 8 0;
#X connect 31 0 7 0;
#X connect 32 0 33 2;
#X connect 33 0 27 0;
#X connect 33 0 61 1;
#X connect 34 0 20 0;
#X connect 34 1 92 0;
#X connect 36 0 37 0;
#X connect 37 0 39 1;
#X connect 38 0 36 0;
#X connect 38 1 36 1;
#X connect 39 0 47 0;
#X connect 39 0 48 0;
#X connect 41 0 39 0;
#X connect 42 0 16 0;
#X connect 43 0 16 1;
#X connect 43 0 38 0;
#X connect 43 0 33 1;
#X connect 44 0 36 0;
#X connect 44 0 21 0;
#X connect 44 0 12 1;
#X connect 47 0 66 1;
#X connect 51 0 18 2;
#X connect 52 0 27 1;
#X connect 53 0 26 0;
#X connect 57 0 49 0;
#X connect 59 0 61 0;
#X connect 59 1 77 0;
#X connect 60 0 1 0;
#X connect 60 1 23 0;
#X connect 60 2 62 0;
#X connect 61 0 76 0;
#X connect 62 0 63 0;
#X connect 63 0 64 0;
#X connect 64 0 76 0;
#X connect 65 0 67 0;
#X connect 66 0 73 0;
#X connect 67 0 68 0;
#X connect 67 1 71 0;
#X connect 68 0 66 0;
#X connect 71 0 0 0;
#X connect 72 0 68 1;
#X connect 73 0 65 1;
#X connect 78 0 10 0;
#X connect 80 0 10 1;
#X connect 82 0 14 0;
#X connect 83 0 88 0;
#X connect 84 2 90 0;
#X connect 84 2 89 0;
#X connect 84 2 9 0;
#X connect 84 2 5 0;
#X connect 84 2 91 0;
#X connect 84 3 85 0;
#X connect 85 0 10 2;
#X connect 85 0 90 0;
#X connect 85 0 93 0;
#X connect 86 0 85 0;
#X connect 88 0 84 0;
#X connect 88 1 86 0;
#X connect 92 0 6 0;
#X connect 93 0 94 0;
#X connect 94 0 92 2;
#X coords 0 -1 1 1 465 260 2 135 270;
