#N canvas 364 23 1014 749 10;
#X obj 446 283 tgl 15 0 isPlaying Play Play/Stop 25 10 0 10 -4032 -1
-1 1 1;
#X obj 14 310 metro;
#X obj 534 606 expr 60000/$i1/4;
#X obj 48 359 + 1;
#N canvas 0 23 450 278 (subpatch) 0;
#X array arpeg 16 float 3;
#A 0 5.06667 0 5.00001 0 0 5 0 0 0 0 0 0 0 0 0 0;
#X coords 0 12 16 0 240 180 2 0 0;
#X restore 179 293 graph;
#X msg 57 425 1, f 2;
#X obj 14 472 int;
#X obj 14 530 mtof;
#X msg 135 247 0;
#N canvas 142 23 470 207 presets 0;
#X obj 236 13 inlet;
#X obj 23 177 s store-pst;
#X obj 23 13 r bang-pst;
#X msg 23 35 add;
#N canvas 62 639 1088 203 play-settings 0;
#X obj 80 146 outlet;
#X obj 256 146 outlet;
#X obj 265 7 inlet;
#X obj 80 106 pack s s f;
#X obj 80 16 inlet;
#X obj 256 107 pack s s f;
#X msg 284 62 symbol pst-loop;
#X obj 313 83 r loop;
#X obj 378 145 outlet;
#X obj 378 106 pack s s f;
#X msg 406 61 symbol pst-bpm;
#X obj 435 82 r bpm;
#X obj 512 107 pack s s f;
#X obj 702 108 pack s s f;
#X obj 881 108 pack s s f;
#X obj 579 84 r RestartFrom0;
#X msg 545 63 symbol pst-RestartFrom0;
#X obj 769 84 r StepNumber;
#X msg 730 63 symbol pst-StepNumber;
#X obj 948 84 r RandomSpeed;
#X msg 914 63 symbol pst-RandomSpeed;
#X obj 512 146 outlet;
#X obj 702 146 outlet;
#X obj 881 145 outlet;
#X msg 108 61 symbol pst-RandomizeSeqOrSound;
#X obj 137 82 r RandomizeSeqOrSound;
#X connect 2 0 24 0;
#X connect 2 0 6 0;
#X connect 2 0 10 0;
#X connect 2 0 16 0;
#X connect 2 0 18 0;
#X connect 2 0 20 0;
#X connect 3 0 0 0;
#X connect 4 0 3 0;
#X connect 4 0 5 0;
#X connect 4 0 9 0;
#X connect 4 0 12 0;
#X connect 4 0 13 0;
#X connect 4 0 14 0;
#X connect 5 0 1 0;
#X connect 6 0 5 1;
#X connect 7 0 5 2;
#X connect 9 0 8 0;
#X connect 10 0 9 1;
#X connect 11 0 9 2;
#X connect 12 0 21 0;
#X connect 13 0 22 0;
#X connect 14 0 23 0;
#X connect 15 0 12 2;
#X connect 16 0 12 1;
#X connect 17 0 13 2;
#X connect 18 0 13 1;
#X connect 19 0 14 2;
#X connect 20 0 14 1;
#X connect 24 0 3 1;
#X connect 25 0 3 2;
#X restore 23 92 pd play-settings;
#N canvas 696 623 616 189 sequence 0;
#X obj 3 143 outlet;
#X obj 236 3 inlet;
#X obj 3 3 inlet;
#X obj 77 92 array get arpeg;
#X obj 203 142 outlet;
#X obj 203 93 pack s s f;
#X msg 56 48 symbol pst-arpeg;
#X obj 3 92 pack s s;
#X obj 3 25 t a b;
#X obj 3 115 list append;
#X msg 236 48 symbol pst-DutyCycle;
#X obj 270 69 r DutyCycle;
#X obj 396 142 outlet;
#X obj 396 95 list append;
#X obj 470 69 r Trigers;
#X msg 449 48 symbol pst-Trigers;
#X obj 396 69 pack s s;
#X connect 1 0 6 0;
#X connect 1 0 10 0;
#X connect 1 0 15 0;
#X connect 2 0 5 0;
#X connect 2 0 8 0;
#X connect 2 0 16 0;
#X connect 3 0 9 1;
#X connect 5 0 4 0;
#X connect 6 0 7 1;
#X connect 7 0 9 0;
#X connect 8 0 7 0;
#X connect 8 1 3 0;
#X connect 9 0 0 0;
#X connect 10 0 5 1;
#X connect 11 0 5 2;
#X connect 13 0 12 0;
#X connect 14 0 13 1;
#X connect 15 0 16 1;
#X connect 16 0 13 0;
#X restore 169 92 pd sequence;
#N canvas 607 349 833 195 random-trig-settings 0;
#X obj 80 146 outlet;
#X obj 265 7 inlet;
#X obj 80 106 pack s s f;
#X obj 80 16 inlet;
#X obj 252 142 outlet;
#X obj 252 103 pack s s f;
#X obj 434 141 outlet;
#X obj 434 102 pack s s f;
#X msg 280 58 symbol pst-min-trigger-time;
#X msg 462 57 symbol pst-max-trigger-time;
#X msg 108 61 symbol pst-random-trig;
#X obj 137 82 r random-trig;
#X obj 309 79 r min-trigger-time;
#X obj 491 78 r max-trigger-time;
#X connect 1 0 10 0;
#X connect 1 0 8 0;
#X connect 1 0 9 0;
#X connect 2 0 0 0;
#X connect 3 0 2 0;
#X connect 3 0 5 0;
#X connect 3 0 7 0;
#X connect 5 0 4 0;
#X connect 7 0 6 0;
#X connect 8 0 5 1;
#X connect 9 0 7 1;
#X connect 10 0 2 1;
#X connect 11 0 2 2;
#X connect 12 0 5 2;
#X connect 13 0 7 2;
#X restore 276 92 pd random-trig-settings;
#X connect 0 0 4 1;
#X connect 0 0 5 1;
#X connect 0 0 6 1;
#X connect 2 0 3 0;
#X connect 3 0 4 0;
#X connect 3 0 5 0;
#X connect 3 0 6 0;
#X connect 4 0 1 0;
#X connect 4 1 1 0;
#X connect 4 2 1 0;
#X connect 4 3 1 0;
#X connect 4 4 1 0;
#X connect 4 5 1 0;
#X connect 5 0 1 0;
#X connect 5 1 1 0;
#X connect 5 2 1 0;
#X connect 6 0 1 0;
#X connect 6 1 1 0;
#X connect 6 2 1 0;
#X restore 609 241 pd presets;
#N canvas 0 52 1224 597 pst-routing 0;
#X obj 60 44 r pst;
#X obj 61 315 scale 0 1 0 1;
#X obj 61 269 r pst-morph;
#X obj 177 315 scale 0 1 0 1;
#X obj 326 315 scale 0 1 0 1;
#X obj 472 315 scale 0 1 0 1;
#X obj 578 315 scale 0 1 0 1;
#X obj 684 315 scale 0 1 0 1;
#X obj 177 409 scale 0 1 0 1;
#X obj 60 68 route 1 2;
#X obj 61 367 s set-random-trig;
#X obj 177 367 s set-min-trigger-time;
#X obj 326 367 s set-max-trigger-time;
#X obj 472 397 s set-loop;
#X obj 684 367 s set-bpm;
#N canvas 0 23 727 285 arpegs 0;
#X obj 390 70 inlet;
#X obj 537 70 inlet;
#N canvas 452 491 836 371 inter 0;
#X obj 55 149 until;
#X obj 55 171 i;
#X obj 85 172 + 1;
#X obj 55 127 t f b;
#X msg 92 149 0;
#X obj 117 24 hsl 128 15 0 1 0 0 empty empty empty -2 -8 0 10 -262144
-1 -1 0 1;
#X obj 55 253 expr $s3[$f1]*(1-$f2)+$s4[$f1]*$f2;
#X obj 55 193 t f f;
#X obj 114 44 t b f;
#X obj 208 154 inlet;
#X obj 272 159 inlet;
#X obj 332 157 inlet;
#X msg 332 179 set \$1;
#X obj 37 12 inlet;
#X obj 54 307 tabwrite;
#X obj 55 105 expr size("$s1");
#X text 121 316 aykutcaglayan.blogspot.com;
#X text 121 302 Bit of code for array interpolation by :;
#X connect 0 0 1 0;
#X connect 1 0 2 0;
#X connect 1 0 7 0;
#X connect 2 0 1 1;
#X connect 3 0 0 0;
#X connect 3 1 4 0;
#X connect 4 0 1 1;
#X connect 5 0 8 0;
#X connect 6 0 14 0;
#X connect 7 0 6 0;
#X connect 7 1 14 1;
#X connect 8 0 15 0;
#X connect 8 1 6 1;
#X connect 9 0 6 2;
#X connect 9 0 15 0;
#X connect 10 0 6 3;
#X connect 11 0 12 0;
#X connect 12 0 14 0;
#X connect 13 0 8 0;
#X connect 15 0 3 0;
#X restore 108 204 pd inter;
#X msg 153 171 symbol arpeg;
#X obj 108 72 inlet;
#X text 166 207 Interpolate between two arrays;
#X text 449 144 Preset storage arrays;
#X msg 123 116 symbol pst-arpeg-1;
#X msg 138 144 symbol pst-arpeg-2;
#X obj 389 120 table pst-arpeg-1;
#X obj 537 120 table pst-arpeg-2;
#X obj 390 95 array set pst-arpeg-1;
#X obj 537 95 array set pst-arpeg-2;
#X obj 211 72 r lb-2;
#X obj 157 72 r lb-3;
#X connect 0 0 11 0;
#X connect 1 0 12 0;
#X connect 3 0 2 3;
#X connect 4 0 2 0;
#X connect 7 0 2 1;
#X connect 8 0 2 2;
#X connect 13 0 3 0;
#X connect 14 0 7 0;
#X connect 14 0 8 0;
#X restore 83 409 pd arpegs;
#X obj 61 337 change;
#X obj 177 337 change;
#X obj 326 337 change;
#X obj 472 367 change;
#X obj 578 367 change;
#X obj 684 337 change;
#X obj 177 431 change;
#X obj 807 315 scale 0 1 0 1;
#X obj 954 315 scale 0 1 0 1;
#X obj 1084 315 scale 0 1 0 1;
#X obj 807 367 change;
#X obj 954 337 change;
#X obj 1084 337 change;
#X obj 807 397 s set-RestartFrom0;
#X obj 954 366 s set-StepNumber;
#X obj 1084 367 s set-RandomSpeed;
#X obj 578 396 s set-RandomizeSeqOrSound;
#N canvas 0 22 450 300 round 0;
#X obj 50 83 int;
#X obj 50 61 + 0.5;
#X obj 50 105 outlet;
#X obj 50 38 inlet;
#X connect 0 0 2 0;
#X connect 1 0 0 0;
#X connect 3 0 1 0;
#X restore 472 343 pd round;
#N canvas 0 22 450 300 round 0;
#X obj 50 83 int;
#X obj 50 61 + 0.5;
#X obj 50 105 outlet;
#X obj 50 38 inlet;
#X connect 0 0 2 0;
#X connect 1 0 0 0;
#X connect 3 0 1 0;
#X restore 578 341 pd round;
#N canvas 0 23 450 300 round 0;
#X obj 50 83 int;
#X obj 50 61 + 0.5;
#X obj 50 105 outlet;
#X obj 50 38 inlet;
#X connect 0 0 2 0;
#X connect 1 0 0 0;
#X connect 3 0 1 0;
#X restore 807 341 pd round;
#X obj 177 454 s set-DutyCycle;
#X obj 489 118 route pst-random-trig pst-min-trigger-time pst-max-trigger-time
pst-loop pst-RandomizeSeqOrSound pst-bpm pst-arpeg pst-DutyCycle pst-RestartFrom0
pst-StepNumber pst-RandomSpeed pst-Trigers;
#X obj 336 562 s set-Trigers;
#X obj 60 118 route pst-random-trig pst-min-trigger-time pst-max-trigger-time
pst-loop pst-RandomizeSeqOrSound pst-bpm pst-arpeg pst-DutyCycle pst-RestartFrom0
pst-StepNumber pst-RandomSpeed pst-Trigers;
#X obj 336 531 list;
#X obj 378 531 list;
#X obj 336 409 > 0.5;
#X obj 336 478 sel 0;
#X obj 378 478 sel 1;
#X obj 336 456 change;
#X obj 329 505 t b l;
#X connect 0 0 9 0;
#X connect 1 0 16 0;
#X connect 2 0 1 0;
#X connect 2 0 3 0;
#X connect 2 0 4 0;
#X connect 2 0 5 0;
#X connect 2 0 6 0;
#X connect 2 0 7 0;
#X connect 2 0 8 0;
#X connect 2 0 15 0;
#X connect 2 0 23 0;
#X connect 2 0 24 0;
#X connect 2 0 25 0;
#X connect 2 0 42 0;
#X connect 3 0 17 0;
#X connect 4 0 18 0;
#X connect 5 0 33 0;
#X connect 6 0 34 0;
#X connect 7 0 21 0;
#X connect 8 0 22 0;
#X connect 9 0 39 0;
#X connect 9 1 37 0;
#X connect 16 0 10 0;
#X connect 17 0 11 0;
#X connect 18 0 12 0;
#X connect 19 0 13 0;
#X connect 20 0 32 0;
#X connect 21 0 14 0;
#X connect 22 0 36 0;
#X connect 23 0 35 0;
#X connect 24 0 27 0;
#X connect 25 0 28 0;
#X connect 26 0 29 0;
#X connect 27 0 30 0;
#X connect 28 0 31 0;
#X connect 33 0 19 0;
#X connect 34 0 20 0;
#X connect 35 0 26 0;
#X connect 37 0 1 4;
#X connect 37 1 3 4;
#X connect 37 2 4 4;
#X connect 37 3 5 4;
#X connect 37 4 6 4;
#X connect 37 5 7 4;
#X connect 37 6 15 2;
#X connect 37 7 8 4;
#X connect 37 8 23 4;
#X connect 37 9 24 4;
#X connect 37 10 25 4;
#X connect 37 11 41 1;
#X connect 39 0 1 3;
#X connect 39 1 3 3;
#X connect 39 2 4 3;
#X connect 39 3 5 3;
#X connect 39 4 6 3;
#X connect 39 5 7 3;
#X connect 39 6 15 1;
#X connect 39 7 8 3;
#X connect 39 8 23 3;
#X connect 39 9 24 3;
#X connect 39 10 25 3;
#X connect 39 11 46 0;
#X connect 40 0 38 0;
#X connect 41 0 38 0;
#X connect 42 0 45 0;
#X connect 43 0 40 0;
#X connect 44 0 41 0;
#X connect 45 0 43 0;
#X connect 45 0 44 0;
#X connect 46 0 40 0;
#X connect 46 1 40 1;
#X restore 609 263 pd pst-routing;
#X obj 14 337 f;
#X obj 14 359 % 16;
#X obj 14 450 array get arpeg;
#X obj 179 490 hradio 15 1 0 16 empty empty empty 0 -8 0 10 -66577
-4032 -1 6;
#X msg 609 123 \; arpeg xticks 0 1 1;
#N canvas 599 252 612 300 rambom-seq-trigger 0;
#X obj 75 142 metro 5000;
#X obj 75 210 + 1000;
#X obj 75 164 t b b;
#X obj 75 188 random 9000;
#X obj 75 25 inlet;
#X text 249 218 and picks a new "n" at the same time.;
#X text 249 203 Triggers a sequence every "n" milliseconds;
#X obj 228 33 r min-trigger-time;
#X obj 369 33 r max-trigger-time;
#X obj 154 211 s set-play-seq;
#X msg 154 189 1;
#X connect 0 0 2 0;
#X connect 1 0 0 1;
#X connect 2 0 3 0;
#X connect 2 1 10 0;
#X connect 3 0 1 0;
#X connect 4 0 0 0;
#X connect 7 0 1 1;
#X connect 8 0 3 1;
#X connect 10 0 9 0;
#X restore 604 369 pd rambom-seq-trigger;
#X obj 446 354 tgl 15 0 random-trig set-random-trig Random_trigger
25 10 0 10 -4032 -1 -1 0 1;
#X text 739 147 Set array display properties;
#X msg 609 158 \; arpeg yticks 0 1 2;
#X msg 609 193 \; arpeg ylabel -0.25 0-rest 1-c 2-c# 3-d 4-d# 5-e 6-f
7-f# 8-g 9-g# 10-a 11-a# 12-b;
#X obj 471 578 bb_sync2gui;
#X obj 471 556 r bpm;
#X obj 471 633 expr 60000/$i1/4;
#X obj 471 655 s set-bpm;
#X obj 168 163 r StepNumber;
#X obj 379 655 Randomize, f 10;
#X obj 379 594 sel 1;
#X obj 135 205 sel 15;
#X obj 168 184 - 1;
#X obj 604 512 spigot 0;
#X obj 650 448 sel 0;
#X msg 650 470 0;
#X msg 604 491 0;
#X obj 436 534 r RandomSpeed;
#X obj 604 448 change;
#X obj 379 572 spigot;
#X obj 379 631 t b f;
#X obj 604 470 t b f;
#X obj 135 226 delay;
#X obj 14 500 expr $f1 + 12;
#X obj 420 295 vsl 15 175 0 1 0 0 DutyCycle set-DutyCycle DutyCycle*
-40 -10 0 10 -66577 -20480 -1 0 1;
#X obj 179 473 SeqTrig;
#X obj 179 616 s TrigNote;
#X obj 14 560 s Note;
#X obj 14 284 t f f;
#X obj 305 571 t b f;
#X obj 179 594 expr if ($f2 == 0 \, 0 \, $f1);
#X obj 14 425 t f f;
#X obj 534 556 r ms-per-beat;
#X text 29 700 *Duty Cycle is a ratio between the time of note On and
Note Off. Ex : if the slider is half way \, the note off event will
occures after half of the time of a step. slider to 1 \, is a legato
when 2 step are selected consecutively. Slider to 0 means a note on
of 0.1 ms., f 124;
#X obj 828 305 r StepNumber;
#X obj 838 325 r ms-per-beat;
#X obj 828 369 *;
#X floatatom 828 391 5 0 0 0 - - -, f 5;
#X obj 838 347 t b f;
#X obj 813 414 f;
#X obj 813 454 s set-min-trigger-time;
#X obj 823 434 s set-max-trigger-time;
#X obj 446 300 cnv 15 145 50 empty empty empty 20 12 0 10 -204800 -66577
0;
#X obj 813 287 bng 15 250 50 0 empty set-loop EZ_Loop 17 7 0 10 -262144
-4032 -1;
#X floatatom 454 329 4 30 298 1 BPM set-bpm bpm, f 4;
#X floatatom 543 329 5 0 15000 1 ms - ms-per-beat, f 5;
#X floatatom 454 308 5 2 16 1 Step_Number set-StepNumber StepNumber
, f 5;
#X text 503 328 == 4*;
#X obj 446 371 cnv 15 145 65 empty empty empty 20 12 0 10 -204800 -66577
0;
#X floatatom 454 398 5 0 0 1 Rand_min_time set-min-trigger-time min-trigger-time
, f 5;
#X floatatom 454 417 5 0 0 1 Rand_max_time set-max-trigger-time max-trigger-time
, f 5;
#X obj 454 378 bng 15 250 50 0 set-loop empty EZ_Loop 17 7 0 10 -262144
-4032 -1;
#X obj 446 441 cnv 15 145 65 empty empty empty 20 12 0 10 -204800 -66577
0;
#X floatatom 454 486 5 0 15000 1 RandomTempo(ms) set-RandomSpeed RandomSpeed
, f 5;
#X obj 454 466 tgl 15 0 RandomizeSeqOrSound set-RandomizeSeqOrSound
Randomize_SoundOrSeq 17 7 0 10 -262144 -1 -1 0 1;
#X obj 454 446 tgl 15 0 RestartFrom0 set-RestartFrom0 RestartFrom_0
25 7 0 10 -262144 -1 -1 0 1;
#X text 869 367 Loop sets random trigger times to the length of the
sequence, f 22;
#X text 186 211 Stops playing at the end of the sequence, f 14;
#X text 543 579 Syncs 2 GUI without creating a loop.;
#X obj 107 106 r lb-1;
#X obj 16 77 loadbang;
#X obj 16 99 t b b b;
#X obj 55 121 s lb-1;
#X obj 35 141 s lb-1;
#X obj 16 161 s lb-1;
#X connect 0 0 45 0;
#X connect 0 0 46 0;
#X connect 1 0 11 0;
#X connect 2 0 37 0;
#X connect 3 0 11 1;
#X connect 5 0 13 1;
#X connect 6 0 40 0;
#X connect 7 0 44 0;
#X connect 8 0 0 0;
#X connect 11 0 3 0;
#X connect 11 0 12 0;
#X connect 12 0 14 0;
#X connect 12 0 42 0;
#X connect 12 0 48 0;
#X connect 13 0 6 0;
#X connect 17 0 16 0;
#X connect 21 0 23 0;
#X connect 21 0 37 0;
#X connect 21 1 2 0;
#X connect 22 0 21 0;
#X connect 23 0 24 0;
#X connect 25 0 12 1;
#X connect 25 0 29 0;
#X connect 26 0 1 1;
#X connect 26 0 39 1;
#X connect 27 0 26 0;
#X connect 28 0 26 0;
#X connect 28 0 39 0;
#X connect 29 0 28 1;
#X connect 30 0 11 1;
#X connect 31 0 32 0;
#X connect 32 0 30 0;
#X connect 33 0 30 0;
#X connect 34 0 26 2;
#X connect 35 0 38 0;
#X connect 36 0 27 0;
#X connect 37 0 26 0;
#X connect 37 1 26 1;
#X connect 38 0 33 0;
#X connect 38 1 30 1;
#X connect 39 0 8 0;
#X connect 40 0 7 0;
#X connect 42 0 36 0;
#X connect 42 0 47 0;
#X connect 45 0 1 0;
#X connect 45 1 31 0;
#X connect 46 0 47 0;
#X connect 46 1 47 1;
#X connect 47 0 43 0;
#X connect 48 0 28 0;
#X connect 48 1 13 0;
#X connect 49 0 21 1;
#X connect 51 0 53 0;
#X connect 52 0 55 0;
#X connect 53 0 54 0;
#X connect 54 0 56 1;
#X connect 55 0 53 0;
#X connect 55 1 53 1;
#X connect 56 0 57 0;
#X connect 56 0 58 0;
#X connect 60 0 56 0;
#X connect 71 0 36 1;
#X connect 72 0 35 0;
#X connect 76 0 5 0;
#X connect 76 0 15 0;
#X connect 76 0 19 0;
#X connect 76 0 9 0;
#X connect 76 0 20 0;
#X connect 77 0 78 0;
#X connect 78 0 81 0;
#X connect 78 1 80 0;
#X connect 78 2 79 0;
#X coords 0 -1 1 1 465 245 2 135 270;
