#N canvas 230 94 1357 986 10;
#N canvas 627 474 805 535 store-pst 0;
#X obj 105 98 r store-pst;
#X obj 46 56 bng 15 250 50 0 empty empty SAVE 17 7 0 10 -262144 -1
-1;
#X obj 43 98 savepanel;
#X obj 62 167 s bang-pst;
#X obj 105 215 list trim;
#X obj 43 120 t s b b;
#X msg 43 187 write \$1;
#X msg 82 145 clear;
#X obj 103 48 bng 15 250 50 0 empty empty OPEN_PRESET_1 17 7 0 10 -262144
-1 -1;
#X obj 103 66 bng 15 250 50 0 empty empty OPEN_PRESET_2 17 7 0 10 -262144
-1 -1;
#X msg 504 160 2;
#X msg 474 160 1;
#X obj 43 241 qlist;
#X obj 114 424 outlet;
#X obj 207 272 route 0 1 2 3 4;
#N canvas 0 94 450 300 PrependPstIndex 0;
#X obj 89 153 t b l;
#X obj 89 129 list prepend;
#X obj 121 183 outlet;
#X text 174 176 pst;
#X obj 80 59 inlet;
#X obj 181 76 inlet;
#X connect 0 1 2 0;
#X connect 1 0 0 0;
#X connect 4 0 1 0;
#X connect 5 0 1 1;
#X restore 116 367 pd PrependPstIndex;
#N canvas 0 94 450 300 PrependPstIndex 0;
#X obj 89 153 t b l;
#X obj 89 129 list prepend;
#X obj 121 183 outlet;
#X text 174 176 pst;
#X obj 80 59 inlet;
#X obj 181 76 inlet;
#X connect 0 1 2 0;
#X connect 1 0 0 0;
#X connect 4 0 1 0;
#X connect 5 0 1 1;
#X restore 660 360 pd PrependPstIndex;
#N canvas 0 94 450 300 PrependPstIndex 0;
#X obj 89 153 t b l;
#X obj 89 129 list prepend;
#X obj 121 183 outlet;
#X text 174 176 pst;
#X obj 80 59 inlet;
#X obj 181 76 inlet;
#N canvas 0 94 450 300 PrependPstIndex 0;
#X obj 89 153 t b l;
#X obj 89 129 list prepend;
#X obj 121 183 outlet;
#X text 174 176 pst;
#X obj 80 59 inlet;
#X obj 181 76 inlet;
#N canvas 0 94 450 300 PrependPstIndex 0;
#X obj 89 153 t b l;
#X obj 89 129 list prepend;
#X obj 121 183 outlet;
#X text 174 176 pst;
#X obj 80 59 inlet;
#X obj 181 76 inlet;
#X connect 0 1 2 0;
#X connect 1 0 0 0;
#X connect 4 0 1 0;
#X connect 5 0 1 1;
#X restore 120 414 pd PrependPstIndex;
#X connect 0 1 2 0;
#X connect 1 0 0 0;
#X connect 4 0 1 0;
#X connect 5 0 1 1;
#X restore 120 414 pd PrependPstIndex;
#X connect 0 1 2 0;
#X connect 1 0 0 0;
#X connect 4 0 1 0;
#X connect 5 0 1 1;
#X restore 387 391 pd PrependPstIndex;
#N canvas 0 94 450 300 PrependPstIndex 0;
#X obj 89 153 t b l;
#X obj 89 129 list prepend;
#X obj 121 183 outlet;
#X text 174 176 pst;
#X obj 80 59 inlet;
#X obj 181 76 inlet;
#N canvas 0 94 450 300 PrependPstIndex 0;
#X obj 89 153 t b l;
#X obj 89 129 list prepend;
#X obj 121 183 outlet;
#X text 174 176 pst;
#X obj 80 59 inlet;
#X obj 181 76 inlet;
#N canvas 0 94 450 300 PrependPstIndex 0;
#X obj 89 153 t b l;
#X obj 89 129 list prepend;
#X obj 121 183 outlet;
#X text 174 176 pst;
#X obj 80 59 inlet;
#X obj 181 76 inlet;
#X connect 0 1 2 0;
#X connect 1 0 0 0;
#X connect 4 0 1 0;
#X connect 5 0 1 1;
#X restore 120 414 pd PrependPstIndex;
#X connect 0 1 2 0;
#X connect 1 0 0 0;
#X connect 4 0 1 0;
#X connect 5 0 1 1;
#X restore 120 414 pd PrependPstIndex;
#X connect 0 1 2 0;
#X connect 1 0 0 0;
#X connect 4 0 1 0;
#X connect 5 0 1 1;
#X restore 249 386 pd PrependPstIndex;
#N canvas 0 94 450 300 PrependPstIndex 0;
#X obj 89 153 t b l;
#X obj 89 129 list prepend;
#X obj 121 183 outlet;
#X text 174 176 pst;
#X obj 80 59 inlet;
#X obj 181 76 inlet;
#N canvas 0 94 450 300 PrependPstIndex 0;
#X obj 89 153 t b l;
#X obj 89 129 list prepend;
#X obj 121 183 outlet;
#X text 174 176 pst;
#X obj 80 59 inlet;
#X obj 181 76 inlet;
#N canvas 0 94 450 300 PrependPstIndex 0;
#X obj 89 153 t b l;
#X obj 89 129 list prepend;
#X obj 121 183 outlet;
#X text 174 176 pst;
#X obj 80 59 inlet;
#X obj 181 76 inlet;
#X connect 0 1 2 0;
#X connect 1 0 0 0;
#X connect 4 0 1 0;
#X connect 5 0 1 1;
#X restore 120 414 pd PrependPstIndex;
#X connect 0 1 2 0;
#X connect 1 0 0 0;
#X connect 4 0 1 0;
#X connect 5 0 1 1;
#X restore 120 414 pd PrependPstIndex;
#X connect 0 1 2 0;
#X connect 1 0 0 0;
#X connect 4 0 1 0;
#X connect 5 0 1 1;
#X restore 525 370 pd PrependPstIndex;
#X text 113 402 Preset Sequencer;
#X obj 249 437 outlet;
#X obj 387 447 outlet;
#X obj 524 436 outlet;
#X obj 658 423 outlet;
#X text 248 415 Preset OSC1;
#X text 386 425 Preset OSC2;
#X text 523 414 Preset OSC3;
#X text 657 401 Preset OSC4;
#X obj 378 27 inlet;
#X obj 482 26 inlet;
#X obj 205 177 until;
#X msg 246 177 rewind;
#X obj 205 210 textfile;
#X obj 205 126 openpanel;
#X msg 295 177 read \$1;
#X obj 205 148 t b b s;
#X obj 204 97 t b b;
#X obj 245 97 t b b;
#X text 526 26 Preset index;
#X text 422 27 Preset;
#X connect 0 0 4 0;
#X connect 1 0 2 0;
#X connect 2 0 5 0;
#X connect 4 0 12 0;
#X connect 5 0 6 0;
#X connect 5 1 3 0;
#X connect 5 2 7 0;
#X connect 6 0 12 0;
#X connect 7 0 12 0;
#X connect 8 0 37 0;
#X connect 9 0 38 0;
#X connect 10 0 15 1;
#X connect 10 0 18 1;
#X connect 10 0 17 1;
#X connect 10 0 19 1;
#X connect 10 0 16 1;
#X connect 11 0 15 1;
#X connect 11 0 18 1;
#X connect 11 0 17 1;
#X connect 11 0 19 1;
#X connect 11 0 16 1;
#X connect 14 0 15 0;
#X connect 14 1 18 0;
#X connect 14 2 17 0;
#X connect 14 3 19 0;
#X connect 14 4 16 0;
#X connect 15 0 13 0;
#X connect 16 0 24 0;
#X connect 17 0 22 0;
#X connect 18 0 21 0;
#X connect 19 0 23 0;
#X connect 29 0 14 0;
#X connect 30 0 15 1;
#X connect 30 0 18 1;
#X connect 30 0 17 1;
#X connect 30 0 19 1;
#X connect 30 0 16 1;
#X connect 31 0 33 0;
#X connect 32 0 33 0;
#X connect 33 0 14 0;
#X connect 33 1 31 1;
#X connect 34 0 36 0;
#X connect 35 0 33 0;
#X connect 36 0 31 0;
#X connect 36 1 32 0;
#X connect 36 2 35 0;
#X connect 37 0 34 0;
#X connect 37 1 11 0;
#X connect 38 0 34 0;
#X connect 38 1 10 0;
#X coords 0 -1 1 1 300 50 1 40 35;
#X restore 530 170 pd store-pst;
#X obj 7 27 Sequencer;
#X text 688 106 Developed by Collectif AAIO;
#X obj 98 340 FM_Osc 1;
#X obj 97 550 throw~ \$0-FMOsc1;
#X obj 309 601 catch~ \$0-FMOsc1;
#X obj 505 552 throw~ \$0-FMOsc2;
#X obj 128 872 throw~ \$0-FMOsc3;
#X obj 533 870 throw~ \$0-FMOsc4;
#X obj 650 602 catch~ \$0-FMOsc4;
#X obj 536 603 catch~ \$0-FMOsc3;
#X obj 421 600 catch~ \$0-FMOsc2;
#X text 7 4 Preset;
#X text 127 6 pst-morph;
#X obj 502 340 FM_Osc 2;
#X obj 130 652 FM_Osc 3;
#X obj 534 652 FM_Osc 4;
#X obj 857 39 inlet;
#X text 900 36 morph;
#X obj 874 124 vsl 15 128 0 127 0 0 empty empty empty 0 -9 0 10 -262144
-1 -1 100 1;
#X obj 414 930 outlet~;
#X obj 599 41 inlet;
#X obj 717 41 inlet;
#X text 637 41 Preset;
#X text 761 41 Preset Index;
#X text 260 4 RandomTrigger;
#X obj 952 42 inlet;
#X text 995 39 RandomTrigger;
#X text 1045 190 Preset storage arrays;
#X obj 1133 166 table \$0-pst-arpeg-2;
#X obj 502 36 \$0;
#X floatatom 504 65 5 0 0 0 - - -, f 5;
#X text 397 6 Symbiote Index;
#X obj 492 10 loadbang;
#X obj 985 166 table \$0-pst-arpeg-1;
#X obj 1051 130 table \$0-arpeg;
#X connect 0 0 1 0;
#X connect 0 1 3 6;
#X connect 0 2 14 6;
#X connect 0 3 15 6;
#X connect 0 4 16 6;
#X connect 1 0 3 4;
#X connect 1 0 14 4;
#X connect 1 0 15 4;
#X connect 1 0 16 4;
#X connect 1 1 3 5;
#X connect 1 1 14 5;
#X connect 1 1 15 5;
#X connect 1 1 16 5;
#X connect 3 0 4 0;
#X connect 5 0 3 0;
#X connect 5 0 14 0;
#X connect 5 0 15 0;
#X connect 5 0 16 0;
#X connect 5 0 20 0;
#X connect 9 0 3 3;
#X connect 9 0 14 3;
#X connect 9 0 15 3;
#X connect 9 0 16 3;
#X connect 9 0 20 0;
#X connect 10 0 3 2;
#X connect 10 0 14 2;
#X connect 10 0 15 2;
#X connect 10 0 16 2;
#X connect 10 0 20 0;
#X connect 11 0 3 1;
#X connect 11 0 14 1;
#X connect 11 0 15 1;
#X connect 11 0 16 1;
#X connect 11 0 20 0;
#X connect 14 0 6 0;
#X connect 15 0 7 0;
#X connect 16 0 8 0;
#X connect 17 0 19 0;
#X connect 19 0 14 7;
#X connect 19 0 1 1;
#X connect 19 0 3 7;
#X connect 19 0 16 7;
#X connect 19 0 15 7;
#X connect 21 0 0 0;
#X connect 22 0 0 1;
#X connect 26 0 1 2;
#X connect 30 0 31 0;
#X connect 31 0 1 3;
#X connect 33 0 30 0;
