#N canvas 1457 88 795 580 10;
#X floatatom 6 133 5 0 0 0 - - -, f 5;
#X text 109 180 Moyenne du volume sur n mesures, f 11;
#X obj 521 101 tgl 15 0 empty empty empty 17 7 0 10 -262144 -1 -1 1
1;
#X obj 540 247 f 1;
#X obj 521 123 moses 1;
#X floatatom 540 270 5 0 0 0 - - -, f 5;
#X obj 577 247 + 1;
#X obj 540 223 metro 500;
#X obj 521 289 f;
#X obj 521 56 >= 70;
#X obj 521 78 change;
#X obj 6 49 spigot 1;
#X obj 116 33 * -1;
#X obj 116 57 + 1;
#X obj 6 184 average-array 50;
#X msg 560 171 1;
#X obj 521 147 t b b b;
#X msg 540 198 0;
#X obj 6 210 s noise-average;
#X obj 370 265 s spent-above-threshold;
#X obj 116 8 r stop-mic;
#X text 603 245 Displays time spent above a given threshold, f 24
;
#X text 606 508 Developed by Collectif AAIO;
#X obj 370 203 s mic-bang;
#N canvas 50 82 450 300 auto-calibrate 0;
#X obj 54 29 inlet;
#N canvas 1130 574 450 300 bornes 0;
#X obj 89 131 min;
#X floatatom 116 131 5 0 0 0 - - -, f 5;
#X floatatom 202 131 5 0 0 0 - - -, f 5;
#X obj 175 131 max;
#X obj 89 37 inlet;
#X obj 89 153 outlet;
#X obj 175 153 outlet;
#X obj 168 37 loadbang;
#X obj 228 37 r calibration-reset;
#X msg 228 66 1;
#X obj 89 65 int;
#X msg 168 66 160;
#X connect 0 0 1 0;
#X connect 0 0 5 0;
#X connect 1 0 0 1;
#X connect 2 0 3 1;
#X connect 3 0 2 0;
#X connect 3 0 6 0;
#X connect 4 0 10 0;
#X connect 7 0 11 0;
#X connect 7 0 9 0;
#X connect 8 0 9 0;
#X connect 8 0 11 0;
#X connect 9 0 3 1;
#X connect 10 0 0 0;
#X connect 10 0 3 0;
#X connect 11 0 0 1;
#X restore 71 67 pd bornes;
#X obj 54 94 scale 0 1 0 100;
#X obj 54 116 outlet;
#X connect 0 0 1 0;
#X connect 0 0 2 0;
#X connect 1 0 2 1;
#X connect 1 1 2 2;
#X connect 2 0 3 0;
#X restore 6 155 pd auto-calibrate;
#X obj 207 110 cnv 15 140 165 empty empty Monitoring 5 10 0 10 -106496
-66577 0;
#X obj 207 280 cnv 15 140 115 empty empty Settings 5 10 0 10 -204800
-66577 0;
#X obj 220 316 hsl 83 14 0 100 0 1 empty empty Threshold 0 8 0 10 -262144
-1 -1 5400 1;
#X floatatom 305 316 5 0 0 0 - - -, f 5;
#X obj 220 356 hsl 83 14 100 10000 0 1 empty empty Time_period 0 8
0 10 -262144 -1 -1 2400 1;
#X floatatom 305 356 5 0 0 0 - - -, f 5;
#X obj 217 298 tgl 15 1 empty empty ENABLE_MIC 17 7 0 10 -262144 -1
-1 1 1;
#X obj 245 49 t b f;
#X text 282 37 Check if active;
#X obj 6 71 spigot;
#X obj 6 8 r mic-raw;
#X obj 215 128 tgl 15 0 empty empty ADC_IS_ACTIVE 17 7 0 10 -262144
-1 -1 1 1;
#X obj 218 147 hsl 115 15 0 100 0 0 empty empty Enveloppe_follower
0 8 0 10 -262144 -1 -1 8521 1;
#X obj 218 167 hsl 115 15 0 100 0 0 empty empty Noise_average 0 8 0
10 -262144 -1 -1 8514 1;
#X obj 215 188 bng 15 250 50 0 empty empty PEAK_DETECTED 17 7 0 10
-262144 -1 -1;
#X obj 215 219 hradio 15 1 0 8 empty empty Nr_of_Peaks 0 -8 0 10 -262144
-1 -1 1;
#X obj 370 234 s nr-of-peaks;
#N canvas 0 22 450 300 peak-detector 0;
#X obj 145 41 inlet;
#X obj 232 42 inlet;
#X obj 160 245 outlet;
#X obj 205 74 >= 70;
#X obj 205 96 change;
#X obj 160 74 * 0.8;
#X msg 217 198 0;
#X obj 160 220 t b b;
#X obj 145 169 sel 1;
#X obj 145 139 change;
#X text 212 168 Attack detector with hysteresis;
#X obj 145 117 <;
#X obj 205 118 sel 1;
#X msg 205 140 1;
#X obj 160 198 spigot;
#X obj 287 42 inlet;
#X connect 0 0 3 0;
#X connect 0 0 11 0;
#X connect 1 0 5 0;
#X connect 1 0 3 1;
#X connect 3 0 4 0;
#X connect 4 0 12 0;
#X connect 5 0 11 1;
#X connect 6 0 14 1;
#X connect 7 0 2 0;
#X connect 7 1 6 0;
#X connect 8 0 14 0;
#X connect 9 0 8 0;
#X connect 11 0 9 0;
#X connect 12 0 13 0;
#X connect 13 0 14 1;
#X connect 14 0 7 0;
#X connect 15 0 5 1;
#X restore 6 241 pd peak-detector;
#N canvas 0 22 504 297 peak-counter 0;
#X obj 83 64 inlet;
#X obj 199 64 inlet;
#X obj 68 201 outlet;
#X obj 160 86 del 500;
#X obj 160 110 bng 15 250 50 0 empty empty empty 17 7 0 10 -262144
-1 -1;
#X obj 83 90 f 1;
#X floatatom 83 126 5 0 0 0 - - -, f 5;
#X obj 120 90 + 1;
#X obj 160 130 t b b;
#X obj 68 174 f;
#X msg 160 152 0;
#X text 202 133 Sensitivity is set using threshold message;
#X text 202 146 Time period is set using del;
#X text 202 120 Counts the nr of attacks in a given time period;
#X connect 0 0 5 0;
#X connect 1 0 3 1;
#X connect 3 0 4 0;
#X connect 4 0 8 0;
#X connect 5 0 6 0;
#X connect 5 0 7 0;
#X connect 6 0 9 1;
#X connect 7 0 5 1;
#X connect 8 0 10 0;
#X connect 8 1 9 0;
#X connect 9 0 2 0;
#X connect 10 0 5 1;
#X restore 6 269 pd peak-counter;
#X obj 215 250 hradio 15 1 0 8 empty empty Time_above_threshold 0 -8
0 10 -262144 -1 -1 1;
#X obj 215 27 == 1;
#X obj 245 27 == 1;
#X obj 215 72 &&;
#X obj 6 93 MEDIAN_3;
#X obj 220 336 hsl 83 14 0 1 0 1 empty empty Hysteresis 0 8 0 10 -262144
-1 -1 7100 1;
#X floatatom 305 336 5 0 0 0 - - -, f 5;
#X obj 366 350 * -1;
#X obj 366 372 + 1;
#X obj 359 146 s envelope-follower;
#N canvas 0 22 450 300 variability-detection 0;
#X obj 55 34 r noise-average;
#X obj 63 56 r envelope-follower;
#X obj 55 101 -;
#X obj 63 78 t b f;
#X obj 55 123 abs;
#X floatatom 55 146 5 0 0 0 - - -, f 5;
#X obj 55 165 > 3;
#X obj 55 187 change;
#X obj 55 209 sel 1;
#X obj 55 231 outlet;
#X obj 255 34 inlet;
#X text 175 108 Detects sudden changes in volume;
#X text 175 121 (difference between peak and average);
#X connect 0 0 2 0;
#X connect 1 0 3 0;
#X connect 2 0 4 0;
#X connect 3 0 2 0;
#X connect 3 1 2 1;
#X connect 4 0 5 0;
#X connect 5 0 6 0;
#X connect 6 0 7 0;
#X connect 7 0 8 0;
#X connect 8 0 9 0;
#X connect 10 0 6 1;
#X restore 110 446 pd variability-detection;
#X obj 220 376 hsl 83 14 1 10 0 1 empty empty Var_sensitivity 0 8 0
10 -262144 -1 -1 2300 1;
#X floatatom 305 376 5 0 0 0 - - -, f 5;
#X obj 110 468 s mic-variations;
#X connect 0 0 24 0;
#X connect 2 0 4 0;
#X connect 3 0 5 0;
#X connect 3 0 6 0;
#X connect 4 0 16 0;
#X connect 4 1 7 0;
#X connect 5 0 8 1;
#X connect 6 0 3 1;
#X connect 7 0 3 0;
#X connect 8 0 44 0;
#X connect 9 0 10 0;
#X connect 10 0 2 0;
#X connect 11 0 34 0;
#X connect 12 0 13 0;
#X connect 13 0 11 1;
#X connect 13 0 45 0;
#X connect 14 0 38 0;
#X connect 15 0 3 1;
#X connect 16 0 8 0;
#X connect 16 1 17 0;
#X connect 16 2 15 0;
#X connect 17 0 7 0;
#X connect 20 0 12 0;
#X connect 24 0 14 0;
#X connect 24 0 9 0;
#X connect 24 0 37 0;
#X connect 24 0 42 0;
#X connect 27 0 28 0;
#X connect 28 0 9 1;
#X connect 28 0 42 1;
#X connect 29 0 30 0;
#X connect 30 0 7 1;
#X connect 30 0 43 1;
#X connect 31 0 34 1;
#X connect 31 0 46 0;
#X connect 32 0 47 0;
#X connect 32 1 47 1;
#X connect 34 0 48 0;
#X connect 35 0 11 0;
#X connect 37 0 53 0;
#X connect 38 0 18 0;
#X connect 39 0 43 0;
#X connect 39 0 23 0;
#X connect 40 0 41 0;
#X connect 42 0 39 0;
#X connect 43 0 40 0;
#X connect 44 0 19 0;
#X connect 45 0 47 0;
#X connect 46 0 32 0;
#X connect 47 0 36 0;
#X connect 48 0 0 0;
#X connect 49 0 50 0;
#X connect 50 0 51 0;
#X connect 51 0 52 0;
#X connect 52 0 42 2;
#X connect 54 0 57 0;
#X connect 55 0 56 0;
#X connect 56 0 54 0;
#X coords 0 -1 1 1 155 300 2 200 100;
