#N canvas 324 146 801 540 10;
#X msg 355 263 508;
#X msg 278 309 1255;
#X msg 355 308 3493;
#X obj 24 134 tgl 15 0 empty empty empty 17 7 0 10 -262144 -1 -1 0
1;
#X obj 28 213 == 1;
#X obj 81 213 == 0;
#X obj 28 244 sel 1;
#X obj 4 181 tgl 15 0 empty empty empty 17 7 0 10 -262144 -1 -1 0 1
;
#X text 276 242 On;
#X text 353 241 Off;
#X obj 148 80 random 3;
#X obj 205 134 sel 1;
#X obj 295 135 sel 2;
#X text 365 132 Select mode randomly;
#X obj 148 133 sel 0;
#X text 367 167 1 - Busy;
#X text 367 184 2 - Call;
#X text 367 152 0 - No sound;
#X obj 24 162 metro 513;
#X obj 21 320 tgl 20 0 empty empty Play 25 10 0 10 -36344 -1 -1 0 1
;
#X obj 85 6 metro;
#X msg 22 106 0;
#X obj 81 245 sel 1;
#X msg 205 164 1;
#X msg 295 163 1;
#X obj 148 105 change;
#X obj 64 421 + 1;
#X obj 15 420 i;
#X obj 15 476 sel 1;
#X text 97 449 Count and stop the tone after reaching the maximum number
;
#X text 287 372 Randomly define the maximum number of tone;
#X obj 106 58 + 8000;
#X obj 205 192 t i b b b;
#X obj 295 190 t i b b b;
#X obj 20 340 Randomization;
#X text 276 411 Minimum number of tones;
#X text 101 324 ON;
#X text 197 325 OFF;
#X obj 538 253 r MACRO;
#X obj 121 340 Randomization;
#X msg 280 265 513;
#X msg 222 395 1;
#X text 393 307 Call mode Times;
#X text 392 265 Busy mode Times;
#X text 459 230 Increase the number of tone signal max;
#X text 230 32 After a random time (between 8s & 12s) \, trig another
mode;
#X obj 3 282 outlet;
#X obj 233 105 print Mode;
#X obj 265 394 + 4;
#X obj 265 356 random 6;
#X obj 106 34 random 2000;
#X obj 15 448 >= 5, f 9;
#X obj 370 340 int;
#X obj 616 359 int;
#X obj 21 80 cyclone/onebang;
#X obj 538 284 maxlib/scale 0 1 6 20;
#X obj 560 315 maxlib/scale 0 1 4 10;
#X obj 616 337 maxlib/scale 0 1 8000 0;
#X connect 0 0 39 1;
#X connect 1 0 34 1;
#X connect 2 0 39 1;
#X connect 3 0 18 0;
#X connect 4 0 6 0;
#X connect 5 0 22 0;
#X connect 6 0 27 0;
#X connect 6 0 34 0;
#X connect 7 0 5 0;
#X connect 7 0 4 0;
#X connect 7 0 46 0;
#X connect 10 0 25 0;
#X connect 11 0 23 0;
#X connect 12 0 24 0;
#X connect 14 0 54 1;
#X connect 18 0 7 0;
#X connect 19 0 20 0;
#X connect 20 0 10 0;
#X connect 20 0 50 0;
#X connect 21 0 3 0;
#X connect 22 0 39 0;
#X connect 22 0 54 0;
#X connect 23 0 32 0;
#X connect 24 0 33 0;
#X connect 25 0 14 0;
#X connect 25 0 11 0;
#X connect 25 0 12 0;
#X connect 25 0 47 0;
#X connect 26 0 27 1;
#X connect 27 0 26 0;
#X connect 27 0 51 0;
#X connect 28 0 54 1;
#X connect 31 0 20 1;
#X connect 32 0 3 0;
#X connect 32 1 34 0;
#X connect 32 2 40 0;
#X connect 32 2 0 0;
#X connect 32 3 41 0;
#X connect 32 3 49 0;
#X connect 33 0 3 0;
#X connect 33 1 34 0;
#X connect 33 2 1 0;
#X connect 33 2 2 0;
#X connect 33 3 41 0;
#X connect 33 3 49 0;
#X connect 34 0 18 1;
#X connect 38 0 55 0;
#X connect 38 0 56 0;
#X connect 38 0 57 0;
#X connect 39 0 18 1;
#X connect 40 0 34 1;
#X connect 41 0 27 1;
#X connect 48 0 51 1;
#X connect 49 0 48 0;
#X connect 50 0 31 0;
#X connect 51 0 28 0;
#X connect 52 0 49 1;
#X connect 53 0 31 1;
#X connect 54 0 21 0;
#X connect 55 0 52 0;
#X connect 56 0 48 1;
#X connect 57 0 53 0;
#X coords 0 -1 1 1 202 90 1 20 300;
