#N canvas 515 164 1172 762 10;
#X obj 506 33 waveform;
#X obj 817 266 vsl 40 397 0 1 0 0 MACRO empty MACRO 2 7 1 10 -99865
-20480 -262144 0 1;
#X msg 448 86 \; pd dsp 1;
#X obj 448 56 loadbang;
#X obj 171 702 dac~;
#X obj 8 672 catch~ 1-Osc;
#X obj 102 672 catch~ 2-Osc;
#X obj 196 672 catch~ 3-Osc;
#X obj 290 672 catch~ 4-Osc;
#X msg 520 85 \; pd dsp 0;
#N canvas 420 289 356 174 init 0;
#X text 6 8 Externals needed to run the patch: [scale];
#X text 6 22 >> declare library maxlib;
#X restore 449 33 pd init;
#N canvas 1019 23 399 301 store-pst 0;
#X obj 105 98 r store-pst;
#X obj 46 56 bng 15 250 50 0 empty empty SAVE 17 7 0 10 -262144 -1
-1;
#X obj 43 98 savepanel;
#X obj 62 167 s bang-pst;
#X obj 105 215 list trim;
#X obj 43 120 t s b b;
#X msg 43 187 write \$1;
#X msg 82 145 clear;
#X obj 215 55 hsl 115 15 0 1 0 0 pst-morph MACRO MORPH 0 8 0 10 -262144
-1 -1 0 1;
#X obj 190 180 until;
#X msg 231 180 rewind;
#X obj 190 213 textfile;
#X obj 103 48 bng 15 250 50 0 empty empty OPEN_PRESET_1 17 7 0 10 -262144
-1 -1;
#X obj 190 129 openpanel;
#X msg 280 180 read \$1;
#X obj 190 151 t b b s;
#X obj 222 279 s pst;
#X obj 103 66 bng 15 250 50 0 empty empty OPEN_PRESET_2 17 7 0 10 -262144
-1 -1;
#X obj 190 98 t b b;
#X obj 231 98 t b b;
#X msg 306 213 2;
#X msg 276 213 1;
#X obj 190 235 prepend;
#X obj 43 241 qlist;
#X obj 190 257 t b l;
#X connect 0 0 4 0;
#X connect 1 0 2 0;
#X connect 2 0 5 0;
#X connect 4 0 23 0;
#X connect 5 0 6 0;
#X connect 5 1 3 0;
#X connect 5 2 7 0;
#X connect 6 0 23 0;
#X connect 7 0 23 0;
#X connect 9 0 11 0;
#X connect 10 0 11 0;
#X connect 11 0 22 0;
#X connect 11 1 9 1;
#X connect 12 0 18 0;
#X connect 13 0 15 0;
#X connect 14 0 11 0;
#X connect 15 0 9 0;
#X connect 15 1 10 0;
#X connect 15 2 14 0;
#X connect 17 0 19 0;
#X connect 18 0 13 0;
#X connect 18 1 21 0;
#X connect 19 0 13 0;
#X connect 19 1 20 0;
#X connect 20 0 22 1;
#X connect 21 0 22 1;
#X connect 22 0 24 0;
#X connect 24 0 8 0;
#X connect 24 1 16 0;
#X coords 0 -1 1 1 300 50 1 40 35;
#X restore 448 207 pd store-pst;
#X obj 7 265 FM_Osc 1;
#X obj 7 32 Sequencer;
#X obj 411 265 FM_Osc 2;
#X obj 7 467 FM_Osc 3;
#X obj 411 467 FM_Osc 4;
#X connect 3 0 2 0;
#X connect 5 0 4 0;
#X connect 5 0 4 1;
#X connect 6 0 4 0;
#X connect 6 0 4 1;
#X connect 7 0 4 0;
#X connect 7 0 4 1;
#X connect 8 0 4 0;
#X connect 8 0 4 1;
