#N canvas 1363 209 893 674 10;
#X obj 9 128 t f f;
#X obj 36 160 match 100 254;
#X obj 36 186 t b b;
#X obj 9 237 list prepend;
#X obj 78 209 t l;
#X obj -60 288 list split 1;
#X obj -60 262 list prepend;
#X obj 511 83 bng 15 250 50 0 empty empty empty 17 7 0 10 -262144 -1
-1;
#X obj 527 271 bng 15 250 50 0 empty empty empty 17 7 0 10 -262144
-1 -1;
#X obj 548 217 + 1;
#X obj 511 217 f;
#X obj 496 256 f;
#X floatatom 496 290 5 0 0 0 - - -, f 5;
#X obj 538 158 t 1 b;
#X obj 219 217 hradio 15 1 0 8 empty empty Snapshots_passages 0 -8
0 10 -262144 -1 -1 0;
#X text 579 215 Nombre de passages dans un temps court vers le symbiote.
, f 18;
#X obj 531 57 change;
#X obj 531 81 sel 1;
#X text 81 314 Moyenne de mouvement sur n mesures, f 11;
#X obj -26 379 s humeur_mouvement;
#X msg 9 25 close;
#N canvas 144 441 450 300 median_3 0;
#X obj 76 51 inlet;
#X obj 76 81 f;
#X obj 76 126 t f b b;
#X obj 78 169 f;
#X obj 103 169 f;
#X obj 129 169 f;
#X obj 93 200 min;
#X obj 78 220 max;
#X obj 78 242 min;
#X obj 123 200 max;
#X obj 78 265 outlet;
#X connect 0 0 1 0;
#X connect 1 0 2 0;
#X connect 2 0 3 0;
#X connect 2 1 4 0;
#X connect 2 2 5 0;
#X connect 3 0 7 0;
#X connect 3 0 4 1;
#X connect 4 0 6 0;
#X connect 4 0 9 0;
#X connect 4 0 5 1;
#X connect 5 0 9 1;
#X connect 5 0 6 1;
#X connect 6 0 7 1;
#X connect 7 0 8 0;
#X connect 8 0 10 0;
#X connect 9 0 8 1;
#X restore 9 101 pd median_3;
#X obj 221 152 hsl 128 15 0 255 0 0 empty empty Proxi_value -2 -8 0
10 -262144 -1 -1 1046 1;
#X obj 221 183 hsl 128 15 0 1 0 0 empty empty Average_passages -2 -8
0 10 -262144 -1 -1 0 1;
#X obj 119 28 * -1;
#X obj 119 52 + 1;
#X obj 218 120 tgl 15 0 empty empty SENSOR_ACTIVE 17 7 0 10 -262144
-1 -1 0 1;
#X obj 607 100 s mouvementCri;
#X obj 213 369 s proximite;
#X floatatom 376 95 5 0 0 0 - - -, f 5;
#X obj 111 87 print;
#X obj 531 35 <= 300;
#X obj 9 78 spigot 1;
#X obj 694 179 tgl 15 0 empty empty empty 17 7 0 10 -262144 -1 -1 1
1;
#X obj 694 133 loadbang;
#X msg 694 156 1;
#X obj 496 323 average-array 10;
#X obj 537 135 metro 500;
#X msg 41 9 devices;
#X obj 9 50 comport 1 9600;
#X msg 66 25 open 1;
#X obj 119 3 r stopInput;
#X connect 0 0 3 0;
#X connect 0 0 22 0;
#X connect 0 0 28 0;
#X connect 0 1 1 0;
#X connect 1 0 2 0;
#X connect 2 0 6 0;
#X connect 2 1 3 1;
#X connect 3 0 4 0;
#X connect 3 0 6 1;
#X connect 4 0 3 1;
#X connect 6 0 5 0;
#X connect 7 0 10 0;
#X connect 9 0 10 1;
#X connect 10 0 9 0;
#X connect 10 0 11 1;
#X connect 11 0 12 0;
#X connect 12 0 14 0;
#X connect 12 0 36 0;
#X connect 13 0 10 1;
#X connect 13 1 11 0;
#X connect 16 0 17 0;
#X connect 17 0 27 0;
#X connect 17 0 10 0;
#X connect 20 0 39 0;
#X connect 21 0 0 0;
#X connect 23 0 19 0;
#X connect 24 0 25 0;
#X connect 25 0 26 0;
#X connect 29 0 31 0;
#X connect 31 0 16 0;
#X connect 32 0 21 0;
#X connect 32 0 29 0;
#X connect 33 0 37 0;
#X connect 34 0 35 0;
#X connect 35 0 33 0;
#X connect 36 0 23 0;
#X connect 37 0 13 0;
#X connect 38 0 39 0;
#X connect 39 0 30 0;
#X connect 39 0 32 0;
#X connect 40 0 39 0;
#X connect 41 0 24 0;
#X coords 0 -1 1 1 170 140 1 200 100;
