#N canvas 694 345 491 249 10;
#X obj 13 150 +;
#X obj 13 7 inlet;
#X obj 13 207 outlet;
#X obj 31 32 inlet;
#X obj 189 32 inlet;
#X text 55 7 Bang a new random value within the range;
#X text 231 32 Randomize around the fixed value;
#X text 72 33 Fixed Value;
#X obj 189 70 expr $i1*2+1;
#X obj 13 176 abs;
#X obj 31 96 - 0;
#X obj 13 124 random 0;
#X obj 42 58 t b f;
#X connect 0 0 9 0;
#X connect 1 0 11 0;
#X connect 3 0 10 0;
#X connect 4 0 8 0;
#X connect 4 0 12 0;
#X connect 8 0 11 1;
#X connect 9 0 2 0;
#X connect 10 0 0 1;
#X connect 11 0 0 0;
#X connect 12 0 10 0;
#X connect 12 1 10 1;
