#N canvas 91 23 1215 799 10;
#X obj 338 766 dac~;
#X obj 247 125 tgl 15 0 empty empty empty 17 7 0 10 -262144 -1 -1 1
1;
#X msg 247 145 \; pd dsp \$1;
#N canvas 805 282 450 300 mixer 0;
#X obj 391 42 inlet;
#X obj 103 131 *~ 0.1;
#X obj 266 133 *~ 0.1;
#X obj 241 247 outlet~;
#X obj 270 42 inlet~;
#X obj 104 40 inlet~;
#X obj 99 246 outlet~;
#X obj 321 178 env~ 16384 8192;
#X obj 321 207 != 0;
#X obj 321 236 change 0;
#X obj 321 264 s isPlaying;
#X connect 0 0 2 1;
#X connect 0 0 1 1;
#X connect 1 0 6 0;
#X connect 1 0 7 0;
#X connect 2 0 3 0;
#X connect 4 0 2 0;
#X connect 5 0 1 0;
#X connect 7 0 8 0;
#X connect 8 0 9 0;
#X connect 9 0 10 0;
#X restore 333 726 pd mixer;
#X obj 190 323 poly 4 1;
#X obj 190 386 route 1 2 3 4;
#X obj 190 356 pack 0 0 0;
#X obj 190 229 r echelleCri;
#X obj 281 229 r playEnded;
#N canvas 375 144 552 378 playOneShot 0;
#X obj 84 19 inlet;
#X obj 231 18 inlet;
#X obj 141 246 readsf~;
#X obj 84 50 unpack f f;
#X msg 168 210 open \$1;
#X obj 231 78 moses 3;
#X obj 270 110 moses 6;
#X obj 231 139 t 0;
#X obj 180 272 s playEnded;
#X obj 141 294 outlet~;
#X obj 315 291 outlet~;
#X obj 141 78 t f f;
#X obj 168 111 sel 1;
#X obj 355 140 r humeurSymbiote;
#X obj 168 188 makefilename ./samples/Volcabiote_cri_euphorie_%s.wav
;
#X obj 270 139 t 0;
#X obj 309 140 t 0;
#X obj 168 139 random 7;
#X obj 168 166 + 1;
#X connect 0 0 3 0;
#X connect 1 0 5 0;
#X connect 2 0 9 0;
#X connect 2 1 8 0;
#X connect 3 1 11 0;
#X connect 4 0 2 0;
#X connect 5 0 7 0;
#X connect 5 1 6 0;
#X connect 6 0 15 0;
#X connect 6 1 16 0;
#X connect 11 0 2 0;
#X connect 11 1 12 0;
#X connect 12 0 17 0;
#X connect 14 0 4 0;
#X connect 17 0 18 0;
#X connect 18 0 14 0;
#X restore 106 730 pd playOneShot;
#X msg 190 290 1;
#N canvas 368 287 686 380 playOneShot 0;
#X obj 84 19 inlet;
#X obj 231 18 inlet;
#X obj 84 50 unpack f f;
#X msg 168 260 open \$1;
#X obj 231 49 moses 3;
#X obj 270 81 moses 6;
#X obj 249 345 s playEnded;
#X obj 141 344 outlet~;
#X obj 199 345 outlet~;
#X obj 141 78 t f f;
#X obj 168 111 sel 1;
#X obj 168 139 random 7;
#X obj 168 194 + 1;
#X obj 231 110 t b;
#X obj 270 110 t b;
#X obj 309 110 t b;
#X obj 345 139 r humeurSymbiote;
#X msg 231 139 1;
#X msg 270 139 5;
#X msg 309 139 7;
#X msg 345 190 set \$1;
#X obj 168 237 makefilename not-set-yet;
#X obj 345 164 makefilename ./%s/Volcabiote_cri_%%d.wav;
#X obj 141 296 readsf~ 2;
#X symbolatom 359 278 35 0 0 2 Sample - -, f 35;
#X connect 0 0 2 0;
#X connect 1 0 4 0;
#X connect 2 1 9 0;
#X connect 3 0 23 0;
#X connect 4 0 13 0;
#X connect 4 1 5 0;
#X connect 5 0 14 0;
#X connect 5 1 15 0;
#X connect 9 0 23 0;
#X connect 9 1 10 0;
#X connect 10 0 11 0;
#X connect 11 0 12 0;
#X connect 12 0 21 0;
#X connect 13 0 17 0;
#X connect 14 0 18 0;
#X connect 15 0 19 0;
#X connect 16 0 22 0;
#X connect 17 0 12 1;
#X connect 18 0 12 1;
#X connect 19 0 12 1;
#X connect 20 0 21 0;
#X connect 21 0 3 0;
#X connect 21 0 24 0;
#X connect 22 0 20 0;
#X connect 23 0 7 0;
#X connect 23 1 8 0;
#X connect 23 2 6 0;
#X coords 0 -1 1 1 230 50 1 350 250;
#X restore 731 468 pd playOneShot;
#X text 334 260 Player polyphonique 4 voix: pour l'instant \, réagit
à la longueur du stimulus sonore externe., f 24;
#X obj 975 437 vsl 15 128 0 1 0 1 empty empty Main_volume 0 -9 0 10
-262144 -1 -1 8000 1;
#N canvas 551 23 776 708 humeur 0;
#X obj 95 61 r humeur_bruit;
#X obj 236 61 r humeur_mouvement;
#X obj 314 228 &&, f 4;
#X obj 224 251 <;
#X text 352 229 Hilarité;
#X obj 54 205 == 0;
#X obj 90 205 == 0;
#X obj 59 261 &&, f 4;
#X text -4 203 Timidité;
#X text 250 252 Hostilité;
#X obj 61 288 sel 1;
#X obj 162 331 sel 1;
#X obj 221 354 sel 1;
#X obj 312 351 sel 1;
#X obj 61 317 bng 15 250 50 0 empty empty empty 17 7 0 10 -262144 -1
-1;
#X obj 153 383 bng 15 250 50 0 empty empty empty 17 7 0 10 -262144
-1 -1;
#X obj 221 380 bng 15 250 50 0 empty empty empty 17 7 0 10 -262144
-1 -1;
#X obj 312 376 bng 15 250 50 0 empty empty empty 17 7 0 10 -262144
-1 -1;
#X obj 315 201 t b f;
#X obj 226 222 t b f;
#X obj 88 229 t b f;
#X floatatom 236 89 5 0 0 0 - - -, f 5;
#X obj 168 191 t b f;
#X obj 163 236 > 0;
#X floatatom 94 88 5 0 0 0 - - -, f 5;
#X msg 57 401 timide;
#X msg 153 407 serein;
#X text 129 260 Sérénité;
#X msg 221 404 hostile;
#X msg 312 404 hilare;
#X obj 248 468 symbol;
#X obj 248 497 s humeurSymbiote;
#X obj 236 116 > 0.5;
#X obj 238 143 change;
#X obj 95 115 > 50;
#X obj 95 140 change;
#X connect 0 0 24 0;
#X connect 1 0 21 0;
#X connect 2 0 13 0;
#X connect 3 0 12 0;
#X connect 5 0 7 0;
#X connect 6 0 20 0;
#X connect 7 0 10 0;
#X connect 10 0 14 0;
#X connect 11 0 15 0;
#X connect 12 0 16 0;
#X connect 13 0 17 0;
#X connect 14 0 25 0;
#X connect 15 0 26 0;
#X connect 16 0 28 0;
#X connect 17 0 29 0;
#X connect 18 0 2 0;
#X connect 18 1 2 1;
#X connect 19 0 3 0;
#X connect 19 1 3 1;
#X connect 20 0 7 0;
#X connect 20 1 7 1;
#X connect 21 0 32 0;
#X connect 22 0 23 0;
#X connect 22 1 23 1;
#X connect 23 0 11 0;
#X connect 24 0 34 0;
#X connect 25 0 30 0;
#X connect 26 0 30 0;
#X connect 28 0 30 0;
#X connect 29 0 30 0;
#X connect 30 0 31 0;
#X connect 32 0 33 0;
#X connect 33 0 6 0;
#X connect 33 0 22 0;
#X connect 33 0 19 0;
#X connect 33 0 18 0;
#X connect 34 0 35 0;
#X connect 35 0 5 0;
#X connect 35 0 3 0;
#X connect 35 0 2 0;
#X connect 35 0 23 0;
#X restore 246 87 pd humeur;
#X obj 246 35 r humeurSymbiote;
#X symbolatom 246 60 10 0 0 0 - - -, f 10;
#X obj 190 261 t b b f;
#X msg 218 290 1;
#X obj 281 261 t b b;
#X msg 281 288 1;
#X msg 308 306 0;
#N canvas 360 180 717 444 adc-monitor 0;
#X obj 9 22 adc~;
#X obj 9 53 env~ 16384 8192;
#X floatatom 9 103 5 0 0 0 - - -, f 5;
#X text 21 164 Moyenne du volume sur n mesures, f 11;
#X obj 489 86 tgl 15 0 empty empty empty 17 7 0 10 -262144 -1 -1 0
1;
#X obj 489 186 f 1;
#X obj 489 112 moses 1;
#X floatatom 489 222 5 0 0 0 - - -, f 5;
#X obj 526 186 + 1;
#X obj 489 153 metro 500;
#X obj 424 133 t b 0 1;
#X obj 424 237 f;
#X text 553 148 Calcule le temps passé au dessus d'un seuil pour avoir
une réponse adéquate (cri/murmure/etc.), f 26;
#X obj 489 34 >= 70;
#X obj 489 56 change;
#X obj 218 218 hradio 15 1 0 8 empty empty Echelle_de_cri 0 -8 0 10
-262144 -1 -1 0;
#X obj 9 78 spigot 1;
#X obj 423 271 s echelleCri;
#X obj 119 28 * -1;
#X obj 119 52 + 1;
#X obj 119 3 r isPlaying;
#X obj 102 185 s humeur_bruit;
#X obj 218 120 tgl 15 0 empty empty ADC_ACTIVE 17 7 0 10 -262144 -1
-1 1 1;
#X obj 9 133 average-array 50;
#X obj 221 154 hsl 128 15 0 100 0 0 empty empty Enveloppe_follower
-2 -8 0 10 -262144 -1 -1 7134 1;
#X obj 221 185 hsl 128 15 0 100 0 0 empty empty Noise_average -2 -8
0 10 -262144 -1 -1 6465 1;
#X connect 0 0 1 0;
#X connect 1 0 16 0;
#X connect 2 0 13 0;
#X connect 2 0 23 0;
#X connect 2 0 24 0;
#X connect 4 0 6 0;
#X connect 5 0 7 0;
#X connect 5 0 8 0;
#X connect 6 0 10 0;
#X connect 6 1 9 0;
#X connect 7 0 11 1;
#X connect 8 0 5 1;
#X connect 9 0 5 0;
#X connect 10 0 11 0;
#X connect 10 1 9 0;
#X connect 10 2 5 1;
#X connect 11 0 15 0;
#X connect 13 0 14 0;
#X connect 14 0 4 0;
#X connect 15 0 17 0;
#X connect 16 0 2 0;
#X connect 18 0 19 0;
#X connect 19 0 16 1;
#X connect 19 0 22 0;
#X connect 20 0 18 0;
#X connect 23 0 25 0;
#X connect 25 0 21 0;
#X coords 0 -1 1 1 170 140 1 200 100;
#X restore 68 35 pd adc-monitor;
#N canvas 527 60 808 718 movement-monitor 0;
#X obj 9 128 t f f;
#X obj 36 160 match 100 254;
#X obj 36 186 t b b;
#X obj 9 237 list prepend;
#X obj 78 209 t l;
#X obj -60 288 list split 1;
#X obj -60 262 list prepend;
#X obj 511 83 bng 15 250 50 0 empty empty empty 17 7 0 10 -262144 -1
-1;
#X obj 538 133 del 1000;
#X obj 527 271 bng 15 250 50 0 empty empty empty 17 7 0 10 -262144
-1 -1;
#X obj 511 109 t b b;
#X obj 548 217 + 1;
#X obj 511 217 f;
#X obj 496 256 f;
#X floatatom 496 290 5 0 0 0 - - -, f 5;
#X obj 538 158 t 1 b;
#X obj 219 217 hradio 15 1 0 8 empty empty Echelle_de_cri 0 -8 0 10
-262144 -1 -1 0;
#X text 579 215 Nombre de passages dans un temps court vers le symbiote.
, f 18;
#X obj 531 57 change;
#X obj 531 81 sel 1;
#X text 81 314 Moyenne de mouvement sur n mesures, f 11;
#X obj -26 379 s humeur_mouvement;
#X msg 9 25 close;
#N canvas 1584 441 450 300 median_3 0;
#X obj 76 51 inlet;
#X obj 76 81 f;
#X obj 76 126 t f b b;
#X obj 78 169 f;
#X obj 103 169 f;
#X obj 129 169 f;
#X obj 93 200 min;
#X obj 78 220 max;
#X obj 78 242 min;
#X obj 123 200 max;
#X obj 78 265 outlet;
#X connect 0 0 1 0;
#X connect 1 0 2 0;
#X connect 2 0 3 0;
#X connect 2 1 4 0;
#X connect 2 2 5 0;
#X connect 3 0 7 0;
#X connect 3 0 4 1;
#X connect 4 0 6 0;
#X connect 4 0 9 0;
#X connect 4 0 5 1;
#X connect 5 0 9 1;
#X connect 5 0 6 1;
#X connect 6 0 7 1;
#X connect 7 0 8 0;
#X connect 8 0 10 0;
#X connect 9 0 8 1;
#X restore 9 101 pd median_3;
#X obj 9 50 comport 2 9600;
#X obj 531 35 <= 100;
#X obj 496 352 s echelleCri;
#X obj -26 318 average-array 50;
#X obj 221 152 hsl 128 15 0 255 0 0 empty empty Movement_follower -2
-8 0 10 -262144 -1 -1 0 1;
#X obj 221 183 hsl 128 15 0 1 0 0 empty empty Average_movement -2 -8
0 10 -262144 -1 -1 0 1;
#X obj 9 78 spigot 1;
#X obj 119 28 * -1;
#X obj 119 52 + 1;
#X obj 119 3 r isPlaying;
#X obj 218 120 tgl 15 0 empty empty SENSOR_ACTIVE 17 7 0 10 -262144
-1 -1 1 1;
#X connect 0 0 3 0;
#X connect 0 0 25 0;
#X connect 0 0 28 0;
#X connect 0 1 1 0;
#X connect 1 0 2 0;
#X connect 2 0 6 0;
#X connect 2 1 3 1;
#X connect 3 0 4 0;
#X connect 3 0 6 1;
#X connect 4 0 3 1;
#X connect 5 1 27 0;
#X connect 6 0 5 0;
#X connect 7 0 10 0;
#X connect 8 0 15 0;
#X connect 10 0 12 0;
#X connect 10 1 8 0;
#X connect 11 0 12 1;
#X connect 12 0 11 0;
#X connect 12 0 13 1;
#X connect 13 0 14 0;
#X connect 14 0 16 0;
#X connect 15 0 12 1;
#X connect 15 1 13 0;
#X connect 16 0 26 0;
#X connect 18 0 19 0;
#X connect 19 0 10 0;
#X connect 22 0 24 0;
#X connect 23 0 0 0;
#X connect 24 0 30 0;
#X connect 25 0 18 0;
#X connect 27 0 29 0;
#X connect 29 0 21 0;
#X connect 30 0 23 0;
#X connect 31 0 32 0;
#X connect 32 0 30 1;
#X connect 32 0 34 0;
#X connect 33 0 31 0;
#X coords 0 -1 1 1 170 140 1 200 100;
#X restore 358 35 pd movement-monitor;
#N canvas 368 287 686 380 playOneShot 0;
#X obj 84 19 inlet;
#X obj 231 18 inlet;
#X obj 84 50 unpack f f;
#X msg 168 260 open \$1;
#X obj 231 49 moses 3;
#X obj 270 81 moses 6;
#X obj 249 345 s playEnded;
#X obj 141 344 outlet~;
#X obj 199 345 outlet~;
#X obj 141 78 t f f;
#X obj 168 111 sel 1;
#X obj 168 139 random 7;
#X obj 168 194 + 1;
#X obj 231 110 t b;
#X obj 270 110 t b;
#X obj 309 110 t b;
#X obj 345 139 r humeurSymbiote;
#X msg 231 139 1;
#X msg 270 139 5;
#X msg 309 139 7;
#X msg 345 190 set \$1;
#X obj 168 237 makefilename not-set-yet;
#X obj 345 164 makefilename ./%s/Volcabiote_cri_%%d.wav;
#X obj 141 296 readsf~ 2;
#X symbolatom 359 278 35 0 0 2 Sample - -, f 35;
#X connect 0 0 2 0;
#X connect 1 0 4 0;
#X connect 2 1 9 0;
#X connect 3 0 23 0;
#X connect 4 0 13 0;
#X connect 4 1 5 0;
#X connect 5 0 14 0;
#X connect 5 1 15 0;
#X connect 9 0 23 0;
#X connect 9 1 10 0;
#X connect 10 0 11 0;
#X connect 11 0 12 0;
#X connect 12 0 21 0;
#X connect 13 0 17 0;
#X connect 14 0 18 0;
#X connect 15 0 19 0;
#X connect 16 0 22 0;
#X connect 17 0 12 1;
#X connect 18 0 12 1;
#X connect 19 0 12 1;
#X connect 20 0 21 0;
#X connect 21 0 3 0;
#X connect 21 0 24 0;
#X connect 22 0 20 0;
#X connect 23 0 7 0;
#X connect 23 1 8 0;
#X connect 23 2 6 0;
#X coords 0 -1 1 1 230 50 1 350 250;
#X restore 499 468 pd playOneShot;
#N canvas 368 287 686 380 playOneShot 0;
#X obj 84 19 inlet;
#X obj 231 18 inlet;
#X obj 84 50 unpack f f;
#X msg 168 260 open \$1;
#X obj 231 49 moses 3;
#X obj 270 81 moses 6;
#X obj 249 345 s playEnded;
#X obj 141 344 outlet~;
#X obj 199 345 outlet~;
#X obj 141 78 t f f;
#X obj 168 111 sel 1;
#X obj 168 139 random 7;
#X obj 168 194 + 1;
#X obj 231 110 t b;
#X obj 270 110 t b;
#X obj 309 110 t b;
#X obj 345 139 r humeurSymbiote;
#X msg 231 139 1;
#X msg 270 139 5;
#X msg 309 139 7;
#X msg 345 190 set \$1;
#X obj 168 237 makefilename not-set-yet;
#X obj 345 164 makefilename ./%s/Volcabiote_cri_%%d.wav;
#X obj 141 296 readsf~ 2;
#X symbolatom 359 278 35 0 0 2 Sample - -, f 35;
#X connect 0 0 2 0;
#X connect 1 0 4 0;
#X connect 2 1 9 0;
#X connect 3 0 23 0;
#X connect 4 0 13 0;
#X connect 4 1 5 0;
#X connect 5 0 14 0;
#X connect 5 1 15 0;
#X connect 9 0 23 0;
#X connect 9 1 10 0;
#X connect 10 0 11 0;
#X connect 11 0 12 0;
#X connect 12 0 21 0;
#X connect 13 0 17 0;
#X connect 14 0 18 0;
#X connect 15 0 19 0;
#X connect 16 0 22 0;
#X connect 17 0 12 1;
#X connect 18 0 12 1;
#X connect 19 0 12 1;
#X connect 20 0 21 0;
#X connect 21 0 3 0;
#X connect 21 0 24 0;
#X connect 22 0 20 0;
#X connect 23 0 7 0;
#X connect 23 1 8 0;
#X connect 23 2 6 0;
#X coords 0 -1 1 1 230 50 1 350 250;
#X restore 267 468 pd playOneShot;
#N canvas 368 287 686 380 playOneShot 0;
#X obj 84 19 inlet;
#X obj 231 18 inlet;
#X obj 84 50 unpack f f;
#X msg 168 260 open \$1;
#X obj 231 49 moses 3;
#X obj 270 81 moses 6;
#X obj 249 345 s playEnded;
#X obj 141 344 outlet~;
#X obj 199 345 outlet~;
#X obj 141 78 t f f;
#X obj 168 111 sel 1;
#X obj 168 139 random 7;
#X obj 168 194 + 1;
#X obj 231 110 t b;
#X obj 270 110 t b;
#X obj 309 110 t b;
#X obj 345 139 r humeurSymbiote;
#X msg 231 139 1;
#X msg 270 139 5;
#X msg 309 139 7;
#X msg 345 190 set \$1;
#X obj 168 237 makefilename not-set-yet;
#X obj 345 164 makefilename ./%s/Volcabiote_cri_%%d.wav;
#X obj 141 296 readsf~ 2;
#X symbolatom 359 278 35 0 0 2 Sample - -, f 35;
#X connect 0 0 2 0;
#X connect 1 0 4 0;
#X connect 2 1 9 0;
#X connect 3 0 23 0;
#X connect 4 0 13 0;
#X connect 4 1 5 0;
#X connect 5 0 14 0;
#X connect 5 1 15 0;
#X connect 9 0 23 0;
#X connect 9 1 10 0;
#X connect 10 0 11 0;
#X connect 11 0 12 0;
#X connect 12 0 21 0;
#X connect 13 0 17 0;
#X connect 14 0 18 0;
#X connect 15 0 19 0;
#X connect 16 0 22 0;
#X connect 17 0 12 1;
#X connect 18 0 12 1;
#X connect 19 0 12 1;
#X connect 20 0 21 0;
#X connect 21 0 3 0;
#X connect 21 0 24 0;
#X connect 22 0 20 0;
#X connect 23 0 7 0;
#X connect 23 1 8 0;
#X connect 23 2 6 0;
#X coords 0 -1 1 1 230 50 1 350 250;
#X restore 35 468 pd playOneShot;
#N canvas 138 215 450 300 choix 0;
#X obj 49 30 r humeurSymbiote;
#X obj 49 74 sel timide serein hilare hostile;
#X obj 49 122 bng 15 250 50 0 empty empty empty 17 7 0 10 -262144 -1
-1;
#X obj 96 122 bng 15 250 50 0 empty empty empty 17 7 0 10 -262144 -1
-1;
#X obj 143 123 bng 15 250 50 0 empty empty empty 17 7 0 10 -262144
-1 -1;
#X obj 190 122 bng 15 250 50 0 empty empty empty 17 7 0 10 -262144
-1 -1;
#X connect 0 0 1 0;
#X connect 1 0 2 0;
#X connect 1 1 3 0;
#X connect 1 2 4 0;
#X connect 1 3 5 0;
#X restore 843 125 pd choix;
#X obj 774 248 metro;
#X obj 774 283 t b b;
#X obj 801 312 random 100;
#X connect 1 0 2 0;
#X connect 3 0 0 0;
#X connect 3 1 0 1;
#X connect 4 0 6 0;
#X connect 4 1 6 1;
#X connect 4 2 6 2;
#X connect 5 0 26 0;
#X connect 5 1 25 0;
#X connect 5 2 24 0;
#X connect 5 3 11 0;
#X connect 6 0 5 0;
#X connect 7 0 17 0;
#X connect 8 0 19 0;
#X connect 10 0 4 0;
#X connect 11 0 3 0;
#X connect 11 1 3 1;
#X connect 13 0 3 2;
#X connect 15 0 16 0;
#X connect 17 0 10 0;
#X connect 17 1 18 0;
#X connect 17 2 11 1;
#X connect 17 2 24 1;
#X connect 17 2 25 1;
#X connect 17 2 26 1;
#X connect 18 0 4 1;
#X connect 19 0 20 0;
#X connect 19 1 21 0;
#X connect 20 0 4 0;
#X connect 21 0 4 1;
#X connect 24 0 3 0;
#X connect 24 1 3 1;
#X connect 25 0 3 0;
#X connect 25 1 3 1;
#X connect 26 0 3 0;
#X connect 26 1 3 1;
#X connect 28 0 29 0;
#X connect 29 1 30 0;
#X connect 30 0 28 1;
