#N canvas 91 23 1215 799 10;
#X obj 338 766 dac~;
#X obj 247 125 tgl 15 0 empty empty empty 17 7 0 10 -262144 -1 -1 1
1;
#X msg 247 145 \; pd dsp \$1;
#N canvas 805 282 450 300 mixer 0;
#X obj 391 42 inlet;
#X obj 103 131 *~ 0.1;
#X obj 266 133 *~ 0.1;
#X obj 241 247 outlet~;
#X obj 270 42 inlet~;
#X obj 104 40 inlet~;
#X obj 99 246 outlet~;
#X obj 321 178 env~ 16384 8192;
#X obj 321 207 != 0;
#X obj 321 236 change 0;
#X obj 321 264 s isPlaying;
#X connect 0 0 2 1;
#X connect 0 0 1 1;
#X connect 1 0 6 0;
#X connect 1 0 7 0;
#X connect 2 0 3 0;
#X connect 4 0 2 0;
#X connect 5 0 1 0;
#X connect 7 0 8 0;
#X connect 8 0 9 0;
#X connect 9 0 10 0;
#X restore 333 726 pd mixer;
#X obj 190 323 poly 4 1;
#X obj 190 386 route 1 2 3 4;
#X obj 190 356 pack 0 0 0;
#X obj 281 229 r playEnded;
#N canvas 375 144 552 378 playOneShot 0;
#X obj 84 19 inlet;
#X obj 231 18 inlet;
#X obj 141 246 readsf~;
#X obj 84 50 unpack f f;
#X msg 168 210 open \$1;
#X obj 231 78 moses 3;
#X obj 270 110 moses 6;
#X obj 231 139 t 0;
#X obj 180 272 s playEnded;
#X obj 141 294 outlet~;
#X obj 315 291 outlet~;
#X obj 141 78 t f f;
#X obj 168 111 sel 1;
#X obj 355 140 r humeurSymbiote;
#X obj 168 188 makefilename ./samples/Volcabiote_cri_euphorie_%s.wav
;
#X obj 270 139 t 0;
#X obj 309 140 t 0;
#X obj 168 139 random 7;
#X obj 168 166 + 1;
#X connect 0 0 3 0;
#X connect 1 0 5 0;
#X connect 2 0 9 0;
#X connect 2 1 8 0;
#X connect 3 1 11 0;
#X connect 4 0 2 0;
#X connect 5 0 7 0;
#X connect 5 1 6 0;
#X connect 6 0 15 0;
#X connect 6 1 16 0;
#X connect 11 0 2 0;
#X connect 11 1 12 0;
#X connect 12 0 17 0;
#X connect 14 0 4 0;
#X connect 17 0 18 0;
#X connect 18 0 14 0;
#X restore 106 730 pd playOneShot;
#X msg 190 290 1;
#N canvas 368 287 686 380 playOneShot 0;
#X obj 84 19 inlet;
#X obj 231 18 inlet;
#X obj 84 50 unpack f f;
#X msg 168 260 open \$1;
#X obj 231 49 moses 3;
#X obj 270 81 moses 6;
#X obj 249 345 s playEnded;
#X obj 141 344 outlet~;
#X obj 199 345 outlet~;
#X obj 141 78 t f f;
#X obj 168 111 sel 1;
#X obj 168 139 random 7;
#X obj 168 194 + 1;
#X obj 231 110 t b;
#X obj 270 110 t b;
#X obj 309 110 t b;
#X obj 345 139 r humeurSymbiote;
#X msg 231 139 1;
#X msg 270 139 5;
#X msg 309 139 7;
#X msg 345 190 set \$1;
#X obj 168 237 makefilename not-set-yet;
#X obj 141 296 readsf~ 2;
#X symbolatom 359 278 35 0 0 2 Sample - -, f 35;
#X obj 345 164 makefilename ./%s/cri_%%d.wav;
#X connect 0 0 2 0;
#X connect 1 0 4 0;
#X connect 2 1 9 0;
#X connect 3 0 22 0;
#X connect 4 0 13 0;
#X connect 4 1 5 0;
#X connect 5 0 14 0;
#X connect 5 1 15 0;
#X connect 9 0 22 0;
#X connect 9 1 10 0;
#X connect 10 0 11 0;
#X connect 11 0 12 0;
#X connect 12 0 21 0;
#X connect 13 0 17 0;
#X connect 14 0 18 0;
#X connect 15 0 19 0;
#X connect 16 0 24 0;
#X connect 17 0 12 1;
#X connect 18 0 12 1;
#X connect 19 0 12 1;
#X connect 20 0 21 0;
#X connect 21 0 3 0;
#X connect 21 0 23 0;
#X connect 22 0 7 0;
#X connect 22 1 8 0;
#X connect 22 2 6 0;
#X connect 24 0 20 0;
#X coords 0 -1 1 1 230 50 1 350 250;
#X restore 731 468 pd playOneShot;
#X text 334 260 Player polyphonique 4 voix: pour l'instant \, réagit
à la longueur du stimulus sonore externe., f 24;
#X obj 975 437 vsl 15 128 0 1 0 1 empty empty Main_volume 0 -9 0 10
-262144 -1 -1 8000 1;
#N canvas 551 23 776 708 humeur 0;
#X obj 95 61 r humeur_bruit;
#X obj 236 61 r humeur_mouvement;
#X text 352 229 Hilarité;
#X obj 54 205 == 0;
#X obj 90 205 == 0;
#X obj 59 261 &&, f 4;
#X text 250 252 Hostilité;
#X obj 61 288 sel 1;
#X obj 162 331 sel 1;
#X obj 221 354 sel 1;
#X obj 312 351 sel 1;
#X obj 61 317 bng 15 250 50 0 empty empty empty 17 7 0 10 -262144 -1
-1;
#X obj 153 383 bng 15 250 50 0 empty empty empty 17 7 0 10 -262144
-1 -1;
#X obj 221 380 bng 15 250 50 0 empty empty empty 17 7 0 10 -262144
-1 -1;
#X obj 312 376 bng 15 250 50 0 empty empty empty 17 7 0 10 -262144
-1 -1;
#X obj 315 201 t b f;
#X obj 226 222 t b f;
#X obj 88 229 t b f;
#X floatatom 236 89 5 0 0 0 - - -, f 5;
#X obj 168 191 t b f;
#X floatatom 94 88 5 0 0 0 - - -, f 5;
#X msg 221 404 hostile;
#X msg 312 404 hilare;
#X obj 248 468 symbol;
#X obj 248 497 s humeurSymbiote;
#X obj 236 116 > 0.5;
#X obj 238 143 change;
#X obj 95 115 > 50;
#X obj 95 140 change;
#X obj 224 251 &&;
#X obj 314 228 >, f 4;
#X obj 163 236 <;
#X text 129 260 Timidité;
#X msg 153 407 timide;
#X msg 57 401 serein;
#X text -4 203 Sérénité;
#X connect 0 0 20 0;
#X connect 1 0 18 0;
#X connect 3 0 5 0;
#X connect 4 0 17 0;
#X connect 5 0 7 0;
#X connect 7 0 11 0;
#X connect 8 0 12 0;
#X connect 9 0 13 0;
#X connect 10 0 14 0;
#X connect 11 0 34 0;
#X connect 12 0 33 0;
#X connect 13 0 21 0;
#X connect 14 0 22 0;
#X connect 15 0 30 0;
#X connect 15 1 30 1;
#X connect 16 0 29 0;
#X connect 16 1 29 1;
#X connect 17 0 5 0;
#X connect 17 1 5 1;
#X connect 18 0 25 0;
#X connect 19 0 31 0;
#X connect 19 1 31 1;
#X connect 20 0 27 0;
#X connect 21 0 23 0;
#X connect 22 0 23 0;
#X connect 23 0 24 0;
#X connect 25 0 26 0;
#X connect 26 0 4 0;
#X connect 26 0 19 0;
#X connect 26 0 16 0;
#X connect 26 0 15 0;
#X connect 27 0 28 0;
#X connect 28 0 3 0;
#X connect 28 0 29 0;
#X connect 28 0 30 0;
#X connect 28 0 31 0;
#X connect 29 0 9 0;
#X connect 30 0 10 0;
#X connect 31 0 8 0;
#X connect 33 0 23 0;
#X connect 34 0 23 0;
#X restore 246 87 pd humeur;
#X obj 246 35 r humeurSymbiote;
#X symbolatom 246 60 10 0 0 0 - - -, f 10;
#X obj 190 261 t b b f;
#X msg 218 290 1;
#X obj 281 261 t b b;
#X msg 281 288 1;
#X msg 308 306 0;
#N canvas 360 180 717 444 adc-monitor 0;
#X obj 9 22 adc~;
#X obj 9 53 env~ 16384 8192;
#X floatatom 9 103 5 0 0 0 - - -, f 5;
#X text 21 164 Moyenne du volume sur n mesures, f 11;
#X obj 489 86 tgl 15 0 empty empty empty 17 7 0 10 -262144 -1 -1 0
1;
#X obj 489 186 f 1;
#X obj 489 112 moses 1;
#X floatatom 489 222 5 0 0 0 - - -, f 5;
#X obj 526 186 + 1;
#X obj 489 153 metro 500;
#X obj 424 133 t b 0 1;
#X obj 424 237 f;
#X text 553 148 Calcule le temps passé au dessus d'un seuil pour avoir
une réponse adéquate (cri/murmure/etc.), f 26;
#X obj 489 34 >= 70;
#X obj 489 56 change;
#X obj 218 218 hradio 15 1 0 8 empty empty Echelle_de_cri 0 -8 0 10
-262144 -1 -1 1;
#X obj 9 78 spigot 1;
#X obj 423 271 s echelleCri;
#X obj 119 28 * -1;
#X obj 119 52 + 1;
#X obj 119 3 r isPlaying;
#X obj 102 185 s humeur_bruit;
#X obj 218 120 tgl 15 0 empty empty ADC_ACTIVE 17 7 0 10 -262144 -1
-1 1 1;
#X obj 9 133 average-array 50;
#X obj 221 154 hsl 128 15 0 100 0 0 empty empty Enveloppe_follower
-2 -8 0 10 -262144 -1 -1 6535 1;
#X obj 221 185 hsl 128 15 0 100 0 0 empty empty Noise_average -2 -8
0 10 -262144 -1 -1 7153 1;
#X connect 0 0 1 0;
#X connect 1 0 16 0;
#X connect 2 0 13 0;
#X connect 2 0 23 0;
#X connect 2 0 24 0;
#X connect 4 0 6 0;
#X connect 5 0 7 0;
#X connect 5 0 8 0;
#X connect 6 0 10 0;
#X connect 6 1 9 0;
#X connect 7 0 11 1;
#X connect 8 0 5 1;
#X connect 9 0 5 0;
#X connect 10 0 11 0;
#X connect 10 1 9 0;
#X connect 10 2 5 1;
#X connect 11 0 15 0;
#X connect 13 0 14 0;
#X connect 14 0 4 0;
#X connect 15 0 17 0;
#X connect 16 0 2 0;
#X connect 18 0 19 0;
#X connect 19 0 16 1;
#X connect 19 0 22 0;
#X connect 20 0 18 0;
#X connect 23 0 25 0;
#X connect 25 0 21 0;
#X coords 0 -1 1 1 170 140 1 200 100;
#X restore 68 35 pd adc-monitor;
#N canvas 527 60 808 718 movement-monitor 0;
#X obj 9 128 t f f;
#X obj 36 160 match 100 254;
#X obj 36 186 t b b;
#X obj 9 237 list prepend;
#X obj 78 209 t l;
#X obj -60 288 list split 1;
#X obj -60 262 list prepend;
#X obj 511 83 bng 15 250 50 0 empty empty empty 17 7 0 10 -262144 -1
-1;
#X obj 527 271 bng 15 250 50 0 empty empty empty 17 7 0 10 -262144
-1 -1;
#X obj 548 217 + 1;
#X obj 511 217 f;
#X obj 496 256 f;
#X floatatom 496 290 5 0 0 0 - - -, f 5;
#X obj 538 158 t 1 b;
#X obj 219 217 hradio 15 1 0 8 empty empty Snapshots_passages 0 -8
0 10 -262144 -1 -1 0;
#X text 579 215 Nombre de passages dans un temps court vers le symbiote.
, f 18;
#X obj 531 57 change;
#X obj 531 81 sel 1;
#X text 81 314 Moyenne de mouvement sur n mesures, f 11;
#X obj -26 379 s humeur_mouvement;
#X msg 9 25 close;
#N canvas 144 441 450 300 median_3 0;
#X obj 76 51 inlet;
#X obj 76 81 f;
#X obj 76 126 t f b b;
#X obj 78 169 f;
#X obj 103 169 f;
#X obj 129 169 f;
#X obj 93 200 min;
#X obj 78 220 max;
#X obj 78 242 min;
#X obj 123 200 max;
#X obj 78 265 outlet;
#X connect 0 0 1 0;
#X connect 1 0 2 0;
#X connect 2 0 3 0;
#X connect 2 1 4 0;
#X connect 2 2 5 0;
#X connect 3 0 7 0;
#X connect 3 0 4 1;
#X connect 4 0 6 0;
#X connect 4 0 9 0;
#X connect 4 0 5 1;
#X connect 5 0 9 1;
#X connect 5 0 6 1;
#X connect 6 0 7 1;
#X connect 7 0 8 0;
#X connect 8 0 10 0;
#X connect 9 0 8 1;
#X restore 9 101 pd median_3;
#X obj 221 152 hsl 128 15 0 255 0 0 empty empty Proxi_value -2 -8 0
10 -262144 -1 -1 12700 1;
#X obj 221 183 hsl 128 15 0 1 0 0 empty empty Average_passages -2 -8
0 10 -262144 -1 -1 0 1;
#X obj 119 28 * -1;
#X obj 119 52 + 1;
#X obj 119 3 r isPlaying;
#X obj 218 120 tgl 15 0 empty empty SENSOR_ACTIVE 17 7 0 10 -262144
-1 -1 1 1;
#X obj 607 100 s mouvementCri;
#X obj 213 369 s proximite;
#X floatatom 376 95 5 0 0 0 - - -, f 5;
#X obj 9 50 comport 2 9600;
#X obj 111 87 print;
#X msg 66 25 open 2;
#X obj 219 16 r simuProxy;
#X obj 531 35 <= 300;
#X obj 9 78 spigot 1;
#X obj 694 179 tgl 15 0 empty empty empty 17 7 0 10 -262144 -1 -1 1
1;
#X obj 694 133 loadbang;
#X msg 694 156 1;
#X obj 496 323 average-array 10;
#X obj 537 135 metro 500;
#X connect 0 0 3 0;
#X connect 0 0 22 0;
#X connect 0 0 29 0;
#X connect 0 1 1 0;
#X connect 1 0 2 0;
#X connect 2 0 6 0;
#X connect 2 1 3 1;
#X connect 3 0 4 0;
#X connect 3 0 6 1;
#X connect 4 0 3 1;
#X connect 6 0 5 0;
#X connect 7 0 10 0;
#X connect 9 0 10 1;
#X connect 10 0 9 0;
#X connect 10 0 11 1;
#X connect 11 0 12 0;
#X connect 12 0 14 0;
#X connect 12 0 40 0;
#X connect 13 0 10 1;
#X connect 13 1 11 0;
#X connect 16 0 17 0;
#X connect 17 0 28 0;
#X connect 17 0 10 0;
#X connect 20 0 31 0;
#X connect 21 0 0 0;
#X connect 23 0 19 0;
#X connect 24 0 25 0;
#X connect 25 0 27 0;
#X connect 26 0 24 0;
#X connect 30 0 35 0;
#X connect 31 0 32 0;
#X connect 31 0 36 0;
#X connect 33 0 31 0;
#X connect 34 0 36 0;
#X connect 35 0 16 0;
#X connect 36 0 21 0;
#X connect 36 0 30 0;
#X connect 37 0 41 0;
#X connect 38 0 39 0;
#X connect 39 0 37 0;
#X connect 40 0 23 0;
#X connect 41 0 13 0;
#X coords 0 -1 1 1 170 140 1 200 100;
#X restore 358 35 pd movement-monitor;
#N canvas 368 287 686 380 playOneShot 0;
#X obj 84 19 inlet;
#X obj 231 18 inlet;
#X obj 84 50 unpack f f;
#X msg 168 260 open \$1;
#X obj 231 49 moses 3;
#X obj 270 81 moses 6;
#X obj 249 345 s playEnded;
#X obj 141 344 outlet~;
#X obj 199 345 outlet~;
#X obj 141 78 t f f;
#X obj 168 111 sel 1;
#X obj 168 139 random 7;
#X obj 168 194 + 1;
#X obj 231 110 t b;
#X obj 270 110 t b;
#X obj 309 110 t b;
#X obj 345 139 r humeurSymbiote;
#X msg 231 139 1;
#X msg 270 139 5;
#X msg 309 139 7;
#X msg 345 190 set \$1;
#X obj 168 237 makefilename not-set-yet;
#X obj 141 296 readsf~ 2;
#X symbolatom 359 278 35 0 0 2 Sample - -, f 35;
#X obj 345 164 makefilename ./%s/cri_%%d.wav;
#X connect 0 0 2 0;
#X connect 1 0 4 0;
#X connect 2 1 9 0;
#X connect 3 0 22 0;
#X connect 4 0 13 0;
#X connect 4 1 5 0;
#X connect 5 0 14 0;
#X connect 5 1 15 0;
#X connect 9 0 22 0;
#X connect 9 1 10 0;
#X connect 10 0 11 0;
#X connect 11 0 12 0;
#X connect 12 0 21 0;
#X connect 13 0 17 0;
#X connect 14 0 18 0;
#X connect 15 0 19 0;
#X connect 16 0 24 0;
#X connect 17 0 12 1;
#X connect 18 0 12 1;
#X connect 19 0 12 1;
#X connect 20 0 21 0;
#X connect 21 0 3 0;
#X connect 21 0 23 0;
#X connect 22 0 7 0;
#X connect 22 1 8 0;
#X connect 22 2 6 0;
#X connect 24 0 20 0;
#X coords 0 -1 1 1 230 50 1 350 250;
#X restore 499 469 pd playOneShot;
#N canvas 368 287 686 380 playOneShot 0;
#X obj 84 19 inlet;
#X obj 231 18 inlet;
#X obj 84 50 unpack f f;
#X msg 168 260 open \$1;
#X obj 231 49 moses 3;
#X obj 270 81 moses 6;
#X obj 249 345 s playEnded;
#X obj 141 344 outlet~;
#X obj 199 345 outlet~;
#X obj 141 78 t f f;
#X obj 168 111 sel 1;
#X obj 168 139 random 7;
#X obj 168 194 + 1;
#X obj 231 110 t b;
#X obj 270 110 t b;
#X obj 309 110 t b;
#X obj 345 139 r humeurSymbiote;
#X msg 231 139 1;
#X msg 270 139 5;
#X msg 309 139 7;
#X msg 345 190 set \$1;
#X obj 168 237 makefilename not-set-yet;
#X obj 141 296 readsf~ 2;
#X symbolatom 359 278 35 0 0 2 Sample - -, f 35;
#X obj 345 164 makefilename ./%s/cri_%%d.wav;
#X connect 0 0 2 0;
#X connect 1 0 4 0;
#X connect 2 1 9 0;
#X connect 3 0 22 0;
#X connect 4 0 13 0;
#X connect 4 1 5 0;
#X connect 5 0 14 0;
#X connect 5 1 15 0;
#X connect 9 0 22 0;
#X connect 9 1 10 0;
#X connect 10 0 11 0;
#X connect 11 0 12 0;
#X connect 12 0 21 0;
#X connect 13 0 17 0;
#X connect 14 0 18 0;
#X connect 15 0 19 0;
#X connect 16 0 24 0;
#X connect 17 0 12 1;
#X connect 18 0 12 1;
#X connect 19 0 12 1;
#X connect 20 0 21 0;
#X connect 21 0 3 0;
#X connect 21 0 23 0;
#X connect 22 0 7 0;
#X connect 22 1 8 0;
#X connect 22 2 6 0;
#X connect 24 0 20 0;
#X coords 0 -1 1 1 230 50 1 350 250;
#X restore 267 468 pd playOneShot;
#N canvas 368 287 686 380 playOneShot 0;
#X obj 84 19 inlet;
#X obj 231 18 inlet;
#X obj 84 50 unpack f f;
#X msg 168 260 open \$1;
#X obj 231 49 moses 3;
#X obj 270 81 moses 6;
#X obj 249 345 s playEnded;
#X obj 141 344 outlet~;
#X obj 199 345 outlet~;
#X obj 141 78 t f f;
#X obj 168 111 sel 1;
#X obj 168 139 random 7;
#X obj 168 194 + 1;
#X obj 231 110 t b;
#X obj 270 110 t b;
#X obj 309 110 t b;
#X obj 345 139 r humeurSymbiote;
#X msg 231 139 1;
#X msg 270 139 5;
#X msg 309 139 7;
#X msg 345 190 set \$1;
#X obj 168 237 makefilename not-set-yet;
#X obj 141 296 readsf~ 2;
#X symbolatom 359 278 35 0 0 2 Sample - -, f 35;
#X obj 345 164 makefilename ./%s/cri_%%d.wav;
#X connect 0 0 2 0;
#X connect 1 0 4 0;
#X connect 2 1 9 0;
#X connect 3 0 22 0;
#X connect 4 0 13 0;
#X connect 4 1 5 0;
#X connect 5 0 14 0;
#X connect 5 1 15 0;
#X connect 9 0 22 0;
#X connect 9 1 10 0;
#X connect 10 0 11 0;
#X connect 11 0 12 0;
#X connect 12 0 21 0;
#X connect 13 0 17 0;
#X connect 14 0 18 0;
#X connect 15 0 19 0;
#X connect 16 0 24 0;
#X connect 17 0 12 1;
#X connect 18 0 12 1;
#X connect 19 0 12 1;
#X connect 20 0 21 0;
#X connect 21 0 3 0;
#X connect 21 0 23 0;
#X connect 22 0 7 0;
#X connect 22 1 8 0;
#X connect 22 2 6 0;
#X connect 24 0 20 0;
#X coords 0 -1 1 1 230 50 1 350 250;
#X restore 35 468 pd playOneShot;
#N canvas 207 112 1050 598 choix 1;
#X obj 49 30 r humeurSymbiote;
#X obj 49 74 sel timide serein hilare hostile;
#X obj 49 102 bng 15 250 50 0 empty empty empty 17 7 0 10 -262144 -1
-1;
#X obj 96 102 bng 15 250 50 0 empty empty empty 17 7 0 10 -262144 -1
-1;
#X obj 143 103 bng 15 250 50 0 empty empty empty 17 7 0 10 -262144
-1 -1;
#X obj 190 102 bng 15 250 50 0 empty empty empty 17 7 0 10 -262144
-1 -1;
#X obj 49 456 t b b;
#X obj 49 271 tgl 15 0 empty empty empty 17 7 0 10 -262144 -1 -1 1
1;
#X obj 213 457 t b b;
#X obj 213 263 tgl 15 0 empty empty empty 17 7 0 10 -262144 -1 -1 0
1;
#X obj 383 456 t b b;
#X obj 434 315 tgl 15 0 empty empty empty 17 7 0 10 -262144 -1 -1 1
1;
#X obj 463 421 random 1000;
#X obj 463 444 + 500;
#X obj 383 421 metro 1000;
#X msg 49 237 1;
#X obj 49 537 s declenchement;
#X msg 82 237 0;
#X msg 213 239 1;
#X msg 246 239 0;
#X msg 434 289 1;
#X msg 467 289 0;
#X obj 556 456 t b b;
#X obj 599 277 tgl 15 0 empty empty empty 17 7 0 10 -262144 -1 -1 0
1;
#X obj 636 421 random 1000;
#X obj 636 444 + 500;
#X obj 556 421 metro 1000;
#X msg 599 252 1;
#X msg 632 252 0;
#X obj 389 340 r echelleCri;
#X obj 554 304 r mouvementCri;
#X obj 121 273 r proximite;
#X obj 121 300 > 100;
#X obj 389 364 spigot 0;
#X obj 554 332 spigot 0;
#X obj 213 422 metro 10000;
#X obj 293 422 random 8000;
#X obj 293 445 + 2000;
#X obj 49 421 metro 20000;
#X obj 129 421 random 15000;
#X obj 129 444 + 5000;
#X obj 260 52 print humeur;
#X connect 0 0 1 0;
#X connect 0 0 41 0;
#X connect 1 0 2 0;
#X connect 1 1 3 0;
#X connect 1 2 4 0;
#X connect 1 3 5 0;
#X connect 2 0 15 0;
#X connect 2 0 19 0;
#X connect 2 0 21 0;
#X connect 2 0 28 0;
#X connect 3 0 17 0;
#X connect 3 0 18 0;
#X connect 3 0 21 0;
#X connect 3 0 28 0;
#X connect 4 0 17 0;
#X connect 4 0 19 0;
#X connect 4 0 20 0;
#X connect 4 0 28 0;
#X connect 5 0 17 0;
#X connect 5 0 19 0;
#X connect 5 0 21 0;
#X connect 5 0 27 0;
#X connect 6 0 16 0;
#X connect 6 1 39 0;
#X connect 8 0 16 0;
#X connect 8 1 36 0;
#X connect 9 0 35 0;
#X connect 10 1 12 0;
#X connect 11 0 33 1;
#X connect 12 0 13 0;
#X connect 13 0 14 1;
#X connect 14 0 10 0;
#X connect 15 0 7 0;
#X connect 17 0 7 0;
#X connect 18 0 9 0;
#X connect 19 0 9 0;
#X connect 20 0 11 0;
#X connect 21 0 11 0;
#X connect 22 1 24 0;
#X connect 23 0 34 1;
#X connect 24 0 25 0;
#X connect 25 0 26 1;
#X connect 26 0 22 0;
#X connect 27 0 23 0;
#X connect 28 0 23 0;
#X connect 29 0 33 0;
#X connect 30 0 34 0;
#X connect 31 0 32 0;
#X connect 32 0 7 0;
#X connect 33 0 16 0;
#X connect 35 0 8 0;
#X connect 36 0 37 0;
#X connect 37 0 35 1;
#X connect 38 0 6 0;
#X connect 39 0 40 0;
#X connect 40 0 38 1;
#X restore 276 121 pd choix;
#X obj 190 199 r declenchement;
#X obj 642 195 vsl 15 128 0 600 0 0 simuProxy empty empty 0 -9 0 10
-262144 -1 -1 7535 1;
#X obj 794 65 tgl 15 0 empty empty empty 17 7 0 10 -262144 -1 -1 1
1;
#X obj 642 54 random 600;
#X obj 642 32 metro 1000;
#X floatatom 754 24 5 0 0 0 - - -, f 5;
#X obj 42 269 print declenchement;
#X obj 642 80 + 0;
#X obj 642 162 line 0 300;
#X obj 642 108 t f b;
#X msg 669 135 1000;
#X connect 1 0 2 0;
#X connect 3 0 0 0;
#X connect 3 1 0 1;
#X connect 4 0 6 0;
#X connect 4 1 6 1;
#X connect 4 2 6 2;
#X connect 5 0 25 0;
#X connect 5 1 24 0;
#X connect 5 2 23 0;
#X connect 5 3 10 0;
#X connect 6 0 5 0;
#X connect 7 0 18 0;
#X connect 9 0 4 0;
#X connect 10 0 3 0;
#X connect 10 1 3 1;
#X connect 12 0 3 2;
#X connect 14 0 15 0;
#X connect 16 0 9 0;
#X connect 16 1 17 0;
#X connect 16 2 10 1;
#X connect 16 2 23 1;
#X connect 16 2 24 1;
#X connect 16 2 25 1;
#X connect 17 0 4 1;
#X connect 18 0 19 0;
#X connect 18 1 20 0;
#X connect 19 0 4 0;
#X connect 20 0 4 1;
#X connect 23 0 3 0;
#X connect 23 1 3 1;
#X connect 24 0 3 0;
#X connect 24 1 3 1;
#X connect 25 0 3 0;
#X connect 25 1 3 1;
#X connect 27 0 16 0;
#X connect 27 0 33 0;
#X connect 29 0 31 0;
#X connect 30 0 34 0;
#X connect 31 0 30 0;
#X connect 32 0 30 1;
#X connect 34 0 36 0;
#X connect 35 0 28 0;
#X connect 36 0 35 0;
#X connect 36 1 37 0;
#X connect 37 0 35 1;
