#N canvas 1229 487 988 773 10;
#X obj 49 22 adc~;
#X obj 575 648 dac~;
#X obj 49 53 env~ 16384 8192;
#X floatatom 49 103 5 0 0 0 - - -, f 5;
#X obj 666 35 tgl 15 0 empty empty empty 17 7 0 10 -262144 -1 -1 1
1;
#X msg 666 55 \; pd dsp \$1;
#X text 89 164 Moyenne du volume sur n mesures, f 11;
#X obj 307 172 tgl 15 0 empty empty empty 17 7 0 10 -262144 -1 -1 0
1;
#X obj 307 268 f 1;
#X obj 307 198 moses 1;
#X floatatom 307 304 5 0 0 0 - - -, f 5;
#X obj 344 268 + 1;
#X obj 307 235 metro 500;
#X obj 242 215 t b 0 1;
#X obj 242 319 f;
#X text 371 230 Calcule le temps passé au dessus d'un seuil pour avoir
une réponse adéquate (cri/murmure/etc.), f 26;
#X obj 307 120 >= 70;
#X obj 307 142 change;
#X obj 49 238 vsl 15 128 0 100 0 0 empty empty Humeur_bruit 0 -9 0
10 -262144 -1 -1 5238 1;
#X obj 133 240 vsl 15 128 0 100 0 0 empty empty Enveloppe_follower
0 -9 0 10 -262144 -1 -1 4269 1;
#X obj 49 133 average 100;
#X obj 242 354 hradio 15 1 0 8 empty empty Echelle_de_cri 0 -8 0 10
-262144 -1 -1 1;
#X obj 49 78 spigot 1;
#N canvas 1004 449 450 300 mixer 0;
#X obj 391 42 inlet;
#X obj 103 131 *~ 0.1;
#X obj 266 133 *~ 0.1;
#X obj 241 247 outlet~;
#X obj 270 42 inlet~;
#X obj 104 40 inlet~;
#X obj 99 246 outlet~;
#X connect 0 0 2 1;
#X connect 0 0 1 1;
#X connect 1 0 6 0;
#X connect 2 0 3 0;
#X connect 4 0 2 0;
#X connect 5 0 1 0;
#X restore 570 608 pd mixer;
#X obj 546 376 poly 4 1;
#X obj 546 439 route 1 2 3 4;
#X obj 546 409 pack 0 0 0;
#X obj 242 381 s echelleCri;
#X obj 546 302 r echelleCri;
#X obj 546 334 t 1 1 f;
#X obj 637 334 t 1 0;
#X obj 637 302 r playEnded;
#N canvas 669 743 452 374 playOneShot 0;
#X obj 84 19 inlet;
#X obj 231 18 inlet;
#X obj 141 246 readsf~;
#X obj 84 50 unpack f f;
#X obj 168 166 + 1;
#X obj 168 188 makefilename ./samples/Symbiote_cri_%d.wav;
#X msg 168 210 open \$1;
#X obj 168 139 random 3;
#X obj 231 78 moses 3;
#X obj 270 110 moses 6;
#X obj 231 139 t 0;
#X obj 270 139 t 2;
#X obj 309 140 t 4;
#X obj 180 272 s playEnded;
#X obj 141 294 outlet~;
#X obj 315 291 outlet~;
#X obj 141 78 t f f;
#X obj 168 111 sel 1;
#X obj 77 251 print;
#X connect 0 0 3 0;
#X connect 1 0 8 0;
#X connect 2 0 14 0;
#X connect 2 1 13 0;
#X connect 3 1 16 0;
#X connect 4 0 5 0;
#X connect 5 0 6 0;
#X connect 6 0 2 0;
#X connect 6 0 18 0;
#X connect 7 0 4 0;
#X connect 8 0 10 0;
#X connect 8 1 9 0;
#X connect 9 0 11 0;
#X connect 9 1 12 0;
#X connect 10 0 4 1;
#X connect 11 0 4 1;
#X connect 12 0 4 1;
#X connect 16 0 2 0;
#X connect 16 1 17 0;
#X connect 17 0 7 0;
#X restore 376 538 pd playOneShot;
#X msg 477 356 1;
#N canvas 669 743 452 374 playOneShot 0;
#X obj 84 19 inlet;
#X obj 231 18 inlet;
#X obj 141 246 readsf~;
#X obj 84 50 unpack f f;
#X obj 168 166 + 1;
#X obj 168 188 makefilename ./samples/Symbiote_cri_%d.wav;
#X msg 168 210 open \$1;
#X obj 168 139 random 3;
#X obj 231 78 moses 3;
#X obj 270 110 moses 6;
#X obj 231 139 t 0;
#X obj 270 139 t 2;
#X obj 309 140 t 4;
#X obj 180 272 s playEnded;
#X obj 141 294 outlet~;
#X obj 315 291 outlet~;
#X obj 141 78 t f f;
#X obj 168 111 sel 1;
#X obj 77 251 print;
#X connect 0 0 3 0;
#X connect 1 0 8 0;
#X connect 2 0 14 0;
#X connect 2 1 13 0;
#X connect 3 1 16 0;
#X connect 4 0 5 0;
#X connect 5 0 6 0;
#X connect 6 0 2 0;
#X connect 6 0 18 0;
#X connect 7 0 4 0;
#X connect 8 0 10 0;
#X connect 8 1 9 0;
#X connect 9 0 11 0;
#X connect 9 1 12 0;
#X connect 10 0 4 1;
#X connect 11 0 4 1;
#X connect 12 0 4 1;
#X connect 16 0 2 0;
#X connect 16 1 17 0;
#X connect 17 0 7 0;
#X restore 496 537 pd playOneShot;
#N canvas 669 743 452 374 playOneShot 0;
#X obj 84 19 inlet;
#X obj 231 18 inlet;
#X obj 141 246 readsf~;
#X obj 84 50 unpack f f;
#X obj 168 166 + 1;
#X obj 168 188 makefilename ./samples/Symbiote_cri_%d.wav;
#X msg 168 210 open \$1;
#X obj 168 139 random 3;
#X obj 231 78 moses 3;
#X obj 270 110 moses 6;
#X obj 231 139 t 0;
#X obj 270 139 t 2;
#X obj 309 140 t 4;
#X obj 180 272 s playEnded;
#X obj 141 294 outlet~;
#X obj 315 291 outlet~;
#X obj 141 78 t f f;
#X obj 168 111 sel 1;
#X obj 77 251 print;
#X connect 0 0 3 0;
#X connect 1 0 8 0;
#X connect 2 0 14 0;
#X connect 2 1 13 0;
#X connect 3 1 16 0;
#X connect 4 0 5 0;
#X connect 5 0 6 0;
#X connect 6 0 2 0;
#X connect 6 0 18 0;
#X connect 7 0 4 0;
#X connect 8 0 10 0;
#X connect 8 1 9 0;
#X connect 9 0 11 0;
#X connect 9 1 12 0;
#X connect 10 0 4 1;
#X connect 11 0 4 1;
#X connect 12 0 4 1;
#X connect 16 0 2 0;
#X connect 16 1 17 0;
#X connect 17 0 7 0;
#X restore 614 534 pd playOneShot;
#N canvas 669 743 452 374 playOneShot 0;
#X obj 84 19 inlet;
#X obj 231 18 inlet;
#X obj 141 246 readsf~;
#X obj 84 50 unpack f f;
#X obj 168 166 + 1;
#X obj 168 188 makefilename ./samples/Symbiote_cri_%d.wav;
#X msg 168 210 open \$1;
#X obj 168 139 random 3;
#X obj 231 78 moses 3;
#X obj 270 110 moses 6;
#X obj 231 139 t 0;
#X obj 270 139 t 2;
#X obj 309 140 t 4;
#X obj 180 272 s playEnded;
#X obj 141 294 outlet~;
#X obj 315 291 outlet~;
#X obj 141 78 t f f;
#X obj 168 111 sel 1;
#X obj 77 251 print;
#X connect 0 0 3 0;
#X connect 1 0 8 0;
#X connect 2 0 14 0;
#X connect 2 1 13 0;
#X connect 3 1 16 0;
#X connect 4 0 5 0;
#X connect 5 0 6 0;
#X connect 6 0 2 0;
#X connect 6 0 18 0;
#X connect 7 0 4 0;
#X connect 8 0 10 0;
#X connect 8 1 9 0;
#X connect 9 0 11 0;
#X connect 9 1 12 0;
#X connect 10 0 4 1;
#X connect 11 0 4 1;
#X connect 12 0 4 1;
#X connect 16 0 2 0;
#X connect 16 1 17 0;
#X connect 17 0 7 0;
#X restore 724 536 pd playOneShot;
#X text 690 333 Player polyphonique 4 voix: pour l'instant \, réagit
à la longueur du stimulus sonore externe., f 24;
#X obj 461 648 env~ 16384 8192;
#X obj 461 677 != 0;
#X obj 461 706 change 0;
#X obj 461 734 s isPlaying;
#X obj 152 29 * -1;
#X obj 152 53 + 1;
#X obj 152 4 r isPlaying;
#X obj 755 601 vsl 15 128 0 1 0 0 empty empty Main_volume 0 -9 0 10
-262144 -1 -1 0 1;
#X obj 512 33 comport 1 9600;
#X obj 859 67 t f f;
#X obj 886 99 match 100 254;
#X obj 886 125 t b b;
#X obj 859 176 list prepend;
#X obj 928 148 t l;
#X obj 790 227 list split 1;
#X obj 790 201 list prepend;
#X obj 824 263 s sortedListe;
#X obj 513 84 print;
#X connect 0 0 2 0;
#X connect 2 0 22 0;
#X connect 3 0 16 0;
#X connect 3 0 19 0;
#X connect 3 0 20 0;
#X connect 4 0 5 0;
#X connect 7 0 9 0;
#X connect 8 0 10 0;
#X connect 8 0 11 0;
#X connect 9 0 13 0;
#X connect 9 1 12 0;
#X connect 10 0 14 1;
#X connect 11 0 8 1;
#X connect 12 0 8 0;
#X connect 13 0 14 0;
#X connect 13 1 12 0;
#X connect 13 2 8 1;
#X connect 14 0 21 0;
#X connect 16 0 17 0;
#X connect 17 0 7 0;
#X connect 20 0 18 0;
#X connect 21 0 27 0;
#X connect 22 0 3 0;
#X connect 23 0 1 0;
#X connect 23 0 38 0;
#X connect 23 1 1 1;
#X connect 24 0 26 0;
#X connect 24 1 26 1;
#X connect 24 2 26 2;
#X connect 25 0 32 0;
#X connect 25 1 34 0;
#X connect 25 2 35 0;
#X connect 25 3 36 0;
#X connect 26 0 25 0;
#X connect 28 0 29 0;
#X connect 29 0 24 0;
#X connect 29 1 24 1;
#X connect 29 2 32 1;
#X connect 29 2 34 1;
#X connect 29 2 35 1;
#X connect 29 2 36 1;
#X connect 30 0 24 0;
#X connect 30 1 24 1;
#X connect 31 0 30 0;
#X connect 32 0 23 0;
#X connect 32 1 23 1;
#X connect 33 0 29 0;
#X connect 34 0 23 0;
#X connect 34 1 23 1;
#X connect 35 0 23 0;
#X connect 35 1 23 1;
#X connect 36 0 23 0;
#X connect 36 1 23 1;
#X connect 38 0 39 0;
#X connect 39 0 40 0;
#X connect 40 0 41 0;
#X connect 42 0 43 0;
#X connect 43 0 22 1;
#X connect 44 0 42 0;
#X connect 45 0 23 2;
#X connect 47 0 50 0;
#X connect 47 1 48 0;
#X connect 48 0 49 0;
#X connect 49 0 53 0;
#X connect 49 1 50 1;
#X connect 50 0 51 0;
#X connect 50 0 53 1;
#X connect 51 0 50 1;
#X connect 52 1 54 0;
#X connect 53 0 52 0;
