#N canvas 628 23 1315 757 10;
#N canvas 169 115 683 363 mixer 0;
#X obj 9 173 *~ 0.1;
#X obj 58 173 *~ 0.1;
#X obj 58 7 inlet~;
#X obj 9 7 inlet~;
#X obj 528 95 vsl 15 128 0 1 0 1 empty empty MASTER 0 -9 0 10 -262144
-1 -1 12700 1;
#X obj 154 7 inlet~;
#X obj 105 7 inlet~;
#X obj 9 89 *~ 0.1;
#X obj 58 89 *~ 0.1;
#X obj 105 89 *~ 0.1;
#X obj 154 89 *~ 0.1;
#X obj 341 94 vsl 15 128 0 1 0 1 empty empty Cri 0 -9 0 10 -262144
-1 -1 0 1;
#X obj 374 94 vsl 15 128 0 1 0 1 empty empty Tremblement 0 -9 0 10
-262144 -1 -1 0 1;
#X obj 9 228 dac~;
#X obj 454 95 vsl 15 128 0 1 0 1 empty empty Calibration 0 -9 0 10
-262144 -1 -1 2700 1;
#X obj 211 90 *~ 0.1;
#X obj 260 90 *~ 0.1;
#X msg 10 276 \; pd dsp 1;
#X obj 211 7 noise~;
#X obj 211 47 *~;
#X obj 256 7 r activ_noise;
#X obj 58 228 s~ signal_interne;
#X obj 353 37 line;
#X msg 353 14 \$1 200;
#X connect 0 0 13 0;
#X connect 0 0 21 0;
#X connect 1 0 13 1;
#X connect 1 0 21 0;
#X connect 2 0 8 0;
#X connect 3 0 7 0;
#X connect 4 0 1 1;
#X connect 4 0 0 1;
#X connect 5 0 10 0;
#X connect 6 0 9 0;
#X connect 7 0 0 0;
#X connect 8 0 1 0;
#X connect 9 0 0 0;
#X connect 10 0 1 0;
#X connect 11 0 7 1;
#X connect 11 0 8 1;
#X connect 12 0 10 1;
#X connect 12 0 9 1;
#X connect 14 0 15 1;
#X connect 14 0 16 1;
#X connect 15 0 0 0;
#X connect 16 0 1 0;
#X connect 18 0 19 0;
#X connect 19 0 15 0;
#X connect 19 0 16 0;
#X connect 20 0 19 1;
#X connect 22 0 19 1;
#X connect 23 0 22 0;
#X coords 0 -1 1 1 250 170 1 320 60;
#X restore 398 562 pd mixer;
#N canvas 872 125 537 582 adc-monitor 0;
#X obj 222 141 hsl 128 15 0 150 0 0 empty empty Enveloppe_follower
-2 -8 0 10 -262144 -1 -1 4416 1;
#X obj 221 206 hsl 128 15 0 20 0 0 JaugePics empty Jauge_pics -2 -8
0 10 -262144 -1 -1 3810 1;
#X obj 386 160 s humeur_bruit_rms;
#X obj 131 77 r micro_traite;
#X obj 17 163 f;
#X obj -3 184 -;
#X obj -22 140 t f f b;
#X obj -3 208 vsl 15 65 -25 25 0 0 empty empty empty 0 -9 0 10 -262144
-1 -1 2622 1;
#X floatatom 131 98 5 0 0 0 - - -, f 5;
#X obj -3 305 sel 1;
#X obj 54 77 r micro_dry;
#X obj -22 21 r Internal_Sig;
#X obj -22 114 cyclone/switch, f 26;
#X obj -22 45 > 0;
#X obj -22 88 change;
#X obj -22 67 + 1;
#X floatatom 54 97 5 0 0 0 - - -, f 5;
#X obj 89 21 loadbang;
#X msg 89 43 1;
#X obj 12 485 bonk~;
#X text 55 485 Objet qui check les attacks des sons;
#X text 48 138 Dérivée du volume pour détecter les variations de
dynamique, f 24;
#X obj 219 170 bng 20 250 50 0 empty empty Pics_Détection 25 10 0
10 -40931 -1 -1;
#X text 34 283 Seuil de détection de pics dans la dynamique;
#X obj -3 283 > 8;
#X obj -3 351 jauge 5000;
#X obj 218 223 nbx 5 14 -1e+37 1e+37 0 0 empty empty empty 0 -8 0 10
-262144 -1 -1 6 256;
#X connect 0 0 2 0;
#X connect 1 0 26 0;
#X connect 3 0 8 0;
#X connect 4 0 5 1;
#X connect 5 0 7 0;
#X connect 6 0 4 1;
#X connect 6 1 5 0;
#X connect 6 2 4 0;
#X connect 7 0 24 0;
#X connect 8 0 12 2;
#X connect 9 0 25 0;
#X connect 9 0 22 0;
#X connect 10 0 16 0;
#X connect 11 0 13 0;
#X connect 12 0 6 0;
#X connect 12 0 0 0;
#X connect 13 0 15 0;
#X connect 14 0 12 0;
#X connect 15 0 14 0;
#X connect 16 0 12 1;
#X connect 17 0 18 0;
#X connect 18 0 12 0;
#X connect 24 0 9 0;
#X connect 25 0 1 0;
#X coords 0 -1 1 1 170 140 1 200 100;
#X restore 8 436 pd adc-monitor;
#N canvas 167 23 744 211 movement-monitor 0;
#X obj 295 93 change;
#X obj 295 117 sel 1;
#X obj 121 64 hsl 128 15 0 600 0 0 empty empty Proxi_value -2 -8 0
10 -262144 -1 -1 5630 1;
#X floatatom 295 23 5 0 0 0 - - -, f 5;
#X obj 9 5 r simuProxy;
#N canvas 144 441 450 300 median_3 0;
#X obj 76 51 inlet;
#X obj 76 81 f;
#X obj 76 126 t f b b;
#X obj 78 169 f;
#X obj 103 169 f;
#X obj 129 169 f;
#X obj 93 200 min;
#X obj 78 220 max;
#X obj 78 242 min;
#X obj 123 200 max;
#X obj 78 265 outlet;
#X connect 0 0 1 0;
#X connect 1 0 2 0;
#X connect 2 0 3 0;
#X connect 2 1 4 0;
#X connect 2 2 5 0;
#X connect 3 0 7 0;
#X connect 3 0 4 1;
#X connect 4 0 6 0;
#X connect 4 0 9 0;
#X connect 4 0 5 1;
#X connect 5 0 9 1;
#X connect 5 0 6 1;
#X connect 6 0 7 1;
#X connect 7 0 8 0;
#X connect 8 0 10 0;
#X connect 9 0 8 1;
#X restore 9 36 pd median_3;
#X text 372 120 Détecte un passage;
#X obj 122 147 hsl 128 15 0 20 0 0 empty empty Nb_de_passages_+_line
-2 -8 0 10 -262144 -1 -1 1905 1;
#X text 372 149 Nombre de passages sur x secondes + Interpolation linéaire.
;
#X obj 119 182 s nb_passage;
#X obj 9 73 s Proxi_direct;
#X obj 118 94 bng 25 300 50 0 empty empty Passage_ON 35 13 0 13 -36318
-1 -1;
#X obj 295 148 jauge 10000;
#X text 372 72 Seuil en dessous duquel on considère qu'il y a un passage
;
#X obj 295 71 <= 400;
#X connect 0 0 1 0;
#X connect 1 0 11 0;
#X connect 1 0 12 0;
#X connect 3 0 14 0;
#X connect 4 0 3 0;
#X connect 4 0 5 0;
#X connect 5 0 2 0;
#X connect 5 0 10 0;
#X connect 7 0 9 0;
#X connect 12 0 7 0;
#X connect 14 0 0 0;
#X coords 0 -1 1 1 170 140 1 100 30;
#X restore 189 436 pd movement-monitor;
#N canvas 768 110 503 591 playOneShot 0;
#X obj 34 403 outlet~;
#X obj 92 404 outlet~;
#X obj 211 16 r humeurSymbiote;
#X msg 211 67 set \$1;
#X obj 34 94 makefilename not-set-yet;
#X symbolatom 225 166 35 0 0 2 Sample - -, f 35;
#X obj 211 41 makefilename ./%s/cri_%%d.wav;
#X obj 82 247 soundfiler;
#X floatatom 82 269 0 0 0 0 - - -;
#N canvas 0 22 450 278 (subpatch) 0;
#X array ChannelSL 60637 float 4;
#X coords 0 1 60636 -1 200 140 1;
#X restore 30 444 graph;
#X obj 34 122 t b s;
#N canvas 0 22 450 278 (subpatch) 0;
#X array ChannelSR 60637 float 4;
#X coords 0 1 60636 -1 200 140 1 0 0;
#X restore 245 446 graph;
#X msg 82 213 read -resize \$1 ChannelSL ChannelSR \;;
#X obj 34 343 tabplay~ ChannelSL;
#X obj 92 366 tabplay~ ChannelSR;
#X obj 34 68 + 1;
#X obj 34 41 random 6;
#X obj 34 16 r declenchement;
#X connect 2 0 6 0;
#X connect 3 0 4 0;
#X connect 4 0 5 0;
#X connect 4 0 10 0;
#X connect 6 0 3 0;
#X connect 7 0 8 0;
#X connect 10 0 13 0;
#X connect 10 0 14 0;
#X connect 10 1 12 0;
#X connect 12 0 7 0;
#X connect 13 0 0 0;
#X connect 14 0 1 0;
#X connect 15 0 4 0;
#X connect 16 0 15 0;
#X connect 17 0 16 0;
#X coords 0 -1 1 1 230 60 1 220 130;
#X restore 398 479 pd playOneShot;
#X obj 17 32 tgl 15 0 empty empty empty 17 7 0 10 -262144 -1 -1 1 1
;
#X obj 17 76 random 600;
#X obj 17 54 metro 1000;
#X obj 17 148 line 0 300;
#X obj 17 98 t f b;
#X text 12 625 COMPORTEMENT;
#N canvas 20 868 607 467 TRIG 0;
#X obj 73 364 t b b;
#X obj 58 417 s declenchement;
#X obj 121 257 random 15000;
#X text 402 313 Plus de passage - de trig;
#X text 402 345 Plus de volume + de trig;
#X text 400 135 BORNE RANDOM MAX;
#X text 400 108 BORNE RANDOM MIN;
#X text 403 280 Comportement souhaité :;
#X text 54 183 Agressif;
#X text 215 184 Serein;
#X text 293 182 Timide;
#X msg 76 108 100;
#X msg 56 131 500;
#X msg 160 109 500;
#X obj 199 54 r trigSerein;
#X obj 277 54 r trigTimide;
#X obj 121 54 r trigHilare;
#X obj 37 54 r trigHostile;
#X text 138 184 Hilare;
#X obj 218 155 -;
#X obj 56 155 -;
#X obj 140 156 -;
#X obj 296 154 -;
#X floatatom 170 346 5 0 0 0 - - -, f 5;
#X msg 140 132 2000;
#X msg 238 108 2000;
#X msg 218 132 14000;
#X msg 316 107 14000;
#X msg 296 132 34000;
#X obj 58 329 delay;
#X obj 37 84 t b b b b;
#X obj 121 84 t b b b b;
#X obj 199 83 t b b b b;
#X obj 277 83 t b b b b;
#X text 399 50 Trig selon humeur;
#X obj 121 298 + 0;
#X connect 0 0 1 0;
#X connect 0 0 29 0;
#X connect 0 1 2 0;
#X connect 2 0 35 0;
#X connect 11 0 20 1;
#X connect 11 0 35 1;
#X connect 12 0 20 0;
#X connect 13 0 21 1;
#X connect 13 0 35 1;
#X connect 14 0 32 0;
#X connect 15 0 33 0;
#X connect 16 0 31 0;
#X connect 17 0 30 0;
#X connect 19 0 2 1;
#X connect 20 0 2 1;
#X connect 21 0 2 1;
#X connect 22 0 2 1;
#X connect 24 0 21 0;
#X connect 25 0 19 1;
#X connect 25 0 35 1;
#X connect 26 0 19 0;
#X connect 27 0 22 1;
#X connect 27 0 35 1;
#X connect 28 0 22 0;
#X connect 29 0 0 0;
#X connect 30 0 29 0;
#X connect 30 1 2 0;
#X connect 30 2 12 0;
#X connect 30 3 11 0;
#X connect 31 0 29 0;
#X connect 31 1 2 0;
#X connect 31 2 24 0;
#X connect 31 3 13 0;
#X connect 32 0 29 0;
#X connect 32 1 2 0;
#X connect 32 2 26 0;
#X connect 32 3 25 0;
#X connect 33 0 29 0;
#X connect 33 1 2 0;
#X connect 33 2 28 0;
#X connect 33 3 27 0;
#X connect 35 0 23 0;
#X connect 35 0 29 1;
#X restore 14 680 pd TRIG;
#N canvas 908 427 437 366 HUMEUR 0;
#X obj 14 130 == 0;
#X obj 45 130 == 0;
#X obj 14 168 &&, f 4;
#X obj 87 191 sel 1;
#X obj 218 190 sel 1;
#X obj 155 190 sel 1;
#X obj 155 130 t b f;
#X obj 220 131 t b f;
#X obj 45 149 t b f;
#X floatatom 155 35 5 0 0 0 - - -, f 5;
#X obj 87 130 t b f;
#X floatatom 14 34 5 0 0 0 - - -, f 5;
#X msg 218 276 hostile;
#X msg 155 277 hilare;
#X obj 14 301 symbol;
#X obj 14 330 s humeurSymbiote;
#X obj 155 89 change;
#X obj 14 86 change;
#X obj 218 158 &&;
#X obj 155 157 >, f 4;
#X obj 87 157 <;
#X msg 87 277 timide;
#X msg 14 276 serein;
#X obj 155 7 r nb_passage;
#X text 197 60 SEUILS A DETERMINER selon les données;
#X obj 294 16 loadbang;
#X obj 14 191 sel 1;
#X obj 155 62 > 2.5;
#X obj 18 233 s trigSerein;
#X obj 92 255 s trigTimide;
#X obj 158 232 s trigHilare;
#X obj 223 254 s trigHostile;
#X obj 14 61 > 5;
#X obj 148 316 print;
#X obj 34 215 bng 15 250 50 0 empty empty empty 17 7 0 10 -262144 -1
-1;
#X obj 107 218 bng 15 250 50 0 empty empty empty 17 7 0 10 -262144
-1 -1;
#X obj 172 220 bng 15 250 50 0 empty empty empty 17 7 0 10 -262144
-1 -1;
#X obj 14 7 r JaugePics;
#X connect 0 0 2 0;
#X connect 1 0 8 0;
#X connect 2 0 26 0;
#X connect 3 0 21 0;
#X connect 3 0 29 0;
#X connect 3 0 35 0;
#X connect 4 0 12 0;
#X connect 4 0 31 0;
#X connect 5 0 13 0;
#X connect 5 0 30 0;
#X connect 5 0 36 0;
#X connect 6 0 19 0;
#X connect 6 1 19 1;
#X connect 7 0 18 0;
#X connect 7 1 18 1;
#X connect 8 0 2 0;
#X connect 8 1 2 1;
#X connect 9 0 27 0;
#X connect 10 0 20 0;
#X connect 10 1 20 1;
#X connect 11 0 32 0;
#X connect 12 0 14 0;
#X connect 13 0 14 0;
#X connect 14 0 15 0;
#X connect 14 0 33 0;
#X connect 16 0 1 0;
#X connect 16 0 10 0;
#X connect 16 0 7 0;
#X connect 16 0 6 0;
#X connect 17 0 0 0;
#X connect 17 0 18 0;
#X connect 17 0 19 0;
#X connect 17 0 20 0;
#X connect 18 0 4 0;
#X connect 19 0 5 0;
#X connect 20 0 3 0;
#X connect 21 0 14 0;
#X connect 22 0 14 0;
#X connect 23 0 9 0;
#X connect 25 0 22 0;
#X connect 26 0 22 0;
#X connect 26 0 28 0;
#X connect 26 0 34 0;
#X connect 27 0 16 0;
#X connect 32 0 17 0;
#X connect 37 0 11 0;
#X coords 0 366 1 365 85 60 0;
#X restore 14 653 pd HUMEUR;
#N canvas 749 413 479 441 TREMBLEMENT 0;
#X obj 7 13 r Proxi_direct;
#X obj 7 391 s tremblement;
#X obj 7 235 clip 0 1, f 11;
#X obj 7 60 line;
#X msg 7 37 \$1 2500;
#X obj 7 210 maxlib/scale 300 100 0 1;
#X obj 78 59 nbx 5 14 -1e+37 1e+37 0 0 empty empty empty 0 -8 0 10
-262144 -1 -1 287.4 256;
#X obj 7 188 spigot;
#X obj 7 92 t f f;
#X obj 150 63 nbx 5 14 -1e+37 1e+37 0 0 empty empty empty 0 -8 0 10
-262144 -1 -1 0 256;
#X obj 34 139 change;
#X obj 34 118 > 99;
#X obj 83 235 sel 0;
#X msg 83 257 0;
#X obj 157 358 print;
#X obj 34 161 t f f;
#N canvas 0 23 469 410 hysteresis 0;
#X obj 92 -126 loadbang;
#X obj 6 -58 inlet;
#X obj 122 -58 inlet;
#X obj 225 -58 inlet;
#X obj 6 142 >;
#X obj 102 -95 \$1;
#X obj 197 -96 \$2;
#X obj 102 52 +;
#X obj 225 -34 / 2;
#X obj 239 30 -;
#X obj 73 93 f;
#X obj 205 108 f;
#X obj 6 199 outlet;
#X obj 225 -9 t b f;
#X text 4 -78 donnee;
#X text 122 -78 seuil;
#X text 207 -78 largeur hysteresis;
#X obj 28 171 route 0 1;
#X text 107 73 seuil haut;
#X text 250 86 seuil bas;
#X floatatom 102 93 5 0 0 0 - - -, f 5;
#X floatatom 247 108 5 0 0 0 - - -, f 5;
#X msg 60 52 bang;
#X msg 205 82 bang;
#X connect 0 0 6 0;
#X connect 0 0 5 0;
#X connect 0 0 10 0;
#X connect 1 0 4 0;
#X connect 2 0 7 0;
#X connect 2 0 9 0;
#X connect 3 0 8 0;
#X connect 4 0 12 0;
#X connect 4 0 17 0;
#X connect 5 0 7 0;
#X connect 5 0 9 0;
#X connect 6 0 8 0;
#X connect 7 0 10 1;
#X connect 7 0 20 0;
#X connect 8 0 13 0;
#X connect 9 0 11 1;
#X connect 9 0 21 0;
#X connect 10 0 4 1;
#X connect 11 0 4 1;
#X connect 13 0 9 0;
#X connect 13 0 7 0;
#X connect 13 1 9 1;
#X connect 13 1 7 1;
#X connect 17 0 22 0;
#X connect 17 1 23 0;
#X connect 22 0 10 0;
#X connect 23 0 11 0;
#X restore 228 198 pd hysteresis;
#X connect 0 0 4 0;
#X connect 2 0 1 0;
#X connect 2 0 14 0;
#X connect 3 0 6 0;
#X connect 4 0 3 0;
#X connect 5 0 2 0;
#X connect 7 0 5 0;
#X connect 8 0 7 0;
#X connect 8 1 11 0;
#X connect 9 0 8 0;
#X connect 10 0 15 0;
#X connect 11 0 10 0;
#X connect 12 0 13 0;
#X connect 13 0 1 0;
#X connect 13 0 14 0;
#X connect 15 0 12 0;
#X connect 15 1 7 1;
#X restore 13 708 pd TREMBLEMENT;
#N canvas 211 236 1109 610 playLoop 0;
#X obj 62 446 outlet~;
#X obj 120 446 outlet~;
#X text 427 72 Float compris entre 0 et 1;
#X obj 158 406 lop~, f 6;
#X text 275 302 AM depth;
#X text 408 235 AM Rate;
#X obj 246 301 *~;
#X text 149 368 TREMOLO;
#N canvas 0 22 450 300 (subpatch) 0;
#X array ChannelTL 1.4112e+06 float 0;
#X coords 0 1 1.4112e+06 -1 300 100 1 0 0;
#X restore 468 148 graph;
#X obj 10 74 soundfiler;
#X obj 10 11 loadbang;
#N canvas 0 22 450 300 (subpatch) 0;
#X array ChannelTR 1.4112e+06 float 0;
#X coords 0 1 1.4112e+06 -1 300 100 1 0 0;
#X restore 468 266 graph;
#X obj 47 102 s sampleSize;
#X obj 10 131 expr 44100/$f1;
#X obj 10 166 phasor~;
#X obj 10 209 *~;
#X obj 57 188 r sampleSize;
#X text 307 272 MODULATOR;
#X obj 246 275 osc~ 30;
#X obj 280 344 maxlib/scale 0 0.8 16000 50;
#X obj 62 407 lop~, f 6;
#X obj 10 276 *~;
#X obj 69 275 *~;
#X obj 120 369 *~;
#X obj 62 369 *~;
#X obj 246 185 clip 0.2 0.8;
#X obj 246 235 maxlib/scale 0.2 0.8 10 25;
#X msg 10 35 read -resize ./tremblement.wav ChannelTL ChannelTR \;
pd dsp 1 \;;
#X obj 10 235 tabread~ ChannelTL;
#X obj 69 254 tabread~ ChannelTR;
#X text 366 206 AM;
#X obj 345 71 r tremblement;
#X connect 3 0 1 0;
#X connect 6 0 23 1;
#X connect 6 0 24 1;
#X connect 9 0 12 0;
#X connect 9 0 13 0;
#X connect 10 0 27 0;
#X connect 13 0 14 0;
#X connect 14 0 15 0;
#X connect 15 0 28 0;
#X connect 15 0 29 0;
#X connect 16 0 15 1;
#X connect 18 0 6 0;
#X connect 19 0 3 1;
#X connect 19 0 20 1;
#X connect 20 0 0 0;
#X connect 21 0 0 0;
#X connect 21 0 24 0;
#X connect 22 0 1 0;
#X connect 22 0 23 0;
#X connect 23 0 3 0;
#X connect 24 0 20 0;
#X connect 25 0 6 1;
#X connect 25 0 19 0;
#X connect 25 0 26 0;
#X connect 26 0 18 0;
#X connect 27 0 9 0;
#X connect 28 0 21 0;
#X connect 29 0 22 0;
#X connect 31 0 25 0;
#X connect 31 0 22 1;
#X connect 31 0 21 1;
#X coords 0 610 1 609 230 50 0;
#X restore 645 514 pd playLoop Tremblement;
#X text 564 31 >> MAPPING >>;
#X text 320 63 1 -> Proximètre direct;
#X text 320 32 4 FLUX DE DONNEES ENTRANTS;
#X text 697 33 4 PARAMETRES SORTANTS;
#X text 271 75 DIRECT;
#X text 98 406 TRAITEMENT DONNEES CAPTEURS;
#X text 696 63 1 -> volume boucle tremblement + augmentation tremolo
(depth + vitesse)., f 72;
#X obj 17 172 s simuProxy;
#X text 123 103 SIMULATION DONNEES;
#X obj 17 11 loadbang;
#X text 396 405 AUDIO & PLAYERS;
#X text 7 226 CALIBRATION MIC / SIGNAL;
#N canvas 458 89 970 590 Calib 0;
#X obj -10 96 env~;
#X obj 236 58 adc~;
#X obj 564 59 tgl 20 0 activ_noise empty NOISE_ON 25 10 0 10 -36705
-159808 -1 0 1;
#X obj 236 95 env~;
#X obj -10 240 -;
#X obj 53 215 t b f;
#X obj -10 307 s gain_calib;
#X obj 173 458 s delta_T_calib;
#X obj 552 186 r gain_calib;
#X floatatom 564 112 5 0 0 0 - - Gain_correc, f 5;
#X obj 268 120 +;
#X obj 172 244 change;
#X obj 172 266 sel 1;
#X obj 173 435 timer;
#X floatatom 562 156 5 0 0 0 - - DeltaT_Correc, f 5;
#X obj 639 186 r delta_T_calib;
#X obj 564 29 metro 400;
#X obj 537 213 f;
#X obj 564 88 bng 20 250 50 0 empty empty Envoie_Compensation_Gain
25 10 0 10 -258113 -262144 -1;
#X obj 624 214 f;
#X obj 563 129 bng 20 250 50 0 empty empty Envoie_Compensation_Delai
25 10 0 10 -260097 -1 -1;
#X obj -118 490 -;
#X obj 283 58 r Gain_correc;
#X obj -118 466 pipe;
#X text -82 486 Soustraction du signal interne envoyé au HP \, avec
le signal reçu par le microphone pour s'affranchir du cri du symbiote
après compensation de gain et de delay;
#X obj -118 520 abs;
#X obj 649 60 tgl 20 0 empty empty BURST_ON 25 10 0 10 -261837 -258113
-1 0 1;
#X obj -97 444 r DeltaT_Correc;
#X text 683 210 Compensation de delay;
#X text 525 231 Compensation de Gain;
#X obj -118 549 s micro_traite;
#X obj -10 60 r~ signal_interne;
#X obj -10 271 average-array 10;
#X obj 192 174 f;
#X obj 172 195 -;
#X obj 153 151 t f f b;
#X obj 307 173 f;
#X obj 287 194 -;
#X obj 268 150 t f f b;
#X obj 287 242 change;
#X obj 287 264 sel 1;
#X text 328 153 Dérivée du signal;
#X obj 573 397 change;
#X obj 573 419 sel 1;
#X obj 573 269 nbx 5 14 -1e+37 1e+37 0 0 empty empty empty 0 -8 0 10
-262144 -1 -1 -4.51699 256;
#X obj 573 452 bng 15 250 50 0 empty empty empty 17 7 0 10 -262144
-1 -1;
#X obj 684 297 vsl 15 128 -15 15 0 0 empty empty empty 0 -9 0 10 -262144
-1 -1 4438 1;
#X obj 172 220 > 8;
#X obj 287 218 > 8;
#X obj 573 373 > 8;
#X obj 333 545 s micro_dry;
#X obj 122 546 s Internal_Sig;
#X text 195 220 Peak detection;
#X text 315 219 Peak detection;
#X text 215 435 Calcul du delta T entre deux pics;
#X connect 0 0 23 0;
#X connect 0 0 4 0;
#X connect 0 0 35 0;
#X connect 0 0 51 0;
#X connect 1 0 3 0;
#X connect 3 0 10 0;
#X connect 3 0 5 0;
#X connect 3 0 50 0;
#X connect 4 0 32 0;
#X connect 5 0 4 0;
#X connect 5 1 4 1;
#X connect 8 0 17 1;
#X connect 10 0 21 1;
#X connect 10 0 38 0;
#X connect 11 0 12 0;
#X connect 12 0 13 0;
#X connect 13 0 7 0;
#X connect 15 0 19 1;
#X connect 16 0 2 0;
#X connect 17 0 9 0;
#X connect 18 0 17 0;
#X connect 19 0 14 0;
#X connect 20 0 19 0;
#X connect 21 0 25 0;
#X connect 22 0 10 1;
#X connect 23 0 21 0;
#X connect 25 0 30 0;
#X connect 26 0 16 0;
#X connect 27 0 23 1;
#X connect 31 0 0 0;
#X connect 32 0 6 0;
#X connect 33 0 34 1;
#X connect 34 0 47 0;
#X connect 35 0 33 1;
#X connect 35 1 34 0;
#X connect 35 2 33 0;
#X connect 36 0 37 1;
#X connect 37 0 44 0;
#X connect 37 0 48 0;
#X connect 38 0 36 1;
#X connect 38 1 37 0;
#X connect 38 2 36 0;
#X connect 39 0 40 0;
#X connect 40 0 13 1;
#X connect 42 0 43 0;
#X connect 43 0 45 0;
#X connect 44 0 46 0;
#X connect 44 0 49 0;
#X connect 47 0 11 0;
#X connect 48 0 39 0;
#X connect 49 0 42 0;
#X coords 0 -1 1 1 200 130 2 550 50;
#X restore 9 249 pd Calib;
#X text 320 87 2 -> Jauge de détection de pics sur la dynamique;
#X msg 44 125 500;
#X text 320 115 3 -> Jauge de détection de passage;
#X text 696 85 2 -> Diminution des plages du random pour le retrig
+ changement d'humeur.;
#X text 696 119 3 -> Augmentation des plages du random pour le retrig
+ Changement d'humeur;
#X text 221 265 1 -> CALIBRATION GAIN : NOISE ON >> Envoi Compensation
Gain, f 72;
#X text 221 285 2 -> CALIBRATION DELAI : BURST ON >> Envoi Compensation
Delai (recommencer si valeur trop longue)., f 72;
#X text 221 315 3 -> BURST OFF, f 72;
#X text 222 246 ALLUMAGE DU PATCH;
#X text 653 410 PARAMETRES SUR LESQUELS JOUER;
#X text 652 449 2 -> Jauges : réactivité du symbiote, f 72;
#X text 652 429 1 -> Valeurs de seuil de détection : sensibilité
du symbiote, f 72;
#X text 652 469 3 -> Valeurs de seuils d'humeur : sensibilité aux
changements d'humeur, f 72;
#X connect 3 0 0 0;
#X connect 3 1 0 1;
#X connect 4 0 6 0;
#X connect 5 0 8 0;
#X connect 6 0 5 0;
#X connect 7 0 21 0;
#X connect 8 0 7 0;
#X connect 8 1 28 0;
#X connect 13 0 0 2;
#X connect 13 1 0 3;
#X connect 23 0 4 0;
#X connect 28 0 7 1;
