#N canvas 91 23 1215 799 10;
#X obj 49 22 adc~;
#X obj 222 808 dac~;
#X obj 49 53 env~ 16384 8192;
#X floatatom 49 103 5 0 0 0 - - -, f 5;
#X obj 666 35 tgl 15 0 empty empty empty 17 7 0 10 -262144 -1 -1 1
1;
#X msg 666 55 \; pd dsp \$1;
#X text 61 164 Moyenne du volume sur n mesures, f 11;
#X obj 314 169 tgl 15 0 empty empty empty 17 7 0 10 -262144 -1 -1 0
1;
#X obj 314 269 f 1;
#X obj 314 195 moses 1;
#X floatatom 314 305 5 0 0 0 - - -, f 5;
#X obj 351 269 + 1;
#X obj 314 236 metro 500;
#X obj 249 216 t b 0 1;
#X obj 249 320 f;
#X text 378 231 Calcule le temps passé au dessus d'un seuil pour avoir
une réponse adéquate (cri/murmure/etc.), f 26;
#X obj 314 117 >= 70;
#X obj 314 139 change;
#X obj 49 238 vsl 15 128 0 100 0 0 empty empty Humeur_bruit 0 -9 0
10 -262144 -1 -1 7163 1;
#X obj 133 237 vsl 15 128 0 100 0 0 empty empty Enveloppe_follower
0 -9 0 10 -262144 -1 -1 8556 1;
#X obj 49 133 average 100;
#X obj 249 355 hradio 15 1 0 8 empty empty Echelle_de_cri 0 -8 0 10
-262144 -1 -1 0;
#X obj 49 78 spigot 1;
#N canvas 1004 449 450 300 mixer 0;
#X obj 391 42 inlet;
#X obj 103 131 *~ 0.1;
#X obj 266 133 *~ 0.1;
#X obj 241 247 outlet~;
#X obj 270 42 inlet~;
#X obj 104 40 inlet~;
#X obj 99 246 outlet~;
#X connect 0 0 2 1;
#X connect 0 0 1 1;
#X connect 1 0 6 0;
#X connect 2 0 3 0;
#X connect 4 0 2 0;
#X connect 5 0 1 0;
#X restore 217 768 pd mixer;
#X obj 193 556 poly 4 1;
#X obj 193 619 route 1 2 3 4;
#X obj 193 589 pack 0 0 0;
#X obj 249 382 s echelleCri;
#X obj 193 462 r echelleCri;
#X obj 284 462 r playEnded;
#N canvas 375 144 552 378 playOneShot 0;
#X obj 84 19 inlet;
#X obj 231 18 inlet;
#X obj 141 246 readsf~;
#X obj 84 50 unpack f f;
#X msg 168 210 open \$1;
#X obj 231 78 moses 3;
#X obj 270 110 moses 6;
#X obj 231 139 t 0;
#X obj 180 272 s playEnded;
#X obj 141 294 outlet~;
#X obj 315 291 outlet~;
#X obj 141 78 t f f;
#X obj 168 111 sel 1;
#X obj 355 140 r humeurSymbiote;
#X obj 168 188 makefilename ./samples/Volcabiote_cri_euphorie_%s.wav
;
#X obj 270 139 t 0;
#X obj 309 140 t 0;
#X obj 168 139 random 7;
#X obj 168 166 + 1;
#X connect 0 0 3 0;
#X connect 1 0 5 0;
#X connect 2 0 9 0;
#X connect 2 1 8 0;
#X connect 3 1 11 0;
#X connect 4 0 2 0;
#X connect 5 0 7 0;
#X connect 5 1 6 0;
#X connect 6 0 15 0;
#X connect 6 1 16 0;
#X connect 11 0 2 0;
#X connect 11 1 12 0;
#X connect 12 0 17 0;
#X connect 14 0 4 0;
#X connect 17 0 18 0;
#X connect 18 0 14 0;
#X restore 23 698 pd playOneShot;
#X msg 193 523 1;
#N canvas 554 263 595 394 playOneShot 0;
#X obj 84 19 inlet;
#X obj 231 18 inlet;
#X obj 141 246 readsf~;
#X obj 84 50 unpack f f;
#X msg 168 210 open \$1;
#X obj 231 78 moses 3;
#X obj 270 110 moses 6;
#X obj 231 139 t 0;
#X obj 180 272 s playEnded;
#X obj 141 294 outlet~;
#X obj 315 291 outlet~;
#X obj 141 78 t f f;
#X obj 168 111 sel 1;
#X obj 168 188 makefilename ./samples/Volcabiote_cri_euphorie_%d.wav
;
#X obj 168 139 random 6;
#X obj 270 139 t 0;
#X obj 309 140 t 0;
#X obj 168 166 + 1;
#X connect 0 0 3 0;
#X connect 1 0 5 0;
#X connect 2 0 9 0;
#X connect 2 1 8 0;
#X connect 3 1 11 0;
#X connect 4 0 2 0;
#X connect 5 0 7 0;
#X connect 5 1 6 0;
#X connect 6 0 15 0;
#X connect 6 1 16 0;
#X connect 11 0 2 0;
#X connect 11 1 12 0;
#X connect 12 0 14 0;
#X connect 13 0 4 0;
#X connect 14 0 17 0;
#X connect 17 0 13 0;
#X restore 143 697 pd playOneShot;
#N canvas 648 375 452 374 playOneShot 0;
#X obj 84 19 inlet;
#X obj 231 18 inlet;
#X obj 141 246 readsf~;
#X obj 84 50 unpack f f;
#X msg 168 210 open \$1;
#X obj 231 78 moses 3;
#X obj 270 110 moses 6;
#X obj 231 139 t 0;
#X obj 180 272 s playEnded;
#X obj 141 294 outlet~;
#X obj 315 291 outlet~;
#X obj 141 78 t f f;
#X obj 168 111 sel 1;
#X obj 168 188 makefilename ./samples/Volcabiote_cri_euphorie_%d.wav
;
#X obj 168 139 random 7;
#X obj 270 139 t 0;
#X obj 309 140 t 0;
#X obj 168 166 + 1;
#X connect 0 0 3 0;
#X connect 1 0 5 0;
#X connect 2 0 9 0;
#X connect 2 1 8 0;
#X connect 3 1 11 0;
#X connect 4 0 2 0;
#X connect 5 0 7 0;
#X connect 5 1 6 0;
#X connect 6 0 15 0;
#X connect 6 1 16 0;
#X connect 11 0 2 0;
#X connect 11 1 12 0;
#X connect 12 0 14 0;
#X connect 13 0 4 0;
#X connect 14 0 17 0;
#X connect 17 0 13 0;
#X restore 261 694 pd playOneShot;
#N canvas 666 440 452 374 playOneShot 0;
#X obj 84 19 inlet;
#X obj 231 18 inlet;
#X obj 141 246 readsf~;
#X obj 84 50 unpack f f;
#X msg 168 210 open \$1;
#X obj 231 78 moses 3;
#X obj 270 110 moses 6;
#X obj 231 139 t 0;
#X obj 180 272 s playEnded;
#X obj 141 294 outlet~;
#X obj 315 291 outlet~;
#X obj 141 78 t f f;
#X obj 168 111 sel 1;
#X obj 168 188 makefilename ./samples/Volcabiote_cri_euphorie_%d.wav
;
#X obj 270 139 t 0;
#X obj 309 140 t 0;
#X obj 168 139 random 7;
#X obj 168 166 + 1;
#X connect 0 0 3 0;
#X connect 1 0 5 0;
#X connect 2 0 9 0;
#X connect 2 1 8 0;
#X connect 3 1 11 0;
#X connect 4 0 2 0;
#X connect 5 0 7 0;
#X connect 5 1 6 0;
#X connect 6 0 14 0;
#X connect 6 1 15 0;
#X connect 11 0 2 0;
#X connect 11 1 12 0;
#X connect 12 0 16 0;
#X connect 13 0 4 0;
#X connect 16 0 17 0;
#X connect 17 0 13 0;
#X restore 371 696 pd playOneShot;
#X text 337 493 Player polyphonique 4 voix: pour l'instant \, réagit
à la longueur du stimulus sonore externe., f 24;
#X obj 108 808 env~ 16384 8192;
#X obj 108 837 != 0;
#X obj 108 866 change 0;
#X obj 108 894 s isPlaying;
#X obj 152 29 * -1;
#X obj 152 53 + 1;
#X obj 152 4 r isPlaying;
#X obj 402 761 vsl 15 128 0 1 0 0 empty empty Main_volume 0 -9 0 10
-262144 -1 -1 7300 1;
#X obj 967 73 t f f;
#X obj 994 105 match 100 254;
#X obj 994 131 t b b;
#X obj 967 182 list prepend;
#X obj 1036 154 t l;
#X obj 898 233 list split 1;
#X obj 898 207 list prepend;
#X obj 669 170 route;
#X obj 636 336 bng 15 250 50 0 empty empty empty 17 7 0 10 -262144
-1 -1;
#X obj 663 386 del 1000;
#X obj 652 524 bng 15 250 50 0 empty empty empty 17 7 0 10 -262144
-1 -1;
#X obj 636 362 t b b;
#X obj 673 470 + 1;
#X obj 636 470 f;
#X obj 621 509 f;
#X floatatom 621 543 5 0 0 0 - - -, f 5;
#X obj 663 411 t 1 b;
#X obj 621 577 hradio 15 1 0 8 empty empty Echelle_de_cri 0 -8 0 10
-262144 -1 -1 0;
#X text 704 468 Nombre de passages dans un temps court vers le symbiote.
, f 18;
#X obj 656 310 change;
#X obj 656 334 sel 1;
#X obj 918 429 vsl 15 128 0 1 0 0 empty empty Humeur_mouvement 0 -9
0 10 -262144 -1 -1 12700 1;
#X text 999 348 Moyenne de mouvement sur n mesures, f 11;
#X obj 849 876 tabwrite mouvements;
#N canvas 0 22 450 278 (subpatch) 0;
#X array mouvements 100 float 3;
#A 0 1 0 0 0 0 1 1 1 1 0 1 0 0 0 1 0 0 0 0 0 1 0 0 1 0 1 0 0 0 1 1
1 0 0 0 0 1 1 0 1 1 1 0 0 0 0 0.01 0.02 0 0 0 0 0 0 0 0 0 0 0 0 0 0
0 0 0 0 0 0 0 0 0 0 0 0 0 0 0 0 0 0 0 0 0 0 0 0 0 0 0 0 0 0 0 0 0 0
0 0 0 0;
#X coords 0 1 100 -1 200 140 1;
#X restore 972 753 graph;
#X obj 849 642 tgl 15 0 empty empty empty 17 7 0 10 -262144 -1 -1 0
1;
#X obj 849 707 t f b;
#X obj 913 736 + 1;
#X obj 876 736 f;
#X obj 876 764 t f f;
#X msg 903 815 0;
#X floatatom 876 836 5 0 0 0 - - -, f 5;
#X obj 903 789 sel 99;
#X floatatom 849 856 5 0 0 0 - - -, f 5;
#X obj 49 380 s humeur_bruit;
#X obj 918 565 s humeur_mouvement;
#N canvas 551 23 776 708 humeur 1;
#X obj 95 61 r humeur_bruit;
#X obj 236 61 r humeur_mouvement;
#X obj 314 228 &&, f 4;
#X obj 224 251 <;
#X text 352 229 Hilarité;
#X obj 54 205 == 0;
#X obj 90 205 == 0;
#X obj 59 261 &&, f 4;
#X text -4 203 Timidité;
#X text 250 252 Hostilité;
#X obj 61 288 sel 1;
#X obj 162 331 sel 1;
#X obj 221 354 sel 1;
#X obj 312 351 sel 1;
#X obj 61 317 bng 15 250 50 0 empty empty empty 17 7 0 10 -262144 -1
-1;
#X obj 153 383 bng 15 250 50 0 empty empty empty 17 7 0 10 -262144
-1 -1;
#X obj 221 380 bng 15 250 50 0 empty empty empty 17 7 0 10 -262144
-1 -1;
#X obj 312 376 bng 15 250 50 0 empty empty empty 17 7 0 10 -262144
-1 -1;
#X obj 315 201 t b f;
#X obj 226 222 t b f;
#X obj 88 229 t b f;
#X obj 95 140 change 0;
#X floatatom 236 89 5 0 0 0 - - -, f 5;
#X obj 168 191 t b f;
#X obj 163 236 > 0;
#X floatatom 94 88 5 0 0 0 - - -, f 5;
#X msg 57 401 timide;
#X msg 153 407 serein;
#X text 129 260 Sérénité;
#X msg 221 404 hostile;
#X msg 312 404 hilare;
#X obj 248 468 symbol;
#X obj 248 497 s humeurSymbiote;
#X obj 361 163 print change;
#X obj 236 116 > 0.5;
#X obj 162 277 change;
#X obj 236 193 change;
#X floatatom 236 138 5 0 0 0 - - -, f 5;
#X obj 624 189 vsl 15 128 0 127 0 0 empty empty empty 0 -9 0 10 -262144
-1 -1 2500 1;
#X obj 618 370 > 40;
#X obj 621 428 change;
#X obj 423 454 print a;
#X obj 95 115 > 50;
#X connect 0 0 25 0;
#X connect 1 0 22 0;
#X connect 3 0 12 0;
#X connect 5 0 7 0;
#X connect 6 0 20 0;
#X connect 7 0 10 0;
#X connect 10 0 14 0;
#X connect 11 0 15 0;
#X connect 12 0 16 0;
#X connect 13 0 17 0;
#X connect 14 0 26 0;
#X connect 15 0 27 0;
#X connect 16 0 29 0;
#X connect 17 0 30 0;
#X connect 18 1 2 1;
#X connect 19 1 3 1;
#X connect 20 0 7 0;
#X connect 20 1 7 1;
#X connect 21 0 5 0;
#X connect 21 0 3 0;
#X connect 21 0 2 0;
#X connect 21 0 24 0;
#X connect 22 0 34 0;
#X connect 23 1 24 1;
#X connect 24 0 35 0;
#X connect 25 0 42 0;
#X connect 26 0 31 0;
#X connect 27 0 31 0;
#X connect 29 0 31 0;
#X connect 30 0 31 0;
#X connect 31 0 32 0;
#X connect 34 0 37 0;
#X connect 35 0 11 0;
#X connect 36 0 6 0;
#X connect 36 0 23 0;
#X connect 36 0 19 0;
#X connect 36 0 18 0;
#X connect 36 0 33 0;
#X connect 37 0 36 0;
#X connect 37 0 23 0;
#X connect 38 0 39 0;
#X connect 39 0 40 0;
#X connect 42 0 21 0;
#X restore 1110 173 pd humeur;
#X obj 849 661 metro 500;
#X obj 1105 209 r humeurSymbiote;
#X symbolatom 1105 234 10 0 0 0 - - -, f 10;
#X obj 849 684 random 2;
#X obj 932 269 s sortedData;
#X msg 1100 20 close;
#N canvas 1584 441 450 300 median_3 0;
#X obj 76 51 inlet;
#X obj 76 81 f;
#X obj 76 126 t f b b;
#X obj 78 169 f;
#X obj 103 169 f;
#X obj 129 169 f;
#X obj 93 200 min;
#X obj 78 220 max;
#X obj 78 242 min;
#X obj 123 200 max;
#X obj 78 265 outlet;
#X connect 0 0 1 0;
#X connect 1 0 2 0;
#X connect 2 0 3 0;
#X connect 2 1 4 0;
#X connect 2 2 5 0;
#X connect 3 0 7 0;
#X connect 3 0 4 1;
#X connect 4 0 6 0;
#X connect 4 0 9 0;
#X connect 4 0 5 1;
#X connect 5 0 9 1;
#X connect 5 0 6 1;
#X connect 6 0 7 1;
#X connect 7 0 8 0;
#X connect 8 0 10 0;
#X connect 9 0 8 1;
#X restore 967 46 pd median_3;
#N canvas 1584 441 450 300 median_3 0;
#X obj 76 51 inlet;
#X obj 76 81 f;
#X obj 76 126 t f b b;
#X obj 78 169 f;
#X obj 103 169 f;
#X obj 129 169 f;
#X obj 93 200 min;
#X obj 78 220 max;
#X obj 78 242 min;
#X obj 123 200 max;
#X obj 78 265 outlet;
#X connect 0 0 1 0;
#X connect 1 0 2 0;
#X connect 2 0 3 0;
#X connect 2 1 4 0;
#X connect 2 2 5 0;
#X connect 3 0 7 0;
#X connect 3 0 4 1;
#X connect 4 0 6 0;
#X connect 4 0 9 0;
#X connect 4 0 5 1;
#X connect 5 0 9 1;
#X connect 5 0 6 1;
#X connect 6 0 7 1;
#X connect 7 0 8 0;
#X connect 8 0 10 0;
#X connect 9 0 8 1;
#X restore 541 741 pd median_3;
#X obj 875 73 print capteur;
#X obj 918 352 average 100;
#X obj 174 82 tgl 15 0 empty empty empty 17 7 0 10 -262144 -1 -1 1
1;
#X obj 967 15 comport 2 9600;
#X obj 656 288 <= 100;
#X obj 804 130 vsl 15 128 0 250 0 0 empty empty Capteur 0 -9 0 10 -262144
-1 -1 4420 1;
#X floatatom 804 266 5 0 0 0 - - -, f 5;
#X obj 621 605 s echelleCri;
#X obj 193 494 t b b f;
#X msg 221 523 1;
#X obj 284 494 t b b;
#X msg 284 521 1;
#X msg 311 539 0;
#X connect 0 0 2 0;
#X connect 2 0 22 0;
#X connect 3 0 16 0;
#X connect 3 0 19 0;
#X connect 3 0 20 0;
#X connect 4 0 5 0;
#X connect 7 0 9 0;
#X connect 8 0 10 0;
#X connect 8 0 11 0;
#X connect 9 0 13 0;
#X connect 9 1 12 0;
#X connect 10 0 14 1;
#X connect 11 0 8 1;
#X connect 12 0 8 0;
#X connect 13 0 14 0;
#X connect 13 1 12 0;
#X connect 13 2 8 1;
#X connect 14 0 21 0;
#X connect 16 0 17 0;
#X connect 17 0 7 0;
#X connect 18 0 78 0;
#X connect 20 0 18 0;
#X connect 21 0 27 0;
#X connect 22 0 3 0;
#X connect 23 0 1 0;
#X connect 23 0 36 0;
#X connect 23 1 1 1;
#X connect 24 0 26 0;
#X connect 24 1 26 1;
#X connect 24 2 26 2;
#X connect 25 0 30 0;
#X connect 25 1 32 0;
#X connect 25 2 33 0;
#X connect 25 3 34 0;
#X connect 26 0 25 0;
#X connect 28 0 97 0;
#X connect 29 0 99 0;
#X connect 30 0 23 0;
#X connect 30 1 23 1;
#X connect 31 0 24 0;
#X connect 32 0 23 0;
#X connect 32 1 23 1;
#X connect 33 0 23 0;
#X connect 33 1 23 1;
#X connect 34 0 23 0;
#X connect 34 1 23 1;
#X connect 36 0 37 0;
#X connect 37 0 38 0;
#X connect 38 0 39 0;
#X connect 40 0 41 0;
#X connect 41 0 22 1;
#X connect 41 0 91 0;
#X connect 42 0 40 0;
#X connect 43 0 23 2;
#X connect 44 0 47 0;
#X connect 44 0 93 0;
#X connect 44 0 94 0;
#X connect 44 1 45 0;
#X connect 45 0 46 0;
#X connect 46 0 50 0;
#X connect 46 1 47 1;
#X connect 47 0 48 0;
#X connect 47 0 50 1;
#X connect 48 0 47 1;
#X connect 49 1 85 0;
#X connect 50 0 49 0;
#X connect 52 0 55 0;
#X connect 53 0 60 0;
#X connect 55 0 57 0;
#X connect 55 1 53 0;
#X connect 56 0 57 1;
#X connect 57 0 56 0;
#X connect 57 0 58 1;
#X connect 58 0 59 0;
#X connect 59 0 61 0;
#X connect 60 0 57 1;
#X connect 60 1 58 0;
#X connect 61 0 96 0;
#X connect 63 0 64 0;
#X connect 64 0 55 0;
#X connect 65 0 79 0;
#X connect 69 0 81 0;
#X connect 70 0 77 0;
#X connect 70 1 72 0;
#X connect 71 0 72 1;
#X connect 72 0 71 0;
#X connect 72 0 73 0;
#X connect 73 0 75 0;
#X connect 73 1 76 0;
#X connect 74 0 72 1;
#X connect 75 0 67 1;
#X connect 76 0 74 0;
#X connect 77 0 67 0;
#X connect 81 0 84 0;
#X connect 82 0 83 0;
#X connect 84 0 70 0;
#X connect 86 0 92 0;
#X connect 87 0 44 0;
#X connect 90 0 65 0;
#X connect 92 0 87 0;
#X connect 93 0 63 0;
#X connect 94 0 95 0;
#X connect 97 0 31 0;
#X connect 97 1 98 0;
#X connect 97 2 30 1;
#X connect 97 2 32 1;
#X connect 97 2 33 1;
#X connect 97 2 34 1;
#X connect 98 0 24 1;
#X connect 99 0 100 0;
#X connect 99 1 101 0;
#X connect 100 0 24 0;
#X connect 101 0 24 1;
