#N canvas 238 409 517 313 10;
#X obj 23 202 random;
#X floatatom 5 30 5 0 0 1 RandMax - -, f 5;
#X obj 23 228 +;
#X floatatom 5 6 5 0 0 1 RandMin - -, f 5;
#X obj 23 127 inlet;
#X obj 23 266 outlet;
#X obj 240 158 t b i;
#X obj 98 159 t b i;
#X text 249 16 Randomization between 0 & 1;
#X obj 240 50 inlet;
#X obj 240 82 t b i;
#X text 286 50 Send a new fixed time value;
#X obj 112 12 r MACRO_Expressivity;
#X text 69 123 Bang a new value when there is randomization or the
fixed 1 if not;
#X obj 98 208 int;
#X obj 98 185 scale 0 1 0 500;
#X obj 240 186 scale 0 1 3493 50;
#X obj 5 82 -;
#X obj 11 58 t b i;
#X connect 0 0 2 0;
#X connect 1 0 17 0;
#X connect 2 0 5 0;
#X connect 3 0 6 0;
#X connect 3 0 18 0;
#X connect 4 0 0 0;
#X connect 6 0 16 0;
#X connect 6 1 16 4;
#X connect 7 0 15 0;
#X connect 7 1 15 4;
#X connect 9 0 10 0;
#X connect 10 0 16 0;
#X connect 10 1 16 3;
#X connect 12 0 15 0;
#X connect 12 0 16 0;
#X connect 14 0 0 1;
#X connect 15 0 14 0;
#X connect 16 0 2 1;
#X connect 17 0 7 0;
#X connect 18 0 17 0;
#X connect 18 1 17 1;
#X coords 0 -1 1 1 100 50 2 0 0;
