#N canvas 302 23 1172 762 10;
#X obj 875 2 waveform;
#X obj 817 266 vsl 40 397 0 1 0 0 MACRO empty MACRO 2 7 1 10 -99865
-20480 -262144 39600 1;
#X msg 817 55 \; pd dsp 1;
#X obj 817 25 loadbang;
#X obj 165 701 dac~;
#X obj 2 671 catch~ 1-Osc;
#X obj 96 671 catch~ 2-Osc;
#X obj 190 671 catch~ 3-Osc;
#X obj 284 671 catch~ 4-Osc;
#X msg 889 54 \; pd dsp 0;
#N canvas 420 289 356 174 init 0;
#X text 6 8 Externals needed to run the patch: [scale];
#X text 6 22 >> declare library maxlib;
#X restore 818 2 pd init;
#N canvas 1019 23 399 301 store-pst 0;
#X obj 105 98 r store-pst;
#X obj 46 56 bng 15 250 50 0 empty empty SAVE 17 7 0 10 -262144 -1
-1;
#X obj 43 98 savepanel;
#X obj 62 167 s bang-pst;
#X obj 105 215 list trim;
#X obj 43 120 t s b b;
#X msg 43 187 write \$1;
#X msg 82 145 clear;
#X obj 215 55 hsl 115 15 0 1 0 0 pst-morph MACRO MORPH 0 8 0 10 -262144
-1 -1 11400 1;
#X obj 190 180 until;
#X msg 231 180 rewind;
#X obj 190 213 textfile;
#X obj 103 48 bng 15 250 50 0 empty empty OPEN_PRESET_1 17 7 0 10 -262144
-1 -1;
#X obj 190 129 openpanel;
#X msg 280 180 read \$1;
#X obj 190 151 t b b s;
#X obj 222 279 s pst;
#X obj 103 66 bng 15 250 50 0 empty empty OPEN_PRESET_2 17 7 0 10 -262144
-1 -1;
#X obj 190 98 t b b;
#X obj 231 98 t b b;
#X msg 306 213 2;
#X msg 276 213 1;
#X obj 190 235 prepend;
#X obj 43 241 qlist;
#X obj 190 257 t b l;
#X connect 0 0 4 0;
#X connect 1 0 2 0;
#X connect 2 0 5 0;
#X connect 4 0 23 0;
#X connect 5 0 6 0;
#X connect 5 1 3 0;
#X connect 5 2 7 0;
#X connect 6 0 23 0;
#X connect 7 0 23 0;
#X connect 9 0 11 0;
#X connect 10 0 11 0;
#X connect 11 0 22 0;
#X connect 11 1 9 1;
#X connect 12 0 18 0;
#X connect 13 0 15 0;
#X connect 14 0 11 0;
#X connect 15 0 9 0;
#X connect 15 1 10 0;
#X connect 15 2 14 0;
#X connect 17 0 19 0;
#X connect 18 0 13 0;
#X connect 18 1 21 0;
#X connect 19 0 13 0;
#X connect 19 1 20 0;
#X connect 20 0 22 1;
#X connect 21 0 22 1;
#X connect 22 0 24 0;
#X connect 24 0 8 0;
#X connect 24 1 16 0;
#X coords 0 -1 1 1 300 50 1 40 35;
#X restore 817 201 pd store-pst;
#X obj 1 1 cnv 15 805 250 empty empty PLAY_MODES 20 12 0 14 -162280
-262144 0;
#N canvas 618 96 588 640 sequencer 0;
#X obj 126 177 i;
#X obj 125 292 tgl 20 0 empty play-seq Play/Stop 25 10 0 10 -27631
-1 -1 0 1;
#X floatatom 384 470 3 0 300 1 - - -, f 3;
#X text 384 488 BPM;
#X obj 126 131 metro;
#X obj 158 102 expr 60000/$i1/4;
#X obj 160 176 + 1;
#X obj 126 221 sel 1 2 3 4 5 6 7 8 9 10 11 12 13 14 15 16;
#X obj 129 200 sel 16;
#X msg 80 178 1;
#X obj 57 77 loadbang;
#X obj 80 146 sel 0;
#X obj 142 470 tgl 15 0 empty empty empty 17 7 0 10 -262144 -1 -1 1
1;
#X obj 126 471 tgl 15 0 empty empty empty 17 7 0 10 -262144 -1 -1 1
1;
#X obj 174 470 tgl 15 0 empty empty empty 17 7 0 10 -262144 -1 -1 1
1;
#X obj 158 470 tgl 15 0 empty empty empty 17 7 0 10 -262144 -1 -1 1
1;
#X obj 206 470 tgl 15 0 empty empty empty 17 7 0 10 -262144 -1 -1 1
1;
#X obj 190 470 tgl 15 0 empty empty empty 17 7 0 10 -262144 -1 -1 1
1;
#X obj 238 470 tgl 15 0 empty empty empty 17 7 0 10 -262144 -1 -1 1
1;
#X obj 222 470 tgl 15 0 empty empty empty 17 7 0 10 -262144 -1 -1 1
1;
#X obj 126 252 i;
#X obj 153 252 i;
#X obj 180 252 i;
#X obj 207 252 i;
#X obj 234 252 i;
#X obj 261 252 i;
#X obj 288 252 i;
#X obj 315 252 i;
#X obj 270 470 tgl 15 0 empty empty empty 17 7 0 10 -262144 -1 -1 1
1;
#X obj 254 470 tgl 15 0 empty empty empty 17 7 0 10 -262144 -1 -1 1
1;
#X obj 302 470 tgl 15 0 empty empty empty 17 7 0 10 -262144 -1 -1 1
1;
#X obj 286 470 tgl 15 0 empty empty empty 17 7 0 10 -262144 -1 -1 1
1;
#X obj 334 470 tgl 15 0 empty empty empty 17 7 0 10 -262144 -1 -1 1
1;
#X obj 318 470 tgl 15 0 empty empty empty 17 7 0 10 -262144 -1 -1 1
1;
#X obj 365 470 tgl 15 0 empty empty empty 17 7 0 10 -262144 -1 -1 1
1;
#X obj 350 470 tgl 15 0 empty empty empty 17 7 0 10 -262144 -1 -1 1
1;
#X obj 342 252 i;
#X obj 369 252 i;
#X obj 396 252 i;
#X obj 423 252 i;
#X obj 450 252 i;
#X obj 477 252 i;
#X obj 504 252 i;
#X obj 531 252 i;
#X obj 531 279 s seq;
#N canvas 0 23 450 278 (subpatch) 0;
#X array Arpeg 16 float 3;
#A 0 4.69286 4.69286 4.77143 4.85 4.85 4.85 4.92857 4.85 4.85 4.85
4.85 4.85 4.85 4.85 4.85 4.85;
#X coords 1 12 17 1 255 140 1 0 0;
#X restore 126 330 graph;
#X obj 6 453 array get Arpeg;
#X msg 57 425 1, f 2;
#X obj 129 486 hsl 250 15 1 16 0 0 empty empty empty -2 -8 0 10 -66577
-20480 -1 13280 1;
#X obj 6 475 int;
#X obj 6 542 mtof;
#X obj 6 514 expr $i1 + 12 * $i2;
#X obj 381 332 vsl 25 135 0 11 0 0 empty empty OCTAVE 0 -9 0 10 -27631
-1 -1 0 1;
#X obj 6 568 outlet;
#X msg 70 248 0;
#X obj 225 292 tgl 20 0 empty empty Loop 25 10 0 10 -27631 -1 -1 0
1;
#X obj 521 318 * -1;
#X obj 521 340 + 1;
#X obj 69 225 spigot 0;
#X connect 0 0 6 0;
#X connect 0 0 8 0;
#X connect 0 0 7 0;
#X connect 0 0 46 0;
#X connect 0 0 48 0;
#X connect 1 0 4 0;
#X connect 1 0 11 0;
#X connect 2 0 5 0;
#X connect 4 0 0 0;
#X connect 5 0 4 1;
#X connect 6 0 0 1;
#X connect 7 0 20 0;
#X connect 7 1 21 0;
#X connect 7 2 22 0;
#X connect 7 3 23 0;
#X connect 7 4 24 0;
#X connect 7 5 25 0;
#X connect 7 6 26 0;
#X connect 7 7 27 0;
#X connect 7 8 36 0;
#X connect 7 9 37 0;
#X connect 7 10 38 0;
#X connect 7 11 39 0;
#X connect 7 12 40 0;
#X connect 7 13 41 0;
#X connect 7 14 42 0;
#X connect 7 15 43 0;
#X connect 8 0 9 0;
#X connect 8 0 58 0;
#X connect 9 0 0 1;
#X connect 10 0 9 0;
#X connect 10 0 47 0;
#X connect 11 0 9 0;
#X connect 12 0 21 1;
#X connect 13 0 20 1;
#X connect 14 0 23 1;
#X connect 15 0 22 1;
#X connect 16 0 25 1;
#X connect 17 0 24 1;
#X connect 18 0 27 1;
#X connect 19 0 26 1;
#X connect 20 0 44 0;
#X connect 21 0 44 0;
#X connect 22 0 44 0;
#X connect 23 0 44 0;
#X connect 24 0 44 0;
#X connect 25 0 44 0;
#X connect 26 0 44 0;
#X connect 27 0 44 0;
#X connect 28 0 37 1;
#X connect 29 0 36 1;
#X connect 30 0 39 1;
#X connect 31 0 38 1;
#X connect 32 0 41 1;
#X connect 33 0 40 1;
#X connect 34 0 43 1;
#X connect 35 0 42 1;
#X connect 36 0 44 0;
#X connect 37 0 44 0;
#X connect 38 0 44 0;
#X connect 39 0 44 0;
#X connect 40 0 44 0;
#X connect 41 0 44 0;
#X connect 42 0 44 0;
#X connect 43 0 44 0;
#X connect 46 0 49 0;
#X connect 47 0 46 1;
#X connect 49 0 51 0;
#X connect 50 0 53 0;
#X connect 51 0 50 0;
#X connect 52 0 51 1;
#X connect 54 0 1 0;
#X connect 55 0 56 0;
#X connect 56 0 57 0;
#X connect 57 0 58 1;
#X connect 58 0 54 0;
#X coords 0 -1 1 1 300 215 2 123 290;
#X restore 232 4 pd sequencer;
#N canvas 567 254 695 572 toneTelSeq 0;
#X msg 277 263 513;
#X msg 355 263 508;
#X msg 278 309 1255;
#X msg 355 308 3493;
#X obj 24 140 tgl 15 0 empty empty empty 17 7 0 10 -262144 -1 -1 0
1;
#X obj 24 209 == 1;
#X obj 81 210 == 0;
#X obj 24 234 sel 1;
#X obj 24 182 tgl 15 0 empty empty empty 17 7 0 10 -262144 -1 -1 0
1;
#X text 276 242 On;
#X text 353 241 Off;
#X obj 148 80 random 3;
#X obj 205 134 sel 1;
#X obj 295 135 sel 2;
#X text 373 134 Select mode randomly;
#X obj 148 134 sel 0;
#X text 373 168 1 - Busy;
#X text 373 185 2 - Call;
#X text 373 153 0 - No sound;
#X obj 24 162 metro 513;
#X obj 3 282 s seq;
#X text 401 264 Busy mode;
#X text 402 307 Call mode;
#X obj 20 320 tgl 20 0 empty empty Play 25 10 0 10 -36344 -1 -1 1 1
;
#X obj 148 48 metro;
#X obj 24 84 onebang;
#X msg 24 115 0;
#X obj 81 234 sel 1;
#X msg 205 163 1;
#X msg 295 163 1;
#X obj 148 109 change;
#X obj 265 356 random 6;
#X obj 64 391 + 1;
#X obj 23 392 i;
#X obj 23 442 sel 1;
#X text 67 419 Count and stop the tone after reaching the maximum number
;
#X text 333 358 Randomly define the maximum number of tone;
#X msg 23 469 0;
#X obj 216 88 + 8000;
#X obj 216 64 random 2000;
#X msg 355 216 0;
#X obj 23 418 == 5;
#X obj 205 192 t i b b b;
#X obj 295 190 t i b b b;
#X obj 265 375 + 4;
#X obj 20 340 Randomization;
#X text 310 377 Minimum number of tones;
#X obj 471 285 scale 0 1 6 20;
#X text 101 324 ON;
#X text 197 325 OFF;
#X obj 471 254 r MACRO;
#X obj 121 340 Randomization;
#X connect 0 0 45 1;
#X connect 1 0 51 1;
#X connect 2 0 45 1;
#X connect 3 0 51 1;
#X connect 4 0 19 0;
#X connect 5 0 7 0;
#X connect 6 0 27 0;
#X connect 7 0 33 0;
#X connect 7 0 45 0;
#X connect 8 0 5 0;
#X connect 8 0 6 0;
#X connect 8 0 20 0;
#X connect 11 0 30 0;
#X connect 12 0 28 0;
#X connect 13 0 29 0;
#X connect 15 0 25 1;
#X connect 19 0 8 0;
#X connect 23 0 24 0;
#X connect 24 0 11 0;
#X connect 24 0 39 0;
#X connect 25 0 26 0;
#X connect 26 0 4 0;
#X connect 27 0 25 0;
#X connect 27 0 51 0;
#X connect 28 0 42 0;
#X connect 29 0 43 0;
#X connect 30 0 15 0;
#X connect 30 0 12 0;
#X connect 30 0 13 0;
#X connect 31 0 44 0;
#X connect 32 0 33 1;
#X connect 33 0 32 0;
#X connect 33 0 41 0;
#X connect 34 0 37 0;
#X connect 37 0 30 0;
#X connect 38 0 24 1;
#X connect 39 0 38 0;
#X connect 40 0 33 1;
#X connect 41 0 34 0;
#X connect 42 0 4 0;
#X connect 42 1 1 0;
#X connect 42 2 0 0;
#X connect 42 3 40 0;
#X connect 42 3 31 0;
#X connect 43 0 4 0;
#X connect 43 1 3 0;
#X connect 43 2 2 0;
#X connect 43 3 40 0;
#X connect 43 3 31 0;
#X connect 44 0 41 1;
#X connect 45 0 19 1;
#X connect 47 0 31 1;
#X connect 50 0 47 0;
#X connect 51 0 19 1;
#X coords 0 -1 1 1 202 90 1 20 300;
#X restore 5 38 pd toneTelSeq;
#X obj 549 14 tgl 15 0 empty empty empty 17 7 0 10 -262144 -1 -1 0
1;
#N canvas 0 23 450 300 rambom-seq-trigger 0;
#X obj 132 68 metro 1000;
#X obj 132 112 + 1000;
#X obj 75 142 metro 5000;
#X obj 75 210 + 1000;
#X obj 75 164 t b b;
#X obj 154 188 s play-seq;
#X obj 132 90 random 9000;
#X obj 75 188 random 9000;
#X obj 75 25 inlet;
#X connect 0 0 6 0;
#X connect 1 0 2 1;
#X connect 2 0 4 0;
#X connect 3 0 0 1;
#X connect 4 0 7 0;
#X connect 4 1 5 0;
#X connect 6 0 1 0;
#X connect 7 0 3 0;
#X connect 8 0 2 0;
#X connect 8 0 0 0;
#X restore 549 35 pd rambom-seq-trigger;
#X obj 232 231 s 1-set-Pitch;
#X obj 335 231 s 2-set-Pitch;
#X obj 437 231 s 3-set-Pitch;
#X obj 540 231 s 4-set-Pitch;
#X obj 2 264 FM_Osc 1;
#X obj 721 27 tgl 15 0 empty empty empty 17 7 0 10 -262144 -1 -1 0
1;
#X obj 721 50 s 1-TrigOsc;
#X obj 721 74 s 2-TrigOsc;
#X obj 721 98 s 3-TrigOsc;
#X obj 721 122 s 4-TrigOsc;
#X obj 721 4 r seq;
#X obj 406 264 FM_Osc 2;
#X obj 2 466 FM_Osc 3;
#X obj 406 466 FM_Osc 4;
#X connect 3 0 2 0;
#X connect 5 0 4 0;
#X connect 5 0 4 1;
#X connect 6 0 4 0;
#X connect 6 0 4 1;
#X connect 7 0 4 0;
#X connect 7 0 4 1;
#X connect 8 0 4 0;
#X connect 8 0 4 1;
#X connect 13 0 17 0;
#X connect 13 0 18 0;
#X connect 13 0 19 0;
#X connect 13 0 20 0;
#X connect 15 0 16 0;
#X connect 22 0 23 0;
#X connect 22 0 24 0;
#X connect 22 0 26 0;
#X connect 22 0 25 0;
#X connect 27 0 22 0;
