#N canvas 592 557 1240 715 10;
#N canvas 618 96 588 640 sequencer 0;
#X obj 126 177 i;
#X obj 125 292 tgl 20 0 empty play-seq Play/Stop 25 10 0 10 -27631
-1 -1 1 1;
#X floatatom 384 470 3 0 300 1 - - -, f 3;
#X text 384 488 BPM;
#X obj 126 131 metro;
#X obj 158 102 expr 60000/$i1/4;
#X obj 160 176 + 1;
#X obj 126 221 sel 1 2 3 4 5 6 7 8 9 10 11 12 13 14 15 16;
#X obj 129 200 sel 16;
#X msg 80 178 1;
#X obj 57 77 loadbang;
#X obj 80 146 sel 0;
#X obj 142 470 tgl 15 0 empty empty empty 17 7 0 10 -262144 -1 -1 0
1;
#X obj 126 471 tgl 15 0 empty empty empty 17 7 0 10 -262144 -1 -1 1
1;
#X obj 174 470 tgl 15 0 empty empty empty 17 7 0 10 -262144 -1 -1 0
1;
#X obj 158 470 tgl 15 0 empty empty empty 17 7 0 10 -262144 -1 -1 1
1;
#X obj 206 470 tgl 15 0 empty empty empty 17 7 0 10 -262144 -1 -1 0
1;
#X obj 190 470 tgl 15 0 empty empty empty 17 7 0 10 -262144 -1 -1 1
1;
#X obj 238 470 tgl 15 0 empty empty empty 17 7 0 10 -262144 -1 -1 0
1;
#X obj 222 470 tgl 15 0 empty empty empty 17 7 0 10 -262144 -1 -1 1
1;
#X obj 126 252 i;
#X obj 153 252 i;
#X obj 180 252 i;
#X obj 207 252 i;
#X obj 234 252 i;
#X obj 261 252 i;
#X obj 288 252 i;
#X obj 315 252 i;
#X obj 270 470 tgl 15 0 empty empty empty 17 7 0 10 -262144 -1 -1 0
1;
#X obj 254 470 tgl 15 0 empty empty empty 17 7 0 10 -262144 -1 -1 1
1;
#X obj 302 470 tgl 15 0 empty empty empty 17 7 0 10 -262144 -1 -1 0
1;
#X obj 286 470 tgl 15 0 empty empty empty 17 7 0 10 -262144 -1 -1 1
1;
#X obj 334 470 tgl 15 0 empty empty empty 17 7 0 10 -262144 -1 -1 0
1;
#X obj 318 470 tgl 15 0 empty empty empty 17 7 0 10 -262144 -1 -1 1
1;
#X obj 365 470 tgl 15 0 empty empty empty 17 7 0 10 -262144 -1 -1 0
1;
#X obj 350 470 tgl 15 0 empty empty empty 17 7 0 10 -262144 -1 -1 1
1;
#X obj 342 252 i;
#X obj 369 252 i;
#X obj 396 252 i;
#X obj 423 252 i;
#X obj 450 252 i;
#X obj 477 252 i;
#X obj 504 252 i;
#X obj 531 252 i;
#X obj 531 279 s seq;
#N canvas 0 23 450 278 (subpatch) 0;
#X array Arpeg 16 float 3;
#A 0 12.0786 11.7643 11.6857 11.6857 11.6857 11.7643 11.7643 11.7643
11.7643 11.7643 11.9214 11.9214 11.9214 11.9214 11.8428 11.7643;
#X coords 1 12 17 1 255 140 1 0 0;
#X restore 126 330 graph;
#X obj 6 453 array get Arpeg;
#X msg 57 425 1, f 2;
#X obj 129 486 hsl 250 15 1 16 0 0 empty empty empty -2 -8 0 10 -66577
-20480 -1 8300 1;
#X obj 6 475 int;
#X obj 6 542 mtof;
#X obj 6 514 expr $i1 + 12 * $i2;
#X obj 381 332 vsl 25 135 0 11 0 0 empty empty OCTAVE 0 -9 0 10 -27631
-1 -1 7700 1;
#X obj 6 568 outlet;
#X msg 70 248 0;
#X obj 225 292 tgl 20 0 empty empty Loop 25 10 0 10 -27631 -1 -1 1
1;
#X obj 521 318 * -1;
#X obj 521 340 + 1;
#X obj 69 225 spigot 0;
#X connect 0 0 6 0;
#X connect 0 0 8 0;
#X connect 0 0 7 0;
#X connect 0 0 46 0;
#X connect 0 0 48 0;
#X connect 1 0 4 0;
#X connect 1 0 11 0;
#X connect 2 0 5 0;
#X connect 4 0 0 0;
#X connect 5 0 4 1;
#X connect 6 0 0 1;
#X connect 7 0 20 0;
#X connect 7 1 21 0;
#X connect 7 2 22 0;
#X connect 7 3 23 0;
#X connect 7 4 24 0;
#X connect 7 5 25 0;
#X connect 7 6 26 0;
#X connect 7 7 27 0;
#X connect 7 8 36 0;
#X connect 7 9 37 0;
#X connect 7 10 38 0;
#X connect 7 11 39 0;
#X connect 7 12 40 0;
#X connect 7 13 41 0;
#X connect 7 14 42 0;
#X connect 7 15 43 0;
#X connect 8 0 9 0;
#X connect 8 0 58 0;
#X connect 9 0 0 1;
#X connect 10 0 9 0;
#X connect 10 0 47 0;
#X connect 11 0 9 0;
#X connect 12 0 21 1;
#X connect 13 0 20 1;
#X connect 14 0 23 1;
#X connect 15 0 22 1;
#X connect 16 0 25 1;
#X connect 17 0 24 1;
#X connect 18 0 27 1;
#X connect 19 0 26 1;
#X connect 20 0 44 0;
#X connect 21 0 44 0;
#X connect 22 0 44 0;
#X connect 23 0 44 0;
#X connect 24 0 44 0;
#X connect 25 0 44 0;
#X connect 26 0 44 0;
#X connect 27 0 44 0;
#X connect 28 0 37 1;
#X connect 29 0 36 1;
#X connect 30 0 39 1;
#X connect 31 0 38 1;
#X connect 32 0 41 1;
#X connect 33 0 40 1;
#X connect 34 0 43 1;
#X connect 35 0 42 1;
#X connect 36 0 44 0;
#X connect 37 0 44 0;
#X connect 38 0 44 0;
#X connect 39 0 44 0;
#X connect 40 0 44 0;
#X connect 41 0 44 0;
#X connect 42 0 44 0;
#X connect 43 0 44 0;
#X connect 46 0 49 0;
#X connect 47 0 46 1;
#X connect 49 0 51 0;
#X connect 50 0 53 0;
#X connect 51 0 50 0;
#X connect 52 0 51 1;
#X connect 54 0 1 0;
#X connect 55 0 56 0;
#X connect 56 0 57 0;
#X connect 57 0 58 1;
#X connect 58 0 54 0;
#X coords 0 -1 1 1 300 215 2 123 290;
#X restore 467 6 pd sequencer;
#X obj 7 339 waveform;
#X obj 13 45 vsl 40 150 0 1 0 0 MACRO_Expressivity empty MACRO_Expressivity
0 -9 1 12 -99865 -4032 -1 0 1;
#X msg 5 650 \; pd dsp 1;
#X obj 5 620 loadbang;
#X obj 600 651 dac~;
#X obj 430 621 catch~ 1-Osc;
#X obj 528 621 catch~ 2-Osc;
#X obj 626 621 catch~ 3-Osc;
#X obj 724 621 catch~ 4-Osc;
#X msg 77 649 \; pd dsp 0;
#X obj 157 33 tgl 15 0 empty empty empty 17 7 0 10 -262144 -1 -1 0
1;
#X obj 157 56 s 1-TrigOsc;
#X obj 157 100 s 2-TrigOsc;
#X obj 157 144 s 3-TrigOsc;
#X obj 157 188 s 4-TrigOsc;
#X obj 157 10 r seq;
#X text 281 184 Implem preset;
#X text 280 243 Implem Macro;
#X text 281 211 Implem Random;
#X obj 467 242 s 1-FreqOsc;
#N canvas 269 258 695 572 toneTelSeq 0;
#X msg 277 263 513;
#X msg 355 263 508;
#X msg 278 309 1255;
#X msg 355 308 3493;
#X obj 24 140 tgl 15 0 empty empty empty 17 7 0 10 -262144 -1 -1 0
1;
#X obj 24 209 == 1;
#X obj 81 210 == 0;
#X obj 24 234 sel 1;
#X obj 24 182 tgl 15 0 empty empty empty 17 7 0 10 -262144 -1 -1 0
1;
#X text 276 242 On;
#X text 353 241 Off;
#X obj 148 80 random 3;
#X obj 205 134 sel 1;
#X obj 295 135 sel 2;
#X text 373 134 Select mode randomly;
#X obj 148 134 sel 0;
#X text 373 168 1 - Busy;
#X text 373 185 2 - Call;
#X text 373 153 0 - No sound;
#X obj 24 162 metro 513;
#X obj 3 282 s seq;
#X text 199 264 Busy mode;
#X text 199 310 Call mode;
#X obj 148 15 tgl 20 0 empty empty Start 25 10 0 10 -20480 -1 -1 0
1;
#X obj 148 48 metro;
#X obj 24 84 onebang;
#X msg 24 115 0;
#X obj 81 234 sel 1;
#X msg 205 163 1;
#X msg 295 163 1;
#X obj 148 109 change;
#X obj 265 356 random 6;
#X obj 64 391 + 1;
#X obj 23 392 i;
#X obj 23 442 sel 1;
#X text 67 419 Count and stop the tone after reaching the maximum number
;
#X text 333 358 Randomly define the maximum number of tone;
#X msg 23 469 0;
#X obj 216 88 + 8000;
#X obj 216 64 random 2000;
#X obj 531 101 print Mode;
#X msg 355 216 0;
#X obj 23 418 == 5;
#X obj 205 192 t i b b b;
#X obj 295 190 t i b b b;
#X obj 265 375 + 4;
#X obj 80 265 Randomization;
#X obj 29 321 Randomization;
#X text 310 377 Minimum number of tones;
#X obj 471 254 r MACRO_Expressivity;
#X obj 471 285 scale 0 1 6 20;
#X connect 0 0 47 1;
#X connect 1 0 46 1;
#X connect 2 0 47 1;
#X connect 3 0 46 1;
#X connect 4 0 19 0;
#X connect 5 0 7 0;
#X connect 6 0 27 0;
#X connect 7 0 33 0;
#X connect 7 0 47 0;
#X connect 8 0 5 0;
#X connect 8 0 6 0;
#X connect 8 0 20 0;
#X connect 11 0 30 0;
#X connect 11 0 40 0;
#X connect 12 0 28 0;
#X connect 13 0 29 0;
#X connect 15 0 25 1;
#X connect 19 0 8 0;
#X connect 23 0 24 0;
#X connect 24 0 11 0;
#X connect 24 0 39 0;
#X connect 25 0 26 0;
#X connect 26 0 4 0;
#X connect 27 0 25 0;
#X connect 27 0 46 0;
#X connect 28 0 43 0;
#X connect 29 0 44 0;
#X connect 30 0 15 0;
#X connect 30 0 12 0;
#X connect 30 0 13 0;
#X connect 31 0 45 0;
#X connect 32 0 33 1;
#X connect 33 0 32 0;
#X connect 33 0 42 0;
#X connect 34 0 37 0;
#X connect 37 0 30 0;
#X connect 38 0 24 1;
#X connect 39 0 38 0;
#X connect 41 0 33 1;
#X connect 42 0 34 0;
#X connect 43 0 4 0;
#X connect 43 1 1 0;
#X connect 43 2 0 0;
#X connect 43 3 41 0;
#X connect 43 3 31 0;
#X connect 44 0 4 0;
#X connect 44 1 3 0;
#X connect 44 2 2 0;
#X connect 44 3 41 0;
#X connect 44 3 31 0;
#X connect 45 0 42 1;
#X connect 46 0 19 1;
#X connect 47 0 19 1;
#X connect 49 0 50 0;
#X connect 50 0 31 1;
#X coords 0 -1 1 1 70 40 1 142 0;
#X restore 295 8 pd toneTelSeq;
#N canvas 747 291 854 295 init 0;
#X text 261 25 Externals needed to run the patch: [scale];
#X text 261 39 >> declare library maxlib;
#X restore 295 51 pd init;
#X obj 871 15 tgl 15 0 empty empty empty 17 7 0 10 -262144 -1 -1 0
1;
#X obj 484 282 s 2-FreqOsc;
#N canvas 974 206 1205 288 store-pst 0;
#X obj 105 98 r store-pst;
#X obj 46 56 bng 15 250 50 0 empty empty SAVE 17 7 0 10 -262144 -1
-1;
#X obj 43 98 savepanel;
#X obj 62 167 s bang-pst;
#X obj 105 215 list trim;
#X obj 43 120 t s b b;
#X msg 43 187 write \$1;
#X msg 82 145 clear;
#X obj 215 55 hsl 115 15 0 1 0 0 pst-morph empty MORPH 0 8 0 10 -262144
-1 -1 10600 1;
#X obj 190 180 until;
#X msg 231 180 rewind;
#X obj 190 213 textfile;
#X obj 103 48 bng 15 250 50 0 empty empty OPEN_PRESET_1 17 7 0 10 -262144
-1 -1;
#X obj 190 129 openpanel;
#X msg 280 180 read \$1;
#X obj 190 151 t b b s;
#X obj 190 257 s pst;
#X obj 103 66 bng 15 250 50 0 empty empty OPEN_PRESET_2 17 7 0 10 -262144
-1 -1;
#N canvas 747 413 931 539 pst-routing-Osc_1 0;
#X obj 60 44 r pst;
#X obj 60 66 route 1 2;
#X obj 61 315 scale 0 1 0 1;
#X obj 61 337 s 1-set-waveform;
#X obj 61 269 r pst-morph;
#X obj 167 315 scale 0 1 0 1;
#X obj 167 337 s 1-set-glide;
#X obj 256 315 scale 0 1 0 1;
#X obj 362 315 scale 0 1 0 1;
#X obj 468 315 scale 0 1 0 1;
#X obj 574 315 scale 0 1 0 1;
#X obj 61 382 scale 0 1 0 1;
#X obj 177 382 scale 0 1 0 1;
#X obj 286 382 scale 0 1 0 1;
#X obj 402 382 scale 0 1 0 1;
#X obj 518 382 scale 0 1 0 1;
#X obj 629 381 scale 0 1 0 1;
#X obj 61 404 s 1-set-PADSR_Dlay;
#X obj 177 404 s 1-set-PADSR_Amp;
#X obj 286 404 s 1-set-PADSR_Atk;
#X obj 402 404 s 1-set-PADSR_Dcay;
#X obj 518 404 s 1-set-PADSR_Sus;
#X obj 629 404 s 1-set-PADSR_Rel;
#X obj 61 432 scale 0 1 0 1;
#X obj 177 432 scale 0 1 0 1;
#X obj 286 432 scale 0 1 0 1;
#X obj 402 432 scale 0 1 0 1;
#X obj 518 432 scale 0 1 0 1;
#X obj 629 431 scale 0 1 0 1;
#X obj 61 454 s 1-set-FADSR_Dlay;
#X obj 177 454 s 1-set-FADSR_Amp;
#X obj 286 454 s 1-set-FADSR_Atk;
#X obj 402 454 s 1-set-FADSR_Dcay;
#X obj 518 454 s 1-set-FADSR_Sus;
#X obj 629 454 s 1-set-FADSR_Rel;
#X obj 60 118 route 1-pst-waveform 1-pst-glide 1-pst-FM_Osc1 1-pst-FM_Osc2
1-pst-FM_Osc3 1-pst-FM_Osc4 1-pst-PADSR_Dlay 1-pst-PADSR_Amp 1-pst-PADSR_Atk
1-pst-PADSR_Dcay 1-pst-PADSR_Sus 1-pst-PADSR_Rel 1-pst-FADSR_Dlay 1-pst-FADSR_Amp
1-pst-FADSR_Atk 1-pst-FADSR_Dcay 1-pst-FADSR_Sus 1-pst-FADSR_Rel 1-pst-Vol
1-pst-AM_Waveform 1-pst-AM_Depth 1-pst-AM_Freq;
#X obj 440 118 route 1-pst-waveform 1-pst-glide 1-pst-FM_Osc1 1-pst-FM_Osc2
1-pst-FM_Osc3 1-pst-FM_Osc4 1-pst-PADSR_Dlay 1-pst-PADSR_Amp 1-pst-PADSR_Atk
1-pst-PADSR_Dcay 1-pst-PADSR_Sus 1-pst-PADSR_Rel 1-pst-FADSR_Dlay 1-pst-FADSR_Amp
1-pst-FADSR_Atk 1-pst-FADSR_Dcay 1-pst-FADSR_Sus 1-pst-FADSR_Rel 1-pst-Vol
1-pst-AM_Waveform 1-pst-AM_Depth 1-pst-AM_Freq;
#X obj 61 482 scale 0 1 0 1;
#X obj 157 482 scale 0 1 0 1;
#X obj 286 482 scale 0 1 0 1;
#X obj 402 482 scale 0 1 0 1;
#X obj 61 504 s 1-set-Vol;
#X obj 157 504 s 1-set-AM_Waveform;
#X obj 286 504 s 1-set-AM_Depth;
#X obj 402 504 s 1-set-AM_Freq;
#X obj 468 337 s 1-set-FM_Osc3;
#X obj 574 337 s 1-set-FM_Osc4;
#X obj 362 337 s 1-set-FM_Osc2;
#X obj 256 337 s 1-set-FM_Osc1;
#X connect 1 0 35 0;
#X connect 1 1 36 0;
#X connect 2 0 3 0;
#X connect 4 0 2 0;
#X connect 4 0 5 0;
#X connect 4 0 7 0;
#X connect 4 0 8 0;
#X connect 4 0 9 0;
#X connect 4 0 10 0;
#X connect 4 0 11 0;
#X connect 4 0 12 0;
#X connect 4 0 13 0;
#X connect 4 0 14 0;
#X connect 4 0 15 0;
#X connect 4 0 16 0;
#X connect 4 0 23 0;
#X connect 4 0 24 0;
#X connect 4 0 25 0;
#X connect 4 0 26 0;
#X connect 4 0 27 0;
#X connect 4 0 28 0;
#X connect 4 0 37 0;
#X connect 4 0 38 0;
#X connect 4 0 39 0;
#X connect 4 0 40 0;
#X connect 5 0 6 0;
#X connect 7 0 48 0;
#X connect 8 0 47 0;
#X connect 9 0 45 0;
#X connect 10 0 46 0;
#X connect 11 0 17 0;
#X connect 12 0 18 0;
#X connect 13 0 19 0;
#X connect 14 0 20 0;
#X connect 15 0 21 0;
#X connect 16 0 22 0;
#X connect 23 0 29 0;
#X connect 24 0 30 0;
#X connect 25 0 31 0;
#X connect 26 0 32 0;
#X connect 27 0 33 0;
#X connect 28 0 34 0;
#X connect 35 0 2 3;
#X connect 35 1 5 3;
#X connect 35 2 7 3;
#X connect 35 3 8 3;
#X connect 35 4 9 3;
#X connect 35 5 10 3;
#X connect 35 6 11 3;
#X connect 35 7 12 3;
#X connect 35 8 13 3;
#X connect 35 9 14 3;
#X connect 35 10 15 3;
#X connect 35 11 16 3;
#X connect 35 12 23 3;
#X connect 35 13 24 3;
#X connect 35 14 25 3;
#X connect 35 15 26 3;
#X connect 35 16 27 3;
#X connect 35 17 28 3;
#X connect 35 18 37 3;
#X connect 35 19 38 3;
#X connect 35 20 39 3;
#X connect 35 21 40 3;
#X connect 36 0 2 4;
#X connect 36 1 5 4;
#X connect 36 2 7 4;
#X connect 36 3 8 4;
#X connect 36 4 9 4;
#X connect 36 5 10 4;
#X connect 36 6 11 4;
#X connect 36 7 12 4;
#X connect 36 8 13 4;
#X connect 36 9 14 4;
#X connect 36 10 15 4;
#X connect 36 11 16 4;
#X connect 36 12 23 4;
#X connect 36 13 24 4;
#X connect 36 14 25 4;
#X connect 36 15 26 4;
#X connect 36 16 27 4;
#X connect 36 17 28 4;
#X connect 36 18 37 4;
#X connect 36 19 38 4;
#X connect 36 20 39 4;
#X connect 36 21 40 4;
#X connect 37 0 41 0;
#X connect 38 0 42 0;
#X connect 39 0 43 0;
#X connect 40 0 44 0;
#X restore 502 37 pd pst-routing-Osc_1;
#X obj 190 98 t b b;
#X obj 231 98 t b b;
#X msg 306 213 2;
#X msg 276 213 1;
#X obj 190 235 prepend;
#X obj 43 241 qlist;
#X connect 0 0 4 0;
#X connect 1 0 2 0;
#X connect 2 0 5 0;
#X connect 4 0 24 0;
#X connect 5 0 6 0;
#X connect 5 1 3 0;
#X connect 5 2 7 0;
#X connect 6 0 24 0;
#X connect 7 0 24 0;
#X connect 9 0 11 0;
#X connect 10 0 11 0;
#X connect 11 0 23 0;
#X connect 11 1 9 1;
#X connect 12 0 19 0;
#X connect 13 0 15 0;
#X connect 14 0 11 0;
#X connect 15 0 9 0;
#X connect 15 1 10 0;
#X connect 15 2 14 0;
#X connect 17 0 20 0;
#X connect 19 0 13 0;
#X connect 19 1 22 0;
#X connect 20 0 13 0;
#X connect 20 1 21 0;
#X connect 21 0 23 1;
#X connect 22 0 23 1;
#X connect 23 0 16 0;
#X coords 0 -1 1 1 300 50 1 40 35;
#X restore 7 285 pd store-pst;
#N canvas 0 22 450 300 rambom-seq-trigger 0;
#X obj 132 68 metro 1000;
#X obj 132 112 + 1000;
#X obj 75 142 metro 5000;
#X obj 75 210 + 1000;
#X obj 75 164 t b b;
#X obj 154 188 s play-seq;
#X obj 132 90 random 9000;
#X obj 75 188 random 9000;
#X obj 75 25 inlet;
#X connect 0 0 6 0;
#X connect 1 0 2 1;
#X connect 2 0 4 0;
#X connect 3 0 0 1;
#X connect 4 0 7 0;
#X connect 4 1 5 0;
#X connect 6 0 1 0;
#X connect 7 0 3 0;
#X connect 8 0 2 0;
#X connect 8 0 0 0;
#X restore 871 36 pd rambom-seq-trigger;
#X obj 6 359 FM_Osc 1;
#X obj 6 491 FM_Osc 3;
#X obj 616 359 FM_Osc 2;
#X obj 616 491 FM_Osc 4;
#X connect 0 0 20 0;
#X connect 4 0 3 0;
#X connect 6 0 5 0;
#X connect 6 0 5 1;
#X connect 7 0 5 0;
#X connect 7 0 5 1;
#X connect 8 0 5 0;
#X connect 8 0 5 1;
#X connect 9 0 5 0;
#X connect 9 0 5 1;
#X connect 11 0 12 0;
#X connect 11 0 13 0;
#X connect 11 0 15 0;
#X connect 11 0 14 0;
#X connect 16 0 11 0;
#X connect 23 0 26 0;
