#N canvas 622 202 464 430 10;
#X obj 154 91 + 1;
#X obj 117 91 f;
#X obj 117 119 t f f;
#X msg 144 170 0;
#X floatatom 117 191 5 0 0 0 - - -, f 5;
#X obj 144 144 sel 99;
#X floatatom 97 211 5 0 0 0 - - -, f 5;
#X obj 78 283 / 100;
#X obj 78 62 t b f b;
#X obj 97 231 tabwrite \$0-moyenne;
#X obj 78 258 array sum \$0-moyenne;
#X obj 78 32 inlet;
#X obj 78 313 outlet;
#X obj 197 118 - 1;
#X obj 197 90 f \$1;
#X obj 197 61 loadbang;
#X obj 347 32 inlet;
#X obj 292 156 array define \$0-moyenne;
#X msg 292 132 resize \$1;
#X connect 0 0 1 1;
#X connect 1 0 0 0;
#X connect 1 0 2 0;
#X connect 2 0 4 0;
#X connect 2 1 5 0;
#X connect 3 0 1 1;
#X connect 4 0 9 1;
#X connect 5 0 3 0;
#X connect 6 0 9 0;
#X connect 7 0 12 0;
#X connect 8 0 10 0;
#X connect 8 1 6 0;
#X connect 8 2 1 0;
#X connect 10 0 7 0;
#X connect 11 0 8 0;
#X connect 13 0 5 1;
#X connect 14 0 13 0;
#X connect 14 0 7 1;
#X connect 14 0 18 0;
#X connect 15 0 14 0;
#X connect 16 0 7 1;
#X connect 16 0 13 0;
#X connect 18 0 17 0;
