#N canvas 157 119 841 661 10;
#X obj 49 82 t b f;
#X obj 229 133 + 1;
#X obj 159 156 list;
#X obj 76 156 list;
#X obj 76 315 list split 1;
#X obj 76 254 until;
#X obj 76 284 list append;
#X obj 164 315 bang;
#X obj 76 183 t b l b;
#X obj 76 378 f;
#X obj 110 378 +;
#X obj 76 345 t b f;
#X floatatom 76 435 5 0 0 0 - - -, f 5;
#X msg 202 315 0;
#X obj 49 47 inlet;
#X obj 76 463 outlet;
#X obj 159 230 gate_1;
#X obj 593 72 inlet;
#X obj 192 183 change 0;
#X obj 192 209 tgl 15 0 empty empty empty 17 7 0 10 -262144 -1 -1 1
1;
#X obj 192 258 list split \$1;
#X obj 76 410 / \$1;
#X obj 332 139 + 1;
#X obj 192 156 >=;
#X obj 305 32 loadbang;
#X obj 332 110 f \$1;
#X obj 192 133 f;
#X connect 0 0 26 0;
#X connect 0 1 3 0;
#X connect 1 0 26 1;
#X connect 2 0 16 0;
#X connect 3 0 2 0;
#X connect 3 0 8 0;
#X connect 4 0 11 0;
#X connect 4 1 6 1;
#X connect 4 2 7 0;
#X connect 5 0 6 0;
#X connect 6 0 4 0;
#X connect 7 0 5 1;
#X connect 8 0 5 0;
#X connect 8 1 6 1;
#X connect 8 2 13 0;
#X connect 9 0 10 1;
#X connect 9 0 21 0;
#X connect 10 0 9 1;
#X connect 11 0 9 0;
#X connect 11 1 10 0;
#X connect 12 0 15 0;
#X connect 13 0 10 1;
#X connect 14 0 0 0;
#X connect 16 0 3 1;
#X connect 16 1 20 0;
#X connect 17 0 20 1;
#X connect 17 0 21 1;
#X connect 17 0 22 0;
#X connect 18 0 19 0;
#X connect 19 0 16 1;
#X connect 20 0 3 1;
#X connect 21 0 12 0;
#X connect 22 0 23 1;
#X connect 23 0 18 0;
#X connect 24 0 25 0;
#X connect 25 0 22 0;
#X connect 26 0 1 0;
#X connect 26 0 23 0;
