#N canvas 1295 618 450 300 10;
#X obj 85 37 inlet;
#X obj 294 40 inlet;
#X obj 85 226 outlet;
#X obj 261 227 outlet;
#X obj 85 122 spigot;
#X obj 261 127 spigot;
#X obj 118 75 * -1;
#X obj 118 100 + 1;
#X obj 197 28 loadbang;
#X msg 197 56 0;
#X connect 0 0 4 0;
#X connect 0 0 5 0;
#X connect 1 0 6 0;
#X connect 1 0 5 1;
#X connect 4 0 2 0;
#X connect 5 0 3 0;
#X connect 6 0 7 0;
#X connect 7 0 4 1;
#X connect 8 0 9 0;
#X connect 9 0 5 1;
#X connect 9 0 6 0;
